<svg xmlns="http://www.w3.org/2000/svg">
<defs>
<font id="VodkaSans-Rough" horiz-adv-x="600" >
  <font-face 
    font-family="Vodka Sans Rough"
    font-weight="400"
    font-stretch="normal"
    units-per-em="1000"
    panose-1="0 0 5 0 0 0 0 0 0 0"
    ascent="850"
    descent="-150"
    x-height="613"
    cap-height="618"
    bbox="-229 -292 1142 899"
    underline-thickness="50"
    underline-position="-200"
    unicode-range="U+0020-2265"
  />
<missing-glyph horiz-adv-x="500" 
d="M404 792q5 -7 5 -11l-1 -5l2 -6q3 -7 0 -14l-3 -6l2 -5q2 -6 2 -13l-1 -5v-3q1 -5 -1 -14l-2 -7l1 -5q2 -12 2 -14q0 -8 -1 -13l-2 -6l1 -2q3 -7 1 -14l-2 -7l2 -5q2 -5 0 -14l-2 -6l1 -2q4 -10 4 -13v-6l-1 -12v-6q0 -6 -2 -14l-2 -6l1 -5q2 -10 1 -13l-1 -5v-12l1 -12
l1 -6q1 -6 1 -13q0 -2 -2 -12l-2 -7l1 -11l2 -11v-4v-13l-1 -6l-1 -13l2 -12l1 -6q2 -9 -1 -13l-3 -5v-13l2 -4q3 -9 1 -14l-3 -6v-12l2 -5q3 -9 3 -13l-1 -7v-5q0 -5 -2 -13l-2 -5v-14l1 -3q3 -9 2 -13l-1 -5l-2 -12l2 -5q2 -6 2 -15q1 -6 -1 -12l-2 -4l2 -14l1 -13v-4
q0 -10 -1 -14l-2 -7v-1q3 -6 1 -14l-2 -7l2 -3q3 -8 2 -15l-2 -7l-2 -24l1 -12l1 -4q2 -10 2 -14v-7v-2q1 -6 1 -14l-1 -8l-3 -11v-11v-7v-12l-1 -4l1 -14l2 -6q2 -8 1 -12l-1 -5l-1 -12l1 -6q2 -12 2 -13l-1 -6v-4q0 -11 -1 -13l-3 -6l2 -6q3 -9 2 -13l-1 -6l1 -3
q2 -9 -1 -14l-3 -7l1 -5q1 -8 -4 -15q-4 -6 -11 -6l-6 1l-17 2l-3 -1q-6 -2 -12 -2l-5 1l-12 2l-4 -1q-7 -2 -13 -1l-7 2h-14l-5 -1q-10 -2 -14 -1l-5 1l-10 1l-9 -1q-5 -1 -13 -1l-6 1h-7h-13l-6 1h-2q-10 -2 -15 -1l-7 1l-9 -1l-13 -2h-6q-9 0 -12 1l-4 2l-9 -2
q-5 -1 -12 -1l-4 1l-5 1q-10 2 -14 5l-1 1q-8 5 -8 10v13l1 17l3 15l-3 12v3q-1 5 1 14l2 6l-1 3q-2 6 -2 15v7l1 13v4v13v6v5v13v6l-1 12v6q0 8 1 12l1 6l-1 3q-2 7 -1 14l1 8v1q-3 7 0 16l2 7l-1 3q-2 6 -2 13v5l-1 4q-1 6 2 14l2 6l-1 15l1 12l-1 5q-2 6 -1 12l1 4l-2 12
v5v14l1 6v27l-1 10v12l1 12l1 14l-1 4q-1 8 0 13l1 6l-1 4q-3 7 -1 15l2 6l-1 12l-1 3q-2 9 1 15l2 6v11l-1 5q-2 7 0 12l1 5l-1 14l-1 3q-2 10 -2 14q-1 5 2 13l2 6l-1 12v6v12v5l-1 15l-1 2q-1 3 -1 14q0 9 1 13l1 7v1q-3 7 -1 14l1 7l-1 4q-1 5 1 15l2 6l-2 10l-1 15

<glyph glyph-name=".notdef" horiz-adv-x="500" 
d="M404 792q5 -7 5 -11l-1 -5l2 -6q3 -7 0 -14l-3 -6l2 -5q2 -6 2 -13l-1 -5v-3q1 -5 -1 -14l-2 -7l1 -5q2 -12 2 -14q0 -8 -1 -13l-2 -6l1 -2q3 -7 1 -14l-2 -7l2 -5q2 -5 0 -14l-2 -6l1 -2q4 -10 4 -13v-6l-1 -12v-6q0 -6 -2 -14l-2 -6l1 -5q2 -10 1 -13l-1 -5v-12l1 -12
l1 -6q1 -6 1 -13q0 -2 -2 -12l-2 -7l1 -11l2 -11v-4v-13l-1 -6l-1 -13l2 -12l1 -6q2 -9 -1 -13l-3 -5v-13l2 -4q3 -9 1 -14l-3 -6v-12l2 -5q3 -9 3 -13l-1 -7v-5q0 -5 -2 -13l-2 -5v-14l1 -3q3 -9 2 -13l-1 -5l-2 -12l2 -5q2 -6 2 -15q1 -6 -1 -12l-2 -4l2 -14l1 -13v-4
q0 -10 -1 -14l-2 -7v-1q3 -6 1 -14l-2 -7l2 -3q3 -8 2 -15l-2 -7l-2 -24l1 -12l1 -4q2 -10 2 -14v-7v-2q1 -6 1 -14l-1 -8l-3 -11v-11v-7v-12l-1 -4l1 -14l2 -6q2 -8 1 -12l-1 -5l-1 -12l1 -6q2 -12 2 -13l-1 -6v-4q0 -11 -1 -13l-3 -6l2 -6q3 -9 2 -13l-1 -6l1 -3
q2 -9 -1 -14l-3 -7l1 -5q1 -8 -4 -15q-4 -6 -11 -6l-6 1l-17 2l-3 -1q-6 -2 -12 -2l-5 1l-12 2l-4 -1q-7 -2 -13 -1l-7 2h-14l-5 -1q-10 -2 -14 -1l-5 1l-10 1l-9 -1q-5 -1 -13 -1l-6 1h-7h-13l-6 1h-2q-10 -2 -15 -1l-7 1l-9 -1l-13 -2h-6q-9 0 -12 1l-4 2l-9 -2
q-5 -1 -12 -1l-4 1l-5 1q-10 2 -14 5l-1 1q-8 5 -8 10v13l1 17l3 15l-3 12v3q-1 5 1 14l2 6l-1 3q-2 6 -2 15v7l1 13v4v13v6v5v13v6l-1 12v6q0 8 1 12l1 6l-1 3q-2 7 -1 14l1 8v1q-3 7 0 16l2 7l-1 3q-2 6 -2 13v5l-1 4q-1 6 2 14l2 6l-1 15l1 12l-1 5q-2 6 -1 12l1 4l-2 12
v5v14l1 6v27l-1 10v12l1 12l1 14l-1 4q-1 8 0 13l1 6l-1 4q-3 7 -1 15l2 6l-1 12l-1 3q-2 9 1 15l2 6v11l-1 5q-2 7 0 12l1 5l-1 14l-1 3q-2 10 -2 14q-1 5 2 13l2 6l-1 12v6v12v5l-1 15l-1 2q-1 3 -1 14q0 9 1 13l1 7v1q-3 7 -1 14l1 7l-1 4q-1 5 1 15l2 6l-2 10l-1 15
l-1 12v11v2q-1 6 2 14l2 6v13l-2 6q-2 10 -2 14q0 7 1 11l1 5v13v5q0 10 1 13l1 5l-2 7v13v5l1 11v18q0 8 4 13q4 6 13 6h8l5 1q5 1 15 1h26l15 -2h24l5 1q5 1 12 1l4 -1h5q9 0 13 -1l6 -1l7 1q8 2 14 0l7 -1l8 1l7 1q8 2 14 0l6 -2l14 1l5 1q7 2 12 0l5 -1l5 1q5 1 13 1
l6 -1h5h15q7 -3 12 -8zM323 732l-13 2l-10 -2l-8 -1q-3 0 -7 0.5t-6 0.5h-5h-7h-13q-7 0 -11 1l-5 1h-4h-13h-6l-15 -1l-4 -1q-6 -1 -11 1l-4 1l-12 -13l1 -12l10 -11h25l7 1q10 2 15 -6t5 -12q-1 -7 -5 -12l-1 -1q-6 -7 -11 -7h-6l-7 1l-12 2l-13 -1l-11 -10l-1 -12l11 -13
h16h3q6 1 13 1l6 -1l7 1q9 2 11 1l4 -1l15 1h8l16 -1l5 1q5 1 13 1l4 -1l9 -1h14l14 10v11l-13 13l-8 1h-16l-10 -1h-3q-8 0 -13 5q-5 6 -4 13q1 6 6 12q3 5 10 7q5 2 11 0l5 -2h9l11 3l14 8l1 13zM254 604h-5q-8 -1 -14 0l-6 1l-5 -1q-10 -2 -13 -2t-11 2l-6 1l-12 -1
l-15 -14v-4v-12l-1 -6l1 -4q0 -2 0.5 -4t1 -3t0.5 -2.5v-2.5q0 -7 -2 -11l-3 -6v-14l5 -9l9 -12l13 1h11l14 -1l12 -2h1q10 2 14 2h2q7 2 12 0l5 -1h12l3 1q5 1 15 1h10q10 0 14 -1l6 -2l9 11l4 14l-16 11l-6 1l-17 -2h-14q-7 0 -12 6q-5 5 -5 12v4v6q0 10 1 13l1 5l-2 13z
M227 562q6 -8 7 -11q1 -4 -5 -12q-7 -7 -12 -5q-7 2 -11 6t-4 11q0 8 3 14t9 6t12 -7zM319 472h-22h-2q-7 -2 -15 0l-8 2h-1q-5 -2 -15 -2h-7h-4q-9 0 -13 1l-7 1h-13l-7 -1l-5 -1q-7 -1 -13 0l-6 1l-17 -12l4 -12l10 -10h2q7 1 13 0l6 -1l6 1q7 1 12 0q6 -2 10 -7
q6 -8 7 -11q2 -6 -4 -13q-6 -8 -13 -6l-7 1l-6 -1q-1 -1 -6 0h-6h-6l-8 1l-10 -13l-3 -9l15 -10l13 -1l10 -2l15 1l14 -1q6 2 14 2l7 -1l14 11l1 12l1 14v1q-1 6 -1 14q0 5 6 11q4 5 10 7t10 2h6h21l13 9l-2 11zM319 412h-6l-16 -10l1 -12l1 -2q3 -7 1 -13l-2 -5v-5
q0 -9 -4 -13q-5 -5 -13 -5h-8l-8 1l-12 -2h-7q-9 0 -13 1l-7 1l-13 -2h-1q-8 -2 -14 0l-7 1l-11 -2l-16 -11v-12l15 -11l2 1q7 3 15 1l8 -1l7 1l9 1q9 0 13 -1l6 -2l9 2l13 1h10l16 -1h2q5 1 15 1l7 -1l9 1l10 12v12l1 13l2 12v12l1 14l-4 13zM321 289l-15 3h-33l-7 -1
q-7 -1 -14 0l-7 1l-15 -13v-21l2 -13l13 -9h8l13 12l6 5q6 6 11 6q4 0 10 -6q5 -9 6 -13t1 -11q-2 -6 -7 -11l-2 -2q-6 -8 -13 -6l-6 1l-9 1l-4 -1q-5 -2 -14 -2h-8l-16 1q-11 2 -15 6l-2 2q-6 6 -6 10q-1 2 1 10l2 6l-2 6q-2 5 0 12l1 5v12l-14 12l-7 -1l-13 -14v-25l2 -9
l1 -14v-4q0 -4 -2 -14l-2 -7l3 -13l8 -13h13l5 1q5 1 15 1h12q9 0 11 -1l3 -2h13l14 1l14 -1l4 1q10 2 11 2l3 -1h5h14l7 -2l14 15l-1 5q-1 7 0 13l1 6l1 12l-1 7v14v6l-1 2q-2 5 0 15l2 6zM318 118l-7 1l-8 -1h-12h-5h-10l-17 1h-3q-9 -2 -13 -1l-6 1h-14l-12 -1h-10h-2
q-9 -2 -14 -1l-7 1l-11 -12l-2 -14v-11l1 -5q2 -12 2 -15v-8l-1 -9v-7q0 -9 -1 -13l-2 -6l12 -14l9 1q5 1 12 1l4 -1h10h7h13l6 -1h13l14 2h1q10 0 14 -1l7 -2l13 2h21l11 12l2 11l2 27l-1 11l-1 4q-3 8 0 15l2 7l-3 12zM295 78q7 -8 6 -12l-2 -5v-3q1 -9 -6 -15l-1 -1
q-7 -6 -12 -4l-5 1h-27l-4 -1q-7 -2 -13 -1l-6 1h-2q-10 0 -15 5t-7 12q-2 10 -2 12q-1 6 5 12q7 5 13 5l7 -1l7 1q10 2 12 2l4 -1l15 1l15 -1q9 1 15 -5zM321 -20l-15 3q-5 -2 -14 -2l-8 1l-12 1h-10l-15 -2l-11 -1q-10 0 -15 1l-8 2l-8 -1l-12 -1l-17 1l-8 -13l1 -10
l9 -11l11 1h13l14 -2q9 0 9 -2t-3 -7l-4 -3l-10 -7l-4 -3q-5 -4 -11 -7l-5 -2l-9 -8l-15 -18l1 -11l11 -9h29l8 -1l13 -2l9 1h26l14 -1l13 2h1q7 1 13 0l6 -1l14 1l8 9v12l-8 12l-14 1h-7l-4 -1q-7 -2 -15 0l-9 1l-10 -1q-5 -1 -13 -1q-7 2 -8 4q-2 3 5 8q1 1 4.5 3t5.5 3
l5 2l9 7l16 11q2 2 13 6l2 1q1 0 14 3l6 1l10 10l2 9z" />
    <glyph glyph-name=".null" horiz-adv-x="0" 
 />
    <glyph glyph-name="nonmarkingreturn" horiz-adv-x="333" 
 />
    <glyph glyph-name="space" unicode=" " horiz-adv-x="160" 
 />
    <glyph glyph-name="exclam" unicode="!" horiz-adv-x="374" 
d="M268 528v-5q0 -4 -2 -14l-2 -6l2 -6q2 -10 1 -13l-2 -5l1 -14v-12l2 -9v-7v-13l-2 -6l1 -5q2 -11 1 -15l-3 -15l1 -15v-12v-1q3 -7 1 -15l-2 -8l1 -3q2 -10 1 -14l-2 -7l-1 -24v-5q0 -4 -2 -14l-1 -6l-1 -2q-2 -7 -6 -13q-3 -4 -8 -9q-2 -3 -10 -7l-6 -4l-11 -4l-3 -1
q-6 -2 -14 -4l-8 -1l-26 1l-18 1q-9 0 -12 3l-4 3l-6 4q-1 1 -5 3t-5 4l-3 4l-6 4q-7 7 -8 11l-2 6l-2 5q-1 3 -1 14l1 20l-1 2q-2 7 -1 15l2 8l-3 16q-1 6 -1 14t1 14l2 7l-2 16q-1 7 0 15l1 7l1 11l-1 4q-1 6 1 14l2 6v4v13v7l-1 5q-1 6 -1 14v8l-1 5q-2 12 -2 14v22
q0 3 2 15l4 15l-1 7q0 9 1 12q1 2 7 10l1 1q5 6 9 9l4 2l13 6l4 2q7 4 13 4h7l14 2h22h7q7 0 11 -2l4 -2l7 -1q8 -2 13 -4q8 -4 11 -7q5 -5 6 -9l1 -4l4 -4q6 -8 6 -11l1 -5l1 -11l1 -13zM280 90l-5 12l-3 11l-7 11l-4 2q-8 6 -10 10l-3 5l-11 7l-20 10l-12 3l-14 1h-27
l-11 -2l-10 -6l-9 -5l-12 -7l-8 -11l-6 -9l-9 -10l-4 -9v-15v-15q0 -6 -2 -14l-1 -5l2 -5q1 -1 2.5 -5.5t2.5 -6.5l1 -6l8 -11l6 -9l9 -7l1 -1q8 -2 14 -5l6 -4l23 -3l26 -1l3 1q8 3 13 3l5 1l11 3l9 4l12 7l9 8l6 8l8 10l5 10v1q2 9 4 13l3 5z" />
    <glyph glyph-name="quotedbl" unicode="&#x22;" horiz-adv-x="500" 
d="M135 441q-4 -3 -12 -5l-6 -1l-4 -2q-9 -3 -13 -1l-4 2l-3 2q-8 5 -10 8q-4 6 -6 11q-1 2 -3 14l-1 6q-1 5 1 14l2 7l-3 10l-2 11l-7 13l-2 3q-3 8 -3 11v4l-8 12l-9 19l-2 6q-1 2 -1.5 4.5t-1.5 4.5t-1 3l-1 5l-1 3q-3 8 -4 12v13q2 10 4 13l3 6l11 19l1 3q3 8 7 12l4 5
l2 2q4 6 11 9l6 3l16 7q5 2 13 4l7 2h3q7 1 13 0h5h3q5 0 13 -2l6 -2l25 -9h1q7 -4 12 -8l5 -6l4 -5l3 -4q5 -6 7 -12l3 -6l3 -3q5 -5 5 -12l1 -5l1 -6q1 -8 0 -15l-3 -16l1 -13v-1q1 -7 -2 -14l-3 -6l-2 -11v-4q-1 -8 -4 -13l-3 -6l-4 -10l-1 -5q-1 -6 -5 -12l-4 -4l-7 -10
l-3 -4q-1 -2 -9 -10l-5 -5l-7 -8l-11 -10l-1 -1q-1 -2 -11 -9zM371 438l-1 -1q-2 -1 -6 -2.5t-6 -2.5q-6 -3 -13 -1q-8 2 -12 5q-7 5 -8 8l-2 5l-1 3q-3 9 -3 15v15l-2 5q-1 3 -1 13v6l-2 4q-3 8 -3 13v7l-2 2q-5 5 -7 12l-2 7l-3 7l-8 15l-6 12q0 2 -1.5 5.5t-1.5 6.5v6
l-1 3q-2 6 -2 13v5v5q0 8 3 14l2 6l4 12q1 4 8 13l5 6l6 7l8 7l9 6l3 3q5 5 12 7q5 2 11 2l6 1l13 1l3 1q5 1 13 1t13 -2l7 -3l23 -8l2 -1q8 -4 11 -8l3 -5l4 -2q9 -5 11 -10q3 -5 4 -11l2 -5l2 -4q3 -5 4 -11l2 -5l1 -5q2 -10 2 -15l-1 -17v-3q-1 -9 -4 -15l-3 -7l-2 -10
l1 -3q2 -9 -1 -13l-3 -5l-5 -13l-4 -11l-3 -9l-2 -5q-2 -6 -9 -11l-5 -4l-2 -6q-1 -4 -7 -11q-2 -3 -9 -8l-4 -3l-11 -10l-1 -1q-2 -2 -6 -4.5t-5 -3.5z" />
    <glyph glyph-name="numbersign" unicode="#" horiz-adv-x="729" 
d="M674 460q6 0 12 -2q1 0 2.5 -1t3.5 -2l4 -2l1 -1q7 -4 10 -11q1 -5 1 -12q0 -1 -2 -11l-5 -17l-1 -3q-2 -9 -6 -13l-5 -4l-9 -7l-3 -3q-1 -1 -14 -6l-7 -2q-5 -2 -14 -2l-27 -1l-15 -13l-1 -2q-1 -5 -7 -13l-5 -6v-3q0 -9 -4 -14l-4 -6l-2 -4q-1 -1 -7 -11l-4 -4l-1 -13
l8 -9l19 -4q12 -2 13 -3l5 -2q5 -2 7 -4q7 -7 9 -11q3 -8 2 -11l-2 -5l-1 -16q0 -7 -3 -13q-2 -6 -7 -9l-4 -4l-11 -10h-1q-8 -6 -13 -6h-7l-1 -1q-11 -4 -14 -5l-7 -1q-10 -2 -13 -1l-5 2l-6 -2q-10 -2 -11 -2h-5l-20 -8v-4q-1 -6 -6 -14l-5 -7l-4 -8l-8 -12l-2 -5
q-4 -10 -6 -12l-4 -5l-1 -3q-1 -6 -5 -14q-3 -7 -7 -11l-5 -4l-5 -12q-2 -7 -9 -12l-5 -4l-11 -6l-4 -1q-8 -5 -11 -5h-4l-12 -1l-14 1l-4 -1q-8 -2 -15 1l-20 6l-4 2l-10 5l-3 2l-4 4q-7 7 -7 12l-1 5l-2 14v13v3q-1 6 2 13l2 6l13 22v2q0 9 2 13q1 4 7 10l4 5l-6 12h-4
h-14h-6l-7 -1q-8 -1 -12 0l-5 1l-11 -2l-15 -11l-9 -8l-6 -12l-2 -4q-3 -9 -6 -12l-4 -5l-6 -14l-1 -1q0 -8 -5 -13l-4 -5l-1 -6q-1 -7 -6 -12l-5 -3l-8 -16q-1 -3 -6 -10l-3 -3l-4 -4q-4 -4 -14 -6l-6 -1q-7 -1 -14 0l-10 1q-7 0 -12 3l-5 3l-5 1q-9 2 -13 5l-5 3l-11 8
l-4 2q-10 7 -11 9q-5 7 -5 10v5l-2 5q-4 10 -4 12v11q0 3 4 13l8 16l5 12l2 7l5 14l-7 7l-13 4l-6 2l-11 4l-4 2q-11 4 -11 7v5l-1 4q-1 5 1 15l2 15v5q0 6 3 12l3 5l4 5q3 5 11 9q2 1 12 5l7 2l11 2q10 2 14 2h7l13 -1l10 3l15 9l11 11l4 11l1 4q2 8 4 13l3 5l6 10l2 3
q4 11 6 13l4 7l-6 12h-10h-7q-8 -1 -8 0l-7 1l-3 1q-11 2 -12 3l-4 2l-5 1q-9 3 -11 9q-3 6 -3 11q0 3 2 13l5 16l5 10v2q0 8 4 13l5 4l4 4l12 6q5 2 13 4l17 3q10 0 15 -1h7l11 1h9l15 -1l14 12l5 8l7 9l4 10l5 13l2 4q1 3 8 12l5 5l5 10l3 10q3 7 8 13l5 5l1 2q3 9 8 12
l7 4l4 6q3 4 7 8l3 2l5 2q4 2 12 5q6 2 11 2h6l12 -1l7 -1q9 -2 11 -4l4 -2l17 -7q10 -4 11 -5l3 -3l5 -6q5 -6 6 -10l1 -5l2 -9l1 -6q2 -9 -1 -13l-3 -4v-4q0 -5 -3 -14l-2 -8l-3 -9l-1 -4q-2 -5 -6 -13l-9 -15l4 -10h15h1q5 1 14 1l10 -1l7 1h11l20 10l2 5q2 6 6 12l6 9
l6 10v4q1 5 6 12l4 5l5 11l10 21l3 6q1 3 8 10l5 4l10 7l1 2q5 5 12 7l5 1l17 3h1q7 1 14 -2l5 -2l16 -3q12 -2 13 -3q7 -4 9 -6l4 -4l5 -4q6 -5 9 -9l2 -5l3 -6q3 -9 2 -12l-1 -4v-15l1 -4q1 -6 -2 -14q-3 -6 -6 -11l-4 -6l-6 -18l-2 -14zM317 263l15 -1h1q10 2 15 1l7 -1
q4 1 12 1h7l19 10v2q1 8 6 13l5 4l6 11v3q1 4 5 13l3 5l6 10l5 13l-7 11l-14 -1l-8 -1l-13 -1h-4q-5 0 -13 2l-7 1l-13 -13l-8 -8l-5 -10l-4 -14l-3 -7l-6 -11l-2 -4q-2 -6 -8 -12l-5 -5z" />
    <glyph glyph-name="dollar" unicode="$" 
d="M387 348q8 -3 10 -5l4 -2l6 -3q8 -3 12 -7l4 -5l8 -8l8 -9l3 -3q8 -6 9 -9q5 -9 5 -11l2 -6l3 -4q2 -2 4.5 -6t2.5 -5q2 -3 2 -12v-8l1 -4q2 -6 2 -12v-5l2 -11v-5q1 -7 0 -14l-2 -11q-1 -5 -5 -13l-3 -7q1 -7 -4 -14l-5 -6l-5 -11l-1 -3q-2 -7 -7 -13l-5 -5l-1 -1
q-3 -4 -11 -9l-7 -3l-3 -4q-1 -1 -10 -7l-5 -2l-10 -8l-4 -2q-4 -3 -14 -5l-7 -2l-6 -17l-5 -13l2 -12l1 -7q2 -12 2 -13l-2 -12l-3 -12q-1 -4 -3 -8q-1 -2 -1 -3l-2 -5l-2 -4q-3 -7 -5 -10q-3 -3 -9 -5q-2 -1 -6 -1.5t-6 -0.5l-12 -2q-8 -2 -11 0l-2 1l-14 -1l-16 1
q-6 0 -14 3t-10 5q-5 5 -7 8l-3 5l-3 3q-6 6 -6 15l1 15l2 12l-1 2q-3 7 -1 14l2 5l-14 12l-10 2l-13 1l-4 -1q-8 -2 -13 0l-5 1l-12 -1l-21 1l-13 2l-4 2q-1 0 -6 1.5t-7 3.5q-8 6 -10 8q-4 4 -4 9v5l-2 5q-3 9 -3 14l1 7l3 11v1q0 9 1 15l3 18l1 12v4q1 8 4 13q1 2 7 8
q2 3 9 8l2 1q6 5 9 5q2 1 10 1h17l8 1q9 2 14 -1l5 -2h11l14 -1h10l13 -3l10 4l9 6l4 26l-2 7l-12 10l-9 8l-22 11l-8 5l-15 5l-12 5q-8 3 -12 6l-5 4l-10 10l-4 3q-7 5 -10 10q-5 6 -6 10l-2 4l-4 4q-5 5 -8 13l-3 7l-1 2q-3 7 -3 12v6l-2 4q-3 8 -1 14l1 7l-2 5
q-3 10 -1 13l3 5v13v3q0 9 2 14l3 5l5 14l6 12q2 6 8 12l6 5l1 2q2 4 8 12l5 5l3 4q1 2 11 9l6 4l7 6l2 1q6 4 14 6l7 2l12 3l7 15l2 15v10v4q0 10 1 14l1 6l-2 5q-3 6 -1 14l1 6l2 16q1 8 4 12q2 2 10 5l6 3h1q8 5 14 5h7l23 -1l4 1q8 2 15 0l25 -3q13 -3 14 -3q8 -4 11 -7
t3 -10v-6l4 -18q0 -2 1 -5.5t1 -5.5q0 -6 -2 -12l-3 -9l1 -3q3 -9 3 -14l-1 -6l14 -16l13 -2h5q7 1 15 0l12 -1q7 0 13 -3l6 -3l5 -2q10 -4 12 -7q1 -2 4 -5.5t4 -5.5l4 -7q4 -7 4 -15l1 -7l-1 -22l-2 -14l-1 -4q0 -8 -3 -14l-3 -7v-1q0 -7 -4 -13l-3 -5l-3 -3q-4 -6 -11 -9
q-3 -2 -13 -2l-10 1q-9 0 -14 2l-7 2l-7 1q-10 0 -14 2l-6 3l-10 2l-24 1l-16 -4l-8 -4l-3 -24l8 -9l8 -7l9 -7l16 -6l8 -4l11 -4z" />
    <glyph glyph-name="percent" unicode="%" horiz-adv-x="776" 
d="M156 320l-9 1h-8q-7 0 -13 3l-6 3l-9 3l-7 2q-8 3 -10 6l-2 3l-11 7l-7 4q-4 3 -10 9q-5 5 -6 8l-2 4l-6 7q-4 6 -6 11l-1 5l-10 20l-2 4q-3 8 -4 13l-1 8l-1 2q-3 7 -4 14t0 15l2 15l-1 3q-3 7 -1 15l2 7l5 11l1 4q2 6 6 12l4 4l1 5q1 6 3 12q4 6 9 10l6 5l7 9l2 2
q7 10 9 11q7 5 10 7l5 2l1 2q5 6 11 8l5 1l16 6l12 4l8 1l4 2q8 3 14 3l10 1q4 0 14 -2l8 -2l11 -1l15 -2l1 -1q9 -2 13 -5l6 -4l8 -6l12 -7l5 -4q7 -5 9 -8l3 -5l5 -4q6 -5 9 -9q4 -6 6 -10q5 -9 5 -11l1 -6l2 -3q4 -7 4 -14v-7l3 -6q3 -7 4 -13q0 -7 -1 -11l-1 -6l-1 -22
v-6v-14l-1 -6l-3 -11l-4 -13l-2 -6q-4 -10 -5 -12l-3 -6l-5 -7l-6 -13l-1 -2q-3 -8 -9 -13l-13 -10l-2 -2q-4 -4 -13 -7l-9 -3v-1q-4 -4 -13 -7l-7 -2l-3 -1q-6 -2 -14 -2h-6l-3 -2q-9 -3 -16 -2zM231 3q-7 1 -12 6l-4 4l-4 1q-6 3 -10 8l-4 5l-3 2q-7 7 -9 11l-2 5l-4 5
q-5 5 -5 12v5v11v13v5q0 7 3 13l4 6l6 16q3 9 6 12l5 4v4q1 7 4 13l3 7l2 3q2 5 6 11l3 4l9 12l1 1q2 10 5 14l5 6l3 12l3 9l5 11l3 5l9 12l4 5l5 9l1 5q1 3 7 13l4 6l1 3q1 5 6 12l4 6q0 7 5 14l5 7l7 10l1 2q1 4 6 13l5 6l4 7l4 14l1 2q2 6 8 12l6 6v3q2 10 5 12l4 3l8 12
l6 10l5 9l2 6l2 4t2 4.5t2 3.5l4 6q1 6 7 14l5 6l7 7l4 12l1 3q3 9 6 13l5 5l7 13q1 2 4 5.5t4 4.5l3 4l12 11l10 12q5 5 13 8l7 3q2 1 4.5 1.5t5.5 1t5 0.5l7 1l6 1q8 2 12 0l5 -2l17 -5q11 -5 12 -5l4 -3l12 -7q4 -2 12 -8l5 -5l7 -8l3 -4q2 -3 3.5 -7.5t2.5 -5.5
q4 -10 4 -12v-7l1 -2q1 -7 0 -14q-2 -12 -3 -14l-3 -6l-1 -4q-1 -3 -5 -12l-3 -4l-12 -23l-6 -10v-1q-1 -3 -3 -6.5t-3 -4.5l-3 -4l-6 -11l-9 -12v-2q-1 -7 -6 -12l-5 -4l-7 -13l-4 -7l-3 -7q-3 -7 -7 -11l-4 -4v-4q-1 -6 -5 -12l-4 -4l-7 -12l-1 -4q-1 -4 -6 -11l-4 -5
l-7 -13l-6 -9l-8 -13l-1 -1l-6 -12l-3 -6l-3 -6q-2 -8 -6 -11l-4 -5l-1 -2q-2 -5 -7 -12l-4 -6l-6 -13q-2 -9 -7 -14l-6 -5l-5 -11v-4q-1 -6 -5 -14l-3 -6l-5 -9l-3 -5q-1 -4 -7 -11l-4 -4l-8 -12l-6 -11v-3q-2 -10 -5 -14l-4 -6l-9 -11l-6 -13l-2 -4t-2 -4.5t-2 -3.5
q-1 -2 -8 -9l-5 -4l-10 -7l-6 -3q-6 -4 -14 -6l-8 -1h-8l-7 -2q-8 -2 -13 0l-4 2zM181 430l8 4l6 10l6 11l5 11l-1 22l-4 12l-7 11l-14 8l-22 -1l-12 -8l-10 -8v-5q0 -2 -2 -14l-4 -20l2 -2q7 -7 7 -11v-5l10 -11l6 -3zM604 0q-9 0 -14 1t-11 3l-5 2l-12 3l-13 5l-4 1
q-8 3 -10 5l-3 3l-6 4q-8 6 -10 8q-7 4 -10 9q-5 4 -7 10l-2 4l-2 3q-1 1 -4 4.5t-4 5.5l-3 5l-7 13l-4 5q-5 6 -6 10l-1 4l-2 12l-1 5q-1 6 -1 13v7l-2 17q-2 8 0 13l2 5l4 12v5q0 1 3 13l2 6l1 2q2 8 6 14l5 6l5 10l1 2q2 6 9 11l6 4l4 4q3 4 9 10l5 4l20 12l4 3l12 6l5 2
l6 1q7 3 11 3h4l4 2q8 3 15 3h20h2q10 0 15 -1l8 -2l9 -4l5 -1q6 -1 12 -5l5 -3l3 -1q9 -3 13 -7l6 -5l7 -7l3 -3q7 -9 8 -11l4 -5l5 -5q6 -6 7 -9l2 -4l4 -7q4 -7 4 -13v-6l3 -5q4 -8 5 -13l1 -6l1 -10v-4q1 -6 1 -14v-10q0 -3 -2 -13l-1 -6v-7q0 -9 -1 -13l-2 -5l-3 -11
l-5 -12l-4 -12l-1 -3q-2 -6 -8 -12l-6 -5l-2 -5q-1 -4 -8 -11l-4 -4l-10 -7l-2 -2q-6 -5 -12 -7l-19 -8l-10 -3l-2 -2q-8 -3 -15 -3h-8l-5 -1q-10 -2 -14 -2h-8zM620 113l10 5l9 9v2q0 8 2 12l2 4l1 26l-5 11l-8 10l-13 9h-20l-11 -7l-9 -12l-7 -13v-22l2 -11l8 -11l7 -8
l12 -4h20z" />
    <glyph glyph-name="ampersand" unicode="&#x26;" 
d="M477 203l-1 -11v-10v-23l1 -12l1 -6q2 -8 -2 -15l-3 -6l-1 -4q0 -10 -1 -13l-2 -4l-1 -7q-1 -8 -5 -13l-4 -6l-1 -4q-1 -4 -6 -11l-3 -5l-8 -8l-8 -10l-8 -8l-10 -9l-3 -3l-12 -9h-1q-12 -5 -13 -5l-6 -1l-4 -3q-2 -2 -12 -5q-2 -1 -12 -3h-7l-8 -1l-11 -2l-15 -2l-14 -1
h-16q-5 0 -13 2l-6 1l-4 -1q-8 -2 -11 0l-4 1l-13 5l-10 3l-12 5l-6 1q-8 2 -13 4q-6 2 -13 7l-12 9l-10 6l-6 3q-9 7 -10 8l-3 4l-10 12l-5 8l-8 11l-2 2q-6 6 -7 11l-2 6l-3 4q-4 7 -4 13v7l-6 13l-2 3q-3 6 -1 14l1 6l-2 13l-1 3q-3 10 -1 14l3 5l-2 6q-2 11 -1 15l2 11
q0 3 3 13q1 4 5 10l3 4v3q0 7 5 14l4 5l7 11l8 9l3 6q1 2 4 5.5t3 4.5l3 4v17l-3 11l-9 12l-1 2q-5 6 -6 12l-2 7l-3 9l-4 7q-4 10 -4 12l-1 5l-2 6q-3 7 -4 13q-1 5 -1 12v6v13l-2 5q-3 6 -1 14l2 6l1 16q0 7 3 13l3 5l5 12l2 4q2 8 4 13l3 5l3 6q3 5 10 10l6 4v3q4 9 9 13
l7 4l17 17l3 2q3 3 12 7l6 2l2 1q7 6 13 8l7 2l2 1q5 2 13 4q5 1 14 1l9 -1q7 3 14 3h7h27h3q9 0 14 -1l9 -1l11 -2h5q13 -3 14 -3l7 -2l4 -1q13 -3 14 -3q8 -4 10 -6l5 -4l3 -1q7 -3 12 -8l5 -5l1 -1q7 -7 9 -13l3 -8q3 -8 3 -12l1 -5v-1q2 -9 -2 -14l-4 -6l-4 -11v-3
q0 -5 -4 -13q-2 -4 -8 -12l-11 -11l-1 -2q-1 -2 -11 -9q-6 -4 -9 -2l-4 1h-6q-9 0 -14 2l-18 7l-7 1l-10 1l-12 -3l-14 -5l-14 -13l-7 -9l-5 -10l-1 -14l2 -21l12 -11l7 -5l15 -5h15q9 0 14 -1l8 -2h9l16 2h4q3 0 7.5 0.5t5.5 0.5l5 -1l14 1h9l14 -2h1q9 2 13 1l6 -1h17
l13 1l11 1h2q9 0 14 -1l12 -2q9 -2 12 -4q4 -1 10 -7l5 -4l3 -3q6 -8 5 -16l-3 -18l1 -11l1 -8q1 -8 0 -12l-1 -6l1 -19q0 -6 -4 -14q-3 -6 -8 -9l-5 -4l-5 -3q-7 -4 -15 -4h-16l-4 -9l-4 -10zM316 137l13 3l8 12l7 10l6 28l-7 26l-7 10l-16 7l-22 -1l-9 -1l-12 -6l-8 -10
q-1 -3 -9 -10l-5 -4l-5 -15v-14l9 -21l10 -7l9 -6l13 -2h11z" />
    <glyph glyph-name="quotesingle" unicode="'" horiz-adv-x="250" 
d="M129 439l-2 -1q-7 -5 -14 -5q-7 -1 -12 0q-1 0 -2.5 0.5l-3 1t-3.5 1.5q-6 2 -8 8q-4 8 -5 12q-2 8 -2 13l-1 14l-1 4q-2 6 -2 13v6l-3 5q-3 6 -3 12l1 4l-4 7l-5 10l-2 4l-3 11l-11 21l-1 2q-5 12 -5 13l-1 6l-1 4q0 2 -1.5 6.5t-1.5 6.5v5v7q-2 8 1 13l3 6l4 14
q3 7 7 11l4 3l3 5q3 3 10 9l5 4l4 3q3 4 11 6l5 2l15 6q7 3 13 4q9 0 12 -1h5h5q10 0 14 -1l6 -2l14 -5q6 -2 12 -7l6 -4l3 -2q8 -3 11 -8l2 -5l4 -3q7 -7 9 -11q3 -7 3 -10l1 -4l2 -13l1 -4q3 -8 2 -15l-3 -15l1 -4q2 -10 1 -14l-1 -6v-6q-1 -7 -6 -13l-4 -5l1 -3
q2 -8 -1 -14q-4 -8 -7 -11l-4 -5v-5q-1 -8 -6 -13l-5 -4l-5 -9l-2 -3q-8 -10 -10 -12l-5 -5v-1q-3 -8 -10 -11l-6 -3l-5 -4q-2 -2 -5.5 -5t-5.5 -4z" />
    <glyph glyph-name="parenleft" unicode="(" horiz-adv-x="344" 
d="M21 317l-1 13l-1 14v10v13l1 10l1 7q2 12 3 13l3 5l-1 3q-1 8 2 15l4 6v4q-1 7 2 14l3 6v9v5q0 3 3 12q1 3 4 11l3 6l3 11l1 7q1 6 5 12l2 4l9 11v4q0 6 5 14l5 6l1 5q2 9 4 12l3 5l1 2q0 1 5 13q1 4 7 11l5 6l6 9l6 9l2 5q3 9 7 13l4 5l7 9l1 2q2 5 9 12l7 6l11 17l2 4
q3 4 11 10l7 5l4 1q6 3 12 5l6 1l5 1q8 3 12 3l5 -1l9 -1l5 -1q9 -2 13 -5l6 -4l9 -7l15 -15l7 -4q10 -7 11 -9l10 -11l3 -4q1 -1 3 -4.5t3 -5.5l1 -5l5 -6q4 -7 4 -12v-6l-1 -4q0 -6 -4 -14l-3 -5q0 -7 -6 -13l-5 -5l-1 -4q-1 -6 -7 -12l-5 -4l-4 -12l-7 -12l-9 -12l-6 -7
l-1 -2q-2 -7 -7 -13l-4 -5l-2 -5q-3 -9 -6 -12l-4 -6v-1q-2 -10 -5 -14l-4 -7l-5 -10v-1q1 -8 -3 -15l-4 -5v-5q0 -6 -4 -14l-4 -5v-15l-1 -5q0 -7 -3 -13l-2 -5v-3q1 -7 0 -15l-1 -7l1 -10v-7q1 -7 0 -15l-3 -15l1 -6q1 -7 0 -13l-1 -6l2 -6q3 -9 2 -13l-1 -6l2 -13l1 -11
l4 -13l2 -12l5 -11l5 -14l3 -9l3 -12l4 -6q5 -6 6 -12q3 -7 3 -11l1 -4l7 -13l6 -9l5 -6q6 -8 7 -11l2 -4l13 -20l7 -8l5 -4q6 -6 7 -11l2 -6l4 -5q7 -9 7 -10l1 -5l3 -11l1 -4q2 -9 -1 -14l-2 -5v-2q-1 -7 -6 -13l-4 -5l-4 -5q-1 -2 -2.5 -4t-3.5 -4.5t-3 -3.5l-3 -3
q-1 -2 -11 -9l-6 -5l-12 -11q-2 -1 -5 -4l-4 -4l-4 -3l-11 -5l-4 -3q-7 -4 -12 -4l-5 -1l-4 1q-9 0 -13 1q-8 2 -12 4l-6 3l-2 1q-8 2 -12 7l-3 5l-5 3q-8 6 -11 10l-8 11l-4 4q-8 6 -10 10l-4 6l-6 10l-5 11l-4 2q-8 6 -9 11l-2 7l-8 10l-2 3q-2 2 -5 12l-1 5l-6 8l-5 7
q-3 5 -5 11l-1 4l-4 6q-4 6 -6 12l-1 5l-2 4q-4 5 -6 13l-1 6l-3 10l-4 11l-2 12l-2 5q-2 5 -4 13l-1 6l-2 12l-4 8l-2 6q-3 7 -3 13v7v12l-1 3q-5 8 -4 13l1 6l-2 7l-2 12l1 6l-2 12l-1 3q-1 6 1 14l2 5z" />
    <glyph glyph-name="parenright" unicode=")" horiz-adv-x="345" 
d="M323 295l-1 -11l1 -7q2 -10 1 -14q0 -2 -2 -10l-2 -5v-4q0 -8 -1 -14l-1 -8l-1 -9v-4q0 -4 -2 -14l-2 -6l-2 -13l-2 -10v-3q0 -9 -2 -15l-3 -7l-4 -10l-5 -11l-1 -4q0 -7 -4 -13l-3 -6v-4q0 -6 -4 -14l-3 -6l-7 -11v-1q0 -8 -3 -14l-4 -5l-4 -10l-7 -10l-2 -5
q-1 -3 -8 -12l-5 -5l-1 -3q-1 -4 -7 -11l-4 -4l-6 -10l-5 -10l-7 -11l-7 -9l-27 -30l-1 -1q-3 -4 -11 -10l-7 -5q-6 -5 -11 -6q-8 -2 -11 -2h-5l-4 -1q-10 -2 -14 -1l-6 1l-7 2q-4 1 -11 6l-5 3l-4 2q-8 3 -13 8l-11 10l-4 3q-7 7 -10 11l-14 16q-7 9 -7 10l-2 5l-3 5
q-3 5 -3 12l2 10l1 6v3q0 10 4 14l4 5l6 10l2 5q3 7 6 12l4 5l1 2l9 12l11 12l1 3q2 5 8 13l5 6l1 3q2 6 8 12l5 5l1 5q2 12 3 13l4 5l7 9l1 7q1 5 4 13l3 5l-1 4q0 7 4 13l3 5l1 6q0 9 1 13l1 5l4 13l1 14v4q-1 6 2 14l3 6l-1 3q-2 6 -2 15l1 8l3 21l-3 14v11l1 14l-3 6
q-4 10 -3 13l1 6l-2 12l-2 4q-4 10 -4 13v6l-2 12l-4 6q-4 7 -4 12v5l-8 12l-2 3q-5 7 -5 13v6l-7 11l-2 3q-4 5 -7 13l-2 7l-6 7l-7 12l-12 19l-6 11l-3 4q-7 10 -8 11l-4 6l-4 7l-3 5q-3 4 -7 12q-2 5 -2 13l-1 6v2q0 5 4 13l3 5l3 5q3 4 7 10l3 3l17 19l6 6l11 11
q0 1 13 8l7 4l4 3q5 5 12 7l6 1q8 3 13 3q9 0 13 -1q10 -3 13 -4q8 -4 10 -7l3 -3l11 -7l4 -2q5 -3 11 -11l7 -12l6 -11l5 -4q8 -6 10 -9l3 -5l7 -13l4 -9l8 -12l2 -3q4 -8 5 -11l1 -5l5 -4q6 -6 8 -10q4 -8 4 -12l1 -6l5 -10l3 -5q4 -6 6 -12l1 -5l5 -14l3 -8l4 -12l3 -6
q3 -6 5 -12l1 -5l3 -5q3 -7 3 -12v-5l3 -5q4 -6 5 -14v-7l3 -9l3 -14l1 -5q1 -6 1 -13v-6l1 -4q3 -7 1 -12l-2 -5l2 -13l2 -6q2 -9 1 -13l-1 -4v-7v-14z" />
    <glyph glyph-name="asterisk" unicode="*" horiz-adv-x="511" 
d="M422 499q9 -5 10 -8l2 -4l4 -4q6 -7 8 -11q1 -3 -1 -10l-2 -5v-2q-1 -6 -6 -14l-11 -14l-3 -4q-1 -2 -2.5 -3.5t-3 -2.5t-2.5 -2q-3 -2 -10 -3l-6 -1h-2q-9 -1 -16 3l-12 7l-8 2q-9 3 -13 5l-14 7l-4 2q-8 3 -13 7l-5 4l-13 -7l1 -5q2 -7 1 -14l-1 -6l-1 -12l-1 -9l2 -16
q1 -8 -4 -13l-4 -6l-2 -5q-3 -7 -8 -11l-10 -5q-6 -2 -13 -2h-10h-10l-4 1l-7 2q-7 3 -10 6q-5 5 -6 8q0 1 -1.5 5t-1.5 6v6l-4 25l-2 6q-2 10 -2 13q0 6 1 12l1 9l-11 8l-15 -7h-1q-6 -7 -10 -8l-6 -1l-13 -6l-14 -8q-7 -4 -14 -4h-1h-11q-6 2 -10 4l-5 4l-6 4q-6 4 -10 13
l-4 11l-3 9l-2 4q-3 10 0 13l3 4v2q1 7 9 13l22 17l3 2q6 4 11 7l6 3l15 6l-2 12l-7 2q-6 2 -12 5l-6 4l-8 6l-15 8q-7 4 -9 11l-3 6l-4 5q-5 6 -6 13v12q0 5 5 12l10 15l7 9l1 1q4 5 12 7q6 2 12 0l6 -1l20 -7l5 -2l12 -6l5 -4l5 -1q9 -3 13 -5l5 -2l10 -5l8 7v1q0 6 3 14
l3 7l-1 12l-1 3q-2 11 -1 15l1 7q1 4 5 13q2 3 8 9l4 4l1 1q4 6 12 8l8 1l13 1q9 0 13 -3l5 -3l6 -3q9 -4 10 -9l2 -6l5 -5q6 -7 6 -14v-10v-13l-1 -6l3 -15l1 -12l7 -8l16 7l12 4v1q5 4 13 7l9 4l3 1q6 5 12 7l8 3q7 3 12 3q8 0 13 -2l8 -4q9 -4 10 -6l5 -10l8 -17l1 -4
q3 -10 2 -14l-3 -5l-2 -8q-1 -3 -3 -7l-1 -4q-5 -5 -9 -8l-21 -13q-5 -4 -12 -6l-5 -2l-14 -9l1 -10l13 -7l2 -1q12 -5 13 -6l5 -4z" />
    <glyph glyph-name="plus" unicode="+" 
d="M542 347l1 -11l1 -13l1 -2q1 -7 -2 -16l-3 -7l-2 -9v-4q0 -7 -6 -13l-5 -5l-3 -4q-4 -6 -11 -9q-5 -2 -15 -4l-10 -1h-14l-3 -1q-5 -2 -12 -2h-5h-5q-10 0 -15 1l-8 1l-10 -1h-11l-11 -1l-12 -11l-1 -13l-1 -11l-2 -15l1 -2q3 -7 3 -13q0 -8 -1 -14l-2 -7l1 -15
q0 -6 -2 -12q0 -3 -3 -11q-2 -5 -5 -11l-3 -4l-3 -3q-3 -4 -11 -9h-1q-10 -4 -12 -4l-5 -1l-10 -2h-14h-13h-6l-8 1q-9 0 -12 1l-5 1l-4 1q-3 1 -7 2.5t-6 1.5l-5 2l-6 3q-8 3 -10 8l-2 4l-2 3q-6 8 -7 14l-1 5q-2 12 -2 13v6l2 14l-3 14v11v15l-1 5q-2 8 1 14l2 6l-15 12
l-9 1h-7q-10 0 -14 1l-6 2l-7 -1h-12h-5h-3q-8 -2 -14 0l-6 1l-27 2h-3q-8 -1 -13 2l-5 3l-3 2q-1 1 -4.5 3t-5.5 4q-4 4 -5 8l-1 6l-4 12l-2 5q-4 10 -3 15l2 14l-1 6q-2 12 -2 13q0 5 2 11l2 5l1 7q1 7 4 13l2 5l1 2q1 2 4 5.5t3 4.5q3 4 8 8q4 3 13 5l6 1q6 1 13 0h6
l15 1l20 1l5 1q0 1 7 0h7l16 -1l15 1h9l11 11l3 13l-1 6v13v6l2 11v13l-2 15v11l1 4q0 3 2 15l1 7l1 15q0 8 3 12l3 5l2 3q4 7 10 9l6 1l14 4l25 3h12l15 -1q11 0 15 -2l6 -2l13 -3l5 -2l10 -4q5 -5 8 -9l5 -6l2 -2q8 -8 8 -14v-8v-11l-2 -4l2 -13l1 -10l1 -5q2 -10 1 -14
l-1 -7l-2 -10l1 -6q1 -6 1 -13t-1 -12l-1 -6l13 -10l16 -3q7 3 15 1l8 -1h14q8 1 14 0l7 -1l6 1q7 1 11 0h5l19 -2q10 0 14 -3t7 -9l3 -5l4 -5q6 -7 7 -11v-12z" />
    <glyph glyph-name="comma" unicode="," horiz-adv-x="323" 
d="M167 -125l-4 -2t-4.5 -1.5t-4.5 -1.5l-6 -2l-3 -2q-7 -4 -13 -1l-4 2l-2 1q-9 3 -12 8q-4 4 -7 11q-4 5 -2 13l2 16l-1 5q-2 10 -2 12v5l-2 12l-2 3q-4 8 -5 12l-1 5l-7 13l-4 8l-9 22l-1 3q-5 6 -7 12v1q-3 9 -3 13q0 6 1 11l1 6v2v13q1 7 5 12l9 15l7 11l1 2
q1 2 3.5 5.5t3.5 4.5l4 3l13 9l11 6l12 4h2q10 2 12 2l4 -1l9 2q9 2 12 0l4 -2h8q10 -2 15 -4l8 -4q3 -2 6 -4.5t4 -2.5q2 -1 3 -2.5t2 -2.5l2 -2l3 -4l5 -2q7 -4 10 -8l2 -5l3 -5q5 -7 5 -12l1 -5l2 -5q3 -7 3 -13v-13l-1 -15v-6q0 -4 -2 -12l-2 -6v-5q0 -3 -1.5 -8
t-1.5 -6l-2 -6l-3 -11l-3 -10l-1 -4q-2 -7 -7 -12l-4 -4l-1 -3q-1 -8 -6 -13l-5 -4l-6 -12l-1 -1q-2 -6 -9 -11l-6 -4l-1 -2q-1 -3 -9 -11q-8 -6 -12 -8z" />
    <glyph glyph-name="hyphen" unicode="-" horiz-adv-x="430" 
d="M33 303l2 -13l1 -12l6 -8l10 -9l10 -6l10 -2l13 -4l18 -1h13h20h9q9 0 13 -1l5 -2h11l11 1l4 1q7 1 15 0l7 -1h3q9 2 14 1l16 -1l5 1h13h5h9h12l4 -2h14l4 1h12h5l13 1l22 5l10 5l8 8l7 9l8 12v3l-1 7q0 7 1 7q1 5 4 12l3 6v15l-2 4q-3 8 -3 15l-1 19l-1 4q-4 10 -4 12v6
l-7 9l-14 5l-23 4l-13 -2h-3q-4 0 -14 2l-7 2l-5 -1q-5 -1 -14 -1h-6h-7q-9 0 -13 1l-6 1l-3 -1q-5 -1 -12 -1t-12 1l-8 1l-15 -1h-12q-7 -1 -13 0l-6 1l-16 -1h-3q-10 -2 -14 -2h-8h-10l-25 -1h-12l-23 -6l-13 -5l-9 -6l-7 -11l-2 -10v-4q0 -4 -2 -14l-2 -7l-2 -13l2 -5
q2 -6 2 -15z" />
    <glyph glyph-name="period" unicode="." horiz-adv-x="410" 
d="M300 118l-4 13l-5 12l-3 11l-6 11l-3 8l-9 11l-10 7l-12 8l-11 9l-8 3l-15 5q-8 2 -13 4l-6 2h-26l-14 -3l-11 -5l-13 -3l-1 -1q-6 -6 -13 -7l-7 -2l-11 -10l-6 -7l-7 -9l-7 -13l-7 -9l-5 -14v-3q0 -9 -2 -14l-3 -6l2 -22v-12l4 -14l5 -12l2 -2q6 -8 7 -13l2 -6l7 -8
l11 -9l11 -8l6 -4l13 -8l6 -1q7 -1 12 -4l5 -2l14 -2l19 2h13l5 -1l25 9l2 2q8 6 11 7l5 3l11 6l6 9l9 10l8 12l4 8l2 5q2 5 6 13l3 6v4q-2 10 -1 15z" />
    <glyph glyph-name="slash" unicode="/" horiz-adv-x="546" 
d="M512 584l-2 -10l-1 -3q-1 -4 -3 -11l-2 -4l-2 -3q-2 -5 -8 -13l-5 -6v-1q-1 -6 -6 -13l-5 -6l-4 -14l-4 -11l-2 -4q-2 -9 -4 -12l-3 -6l-1 -2q-1 -3 -8 -12l-6 -7l-2 -6q-1 -4 -3 -8q-1 -2 -1 -3q-1 -5 -6 -11l-4 -7l-1 -5q-1 -6 -3 -12q0 -1 -7 -10l-5 -5l-6 -11v-3
q0 -6 -5 -14l-5 -8q-1 -6 -6 -14l-5 -7l-4 -9l-3 -7q-4 -10 -5 -12l-3 -4l-1 -5q-1 -6 -3 -12q-4 -6 -7 -10l-6 -6l-2 -12l-1 -3q-3 -9 -6 -13l-4 -5l-8 -10v-6q0 -6 -4 -12l-3 -4l-2 -7q-3 -9 -6 -12l-4 -5l-6 -11l-3 -12l-1 -2q-3 -11 -6 -13l-4 -4l-2 -6q-2 -5 -6 -11
l-3 -4l-6 -13v-5q-1 -7 -4 -11l-3 -4l-8 -13v-3q-1 -6 -5 -12l-3 -5l-2 -6q-1 -5 -5 -13l-3 -5l-7 -9l-6 -10l-1 -6q0 -8 -3 -13l-2 -5l-8 -10l-6 -12l-3 -12l-4 -9l-5 -10l-7 -10l-5 -15q-1 -4 -8 -13l-6 -7q-2 -4 -8 -10q-2 -2 -13 -6h-1q-10 -4 -11 -4h-5l-14 1h-3
q-10 0 -15 1h-2q-5 1 -11 4l-3 3l-16 4q-9 3 -13 6l-7 5l-4 2q-8 6 -10 8l-4 3l-4 2q-9 5 -10 11l-2 6l-3 4q-4 6 -6 11q-1 5 0 12l3 7l-2 3q-2 5 0 14t5 13l4 7l9 19l1 4l2 8q1 3 1 4q1 5 6 12l5 7l5 12v1q2 8 4 13l3 6l4 10l2 6q2 5 6 11l4 5l7 13l3 12l1 4q1 4 6 11l4 5
l7 13l5 9v2q0 4 4 14v1q0 1 7 11l3 4l7 13v2q1 6 5 12l3 5l6 13v4q1 7 6 13l4 6v2q2 8 6 14l4 5l5 9l1 5q0 6 3 12l3 4l3 7q0 1 7 11l4 4l4 14l4 9l2 5q1 8 4 12q1 2 3 5.5t3 5.5l4 5l7 10l1 5q1 9 3 12l3 6l6 12l2 4q3 7 7 11l4 3l6 11l1 6q2 9 4 12l3 4l1 7q1 3 5 12l2 6
l4 8l11 14l4 7l5 13l5 9l6 11l1 5q0 7 4 14l4 6l6 8l1 5q1 6 4 12l3 4l7 12l1 5q1 6 3 12l2 4l14 23l2 3q2 6 7 12l4 6l1 1q6 8 8 10l5 4l2 1q7 5 12 8q5 2 13 4l15 1h5q7 0 15 -3l35 -14l23 -13l2 -1q7 -3 11 -7l5 -4l3 -3q8 -7 10 -11l2 -6l1 -1q6 -6 5 -14l-1 -7v-11v-4
q1 -8 -2 -13l-4 -6v-4q-1 -6 -5 -12l-3 -5z" />
    <glyph glyph-name="zero" unicode="0" horiz-adv-x="643" 
d="M335 -24l7 2q9 3 14 3h6l3 1q5 2 15 2l7 -1l3 2q4 3 13 5l6 2l13 4l8 3l13 4l9 6l9 4l10 8l11 7l4 2q5 4 12 8l8 4l9 6l10 7l8 12l1 1q3 6 10 12l6 4l4 7l3 5q3 5 10 10l6 4l5 12l6 8l7 11l1 3q1 4 5 13l3 6l4 10l6 13l3 10l4 14v1q1 7 4 14l2 7v3q0 2 2 14q1 6 3 12l3 5
l-2 8q-1 6 -1 12v5l1 24l-1 7q0 9 1 13l2 6l-2 3q-3 6 -3 13l1 6l-3 12l-2 8q-2 10 -2 12v4l-3 5q-1 2 -4 12l-1 7l-3 10l-5 14l-2 3q-1 2 -4 5.5t-4 6.5l-4 8l-1 2l-6 12l-2 6l-5 5q-6 6 -7 11l-2 5l-5 10l-3 2q-2 1 -9 11l-4 6l-11 8l-8 8l-9 6l-10 8l-10 9l-9 6l-9 6
l-7 3q-8 3 -12 7l-5 4l-7 5l-15 5l-12 3l-6 3l-14 5h-2q-9 2 -14 4l-7 2l-13 1l-11 1l-14 1l-14 1l-24 -1q-1 0 -6 -1.5t-8 -1.5l-9 -1l-11 -2l-9 -2l-17 -3l-5 -1q-6 -2 -12 -2h-5l-8 -5l-7 -4q-5 -2 -13 -4l-7 -1l-11 -8l-6 -5l-11 -7l-13 -7l-10 -6l-10 -7l-9 -9l-2 -2
q-5 -8 -8 -11l-5 -5l-8 -9l-1 -1q-4 -7 -9 -10l-6 -4l-9 -13v-1q-1 -3 -6 -13l-4 -5l-9 -10v-4q0 -7 -5 -14l-5 -5l-4 -11l-5 -10l-2 -10l-5 -14v-5q0 -6 -3 -12l-3 -5l-2 -11v-13v-4q0 -4 -2 -14l-1 -6l-2 -12l3 -18q1 -7 0 -14l-1 -7l1 -3q2 -8 0 -14l-2 -5l2 -4
q5 -8 5 -13v-7l1 -12l4 -11l1 -5q2 -12 2 -13l-1 -5l4 -5q5 -7 5 -12v-6l5 -10l3 -5q5 -9 6 -12l2 -7l7 -10l3 -3q4 -5 6 -12l1 -5l8 -8l5 -5q6 -6 7 -9l1 -4l10 -10l10 -8l4 -4q4 -4 8 -10l3 -4l17 -11q2 -2 5.5 -3.5t4.5 -2.5l3 -3l10 -6l11 -6l10 -4l13 -5l10 -4l6 -2
q5 -2 11 -5l4 -2l13 -3l14 -3h4q9 0 12 -1l5 -1l15 -4h10h7q7 1 14 0zM340 435l12 -2h2q8 -2 14 -4h1q8 -3 10 -5l2 -3l10 -10l4 -3q1 -1 5 -3.5t6 -4.5q4 -3 6 -9l1 -6l6 -11l6 -13l2 -9l3 -13l1 -4v-12l-1 -6l2 -17q1 -4 -1 -15l-1 -8l-3 -9l-1 -15v-1q-2 -11 -5 -15
l-5 -7l-2 -5q-1 -2 -6 -10l-3 -4l-3 -5q-2 -3 -9 -10l-5 -4l-11 -10q-6 -5 -13 -6l-7 -2l-6 -2q-7 -3 -13 -3h-14l-8 1q-5 0 -13 2l-6 2l-12 3l-4 1q-8 3 -12 7l-4 5l-12 7l-1 1q-8 6 -9 9l-3 5l-9 12l-1 3q-5 8 -5 13l-1 7l-2 5q-1 3 -2 7.5t-1 5.5l-1 7v2v13l1 6l-1 18v14
l2 7v1q0 8 2 13l2 6l7 12l4 10l1 4q2 9 7 13l6 4l1 3q3 8 9 11l6 2l3 4q4 6 11 9l6 2q4 4 11 6h6l7 3q5 2 15 2z" />
    <glyph glyph-name="one" unicode="1" horiz-adv-x="391" 
d="M305 509v-12v-5v-3q0 -1 0.5 -7t-0.5 -6l-1 -6l-1 -13l1 -4v-14v-6v-4v-15l-1 -7l2 -12v-7v-13l-1 -5v-11l-1 -13v-6v-14v-6l2 -7q3 -9 3 -11v-5l-3 -12l-3 -14v-13v-13l1 -13l2 -5q2 -7 1 -13l-1 -6l1 -13v-9l1 -12v-13l-1 -14l-2 -10v-14l1 -4q1 -8 0 -15l-1 -16v-6
q0 -9 -1 -14l-2.5 -7.5t-1.5 -5.5l-2 -6v-3q-1 -6 -4 -12l-3 -6l-1 -3q-2 -6 -11 -11l-15 -9l-5 -2q-11 -5 -13 -6l-7 -1l-3 -1q-5 -1 -13 -1h-6h-18l-23 2h-4q-6 -1 -12 1l-4 1l-12 2l-13 3l-4 2q-10 4 -12 7l-3 4l-6 7l-4 4q-2 2 -8 11l-2 5l-1 3q-3 8 -2 12l1 6l-2 11
l-2 12l-1 17q-1 6 0 13l2 6l-1 14v11l-2 6q-2 11 -1 14l1 6l1 10l-1 4q-2 10 -2 13v6l2 13l2 12l-2 15v1q-2 10 -1 15l1 7l1 13l1 12l1 10l-2 6q-1 5 -1 13v6v2q0 6 2 14l1 7l-1 4q-3 7 -3 14v1q0 7 1 11l1 5l-1 4q-1 8 1 15l2 8l1 10l-2 4q-3 8 -3 13l1 6v13l-1 14v3
q0 9 1 13l1 5l-1 19q0 10 1 13l2 4l4 13v2q-1 7 0 13l2 6l2 7q1 3 2 7l2 4q2 6 8 9l5 3l9 9v1q3 6 13 10l8 2l10 3l9 1l29 2q7 3 15 3h1q5 0 15 -2l15 -3l12 -3l5 -1q6 -1 12 -5l4 -2l5 -2q8 -4 10 -9l2 -5l6 -11l4 -6q5 -7 5 -12l1 -5l1 -15l1 -5q1 -6 1 -14v-6z" />
    <glyph glyph-name="two" unicode="2" horiz-adv-x="569" 
d="M58 503l1 3q1 3 5 12l2 5l1 2q1 4 9 12l7 6l6 8l1 2q5 8 10 9l5 2l3 4q2 3 10 8q3 3 11 6l7 3l1 1q3 5 10 9q3 3 11 6l9 4q6 2 14 4l8 2l1 1q6 4 13 6l6 1l1 1q7 4 15 4h8l3 1q5 2 11 4h5l12 1l12 -1l15 3h1q5 1 13 -1l5 -1l16 -2l7 -1l14 -2h4q9 0 14 -1q6 -1 13 -4
l16 -5l11 -2l5 -2q8 -3 12 -6l3 -2l12 -7l4 -1q9 -2 13 -6l5 -5l6 -5l6 -2q9 -4 10 -7l2 -4l7 -5q7 -5 8 -10l1 -5l6 -4q7 -5 9 -10l3 -5l1 -2q6 -11 6 -13l4 -15l3 -6q3 -7 2 -14l-1 -6l2 -5q4 -10 3 -14l-1 -6v-4q0 -3 -0.5 -5t-1.5 -4.5t-1 -4.5l-2 -7l-3 -17
q-1 -7 -5 -12l-4 -5l-1 -6q-2 -10 -4 -13q-6 -9 -7 -10l-5 -4l-1 -3q-1 -5 -9 -12l-6 -6l-9 -8v-1q-3 -4 -11 -10l-6 -4l-2 -4q-3 -5 -11 -10l-6 -4l-19 -14l-2 -2q-4 -6 -10 -10l-6 -4l-10 -7l-12 -10l-9 -7l-5 -5q-2 -2 -5.5 -5t-5.5 -4l-15 -9l-7 -10l14 -20l8 -2l24 -4
l10 1l15 -1l13 -1l9 -2l12 1l11 1l21 -1q8 0 12 -3l5 -2l5 -1q9 -3 12 -6q6 -4 8 -8l3 -4l3 -6q4 -7 4 -15v-15v-24l-1 -12l1 -6q2 -11 1 -15l-1 -5q-1 -7 -4 -14l-2 -8l-1 -2q-2 -6 -6 -12l-7 -7q-4 -4 -8 -5l-6 -2l-7 -2q-5 -2 -12 -2l-5 -1l-20 1l-9 -2q-7 -1 -13 0l-6 1
l-12 1l-22 1l-10 -2l-9 -1q-9 0 -11 1l-4 2h-15l-6 -1q-5 -1 -13 1l-6 1l-9 -1l-6 -1q-9 0 -14 1l-7 1l-16 -1h-12l-5 1h-26l-10 -1h-13l-18 -1q-10 0 -14 1l-6 1h-11h-14h-17q-9 0 -13 2q-10 2 -12 4t-5 4t-5 4q-6 6 -8 9l-3 4l-3 6q-4 7 -4 15l-1 15l1 15l-2 12l-2 18
q0 3 2 15l2 8l-1 5q0 4 2 12l2 5l-1 6q0 8 3 14l2 5l2 6q2 7 7 12l4 5l8 9l8 12q4 7 12 10l7 3l4 5q3 5 10 9l5 3l1 1l9 9l4 3l23 17l11 7q4 4 12 8l6 3l10 6l12 9l1 1q4 7 11 10l7 4l5 4l5 4q4 4 10 8l5 3l12 6l20 15l1 2q3 8 9 11l7 2l1 6q1 4 6 11l3 4l-2 6q-1 6 -1 15
l-1 13l-2 9l-12 8l-15 6l-11 -1l-16 -4l-12 -14l-10 -12l-6 -11q-1 -2 -2.5 -4t-3.5 -4.5t-3 -3.5l-4 -5l-7 -6l-9 -6l-2 -2q-3 -5 -11 -7l-5 -1l-25 -6q-6 -3 -15 -3h-8q-8 0 -14 3l-6 3l-5 1q-7 1 -11 5l-4 3l-3 1q-8 3 -11 9l-4 5l-6 7l-5 3q-6 5 -9 13l-6 16l-2 10
l-3 11v7q-1 5 1 15z" />
    <glyph glyph-name="three" unicode="3" horiz-adv-x="539" 
d="M279 631l-14 -1l-11 -1h-13l-11 -1l-8 -2l-12 -1l-15 -3l-9 -3l-13 -3l-2 -1q-5 -3 -14 -5l-9 -1l-2 -2q-1 -1 -10 -7q-1 0 -4.5 -1t-5.5 -2l-5 -2l-15 -6l-1 -1q-4 -7 -9 -10q-3 -2 -11 -6l-7 -2l-15 -14l-8 -12l-8 -12v-11v-11v-9l-1 -13l4 -6q5 -7 6 -12l2 -6l14 -18
l6 -7l9 -8l11 -9l10 -1l14 -3l12 2l9 3l10 5l35 22l10 10l1 1q5 5 13 8l15 5l5 2q8 3 13 3q5 1 13 -1l6 -1l4 -1q9 -2 11 -4q5 -5 7 -10l5 -10q3 -8 3 -14q0 -9 -1 -13q-1 -5 -8 -10l-6 -5l-3 -3q-5 -6 -14 -8l-16 -4l-3 -1q-6 -2 -14 -4l-7 -1l-10 -3l-10 -6l-2 -4
q-2 -5 -7 -12l-5 -5l-5 -11v-9l4 -27l1 -1q3 -8 3 -12l1 -6l9 -12l2 -1q6 -3 11 -8l5 -5l10 -3l10 -1l14 -3l15 -3q5 -1 11 -5l4 -3h3q9 -3 11 -7l3 -4l4 -6q6 -8 5 -12l-1 -5l1 -6q2 -8 -1 -16l-5 -12v-1q-1 -7 -9 -13l-6 -4l-4 -2q-5 -3 -14 -3h-6q-5 -2 -14 -2h-8h-2
q-8 2 -14 4l-19 8l-5 3q-1 1 -4.5 3t-5.5 4l-4 3l-11 10l-21 15h-4q-6 1 -12 5l-4 3l-14 3h-9l-14 1l-4 -2q-6 -5 -11 -7l-6 -2l-8 -6l-6 -9l-15 -23l-5 -11l-1 -3q-1 -9 -4 -14l-4 -6l-1 -13l2 -5q2 -6 2 -14v-6l2 -4q4 -6 6 -12l2 -5l7 -10l4 -3q2 -2 5.5 -4t5.5 -4
l14 -13l24 -11l11 -4l11 -7l8 -3l18 -6q5 -2 11 -5l4 -2l9 -2q9 -2 11 -3l4 -2l11 -1h8q9 0 12 -1l5 -2h15l12 1l20 1l16 -1h9l8 3q5 2 12 2l4 -1l17 7q7 3 13 4l7 1l3 2q2 2 13 6l16 5l5 4q5 4 11 7l6 2l2 3q1 1 3.5 5t4.5 6q3 3 9 7l4 2l13 12l1 3q3 7 7 11l4 4l6 10l1 6
q2 9 4 12l4 5v6q0 4 2 12l1 4l5 13l-1 25l-2 5q-2 6 -2 13v6l-2 13l-1 2q-5 12 -5 13l-1 6l-8 11l-6 11l-2 3q-6 9 -7 11l-2 5l-4 3q-8 6 -10 9l-3 4l-10 7l-12 9l-12 5h-2q-9 4 -9 14q0 8 4 12q2 2 4 3.5t3 2.5l4 3l12 6l2 3q2 4 10 9l5 2l3 5q3 5 8 10l5 5l5 9l9 13l2 12
l1 4q1 7 4 14l3 8l1 11l-2 24l-2 5q-4 10 -4 13v7v9l-6 13l-3 5q-3 4 -5 10l-1 4l-10 11l-4 3q-1 1 -4.5 4t-4.5 5l-3 5l-9 8l-10 8l-9 6l-10 3l-11 5l-14 6l-9 5h-3q-10 0 -15 2l-10 3l-12 2h-2h-14z" />
    <glyph glyph-name="four" unicode="4" horiz-adv-x="570" 
d="M558 161l-2 -12l-1 -5q-3 -9 -10 -11l-6 -2h-1q-1 0 -14 -3l-18 -2l-15 -2l-8 -7l-9 -11l-3 -12l-3 -25l1 -3q2 -7 1 -14l-1 -6v-3q-1 -7 -6 -12l-5 -5l-3 -4q-6 -8 -7 -9l-4 -2l-4 -3q-2 -1 -13 -4h-12h-6l-14 -3l-22 -1h-5q-10 0 -13 1l-5 1h-9h-11h-3l-17 5
q-8 4 -10 6q-5 5 -7 9l-3 7l-2 2q-6 6 -6 13l1 6l-1 3q-1 7 0 15l2 18l-3 9l-10 6l-11 4l-25 1l-16 1l-3 -1q-5 -2 -14 -2h-11q-9 0 -13 1l-6 1l-14 -2h-24h-13q-4 0 -14 2l-7 1l-11 2l-8 1q-12 2 -14 3q-8 3 -10 5l-3 2l-7 2q-9 2 -13 6q-7 7 -8 9l-2 4l-7 8l-5 6
q-5 5 -5 13v7v1q-3 9 -1 15l3 7v5q0 9 3 13l2 5l5 10l11 22l1 3q1 5 5 11l3 4l10 11l5 10l8 11l2 4q2 7 8 11l5 4l1 5q2 7 5 11q4 6 8 9l7 6l2 3q2 6 7 12l4 4l1 3q4 11 6 13v1q6 8 9 11l5 5l1 2q2 5 6 11l3 4l10 13l1 1q2 6 8 12l5 4l4 9l3 7q3 6 8 10l4 3l8 10l1 3
q1 3 8 12l4 5l2 4l2 4t3 4.5t3 4.5l4 6l1 1q1 1 3.5 5t4.5 6l5 4l7 11l7 11l8 13q3 5 11 10l6 3q5 4 12 6l6 1l4 1q10 4 15 4h8l5 1q5 1 11 1h4h16l4 1h13l6 -1l10 -1l14 -2l3 1q5 1 14 1l6 -1l13 -2q9 -2 13 -5q2 -1 5 -4t5 -4q6 -6 7 -10q2 -8 2 -10v-5l1 -4q3 -7 1 -14
l-2 -7l-1 -10l1 -6q1 -6 1 -15l-1 -14l1 -5q0 -2 1.5 -6.5t1.5 -6.5q0 -9 -2 -13l-3 -6l2 -12l1 -5q1 -7 0 -13l-1 -5l2 -12v-2q2 -12 2 -14q0 -4 -2 -12l-2 -5l2 -7q2 -8 1 -15l-2 -14l1 -6q1 -6 -1 -13l-2 -5l2 -4q3 -7 3 -13v-6v-14l5 -12l3 -3q6 -4 8 -9l2 -4l11 -6
l10 -7l19 -2q7 -1 11 -5l2 -4l4 -4q6 -8 6 -12v-6l2 -7q0 -2 0.5 -4.5t1 -4t0.5 -3.5v-6zM230 305l-7 -10l-1 -15l-2 -13l4 -8l29 -4l8 1h25l9 4q7 9 8 10l4 3v15v5q0 3 3 12l2 5l-2 6q-4 9 -1 15l3 6l-1 8q-1 6 -1 13l1 7l-4 11l-6 27l-18 -10l-5 -9l-6 -12l-5 -8l-8 -15
q-2 -4 -8 -10l-5 -5l-1 -2q-4 -11 -6 -14z" />
    <glyph glyph-name="five" unicode="5" horiz-adv-x="530" 
d="M253 443q6 8 8 10q3 5 9 6q4 1 12 1h6l8 1h13l6 -1h6h12l5 -1l12 1h15l12 -3l4 1q10 2 14 2h13l16 4l4 3q2 1 5 4t5 4l5 3l9 6l5 13l4 8l5 13l3 13l4 23l-3 13l-7 11l-5 11l-4 9l-10 8l-12 5l-11 4l-9 1l-27 1h-12q-5 -2 -15 -2h-12q-9 0 -13 1l-6 1h-11l-4 -1
q-2 -1 -12 -1h-5l-16 -1l-23 2l-11 -1h-6h-4.5h-4.5h-3l-5 1l-16 -1q-6 -1 -14 1l-6 1l-8 -1h-24l-16 -3h-9l-14 -5l-3 -2q-2 -2 -7 -4t-6 -2l-6 -2l-1 -3q-3 -7 -9 -12l-7 -5q0 -5 -4 -13l-4 -5l-3 -14l1 -3q0 -9 -1 -13l-2 -6v-14l-3 -25v-12l1 -3q3 -9 3 -14q0 -9 -2 -13
l-3 -5l2 -4q3 -8 2 -13l-1 -6l-1 -12v-6v-14l-2 -19l3 -12l3 -13l1 -11l2 -4q3 -3 6 -12l3 -7l7 -7l10 -6l13 -8l21 -5h13l25 -3h14l12 1h8q6 0 14 -2l6 -2l3 1q7 1 13 0l6 -1l11 -3h4q10 0 14 -2l6 -2l3 -1q9 -4 13 -6q9 -4 11 -9l3 -5l2 -3q5 -11 5 -14q0 -8 -1 -13l-1 -6
l-4 -15q-1 -7 -6 -13q-4 -6 -9 -9q-4 -4 -11 -6l-7 -2l-2 -1q-8 -3 -14 -2l-6 2h-10h-8q-5 0 -13 2l-5 2l-7 1l-12 3l-4 2l-14 4h-4q-8 2 -14 4l-6 3l-20 7l-15 4l-10 2l-6 -1q-5 -1 -12 -1h-5l-11 -5l-10 -3l-3 -4q-5 -6 -10 -9l-5 -3l-9 -8l-7 -9l-6 -11l-6 -22l-4 -14v-9
l1 -5q3 -7 4 -12l1 -6l7 -12l7 -4q4 -3 10 -9l4 -4l7 -6l12 -6l22 -10l3 -2q9 -3 12 -6l5 -4l7 -1q11 -2 12 -3l3 -2l7 -2q9 -2 12 -4l5 -3l12 -3l12 -2h7q10 0 13 -1l4 -2h16l17 1q10 0 14 -1l6 -1l3 1q3 1 13 1h6l7 1q10 2 13 2h6l12 2l1 1q4 4 13 6l7 2l23 5l15 4l7 4
l11 7l13 8l8 6l13 7l7 7l10 8l4 5q4 6 9 10l5 3l4 11l2 5q3 8 7 12l5 4l3 12l5 14l2 10l2 10v7v13v6l3 12v12l1 13l-2 26l-1 2q-3 7 -3 14q-1 4 -1 13l1 6l-3 3q-6 7 -7 11l-1 5l-4 7q-4 10 -4 11v4l-6 6q-7 9 -7 10l-1 4l-14 9l-6 6l-9 8l-8 7l-6 1q-11 2 -12 3l-5 2l-12 4
l-14 5l-11 3l-11 4h-9l-24 3l-15 1h-1q-8 2 -13 4l-5 2h-4q-8 2 -14 6l-1 1q-1 1 -4.5 3t-5.5 4q-5 5 -7 8q-3 5 1 13z" />
    <glyph glyph-name="six" unicode="6" horiz-adv-x="560" 
d="M272 -16h-14h-6q-4 0 -14 2l-7 1l-10 2l-13 3l-8 4l-11 3l-4 1q-2 1 -6.5 2.5t-6.5 2.5l-5 4l-14 6l-10 5l-4 2q-10 4 -11 6l-3 3l-5 4q-8 6 -10 9l-4 5l-8 7l-6 3q-1 1 -3 2t-3.5 2t-2.5 2l-2 2l-3 5l-4 8l-7 6q-5 5 -8 11l-2 5l-6 8l-3 4q-6 8 -7 12l-1 6l-2 10l-4 12
l-4 6q-5 8 -5 11v12v5l-4 13l-1 5q-1 6 -1 15l1 17l1 12v6q0 8 1 13l2 6l6 12v2q0 5 2 15l2 7l1 3q3 8 7 13l4 7l1 4q1 2 8 12l4 5l1 4q1 4 8 13l5 6q1 2 2.5 3.5t4 3.5t3.5 3l7 6q2 4 9 12l6 6l4 8l3 5q1 2 3.5 5.5t4.5 5.5l4 5l8 8l12 12v1q3 8 9 11l5 4l7 10l7 11l8 9
l5 7l3 5q6 8 9 11t10 9l5 5l1 2q1 8 6 12l4 4l11 12l1 1q6 8 8 10l4 5l13 13q3 5 10 9l4 4l3 3q4 4 13 7l7 2l6 2q8 3 12 2l4 -1l5 1q6 1 14 -1l6 -2l18 -9q12 -7 13 -8l14 -11l8 -7l7 -7l3 -3q7 -7 9 -10l2 -5l5 -10l3 -6q3 -8 2 -14q-2 -8 -4 -12l-3 -5l-5 -8l-12 -15
l-10 -15l-7 -9l-2 -4q-6 -8 -8 -10l-4 -4l-12 -18l3 -9l4 -12l8 -5l22 -8l12 -4l3 -1q8 0 13 -4l4 -3l6 -1q8 -2 14 -6l8 -5q2 -1 5.5 -4t5.5 -5l13 -12l5 -3q6 -5 9 -9l3 -4l10 -11l3 -3q5 -5 7 -11l2 -5l3 -3q4 -4 6 -12l2 -7l2 -3q5 -7 6 -13l1 -7l1 -9l1 -13l3 -4
q4 -9 3 -15l-2 -16l-1 -5q0 -3 -2 -13l-1 -6v-4q1 -9 -1 -15l-3 -7v-2q0 -10 -2 -13l-3 -6l-4 -12l-6 -11l-1 -4q-2 -7 -5 -11l-3 -4l-11 -11l-2 -4q-3 -7 -9 -10l-5 -4l-2 -3q-2 -5 -9 -12l-12 -11l-7 -7l-5 -4q-2 -2 -6 -4t-5 -3q-2 -2 -11 -5l-9 -4l-9 -6l-4 -3
q-7 -5 -12 -5l-5 -1l-13 -7l-3 -1q-1 0 -14 -3l-17 -3h-2q-10 -2 -15 -2h-10q-5 -2 -13 -2l-6 -1h-13zM299 157l12 1l2 3q3 4 11 9l7 3l2 4q4 8 6 10l3 3l5 12l2 14l-4 22l-2 13l-6 11l-5 10l-6 9l-12 6l-9 3l-14 4l-23 -3l-11 -2l-7 -3l-9 -7l-13 -11l-12 -14l-2 -8v-12
v-22l1 -4q2 -6 2 -12v-5l6 -11l19 -15l11 -4l10 -5h11z" />
    <glyph glyph-name="seven" unicode="7" horiz-adv-x="510" 
d="M495 523v-6q0 -8 -1 -12l-1 -4l1 -5q1 -5 -1 -15l-2 -7l-2 -8l-1 -7q-1 -8 -6 -14l-7 -10l-5 -10l-1 -1q-1 -5 -5 -11q-1 -2 -7 -10l-5 -5l-2 -5q-1 -8 -4 -12q-4 -6 -7 -10l-4 -6l-9 -10l-4 -10l-2 -6q-4 -10 -7 -13l-6 -4l-6 -11v-3q-1 -6 -5 -12q0 -1 -1 -2.5
t-2.5 -3.5t-2.5 -4l-6 -7l-7 -11l-3 -7l-6 -14l-5 -8l-8 -13l-1 -2q0 -1 -7 -11l-4 -4l-7 -14l-2 -4q-2 -2 -4.5 -5.5t-3.5 -5.5l-4 -4l-7 -11v-1q-1 -5 -5 -13l-4 -6l-7 -9l-2 -3q-2 -6 -7 -12l-6 -8l-6 -9l-1 -2q-2 -9 -7 -12l-6 -4l-1 -5q-1 -7 -6 -13l-5 -5l-12 -17
l-7 -10l-2 -3q-2 -3 -5 -5.5t-4 -4.5l-4 -4l-3 -3q-7 -7 -12 -9l-7 -3l-4 -1q-11 -4 -14 -5l-13 -2l-3 -1q-5 -2 -14 -2h-2q-9 0 -12 2l-5 2l-9 4l-21 10l-6 4q-1 1 -4.5 3t-5.5 4l-3 3l-10 11l-2 4q-3 5 -5 11l-1 5l-2 4q-3 7 -1 14l2 6v6q0 6 2 14l2 5l1 3q1 8 4 12l3 5
l18 22l7 8l5 12l5 10l2 2q5 10 7 12l5 5l6 11l1 1q4 8 8 12l4 5l7 12q6 8 10 11l6 6l1 3q2 6 7 12l4 6l1 4q1 7 5 11l2 4l11 13l7 9l1 4q2 5 5 11l2 3l10 13l7 8v5q1 8 7 13l5 5l5 9l5 11l8 21l4 9v12l2 10l-14 9l-21 2l-18 -1h-12l-4 1h-39l-14 -1h-11l-9 1l-17 1l-12 -1
q-5 0 -15 2l-7 2h-2q-5 1 -13 5q-7 3 -8 9l-2 6l-2 3q-5 7 -6 12q-2 10 -2 11l-1 6l-1 5q-3 9 -3 14v9q0 6 2 14l1 6l3 15v2l2.5 7.5t1.5 5.5q1 4 7 10q8 6 12 8t12 4q4 1 13 1h14l12 -1h16l9 -1h35l12 1l11 1h7q3 0 7 0.5t6 0.5l6 -1l10 -2l10 2l8 1q9 0 12 -1l5 -1h12
l14 -1h2q10 2 15 2l7 -1l12 -1l11 1h1q10 2 15 1l7 -1h13l4 1q7 2 12 0l5 -1h10l12 1l24 -1q11 -2 14 -4l7 -3l3 -2q4 -3 9 -8l3 -3l6 -8q6 -7 7 -11q5 -12 5 -13q1 -7 0 -12l-1 -5z" />
    <glyph glyph-name="eight" unicode="8" horiz-adv-x="570" 
d="M518 159v-3q2 -9 -1 -14l-2 -5v-5q1 -7 0 -13q-1 -3 -5 -12l-4 -6l-6 -10l-2 -4q-2 -5 -8 -11l-4 -3l-6 -10l-1 -1q-3 -6 -8 -11q-6 -6 -10 -9l-6 -3l-2 -3q-3 -4 -13 -8l-7 -2l-11 -6q-6 -4 -14 -6l-9 -2l-12 -6q-8 -5 -14 -5h-9l-10 -2l-5 -2q-5 -2 -13 -2l-5 1l-15 -2
l-10 -1l-5 -1h-15l-17 1h-11l-13 1h-6q-9 0 -13 2l-5 2l-9 1l-7 1q-8 2 -13 4l-5 2l-8 1q-7 1 -10 3l-3 1l-8 3q-5 2 -11 6l-3 4l-4 1q-8 2 -14 6l-6 4l-2 1q-6 4 -10 10l-4 5l-9 7l-10 10v1q-1 1 -4 4.5t-4 5.5l-3 6l-7 11l-3 4q-5 7 -5 12l-1 5l-2 6q-3 7 -3 12l-1 5
l-2 11l-2 12l-1 25v5q0 7 3 13l2 5l4 11l3 10l2 6q2 6 6 12l4 4l2 4q3 8 8 11l5 3l2 3q2 2 4 6t4 6l5 5l1 1q4 6 10 11l6 4l9 6l-4 22h-1q-1 2 -4 5t-4 5l-3 5l-4 3q-7 5 -9 10l-3 6l-5 4q-6 6 -6 12l-1 6l-5 6q-4 6 -6 12q-2 9 -1 13l2 6l-3 4q-3 5 -3 15v18l2 12l1 5
q1 4 5 13l3 5v4q0 9 1 13q0 1 2.5 5t4.5 6l6 6l6 8l6 9l1 2l10 10l5 4l3 4q3 5 11 10l14 8l10 5l9 7l4 2q4 3 14 5l7 1l13 3q4 2 14 4l9 1q9 4 15 3l8 -1l3 1q5 2 12 2l5 1h10l26 -1h4q9 2 13 1l6 -1l12 -2l15 -1h7l17 -4l4 -1q2 0 4.5 -0.5t4 -1t2.5 -0.5l3 -2l7 -1
q7 -1 11 -4l4 -3l16 -6l7 -4l11 -7l12 -8l3 -2q8 -6 10 -9q4 -6 5 -8l2 -4l6 -5q5 -5 8 -11q4 -8 4 -10v-4l3 -4q4 -7 4 -12v-6l3 -14l1 -2q2 -10 2 -14v-6v-26l-1 -12l-1 -10l-2 -5q-1 -3 -2 -7l-2 -4l-2 -4l-2 -5q-2 -4 -8 -11l-5 -5v-2q-1 -8 -8 -14l-6 -5l-8 -6l-1 -2
q-2 -5 -10 -11l-7 -4l-7 -11l3 -17l3 -2l9 -7l3 -3l3 -2q2 -1 4 -2.5t4.5 -3.5t3.5 -3l1 -1l8 -8l3 -4l6 -6q4 -4 6 -11l2 -4l6 -11l2 -6q3 -7 4 -14l2 -8l2 -10v-7q0 -1 0.5 -7t-0.5 -7zM304 370h16l3 2q8 6 12 8l8 4l8 9l6 8l6 14v22l-3 7q-4 8 -5 12l-2 5l-7 11l-7 8
l-10 8l-9 5l-12 1h-30h-1q-5 -3 -14 -5l-7 -2l-11 -6l-11 -5l-3 -11l-4 -12l-3 -9l-2 -25l4 -13l3 -8l5 -11l10 -7l7 -2q3 -1 10 -6l5 -3zM291 128l16 3l8 2l12 6l2 4q3 6 7 10l4 4l6 12l4 9l1 23l-4 11l-6 10l-9 8l-8 5l-12 5l-8 3l-14 1q-3 -1 -11 -1l-6 -1l-13 -2l-7 -2
l-11 -6l-12 -8l-4 -10l-1 -10v-25l1 -9l6 -15l8 -10l9 -7l11 -4l9 -2z" />
    <glyph glyph-name="nine" unicode="9" horiz-adv-x="550" 
d="M282 620l15 1h3q10 0 15 -2l8 -2l16 -2q9 0 13 -3l5 -2l14 -3l10 -3l12 -4l9 -5l13 -6l4 -2q5 -3 11 -7q4 -3 7 -7l4 -4l11 -10l4 -3q5 -3 9 -9l3 -5l4 -2q4 -4 8 -10l3 -5l5 -6q3 -4 7 -10q1 -1 5 -12l3 -7l4 -11l2 -10l6 -17q2 -6 2 -12v-5l3 -14l1 -5v-4v-3.5v-3.5v-3
v-6l-2 -24l1 -9v-4q0 -6 -3 -15l-2 -7l-2 -12l-3 -9l-2 -6q-1 -6 -5 -12l-3 -4l-6 -14v-2q-2 -9 -4 -12q-1 -2 -3.5 -4.5l-4.5 -4.5l-6 -6v-4q-2 -10 -4 -13l-4 -5l-9 -8l-8 -9l-2 -5q-3 -8 -8 -13l-11 -11l-9 -9l-3 -4q-3 -5 -9 -11l-4 -5l-8 -7l-5 -10l-2 -3q-3 -7 -9 -10
l-7 -3l-1 -4q-2 -6 -8 -12l-5 -5l-7 -10h-1q-3 -8 -9 -12l-7 -4l-1 -4q-2 -6 -6 -10l-4 -3l-2 -4q-6 -8 -9 -11l-4 -4l-6 -8l-14 -15q-2 -3 -10 -8l-4 -2l-4 -3q-2 -2 -13 -7l-6 -2l-3 -1q-8 -3 -13 -2l-6 1l-4 1q-7 1 -11 4l-4 3l-8 2q-9 2 -12 4q-9 5 -11 6l-15 12l-4 3
q-6 4 -9 9l-3 4l-6 8l-6 5q-5 5 -8 13q-2 10 -2 12q3 9 4 11l3 7l1 5q1 6 7 14l6 7l17 15l1 3q3 8 7 13l5 5l8 13l7 17l-5 10l-11 6l-15 5q-3 1 -6.5 3t-4.5 2l-4 2l-13 5l-7 2q-9 2 -12 4l-5 2l-13 8l-20 15q-6 4 -10 10l-4 5l-9 9l-5 6l-4.5 4.5t-3.5 4.5l-3 4l-7 13l-2 4
q-3 7 -3 13v5l-3 5q-5 9 -6 12q-3 8 -3 11v6l-1 7v14l2 15l1 11l-1 7q-1 4 1 12l1 4l4 13v3q-1 8 2 15l4 6l2 5q4 11 5 12l3 5v1q0 8 5 13l4 6l4 5q1 1 3.5 5t4.5 6l4 4q2 6 9 11l6 4l3 5q4 5 10 9l5 3l7 7l8 7l4 3q4 3 12 7l6 2l13 4l10 8h1q5 3 13 5l7 1l3 1q10 4 14 4
l8 1l4 1q6 2 14 2l6 1q5 3 14 3l6 -1l6 1q10 2 14 1zM257 455l-14 -6l-1 -1q-1 -1 -10 -7l-5 -3l-8 -10l-4 -8l-1 -5l-2 -4t-2 -4.5t-2 -3.5l-3 -5l2 -24l3 -14l2 -12l11 -9l10 -8l9 -4l13 -4l25 -3l15 2l10 4l2 3q3 4 11 10l5 4l6 9l3 12l5 10l-4 24v11l-8 14l-4 9l-11 8
l-7 5l-12 7l-13 3h-21z" />
    <glyph glyph-name="colon" unicode=":" horiz-adv-x="335" 
d="M271 471l-3 12l-1 4q-1 3 -4 14l-1 6l-5 8l-5 4q-8 7 -10 10l-3 6l-5 5l-6 3q-6 2 -12 7l-6 4l-7 3l-15 3l-11 2h-24l-10 -1l-12 -6l-5 -2q-5 -3 -11 -5l-5 -2l-11 -7l-12 -10l-8 -9l-1 -3q0 -3 -5 -14l-3 -6l-7 -12l1 -3v-15v-18l1 -11l4 -11l3 -11l7 -12l5 -8l10 -8
l5 -5q6 -4 8 -9l2 -3l14 -5l8 -3l15 -4l9 -3h22l14 4l11 1l3 2q4 4 12 8l7 2l6 6l12 8l1 2q5 8 9 11l6 5l4 9l5 13v2q0 2 2 14l1 7zM269 132l-3 14v2q-2 12 -2 13v5l-9 11l-2 2q-7 10 -8 11l-3 5l-9 7l-13 7l-8 4l-10 6l-15 5q-8 -2 -14 -1l-18 2l-11 -2l-10 -3l-10 -5
l-12 -6l-8 -5l-10 -8l-10 -11l-8 -10q0 -8 -4 -13l-4 -7l-4 -9l-1 -12l-1 -23l3 -13l4 -15l4 -11l4 -3q3 -3 9 -11l3 -5l9 -8l10 -7l10 -6l10 -5l16 -6h5h15l12 -2l16 2l11 4l9 4l3 2q6 6 11 7l6 2l11 10l6 7l6 11l1 3q1 4 6 11l3 4l6 11l-1 14z" />
    <glyph glyph-name="semicolon" unicode=";" horiz-adv-x="286" 
d="M244 474l-3 9l-3 13l-4 8l-6 13l-4 3q-4 3 -8 9l-3 4l-9 7l-9 9l-13 3l-12 4l-6 4l-16 2l-24 -2h-1q-5 -2 -13 -2l-7 -1l-10 -5l-13 -6l-11 -8l-7 -8l-8 -11l-3 -4q-2 -4 -8 -12l-4 -5v-6q0 -9 -2 -13l-3 -5l-1 -27l3 -10l11 -23l5 -7l8 -13l5 -8l9 -7l4 -2q8 -3 11 -6
l4 -4l11 -5l9 -3l14 -3l24 1l13 2l12 5q6 4 14 6l7 1l8 8l10 7l7 11l1 2q2 5 6 11l2 4l9 12v2v15l1 7zM144 -126q-3 -2 -14 -6l-7 -2q-7 -4 -14 -1q-9 2 -12 5q-6 4 -7 8l-1 4l-3 6q-1 2 -3 15l-2 14l-1 3q-2 5 0 13l1 6l-5 13l-1 1q-4 6 -6 14l-1 6l-2 3l-4 12l-2 5l-11 18
l-2 4q-5 12 -5 13l-1 6l-1 10v15l2 12l1 8l4 14q3 8 8 13l6 5l2 3q6 8 10 11l6 5q5 5 12 7q4 2 12 4l6 2l5 2q7 3 12 3h5l5 1q8 2 14 0q8 -2 10 -3l4 -2l19 -6q2 -1 5 -2q4 -1 5 -2l2 -2l11 -11l2 -1q7 -5 9 -10l2 -5l3 -3q7 -7 8 -12q2 -8 2 -12l1 -5v-12l-1 -22l1 -4
q1 -8 0 -14l-2 -7l1 -3q0 -10 -4 -15l-4 -6l-3 -9v-6q0 -6 -3 -12l-3 -4l-1 -5q-2 -5 -6 -13l-4 -6l-5 -7l-10 -13l-5 -6l-4 -5q-4 -6 -8 -9l-4 -3l-10 -8z" />
    <glyph glyph-name="less" unicode="&#x3c;" horiz-adv-x="480" 
d="M415 588l-10 2l-9 -1l-4 -2q-6 -4 -12 -5h-6l-10 -6l-14 -8l-2 -1q-7 -7 -12 -9l-12 -7l-11 -6l-1 -1q-9 -7 -12 -8l-8 -4l-4 -2q-6 -4 -11 -6l-4 -2l-8 -6l-13 -9l-9 -5l-5 -4q-7 -5 -9 -6l-4 -1l-19 -14l-13 -9l-8 -4l-11 -7l-12 -5l-11 -8l-2 -2q-5 -4 -12 -8l-8 -4
l-10 -6l-10 -4l-11 -6l-10 -8l-10 -7l-8 -6l-22 -11l-9 -5l-10 -9l-1 -3q-1 -7 -6 -13l-3 -5l-8 -13l-1 -9v-27l2 -10l3 -9l4 -6q5 -7 6 -11l2 -6l8 -6l11 -10l15 -8q5 -2 11 -8l4 -4l9 -6l4 -2q6 -3 11 -6l5 -3l12 -7l5 -2q9 -3 11 -7l3 -4l9 -6l2 -2l4 -2l4 -2t4 -3l7 -5
l10 -6l3 -2q1 0 6 -1.5t7 -3.5q8 -6 9 -7l3 -4l30 -18l13 -7l7 -3q7 -4 12 -8l5 -5l9 -7l3 -1q6 -2 12 -7l5 -5l12 -5l11 -6l12 -8q8 -4 11 -7l5 -4l5 -2q9 -4 11 -5l4 -3l15 -7l4 -1h6t5 -1l4 -1l14 2l15 13l5 11l1 10v6q0 9 1 12l1 5l4 14l-1 3q0 2 -1.5 5.5t-1.5 6.5v6
v16q0 10 1 13l1 4l1 14v13l-1 2q-5 7 -6 13l-1 7l-11 10l-6 8l-8 9l-12 6l-14 5q-7 3 -10 7l-3 4l-13 5l-7 3l-6 2q-8 3 -13 7l-7 4l-1 1q-8 1 -11 5l-3 4l-20 9l-2 1q-9 4 -7 16l1 6q1 9 9 14l17 10l12 4l3 2q6 5 13 6l7 2l9 5l12 6l5 3q8 6 12 8l17 7l8 5l11 9l2 2
q5 8 9 11l6 5l1 4q3 9 5 12l3 4l-1 4q-2 8 0 14l1 7l-1 12v15q0 9 1 12l2 5l-1 5q-2 10 -1 13l1 6l-2 6q-2 6 -2 13v5l-4 11l-5 11z" />
    <glyph glyph-name="equal" unicode="=" 
d="M99 341l-16 3h-1q-7 1 -13 6l-5 4l-2 1q-7 6 -9 12q-2 10 -2 14l-2 15v12l-1 4q-3 8 0 15l3 7v2q0 5 2 13q2 7 5 11l4 5l4 4q6 5 10 7t12 3l16 3l6 1l17 2q6 1 13 0l7 -1l6 2q5 1 13 1h5l16 -1h1q10 2 14 2h6l13 -1l8 1q9 0 12 -1l4 -1l15 1h4h12h5l12 -1l7 1q9 2 13 1
l6 -1l13 -1l4 1q6 2 13 2h7l8 -1l16 -1l9 -1l7 1q9 2 12 0l4 -2l5 1q5 1 12 1l6 -1l6 1q10 0 13 -1l5 -1l6 1h15h17l16 -2q8 -2 13 -5l5 -4l3 -2q7 -7 9 -11q3 -8 3 -12l1 -5l3 -16q2 -12 2 -14v-6v-4q0 -7 -2 -13q-1 -3 -3 -11l-2 -5l-6 -10l-8 -9l-2 -3q-5 -6 -9 -9
t-13 -3h-12l-9 -2q-10 -2 -12 -2h-5h-13h-10l-14 1l-12 -1l-8 -1h-13l-5 1h-11l-13 1h-13l-11 1l-13 -1q-10 -2 -14 -2l-7 1l-12 2l-4 -1q-8 -1 -15 0l-8 1h-12l-4 -1q-6 -2 -13 -2h-6l-10 1h-15h-2q-6 -1 -14 1l-7 1l-11 1l-11 -1h-38h-2q-10 -2 -15 -1zM99 128l-9 -1
q-10 0 -15 3l-9 5q-8 4 -11 7q-5 5 -6 10l-1 7l-2 16q-1 5 1 13l1 6v14l-1 2q0 10 1 14q1 5 4 12q1 3 6 11q2 4 8 8l5 2l2 2q7 7 13 8l7 2q5 1 15 1l15 -1l16 1h7l13 -1l7 2q8 2 14 0l6 -1h14h1q7 3 13 3h7h18h13l7 -1h9l13 -1l8 1q7 1 13 0l6 -1l13 2h2q7 1 15 0l7 -1h8
l13 -1l6 1q5 1 12 1h4h6q10 0 13 -1l4 -2l8 1q5 1 13 1l6 -1h11l14 -1h2h7q7 1 7 0l6 -1l4 1q7 2 15 0l8 -1q9 0 14 -4q9 -7 10 -8q4 -6 5 -10l2 -6l3 -12l2 -15q1 -6 1 -13l-1 -5l-1 -14l-1 -9l-1 -7q0 -7 -2 -11q-1 -2 -5 -8l-9 -9q-4 -4 -12 -6l-7 -2l-9 -4q-5 -2 -12 -2
h-13l-8 1h-10l-13 -3h-11l-14 1h-8q-9 0 -12 1l-5 1l-11 -1l-7 -1q-7 -1 -12 0l-4 1l-16 -1h-33l-6 -1h-12l-5 1l-14 2l-6 -1q-10 -2 -13 -2q-7 0 -11 1l-5 1l-7 -1q-7 -1 -13 0l-6 1l-11 1l-14 -2h-4q-9 0 -12 1l-3 1l-6 -1q-7 -1 -13 0l-6 1l-6 -1q-6 -1 -13 1l-4 2z" />
    <glyph glyph-name="greater" unicode="&#x3e;" horiz-adv-x="480" 
d="M46 575l-1 -5q-1 -5 -4 -11l-3 -5l-1 -15l-1 -4q0 -9 -1 -13l-2 -5l2 -13l1 -3q2 -7 0 -15l-2 -13l1 -4q2 -12 2 -14v-7v-10l4 -10l6 -13l6 -8l7 -11l10 -7l9 -8l19 -11l8 -2q9 -2 12 -5l5 -3l5 -2q9 -3 12 -5l4 -2l16 -7l12 -5l14 -10q8 -6 9 -13l1 -5q3 -10 -2 -13
l-6 -4l-19 -10l-8 -5l-20 -13l-2 -1q-3 -3 -13 -5l-7 -1l-1 -2q-4 -6 -13 -9l-8 -2l-18 -8l-8 -8l-5 -4q-2 -2 -6 -4.5t-5 -3.5l-6 -4v-2q-2 -9 -6 -13l-5 -5v-11v-7q0 -3 -0.5 -5t-1.5 -4.5t-1 -4.5l-1 -6l1 -10l-1 -25l1 -3q1 -7 0 -13l-2 -5l1 -11l3 -13l1 -5
q2 -10 2 -12v-6l5 -11l15 -14h13h14l8 4l13 4l5 4q2 2 11 6l4 2l4 2q2 2 6 4.5t5 3.5l17 10q9 7 12 8l9 3l11 5l5 5q10 7 11 8l5 2l11 7l3 2q6 4 11 7l6 3l12 9l18 11l3 4q2 2 12 7l7 3l11 5l8 6l3 3q4 5 9 7q2 1 11 5l8 4l8 6l6 5q6 5 10 6l4 2l3 4q3 4 9 8l10 5l6 2l12 9
l7 5q4 4 13 7l8 3l2 5q2 6 8 12l5 5l5 10l7 9l5 15v24l-3 3q-5 7 -6 12l-2 6l-6 11l-6 9l-7 9l-5 3q-6 2 -12 7l-14 9l-6 2q-9 3 -11 8l-3 4l-4 2q-7 1 -12 6l-5 4l-8 4q-9 5 -10 7l-3 3l-18 7q-10 4 -11 6l-3 4l-7 3q-8 3 -12 7l-5 5l-11 6l-5 2q-11 4 -13 6l-13 9l-7 6
l-11 7l-9 8l-10 5l-10 5l-12 8l-7 5l-12 7l-4 2q-2 1 -11 7l-3 4l-19 10l-9 5l-6 3q-9 3 -11 7l-4 5l-7 1q-3 1 -10 4l-3 1h-15h-13z" />
    <glyph glyph-name="question" unicode="?" horiz-adv-x="400" 
d="M130 260l-2 10l-2 11l-1 5q-1 6 1 13l1 6l-1 10l-1 14l-1 15v12l1 5l1 12l1 3q1 4 5 13l3 6l1 2q3 5 8 10q4 3 10 6l5 2l21 7l5 3q3 2 14 4l7 1l9 9l8 9q1 5 4 13l3 8l-10 20l-5 10l-11 5l-13 1h-3q-5 -1 -14 -1h-5l-23 -10l-13 -8l-13 -6l-1 -1q-4 -7 -11 -9l-6 -1
l-5 -3q-6 -4 -14 -6l-5 -1q-8 -1 -15 0q-8 2 -10 6l-3 5l-4 5q-2 2 -4 6t-3 5q-3 9 -3 10v6l-9 19l-3 6q-3 7 -3 13q0 7 3 13q1 2 4 5.5t3 4.5l3 4l9 10q4 6 10 10l6 4l10 5l17 9q6 3 12 5l5 1l5 4q7 4 12 4h5l14 2l2 1q6 3 14 3h8l3 1q8 2 12 1l5 -1l6 1q5 1 14 1l7 -1
l13 -3l6 -2l16 -3h3q10 -2 12 -4l4 -3l8 -1q9 -2 12 -4l5 -4l10 -4l4 -3q9 -7 10 -8l3 -5l14 -18l5 -4q7 -8 8 -9l2 -4l5 -13l3 -11l3 -5q3 -6 3 -11l-1 -5l1 -12l1 -11l1 -5v-13l-1 -6l1 -4q1 -8 -1 -15l-6 -16l-5 -11l-1 -5q-1 -8 -7 -14l-10 -9l-3 -5q-3 -5 -9 -11
q-3 -3 -10 -9l-5 -3l-11 -10l-20 -14l-7 -15l2 -6q1 -6 1 -10l-1 -3l-2 -16l-1 -20q0 -10 -1 -13q0 -2 -1 -3t-2.5 -3t-2.5 -4l-4 -7l-2 -2q-6 -8 -9 -10q-2 -2 -10 -6q-8 -2 -11 -2h-6l-16 -2q-8 -2 -12 0l-5 2l-14 2h-2q-8 0 -14 3q-8 4 -10 7l-3 3l-3 4q-6 8 -6 14z
M278 84v13l-7 11l-7 11l-9 12l-9 8l-9 7l-6 5l-17 3l-12 3l-22 2l-3 -1q-6 -4 -13 -5l-7 -1l-11 -6l-9 -6l-8 -9l-10 -12l-2 -4q-1 -3 -6 -13l-4 -6l-2 -10l-1 -26l1 -3q4 -9 5 -12l1 -6l6 -11l9 -11l6 -4q5 -3 9 -7l2 -4l7 -2q5 -2 13 -6l7 -4l12 -2l21 3l27 6l11 5l2 2
q5 6 11 11l6 4l1 2q3 9 6 12l4 3l6 15l2 11z" />
    <glyph glyph-name="at" unicode="@" 
d="M337 576l11 -1l15 -4h1q10 -4 12 -5l5 -3l12 -5l14 -5h1q11 -4 13 -6l6 -4l9 -4l7 -5q8 -4 11 -7l3 -5l9 -6l11 -9l8 -7l4 -4q2 -2 5 -5.5t4 -5.5l3 -6l3 -3q7 -7 8 -10l1 -5l6 -11l4 -3q7 -6 7 -11l1 -6l2 -5q4 -8 6 -13l2 -6l2 -3q3 -4 5 -14l1 -6l2 -6q3 -9 3 -13
l-1 -6l2 -4q4 -8 3 -13l-1 -5l1 -12l1 -4q2 -8 -1 -15l-3 -7v-15q0 -2 -3 -14l-2 -6v-2q2 -8 -1 -14l-2 -6l-1 -4q-1 -4 -6 -13l-5 -7l-2 -11l-1 -4q-2 -8 -6 -11l-4 -5l-9 -11l-1 -2q-2 -4 -8 -12l-6 -7l-7 -6v-2q-2 -5 -10 -11l-5 -4l-10 -10l-1 -1q-4 -7 -11 -10l-7 -2
l-2 -3q-4 -7 -9 -9l-5 -1l-16 -6l-9 -5l-2 -3q-4 -4 -12 -6l-6 -1l-6 -3q-8 -4 -12 -5l-6 -1l-9 -1l-17 -2h-1q-6 -2 -14 -4l-9 -1q-7 -1 -14 0l-10 1l-3 -1q-5 -2 -14 0l-7 1l-10 1h-4q-9 0 -12 1l-5 2l-12 5l-7 1q-10 2 -13 4l-5 2l-9 4l-9 2q-4 1 -11 6l-4 3l-2 1
q-7 3 -12 8l-5 5l-11 7l-10 7l-2 2q-2 2 -6 4.5t-6 3.5l-6 6l-2 1q-5 4 -9 10l-3 5l-5 5q-7 9 -7 10l-2 5l-6 11l-6 9l-8 12l-1 3q-4 6 -6 12l-1 5l-2 5l-6 12q-3 6 -4 13l-4 16l-2 7q-2 10 -2 15l-1 8q0 9 1 13l1 7l2 16l-2 6q-3 7 1 16l3 8l3 8v7q0 8 3 13l3 5l3 11l4 10
l3 11l1 2q2 7 7 13l5 6l5 10l1 4q3 8 7 12l5 4l2 4q4 6 10 10l6 4q2 5 8 11l9 9q1 0 4.5 3t5.5 4l6 4l2 1q5 5 12 7l5 2l14 7l1 2q3 4 11 7l6 2l2 2q4 3 13 5l6 1l20 7q5 2 12 2h6l3 1q1 0 14 3l14 2l12 1h9l14 -2l8 1q5 1 15 -1zM299 164h12h6l7 2q5 2 11 2l4 1l12 7l9 5
l15 5l10 5l9 9l-3 6h-9q-8 0 -12 3l-4 3l-7 2q-7 3 -10 6l-4 4l-9 8l-20 10l-19 -2l-11 -2l-17 -3q0 -1 -7 -1l-7 1q-8 0 -11 1l-4 1l-4 1q-8 2 -14 4q-8 4 -9 8l-3 5l-8 12l-2 2q-6 8 -6 12v7l-4 7q-3 7 -3 14l-1 9q0 8 1 13l2 6l5 14l-1 3q-1 7 1 14q1 4 8 9l5 4l2 4
q2 4 10 11l5 4q5 4 15 4h7l2 1q5 1 15 1q9 0 13 -2l6 -3l24 -6h9l12 3l5 2q10 4 15 4h7q7 0 13 -2q6 -3 9 -5q5 -3 6 -7l5 -10q3 -8 3 -14v-8q0 -7 -3 -13l-3 -6l1 -24l2 -13l5 -13l9 -9h28l10 4l5 9l2 10l4 13q-1 4 -1 9v5l1 15l-3 5q-4 7 -4 12l1 4l-8 11l-3 4q-5 7 -5 12
v5l-9 12l-8 9l-7 9l-11 7l-9 6l-19 15l-8 2q-3 1 -7 2l-4 2l-4 2l-10 3l-17 3l-12 2l-24 1l-13 -3l-11 -2l-9 -2l-15 -7l-9 -5l-12 -5l-6 -6l-13 -8l-11 -7l-9 -8l-7 -12h-1q-1 -5 -5 -13l-3 -5l-6 -13l-4 -13l-3 -11l-2 -10l-6 -15l4 -23v-4q2 -10 1 -14l-1 -7l3 -9l4 -5
q6 -6 6 -12v-6l7 -10l6 -12l9 -10l4 -3q1 -1 5 -3.5t6 -4.5l9 -9l4 -5l8 -6l14 -6l12 -6l24 -7q10 0 14 -2l6 -3zM309 329l-1 13l-8 8l-22 -2l-11 -7l-1 -7l-1 -24l7 -8l6 -10l25 3l8 10z" />
    <glyph glyph-name="A" unicode="A" horiz-adv-x="614" 
d="M334 92l-9 1l-6 -1q-10 -2 -14 -2l-9 1h-9l-41 -2l-1 -1q-10 -2 -15 -2l-9 -1l-5 -7l-12 -23l-7 -12l-6 -10l-9 -11l-1 -2q-3 -5 -9 -8q-4 -2 -10 -4l-8 -2h-1q-8 -5 -13 -5l-6 1l-17 -2l-10 -1l-14 -2l-24 1l-14 1h-1q-10 0 -14 2l-6 2l-8 2q-8 3 -12 6q-4 4 -5 7l-2 4
l-2 4q-5 8 -3 14l2 5l3 14v2q0 7 3 15l3 7l10 21l1 5l2 12l2 5l2 4q3 8 7 13l5 6v3q1 6 3 12l2 6l1 5q1 5 6 12l4 5v4q0 5 2 13l3 6l1 5q2 5 6 13l4 6l6 8l4 13v3q0 9 4 14l4 7v2q1 7 6 13l4 4l-1 3q0 5 4 15l3 7l5 9v5q2 8 5 14l4 6l3 10l3 10l4 11l5 12l2 4q4 10 5 12l3 4
l1 7q1 4 3 11l2 4l1 5q0 1 7 12l5 7l5 11v3q0 9 2 13q3 6 7 10l3 5v3q0 8 5 15l3 6l9 20l6 12l6 10l3 4q3 6 10 11l6 4l3 2q6 4 12 6l5 1l9 4l3 1q5 2 15 2l8 -1l3 1q8 3 14 3h20l11 -1l9 -1l11 -3l15 -5l6 -2q7 -3 11 -7l4 -4l2 -3q1 -2 4 -4.5t4 -4.5l2 -4l3 -5
q5 -9 7 -13l6 -16l5 -11l5 -10l6 -11l7 -11l2 -3q4 -6 5 -14v-7l3 -4q5 -8 5 -11v-4l4 -13l5 -5q5 -7 5 -13l-1 -6l3 -3q7 -7 7 -12l1 -7l2 -4q2 -3 5 -11l1 -5l6 -15l2 -3q4 -5 5 -12l2 -5l5 -11l7 -14l3 -11l4 -10l6 -12l1 -3q3 -8 4 -12l1 -6l3 -11l5 -11l3 -6
q5 -12 5 -13l1 -7l2 -8l5 -12l3 -6q5 -6 6 -13q2 -8 2 -11v-5l5 -6q4 -6 6 -11q2 -10 2 -11l1 -5l4 -7q3 -4 5 -13q2 -10 3 -13l3 -15l5 -10l2 -5q2 -5 4 -13q1 -4 1 -11l-1 -4l1 -4q1 -9 -2 -14q-2 -3 -7 -8q-2 -2 -11 -5l-7 -2l-10 -2l-6 -2q-10 -4 -13 -4q-9 0 -14 1
l-7 1h-22l-15 -2h-2q-10 0 -13 2l-5 2l-9 1q-7 2 -12 3l-5 2l-5 2q-10 4 -11 6l-3 4l-5 4q-7 7 -9 10l-2 5l-9 11l-12 22l-7 11l-15 7l-9 1zM318 352l-16 -1l-12 -24l-6 -9l-7 -12l-6 -10l-5 -11v-10l-1 -5q0 -6 -4 -12l-3 -5l1 -13l10 -21l3 -1q13 -3 14 -3l7 -2h21l11 5
l14 4l11 15l4 12l-2 5q-3 9 -3 14l1 7l-2 10l-6 11l-4 12l-4 6l-2 4t-1.5 4.5t-0.5 3.5l-1 5z" />
    <glyph glyph-name="B" unicode="B" horiz-adv-x="556" 
d="M495 302l7 -9l7 -10l3 -2q6 -5 8 -11l2 -6l2 -12l3 -4q3 -8 4 -11l2 -4l2 -5q5 -11 6 -13q2 -8 2 -12v-12l-1 -7l1 -2q0 -8 -1 -13l-2 -6v-11l-5 -23v-3q-2 -7 -7 -13l-5 -6l-1 -5q-2 -9 -5 -12l-3 -3l-10 -10l-8 -10l-2 -3q-3 -6 -8 -11q-2 -2 -9 -7l-4 -3l-13 -7l-7 -5
l-3 -3q-3 -3 -13 -7l-16 -5l-27 -5l-6 -3l-12 -4l-4 -1q-10 -2 -14 -1l-7 1l-15 -1l-21 -3h-10l-9 -1q-10 0 -14 1l-6 2l-7 -1l-14 -1l-15 1l-12 -1h-9l-14 2l-8 -1q-7 -1 -11 0l-5 1l-3 -1q-8 -3 -16 -1l-9 2h-2q-7 -3 -14 -3l-7 1l-25 2l-10 2h-4q-9 1 -15 4h-1
q-6 3 -12 10l-7 10l-7 9l-1 2q-4 7 -4 15v7l-2 2q-4 7 -4 15l1 16l3 26l-2 4q-3 9 -2 14l1 6l2 10l-2 6q-3 9 -3 12l1 5l1 12l1 11l-1 7q-1 7 0 14l1 6v12l1 10l-1 4q-3 7 -1 14l1 6v6v12l1 5l-1 4v14v7l-1 4q-1 8 0 14l1 6l-2 10l-1 5q-1 5 1 14l2 7l-1 3q-2 10 -1 13l1 5
l1 13v12l-1 12l1 11l-1 7v12l1 5l-1 4q-1 5 1 15l1 7v3q-1 6 -1 13l1 5l-1 24v6q0 5 2 13q0 2 2 10l2 4l4 7q3 8 8 11l5 3l4 4l8 8q2 1 10 3l7 1l11 1l17 2q8 2 14 0l5 -2l13 1l11 1h1q7 1 14 0l7 -2l3 1q10 2 14 1l6 -2l8 1q5 1 12 1l4 -1l5 1q5 1 13 1t11 -1l5 -2h13l12 2
l3 1q10 0 15 -1l16 -3l12 1h12l3 -1q5 -1 13 -3l5 -2l15 -4h3q7 0 12 -3l4 -3l15 -4l4 -2q7 -3 10 -6l3 -3l7 -4q7 -3 10 -7l3 -3l8 -8l11 -9l3 -3q4 -4 8 -10l2 -5l7 -10l3 -7q4 -7 4 -11l1 -4l8 -15q4 -9 3 -14l-1 -7l2 -12l1 -4q2 -6 2 -12v-6l1 -3q4 -10 1 -14l-3 -5
l-1 -15l-2 -8l1 -6q1 -5 -1 -13l-2 -5l-6 -10l-2 -7q-1 -8 -4 -12l-2 -5l-4 -10zM344 439l-2 12l-5 11l-6 3q-8 6 -9 9l-2 4l-11 5h-6q-7 0 -13 2l-5 2l-25 -1l-10 -3l-15 -4l-5 -6l-7 -10v-3q0 -4 -2 -14l-2 -5l4 -27l2 -11l2 -12l6 -12l7 -6l12 -5l13 -2l25 2l12 -1l13 7
l11 8l10 9l4 8l2 15zM296 130l11 2l15 2l11 7l8 3l10 12l3 7l7 14l-1 10v25v11l-4 4q-6 8 -7 12l-1 6l-6 2q-7 3 -10 6l-3 2l-15 4h-9l-18 1q-9 0 -12 1l-5 1l-14 -4l-1 -1q-3 -5 -10 -9l-4 -3l-8 -10v-5v-13l-1 -6v-15q0 -4 -2 -12l-1 -5l3 -6q3 -8 3 -12l-1 -5l8 -11l5 -8
l12 -2l12 -3z" />
    <glyph glyph-name="C" unicode="C" horiz-adv-x="562" 
d="M323 627q-10 -4 -14 -4h-6h-16h-2q-3 -1 -7.5 -2t-5.5 -1l-6 -1l-5 -2q-8 -4 -13 -5l-7 -2l-8 -3l-7 -2q-5 -2 -13 -4l-6 -2l-12 -5l-3 -3q-5 -5 -11 -8l-7 -3l-9 -7l-12 -7l-7 -6l-9 -7l-2 -3q-3 -4 -9 -10q-2 -2 -10 -8l-7 -4l-2 -5q-2 -7 -8 -11l-4 -4l-6 -8l-5 -10
l-7 -11l-11 -13l-4 -8l-7 -10l-4 -14v-2q0 -6 -4 -14l-4 -7l-5 -9v-4q0 -4 -2 -14l-2 -7l-2 -11l-2 -13l-3 -10v-12v-3q0 -3 -2 -15l-2 -7l1 -23l1 -5q2 -12 2 -13v-6v-12l1 -6q1 -6 1 -12v-5l4 -12l3 -14l2 -9l3 -4q3 -5 3 -14v-7l2 -3q8 -10 8 -11l3 -6l5 -12l5 -11l3 -3
q7 -9 7 -10l2 -5l5 -4q9 -7 10 -9l4 -6l9 -10l6 -8l2 -1q9 -7 10 -8l4 -4l8 -3q5 -2 11 -6q7 -6 9 -8l4 -4l10 -6h7q8 -2 13 -4t10 -5l4 -3l10 -4l15 -2l9 -2l9 -4l13 -2l11 -2h6q9 0 14 -1l7 -1l11 -2l16 2q8 2 14 0l6 -1l11 1l14 1l17 3q5 1 11 1h3l15 2l14 2h1q6 4 13 5
l8 2l9 1l3 2q7 5 12 6h7l5 4q6 5 12 7l14 6l13 7l10 11l6 10v12l-4 16q-2 12 -2 13v6l-2 3q-5 5 -5 13l1 6l-3 4q-5 6 -7 12l-3 6l-5 10l-1 2q-2 3 -5 11l-1 6l-11 21l-10 7l-7 4l-15 3q-7 -3 -14 -3l-6 -1l-23 -12l-4 -3q-7 -5 -11 -6l-6 -2l-4 -1q-3 -1 -7.5 -2t-5.5 -1
l-7 -1l-3 -1q-5 -1 -14 -1h-11q-9 0 -13 1l-6 1l-15 3h-1q-8 0 -12 4l-4 4l-7 3q-7 3 -10 6q-4 4 -6 7l-2 5l-4 5q-6 8 -7 10q-2 6 -3 10l-1 7l-2 3q-5 9 -4 14l1 7l-1 12l-2 16q-1 6 1 14l2 5v7q0 9 2 13l4 5l1 12v4q1 5 5 13q1 2 4 5.5t4 5.5l4 5l8 10l2 3q4 6 11 9l6 2
l2 2q5 4 12 8t12 4l5 1h2q10 2 14 2h12q10 0 13 -1l5 -2h8q7 0 11 -2l3 -2l12 -4l7 -2q5 -1 13 -5l13 -6l15 -1l10 1h13l8 8l11 15l8 12l1 3q1 6 3 12l2 5l5 13l1 4q1 7 4 13l2 7l4 9l-1 11l2 24l-3 13l-3 3q-7 7 -8 9l-2 4l-17 18l-24 10h-3q-7 1 -11 4l-5 2l-14 4l-14 3
l-9 3h-5q-8 -2 -14 0l-6 1h-7q-5 0 -13 2l-5 2l-12 1l-2 -1q-7 -1 -14 0z" />
    <glyph glyph-name="D" unicode="D" horiz-adv-x="639" 
d="M36 300l2 -12q1 -8 0 -12l-1 -5l1 -5q2 -10 1 -13l-1 -6v-3v-14l-2 -7l1 -13v-10l1 -15v-11l1 -4q2 -10 2 -13q0 -4 -2 -12l-2 -6l2 -5q3 -7 1 -13l-1 -4l1 -6q0 -9 -1 -13l-2 -6l2 -6q1 -6 1 -14l-1 -15l-1 -11l3 -5q4 -5 5 -12l1 -6l6 -10l12 -5l9 -5l14 -5l24 3h14h8
l13 -2l2 1q5 2 14 2q4 0 14 -2l8 -1l8 1l28 1h10l10 -1l5 1q9 0 14 -1l8 -1l10 1h22l16 -2h9l9 2q9 2 11 1l4 -1h15l21 2l12 3l13 3l14 3h9l7 3q7 4 13 5l6 1l2 2q6 6 12 7l7 2l1 2q4 4 12 8l6 2l7 7l11 9l8 7l2 4q4 7 10 10l5 4l4 6q3 4 7 10l4 4l8 12l1 2q2 10 3 12l3 6
l9 10l5 9v5q2 9 4 14l2 6l6 11v3q1 7 4 14v1q0 2 5 11l2 5v5q0 4 2 14l2 7v12v4q-2 11 0 14l3 5l-1 12l-2 16q0 8 1 13v6l-2 12l-1 7q-1 5 1 13l2 5l-4 13l-3 13l-1 11l-3 13l-4 11l-3 12l-5 12l-3 12l-4 9l-6 10l-7 12l-4 9l-6 6q-5 6 -6 10l-2 5l-6 11l-14 9l-1 1
q-7 4 -10 9l-2 5l-12 8l-20 11l-12 7h-3q-6 1 -12 5l-5 3l-14 3l-10 4l-10 1l-27 4l-18 2l-10 2l-4 2h-25l-15 1h-9l-16 2h-7q-7 -1 -7 0l-7 1h-27l-9 -1h-3q-9 0 -13 1l-6 1l-7 -2q-8 -2 -14 0l-6 2l-4 -2q-5 -2 -15 -2l-16 -1l-13 -1l-6 -1q0 -1 -6 -0.5t-7 0.5h-7l-4 -1
q-5 -2 -14 -2l-6 -1l-12 -3l-12 -2l-9 -7l-9 -9v-1q0 -6 -5 -13l-4 -4l-2 -12v-6q1 -8 0 -14l-1 -7l-2 -14l1 -4q1 -6 1 -14l-1 -7l-1 -25l-3 -11v-12l2 -10l1 -3q1 -6 1 -14q0 -5 -2 -13l-2 -6l1 -12l1 -3q2 -10 2 -14v-6l-2 -13l1 -10l1 -4q1 -5 1 -13q0 -1 -2 -13z
M242 256v2q-2 6 -1 13l2 6l-2 6q-1 8 0 13l1 7l-1 13v3q0 10 1 14l1 6l2 12l-2 10l-1 4q-1 7 0 15l2 16v6q0 9 1 14q1 7 4 11l3 5l1 6q0 2 1 4t2.5 3.5t1.5 2.5q2 4 8 7l7 4q6 5 15 5l17 -1l14 -1h5q7 1 12 -2l5 -2l6 -1q10 -2 14 -4l6 -3l1 -1q6 -5 9 -9l4 -5l10 -9l1 -3
q7 -9 7 -10l2 -5l3 -7q3 -8 3 -12v-5l3 -6q2 -6 2 -12l-1 -4l3 -13l1 -15q0 -10 -1 -14l-3 -7l1 -13v-5q0 -8 -1 -13l-1 -6l-1 -4q-2 -10 -3 -12l-3 -5l-3 -13v-2q1 -8 -2 -14l-4 -5l-1 -3q-2 -5 -8 -11l-5 -4l-2 -4q-2 -6 -7 -11q-4 -4 -10 -7q-4 -2 -12 -4l-6 -1l-1 -1
q-6 -5 -12 -5h-6l-24 -2l-8 1q-2 0 -4.5 0.5t-4 1t-2.5 0.5l-4 1l-7 3q-8 3 -11 8l-2 5l-5 7l-3 7q-1 2 -4 11l-1 5l-2 5q-1 5 -1 14z" />
    <glyph glyph-name="E" unicode="E" horiz-adv-x="499" 
d="M425 167q9 0 14 -2l10 -3l1 -1q8 -5 9 -9l1 -4l3 -5q4 -7 4 -14l1 -7v-4q0 -1 0.5 -7.5t-0.5 -7.5l-1 -7v-14l-1 -17q0 -6 -2 -14t-4 -11l-3 -5l-1 -3q-2 -8 -6 -12q-3 -3 -11 -6l-7 -3l-4 -2q-5 -4 -12 -4h-5l-18 -3q-9 -2 -13 -1l-7 1h-6q-6 -1 -12 -1l-4 1l-15 -1
l-13 1h-9l-13 -1h-46l-14 1l-3 -1q-5 -1 -14 -1h-7l-16 2l-9 -1h-7h-12l-5 1l-10 -1h-8q-9 0 -12 1l-4 1l-19 -1q-10 0 -13 2l-4 2l-14 6l-2 1q-8 3 -12 7q-7 7 -8 9l-3 5l-7 12l-2 2q-2 3 -4 13l-2 6l-2 6q-3 7 -3 12l-1 6l-2 19q-1 5 1 13l1 5v13l1 10l1 13l-1 5
q-2 12 -2 13l-1 7v10l-1 12v8q0 7 3 13l2 6l-2 4q-1 3 -1 13l2 12l1 7l-2 6q-2 7 -1 13l1 5l-1 4q-1 8 0 15l1 7l-1 4q-1 5 1 13l2 5l-1 13l-1 3q-2 10 -2 14q-1 4 1 12l2 6v12l-1 5q-1 6 -1 13v7v6q0 9 1 13l1 4v14l-1 3q-2 5 0 14l1 6l-2 7q-2 10 -2 14v7q0 7 3 14l3 6
l-1 5q0 10 1 15l1 6v4q2 9 5 13l4 4l2 3q6 8 8 10l4 3l2 2q4 3 13 6q1 0 14 3l17 2h21l5 1q10 2 15 1l8 -2h12l8 1l12 1l14 1h2q9 0 13 -1l6 -1h11l7 1q10 0 14 -1l6 -1l11 1h2q10 2 15 1l8 -2l4 1q8 2 14 0l6 -1l2 1q5 2 13 2l5 -1l14 -1h4q9 2 12 0l4 -1l6 1q9 2 13 1
l5 -2l28 -1q9 0 15 -3l2 -1q4 -2 9 -7q4 -7 5 -10l1 -7l4 -13v-2q2 -12 2 -15v-19v-4q0 -4 -2 -14l-2 -6l-1 -11v-4q0 -4 -2 -12l-1 -4l-1 -5q-2 -7 -6 -12l-4 -4l-2 -3q-4 -6 -12 -9q-5 -1 -15 -1l-11 1l-13 2h-11h-4q-8 -2 -13 0l-5 2l-9 -1q-6 -1 -11 1l-3 1l-8 -2
q-8 -2 -13 0l-5 1h-3q-9 -2 -12 -1l-5 1l-12 -1l-27 -4l-9 -4l-9 -10l-2 -25l12 -9l18 -5l16 -3l8 -1l14 -1l3 1q6 2 12 2h4l13 -2h6h14l7 -1h22l7 -1q9 0 13 -2q4 -1 9 -6q6 -6 8 -9q1 -2 2.5 -4.5t2.5 -4.5l1 -3q2 -4 3 -8q1 -6 1 -14l-1 -7l1 -11l2 -15q1 -6 0 -14l-2 -7
v-5q0 -5 -2 -13l-1 -5l-1 -5q-1 -6 -5 -12q-1 -1 -3 -3.5t-3 -4.5q-3 -3 -11 -6q-5 -2 -12 -2h-6l-16 -1h-13h-6h-13h-4h-13l-6 1l-12 2h-15l-25 -4l-9 -3l-3 -2q-1 -1 -5 -4.5t-6 -4.5l-5 -3l5 -27l3 -8l14 -4l23 -5l3 1q6 2 14 0l6 -1h26h2q9 3 13 2l5 -1h4q5 1 14 1h6h6
q10 0 14 -1l7 -1l3 1q3 1 15 1h5z" />
    <glyph glyph-name="F" unicode="F" horiz-adv-x="500" 
d="M253 185l-4 -14l1 -16q0 -10 -1 -13l-2 -5l2 -5q3 -9 3 -13q0 -7 -1 -12l-2 -6l1 -2q1 -9 0 -13l-1 -5l-1 -11l-1 -23v-8q0 -6 -2 -12q-1 -4 -8 -9l-6 -3l-4 -4q-5 -4 -12 -6l-6 -2t-4 -1t-4.5 -0.5t-6.5 -0.5h-20l-36 1l-33 -2h-13q-8 3 -10 4l-4 2l-6 2q-10 3 -11 5
l-1 4l-6 14l-3 4q-4 9 -3 13v5v15q0 10 1 14l1 6l-1 3q-3 8 -2 14l1 6l2 11v12l-2 6q-2 10 -1 14l1 7v11v12l-1 3q-2 10 -2 13q0 6 3 13l2 7l-1 3q-2 10 -2 12t2 12l1 6l-2 5q-3 7 0 14l2 6l-1 10l-1 6q-2 12 -2 14v6l2 10v15v1q-1 5 1 15l1 7v3q-1 6 -1 14v7l-1 3
q-2 10 -2 14v7v10l1 14l1 12v2q-2 6 -2 14v7l1 11l1 12l1 12l-1 13l-1 3q-2 6 -2 14v7l2 17q1 3 3 13l2 5l-1 4q-1 8 3 12l4 4l4 5q4 5 14 7l8 2q5 1 14 1l14 1h14l14 2h1q9 0 13 -1l6 -1l9 2q7 1 13 0l6 -2l5 1q10 2 14 1l6 -2l4 1q9 2 13 1l6 -1h6h13l7 -1h3q5 1 13 1
l6 -1h13h1q9 2 13 1l6 -1l12 1h15h4q3 0 7.5 0.5t5.5 0.5l5 -1l7 1q7 2 15 0l7 -2l11 1h24h5q9 -2 14 -6l3 -2q8 -6 11 -9q5 -5 7 -10l3 -6l1 -3q4 -9 3 -14l-1 -6l3 -18q2 -12 2 -13q0 -2 -2 -10l-2 -6v-6v-12q0 -5 -5 -12v-1q-1 -2 -4 -5.5t-4 -4.5q-2 -3 -9 -8
q-5 -5 -10 -7l-4 -2l-1 -1q-7 -4 -14 -4h-7l-8 -2q-10 -2 -12 -2h-5l-20 1q-7 0 -11 2l-4 1h-17h-12l-5 -1q-5 -1 -13 1l-6 1h-10l-29 -3l-10 -7l-12 -9v-25l3 -14l9 -8l13 -6h21l14 -1h4h13l6 -1h7h14l6 -2h13l6 2q5 1 13 1q7 0 12 -1l7 -1l23 -1h1q8 -2 14 -4h1
q8 -3 10 -5l3 -2l4 -3q7 -7 7 -12l1 -5l1 -11l-1 -13l2 -22v-3q2 -11 1 -14l-2 -6l-2 -10l-1 -14l-1 -2q-1 -8 -6 -12l-5 -4l-3 -3q-3 -3 -11 -6l-4 -1l-9 -3q-7 -1 -15 0l-13 1h-11l-4 -1q-5 -1 -14 -1l-8 1l-14 2q-7 -3 -13 -1l-6 1l-8 -2q-10 -2 -14 -1l-6 1l-13 -3
l-8 -5l-7 -7z" />
    <glyph glyph-name="G" unicode="G" horiz-adv-x="571" 
d="M551 158v-11l2 -15l1 -5q1 -6 1 -11v-2.5t-0.5 -2.5t-1 -3t-0.5 -4l-1 -7l-2 -22v-3q0 -7 -3 -13l-3 -5l-2 -4q-1 -4 -7 -11q-2 -3 -9 -8l-5 -3l-10 -5l-2 -1q-5 -6 -13 -7l-18 -4l-12 -3l-2 -1q-8 -3 -15 -3h-7v-1q-5 -3 -13 -3h-6l-7 -1q-6 -2 -12 -2h-6l-2 -1
q-10 -4 -15 -4h-17h-14l-2 -1h-14l-9 1l-9 1l-5 -1q-5 -1 -15 1l-15 2l-14 4l-12 2l-6 1q-8 0 -11 2l-3 2l-13 3l-7 1q-10 2 -13 4l-5 3l-8 5l-11 5l-4 2q-8 3 -13 7l-21 14q-8 6 -10 8l-4 3l-7 7l-9 8l-10 9l-11 11l-8 9l-2 2q-6 6 -8 11l-2 6l-5 11l-4 4q-5 5 -8 11l-3 7
l-3 9l-2 4q-5 12 -5 13v6l-6 12l-1 4q-3 9 -3 13v7l-2 4q-5 12 -5 13q-2 4 -2 12l1 6l-1 3v15v8l-1 3q-1 6 -1 13l-1 6v4q-1 6 -1 15q0 3 2 13l2 7v2q-2 7 1 15l5 17l2 11l-1 5q-1 5 1 13l2 6l1 5q0 1 5 13l3 6l5 9l4 11l2 4q3 9 5 12l4 4l2 6q2 6 6 12l4 4l7 10l1 1
q2 6 6 12q3 5 9 10l6 6l3 3q3 5 9 9l5 3l2 3q3 5 8 10q4 4 11 7l7 3l4 4q9 7 10 7l5 2l2 2q4 5 13 7l7 2l7 5l5 3q2 2 13 6l10 3q3 2 13 4l6 1l14 2l11 2l13 1l3 1q7 3 14 3l6 1h8h12l5 -1h24h4q9 0 12 -1l5 -1l8 1q10 0 14 -1l6 -1l8 -2l12 -1l5 -1q11 -2 12 -3l4 -3l27 -8
q6 -1 12 -6l5 -4l16 -8q3 -2 6 -4.5t4 -2.5q5 -5 6 -9l1 -5l5 -5q5 -5 7 -11q2 -8 2 -10l1 -5l1 -10v-5q1 -7 0 -14q-2 -9 -4 -12l-3 -4l-1 -7q-1 -3 -5 -12l-3 -5v-4q-2 -8 -4 -14q-3 -6 -7 -10l-4 -4l-12 -14q-5 -7 -9 -8l-4 -2l-3 -2q-6 -5 -13 -5l-7 1h-6h-7q-7 0 -14 3
l-10 3q-3 1 -6.5 2.5t-4.5 1.5l-4 3l-14 2h-4q-8 1 -12 3l-5 1l-11 2l-16 -1l-8 -2l-12 -5l-14 -4l-8 -4l-18 -14l-9 -11l-9 -7l-1 -4q-1 -3 -3 -13q-1 -4 -7 -11l-4 -6l-3 -11l-4 -11l1 -3q3 -9 2 -14l-1 -7v-2q1 -4 -1 -14l-2 -7l4 -13l8 -21l6 -13l5 -8l7 -6q6 -5 9 -9
l3 -5l13 -4l9 -3h27l10 2l12 4l6 10l5 9l6 10l1 27v1q0 9 3 14l4 6l2 3q3 8 10 11l7 2v1q2 2 13 6l7 3l4 1q7 3 15 1l9 -1l25 1l13 -1h15h2q10 -2 13 -4l5 -3h2q6 -1 12 -7l4 -5l2 -1q4 -4 10 -12l4 -7v-2q3 -9 3 -15l-1 -15l-2 -14l2 -4q3 -9 3 -13v-6l-1 -10l-2 -11z" />
    <glyph glyph-name="H" unicode="H" horiz-adv-x="634" 
d="M125 617q-7 -1 -15 0l-7 1l-9 -3l-17 -3l-10 -5l-11 -7l-6 -9l-1 -5l-6 -12l-3 -5v-15v-12l-1 -17q0 -8 -1 -13l-2 -6v-4q0 -3 0.5 -6.5t0.5 -5.5l-1 -6v-13l3 -14l1 -12v-5q0 -8 -1 -13l-2 -6l1 -3q1 -6 1 -14v-42v-5v-13l-2 -5l1 -5q1 -7 0 -14l-1 -7l1 -5q0 -2 1 -5.5
t1 -5.5l-1 -5l-2 -14l1 -3q1 -7 0 -13l-1 -6v-29q0 -9 -1 -13l-1 -7l1 -4q2 -9 1 -14l-1 -8l1 -10l1 -5q1 -6 -1 -14l-2 -6l1 -11l1 -23v-15l1 -10l2 -6q3 -9 2 -12l-1 -5l5 -14l4 -10l2 -3q6 -10 7 -12l3 -6l7 -7l10 -4l13 -8l15 -3h1q5 0 13 -2l6 -1l16 2q9 0 14 -1l8 -1
l14 3l12 3l20 8l10 5l1 4q2 8 6 11l4 4l5 13l-1 4q-1 7 2 14l2 7l-1 3q-3 9 -2 15l3 17l-1 15l-1 13l-1 4q0 8 1 13l1 5v7q0 4 4 12l2 4l3 5q2 5 8 11l4 4l2 2q4 4 10 8q3 2 11 4l6 1l15 2h22h7q10 0 13 -1l5 -1l4 -1q5 -1 11 -5q5 -4 9 -9q5 -7 6 -10l1 -4l3 -3q4 -5 4 -14
v-7l1 -8l3 -7q3 -9 2 -13l-3 -6l2 -7q2 -10 2 -14v-17l1 -4q3 -9 3 -13l1 -6l5 -13l2 -4q3 -8 3 -14l1 -7l10 -9l8 -8l13 -7l11 -6l7 -2l17 -2l13 -2l13 2q6 1 13 0h6l5 2q5 2 13 4l6 1l3 3q5 5 11 8l6 3l1 2q3 5 10 10l5 5v7q2 9 4 12l3 6v4q0 9 2 13l3 4v14l1 13l-1 10
l-3 17q-1 6 1 14l1 7l1 10l1 15l1 10v11l-1 4q-2 10 -1 14l2 7l-1 12l-2 11v7v11l1 5l2 12v13l-2 7q-2 10 -2 11q0 6 1 11l2 7l-1 4q-3 9 -3 14v7l1 3q0 2 0.5 6t1.5 7l2 7l-1 3q-2 6 -1 13l1 6v12v5q-2 10 -1 13l1 5v12l-1 5q-2 8 0 14l1 7v4q0 3 -0.5 7.5t-0.5 6.5l1 6
l-1 11l1 25l-1 10l-1 13l-2 3q-3 4 -5 12l-1 5l-3 10l-11 10l-8 9l-8 3l-11 6l-5 1q-8 0 -14 3l-6 2l-7 -1q-7 -1 -13 0l-6 1l-20 1h-14l-11 -1l-2 -1q-5 -2 -15 -4l-8 -1l-6 -8l-6 -8l-7 -10l-1 -3l-6 -12l-3 -5l-2 -13l1 -6v-12v-6l1 -17q0 -8 -1 -13l-1 -5l-2 -15l-1 -10
l-2 -13l1 -3q3 -7 -1 -16l-3 -7l-7 -10l-1 -2q-3 -8 -9 -11l-6 -2l-12 -4l-2 -1q-10 -4 -12 -4h-5l-28 -1l-14 1l-5 1l-12 4q-4 2 -8 6l-3 3l-8 11l-4 4q-6 7 -6 12v5l-2 12l-2 5q-3 9 -2 13l1 5l-2 8q-1 7 0 14l2 7l-1 25l-1 11l-1 13l-3 11l-8 14l-4 9l-8 10l-9 8l-16 3
l-5 1q-6 0 -12 2l-4 1l-12 2h-16z" />
    <glyph glyph-name="I" unicode="I" horiz-adv-x="284" 
d="M244 493l1 -2q3 -8 0 -15l-2 -6l2 -5q3 -9 3 -12q0 -1 -2 -11l-2 -7l1 -3q3 -7 1 -14l-2 -6l1 -5q1 -8 0 -14l-1 -6l1 -5q3 -7 1 -14l-2 -6l2 -15v-6v-12l-1 -5l-1 -14l1 -4q2 -7 1 -14l-1 -8l-1 -9l1 -6q2 -8 0 -14l-2 -6v-11l2 -15v-13l-1 -12l1 -5v-13l-1 -6l-1 -12
l1 -12v-12l1 -4q2 -11 1 -14l-2 -7l2 -16v-14l-1 -7l-1 -3q-2 -9 -4 -14l-3 -6l-1 -2q-2 -4 -7 -13l-5 -6l-7 -9l-1 -1q-5 -8 -10 -9l-6 -2l-3 -2q-7 -4 -13 -4h-6l-18 -4q-5 -1 -14 -1l-14 1h-5q-8 -1 -13 1l-6 2h-7q-7 0 -14 4q-6 3 -9 6l-3 2l-11 9l-5 5q-4 3 -8 9
q-5 8 -6 10q-2 8 -2 12v7l-1 4q-2 12 -2 14v8v24l-1 3q-2 7 -1 13l1 5v15l1 10l1 13v11v12l-3 7q-3 8 -1 13l1 5v13l1 10l-1 8q0 9 1 13l1 5l-1 2q-3 7 -1 15l2 6l-1 11l-1 5q-1 6 -1 15v12l1 5l-1 5q-1 7 0 14l2 6l-1 5q-1 7 0 14l2 6l-2 4q-3 7 -1 13l2 5l-1 5q-1 7 0 14
l2 6l1 13l-2 4q-2 6 -2 14l1 6l3 10l-2 14l-1 5q-1 6 -1 15l1 17l2 10l2 12l1 4q1 6 5 12l3 5l10 10l1 2q3 6 8 10l5 2l15 6l4 1q6 2 13 2l6 -1l16 2q5 1 13 1l5 -1h27l1 -1q7 0 15 -3l8 -3l4 -1q9 -2 11 -5l2 -4l8 -9l10 -10l1 -3q5 -9 6 -12q2 -11 1 -14l-1 -6l1 -11
l1 -13l2 -5q2 -10 1 -15z" />
    <glyph glyph-name="J" unicode="J" horiz-adv-x="440" 
d="M411 498v-3q3 -7 1 -13l-2 -5l2 -7q3 -7 1 -13l-2 -4l-1 -14l2 -3q3 -7 1 -13l-1 -6l-1 -12l1 -13v-11v-4v-15v-8l1 -4q2 -6 2 -14v-6l-1 -9v-12v-5q0 -9 -2 -15l-2 -7v-3q1 -6 1 -14l-1 -19l1 -3q0 -10 -1 -13l-1 -5l-5 -14l-2 -9l-2 -15l-1 -10l-1 -4q0 -1 -6 -13
l-3 -5l-7 -11l-1 -4q-2 -9 -5 -12l-4 -5l-1 -4q-2 -9 -6 -13l-4 -5l-2 -3q-3 -5 -7 -11q-5 -5 -10 -8l-6 -3l-10 -10l-2 -2q-3 -4 -9 -8l-5 -3l-5 -4l-12 -9l-16 -9q-2 -2 -12 -5h-5l-13 -5l-12 -3l-14 -4l-3 -2q-5 -2 -13 -4l-6 -2l-8 -2l-13 -1l-12 -1h-14h-8l-16 -1
q-9 0 -14 1l-9 2l-8 1l-14 2h-3q-8 0 -14 3q-1 1 -5 2.5t-6 2.5l-5 3l-5 3q-5 2 -11 6l-4 3l-4 5q-5 5 -8 11l-2 7l-1 1q-3 4 -5 14l-1 7l-1 3q-3 9 -3 14v6l4 26l-1 12v2q0 9 3 14l4 6l1 4q1 9 7 13l7 5q7 7 13 8l7 2h3q7 2 15 0l18 -2l8 1q5 1 12 1l5 -1l13 -1l14 3l2 1
q5 3 13 5l6 1l9 3l13 7l2 3q3 7 7 11l5 4l8 9v4q0 8 5 13l4 6l2 10v12l2 14l1 12l-1 4q0 9 1 13v6l1 13l4 25l-1 4q-1 6 -1 14v7v4v13v5l1 14v4q-2 11 -1 14l1 6l-2 10v6q0 7 2 13l2 4l-3 15l-2 22v7q0 6 2 14l2 6l1 10l1 7l3 12l2 6l3 5q2 7 6 11q2 1 9 6l7 4l4 2q4 3 13 5
l6 1h28h3q10 2 14 2h7l24 -5h4q10 0 13 -3l5 -4l5 -2q6 -2 9 -7l3 -4l6 -11l4 -6q5 -7 5 -12l1 -6v-4q2 -9 1 -13l-2 -6l1 -15z" />
    <glyph glyph-name="K" unicode="K" horiz-adv-x="605" 
d="M38 421v-14l-1 -7l1 -6q1 -7 0 -13l-1 -6v-14v-11l-1 -14l1 -3q2 -4 0 -15l-2 -8l2 -5q3 -9 3 -12q0 -5 -3 -12l-2 -5l1 -15l3 -15q2 -8 -1 -13l-3 -5l1 -13l1 -4q3 -9 2 -14l-1 -6v-3q2 -9 0 -14l-3 -6l3 -12v-3q2 -12 2 -13l-1 -6l-1 -12l1 -17v-13l-1 -5l-2 -10l6 -15
l2 -9l2 -12l4 -10l8 -11l8 -8l10 -8l9 -2l15 -1h10l20 -1l12 -1l22 2l13 -1l15 -1l10 3l13 4l11 3l10 7l4 8v4q2 9 5 14l4 7l-2 5q-2 8 0 13l3 5l-1 7q-1 6 -1 13l1 6l1 18l-3 17l-1 6q-1 4 1 13l2 6v1q2 8 4 14t11 11l2 1q8 5 14 2l6 -3l5 -2q9 -4 12 -9q4 -9 5 -12l1 -5
l12 -16q7 -11 7 -12l2 -6l4 -9l3 -14l7 -9l3 -5q2 -3 5 -11l1 -5l6 -14l5 -5q8 -8 8 -9l1 -4l6 -6l8 -8l2 -4l12 -9l14 -2l4 -2q3 -1 6 -1.5t5 -1.5l5 -2h14h4q10 0 13 -1l4 -1l5 1q7 2 15 0l21 -2q10 2 14 2l8 1l23 2l11 4l10 4l8 7l1 5q0 1 5 11l2 5l-2 7q-3 9 -3 12v5
l-2 13l-2 8l-12 23l-5 4q-5 4 -9 10l-5 10l-2 6l-4 6q-2 2 -5 12l-1 5l-4 4q-6 6 -7 10l-1 5l-3 4q-2 2 -4 6t-3 5l-3 5l-6 6q-6 5 -7 10l-3 5l-2 4q-5 9 -6 12l-2 6l-3 3q-5 5 -7 11l-2 5l-5 5q-3 3 -9 11l-9 16l-3 4q-2 2 -5 12l-1 5l-2 3q-5 8 -5 12v5l-2 4q-2 5 -2 13
q0 6 3 12q2 6 6 12l8 12l6 12l2 2l9 12l5 5l2 3q2 6 7 12l5 6l6 8l5 9l7 12l1 2q2 10 4 13l4 5l12 19l6 10l8 12l2 5q1 2 7 11l3 5l2 13l1 11l-2 11l-13 20l-12 6l-7 1h-17l-13 1l-11 2l-11 2l-5 -1q-7 -1 -15 0l-18 1h-2q-8 -3 -15 -2l-8 2l-13 -2l-4 -3q-3 -3 -12 -6
l-7 -2l-10 -5l-10 -8l-2 -4q-3 -7 -8 -13l-6 -5l-9 -19v-6q0 -8 -5 -13l-5 -4l-1 -5q-1 -3 -3 -13l-2 -6l-10 -22l-6 -12l-7 -11q-1 -10 -7 -13l-5 -4l-2 -2q-7 -9 -15 -6l-2 1q-9 4 -12 8q-4 6 -5 12l-1 6l-1 4q-1 7 0 15l3 16l-3 7q-2 7 1 13l2 5l-2 14v11l-2 7
q-2 10 -2 14v6l-2 12l-7 8l-5 9l-12 7l-24 6l-9 -1h-14l-13 2l-13 1l-10 -1l-7 -1q0 -1 -7 0h-7l-14 1l-24 -6l-7 -5l-8 -9l-6 -10l-1 -4q-1 -3 -5 -14l-4 -7v-22l1 -6q2 -9 1 -12l-2 -4v-13l1 -3q1 -6 1 -13l-1 -7v-12l3 -13v-1q1 -6 -1 -14l-2 -6z" />
    <glyph glyph-name="L" unicode="L" horiz-adv-x="462" 
d="M32 420v-1q3 -9 3 -13l-1 -6l-2 -12l1 -4q2 -10 1 -14l-2 -6l1 -13l1 -12q1 -5 -1 -14l-2 -7l2 -6q3 -9 3 -12q0 -8 -2 -11l-3 -5l3 -6q3 -7 1 -13l-2 -6l1 -5q2 -8 0 -15l-2 -6l1 -10l2 -6q3 -8 0 -14l-2 -6l1 -11l1 -4q3 -8 1 -14l-3 -6l1 -4q2 -10 1 -15l-1 -7l1 -4
q3 -7 3 -13v-6l-2 -23l2 -16l2 -12l3 -12l7 -11l6 -8l4 -4q4 -3 8 -9l3 -4l11 -6l9 -1q2 0 6 -0.5t6 -1.5l5 -2l24 -3l14 -1l11 2h7h12l4 -1l11 -1l17 -1h1q8 3 13 2l6 -1h13l14 -1l6 1h11l4 -1l13 1h10l16 -2l7 1h13l15 -1l22 3l14 1h11l13 2l9 5l9 4l4 5q4 6 9 9l4 4l6 12
l3 8l-1 14v11v23l1 13l-1 6q0 2 -0.5 3.5t-1 2.5t-0.5 2.5v3.5v6l-4 11l-6 13l-8 9l-8 1q-5 1 -11 3l-4 3l-29 -1q-7 -2 -15 0l-8 1l-3 -1q-5 -1 -13 -1h-6l-15 3h-2q-7 -1 -14 0l-7 2l-12 4h-6q-10 2 -14 4q-7 3 -8 7l-2 5l-4 4q-5 6 -6 11q-3 7 -2 14l2 16v12v11l-1 6
q-2 10 0 13l3 4v15l-2 9l-1 6q-2 12 -2 13l1 6v6q0 9 1 13l1 5l2 11l-2 7q-3 8 -1 14l1 6l-1 2q-1 4 1 13l1 6l-2 14v3q0 1 3 13l2 6l-2 8q-2 10 -1 15l3 16l-1 5q0 2 -0.5 4.5t-1 4t-0.5 3.5v4v6q-2 9 1 14l2 7l-1 3q-2 12 -2 14v9v9l-7 12l-6 10l-5 8l-10 7l-11 1l-10 1
l-14 1l-15 1l-10 1l-11 2l-17 -1l-13 -2q-5 -1 -14 -1l-18 1l-13 -3l-9 -3l-13 -9l-1 -1q-3 -9 -7 -13l-4 -4l-2 -12v-3q0 -8 -1 -14l-1 -8l1 -3q1 -7 0 -15l-4 -17h1q3 -5 3 -13v-6v-6q0 -3 -2 -13l-2 -6v-11l1 -14z" />
    <glyph glyph-name="M" unicode="M" horiz-adv-x="744" 
d="M637 617q2 0 5.5 -0.5t5.5 -1.5l4 -2l5 -1q10 -4 12 -6l5 -4l9 -8l4 -3q7 -4 8 -11l1 -5l3 -6q4 -7 4 -12l-1 -5l2 -11v-27v-3q2 -12 2 -14v-6l-1 -13v-2q2 -10 1 -14l-1 -6v-15l1 -9l1 -7q2 -10 1 -13l-1 -5v-5q0 -9 -1 -14l-1 -6l1 -7q0 -2 1 -5.5t1 -5.5v-5v-8
q0 -8 -1 -13l-1 -5l-2 -10l1 -13l1 -6q1 -5 -1 -13l-2 -6l2 -11l1 -13l1 -5v-13l-1 -6v-12v-4q0 -9 -1 -14l-2 -6l2 -15v-12v-11l-1 -10l1 -7q0 -10 -1 -14l-1 -6l2 -4q3 -8 3 -13l-1 -6l-2 -14v-22v-5q0 -5 -2 -13l-2 -5l-7 -14l-2 -3q-5 -8 -8 -9l-4 -2l-13 -7l-12 -4
l-2 -1q-5 -1 -13 -1h-6h-14h-10h-16h-14l-6 2l-8 -1q-8 0 -13 3l-4 3l-3 1q-5 2 -13 8q-5 4 -8 10l-3 6l-4 4q-5 7 -5 12v6l-2 10l-2 27l-1 4v13l1 7l-1 2q-2 5 0 15l2 7l1 10v13l-1 3q-3 9 -2 15l1 7v10l-3 7q-1 3 -2 7t-1 5q-2 8 -2 11v6l-8 8l-20 -14l-9 -11l-6 -10
l-8 -9l-4 -9l-1 -3q-3 -5 -10 -10l-6 -4l-6 -9l-3 -6q-2 -6 -8 -12l-4 -5q-2 -3 -11 -10q-6 -5 -13 -5h-6q-7 -3 -16 -1h-1q-9 4 -11 5q-6 4 -10 7l-8 7q-6 6 -7 11l-1 6l-6 3q-6 5 -8 10l-2 5l-6 7l-7 10l-5 4q-7 7 -10 11l-4 6l-9 10l-13 16l-7 -6l-7 -7l-5 -12l-3 -15
l1 -5q1 -7 0 -12l-1 -5v-14l1 -3q1 -7 0 -16l-2 -7l1 -4q2 -10 2 -12v-6l-1 -15l1 -13l1 -16q0 -5 -2 -13l-2 -6l-4 -11v-1q-1 -7 -6 -13l-5 -6l-2 -2q-5 -6 -10 -8l-4 -2l-4 -3q-4 -3 -10 -5l-4 -1l-14 -2l-4 -1q-8 -2 -15 -1l-15 2l-7 -1q-7 -1 -13 0l-5 2l-6 -1
q-7 -1 -12 0l-4 2l-7 1q-3 1 -7 2l-4 2l-5 3l-7 4q-7 5 -9 8q-4 5 -4 10v5l-5 15l-1 2q-3 9 -2 16l3 17l-2 6q-2 5 0 13l2 5l-2 7q0 2 -1.5 6.5t-1.5 6.5q0 8 1 12l2 6v11l-1 12l-1 4q-1 7 1 15l3 7l-2 4q-2 6 -2 14q0 3 2 11l2 6l-2 5q-2 7 -1 14l1 6l-2 4q-1 5 1 15l2 6
l-1 3q-3 8 -2 14l2 7v13v2q-3 9 -3 14t2 13l2 5l-1 12v4q-2 10 -1 15l1 8l1 9l-2 15v4q-1 7 0 14l1 6v2q-3 9 -3 13v6v15l1 11l2 14l-1 11v15q0 7 2 13l2 5l1 13v2q0 1 5 13q2 5 6 11l3 4l2 2q4 7 10 10l6 2l2 3q4 5 12 7q4 2 11 2h6h27l12 1h8h16h5q9 0 14 -1t11 -3
q8 -3 10 -4l4 -3l4 -1q11 -4 13 -6l3 -1q5 -3 9 -9l2 -4l6 -4q4 -3 10 -11l3 -5q4 -5 6 -13l2 -6l6 -8l8 -12l7 -10l1 -3q1 -2 4 -5.5t4 -6.5l3 -7l8 -10l5 -8l4 -6q5 -7 6 -11l1 -6l4 -4q5 -5 6 -10l1 -5l8 -12l17 -15l9 -8l11 5l18 21v1q2 8 6 12l4 5l5 10l5 10l8 13l6 7
l7 14l6 8v2q3 7 7 12l4 5l9 13v2q1 4 6 11l4 5l15 23q3 7 8 12l5 4l23 12v1q1 1 14 6h1q7 3 12 3l4 1l11 2h3q5 1 13 1l6 -1h16l8 -1z" />
    <glyph glyph-name="N" unicode="N" horiz-adv-x="622" 
d="M496 11h10l12 4l13 4l13 3l2 2q3 4 9 10l5 5l7 10l5 8l7 11l3 11l4 24l-1 12l-1 4q-1 4 1 13l1 6l-2 6q-2 8 0 15l2 6l-1 11v13l-1 12l-1 5q-1 6 1 14l2 6v11l-2 3q-3 7 -1 15l1 7l-1 3q-1 5 1 13l1 6l-1 4q-2 11 -1 14l1 7l1 13l1 11v13l-1 3q-3 8 -3 13q-1 3 -1 12
q0 7 1 12l1 6l2 14v10l-1 4q-3 7 0 15l2 8l-1 3q-3 8 -1 14l2 6l-1 2v14v6l-1 5q-1 4 1 15l1 7l-1 2q-2 6 -2 14l-2 19l-2 11l-4 12l-3 13l-10 8l-11 7l-12 3l-8 2l-14 3h-12l-30 1l-11 -2l-12 -1l-13 -2l-11 -7l-9 -6l-10 -8l-3 -10l-2 -6q-1 -4 -5 -13l-3 -5l2 -18
q1 -6 -1 -13l-1 -5l-1 -14l1 -8l1 -5q1 -6 1 -14l-1 -7l-2 -9l1 -7q1 -7 0 -13l-1 -5v-10l2 -4q1 -6 1 -15l-1 -7l-2 -12q-2 -9 -4 -12q-3 -4 -8 -1l-6 4l-4 4q-6 4 -10 10l-8 11q-7 9 -7 10l-1 5l-4 4q-7 7 -8 11l-1 7l-7 8l-4 6q-5 9 -6 12l-2 5l-6 8l-6 7q-5 7 -6 10
l-1 4l-9 14l-6 9l-5 10l-3 4q-4 5 -5 12l-1 6l-15 21l-8 8l-11 9l-10 8l-7 4l-14 4l-13 5l-12 1l-9 1l-15 2h-12l-4 -1q-5 -1 -12 -1l-5 -1l-22 -1l-13 -3l-10 -5l-12 -7l-9 -10l-6 -9v-1q-2 -8 -6 -14l-4 -5v-5q2 -10 1 -14l-3 -20v-22l1 -13l1 -4q1 -8 0 -13l-1 -6l-2 -14
l1 -1q4 -9 3 -15l-1 -7l-1 -9l-1 -13l1 -5q2 -10 1 -14l-2 -6l2 -13l1 -11v-6v-13l-2 -5l-1 -11l1 -6q2 -10 1 -13l-2 -5l1 -6q1 -7 0 -14l-2 -6v-11l1 -11l1 -4q2 -10 2 -14v-18v-4q0 -11 -1 -14l-3 -7v-2q2 -11 1 -14l-1 -6l1 -4q3 -9 2 -14l-2 -6l1 -4q3 -9 2 -15l-1 -7
l-3 -12v-10l4 -26l2 -9l1 -12l6 -13l5 -8l12 -10l7 -3l14 -4l10 -3h3q10 2 15 1l9 -2h7l27 1l12 1l15 2l3 2q6 5 12 6l5 2l9 6l10 10l1 4q2 12 4 15l4 6l2 10l-2 20q-1 6 1 13l1 5v12l-1 10l-1 6q-1 7 0 14l2 7v1q-3 7 -1 15l2 7v10v13v2q-2 7 1 14l4 6l1 5q1 9 5 11t11 -3
l5 -3q6 -3 10 -10l3 -5l9 -9l11 -12q7 -7 8 -11l2 -5l6 -9l6 -5q6 -4 8 -9l2 -5l7 -11l5 -9l5 -4q6 -6 9 -10q1 -1 2.5 -3t3 -3.5t1.5 -2.5l2 -5l6 -9l7 -12l10 -10l2 -3l11 -9l5 -5l13 -19l10 -8l6 -3q7 -3 10 -7l3 -4l15 -3l11 -1z" />
    <glyph glyph-name="O" unicode="O" horiz-adv-x="695" 
d="M363 -16l11 2l7 1q7 1 12 0l5 -1l8 3q3 1 7 2t5 1l4 1l35 10l12 4l13 6l7 2l13 5l11 9l2 2q6 4 11 6l4 2l14 7l2 3q4 6 11 10l7 2l5 8l3 4q2 2 5.5 5t4.5 4l5 4l10 9l8 8l2 4q2 4 8 12l5 6l1 2q1 1 7 11l4 4l6 14l1 4q1 1 7 11l3 4l4 12l1 4q1 4 5 13l3 6l2 11l3 12l1 4
q1 5 4 13l3 6l-1 13v10v12v24l-1 13l1 12v12l-2 14v2q-4 10 -4 13l1 7l-5 13l-2 2q-5 8 -6 13l-1 7l-1 9l-5 8q-5 9 -6 11q-3 4 -4 10l-1 6l-8 9l-2 3q-4 5 -6 13l-1 6l-7 8l-8 12l-7 8l-5 4q-2 2 -5.5 4.5t-4.5 4.5l-3 4l-9 10l-7 5l-5 3q-9 7 -10 8l-4 4l-7 4q-7 5 -9 6
l-3 2l-8 3q-5 2 -10 7l-3 4l-6 2q-9 2 -12 4l-5 3l-11 4l-11 5l-14 4l-11 4l-11 1l-12 4l-12 3h-12l-10 1l-26 1h-21l-16 -1h-11l-3 -1q-8 -3 -15 -3l-8 1l-11 -4l-9 -2l-4 -2q-6 -4 -14 -6l-8 -2l-9 -1l-12 -6l-14 -7q-4 -3 -11 -6l-6 -2l-21 -15l-9 -5l-13 -10l-3 -3
q-2 -1 -5 -4t-5 -4l-5 -3l-1 -2q-1 -2 -11 -9l-7 -5l-1 -4q-1 -5 -6 -12l-8 -8l-4 -4l-11 -13q-1 -3 -5 -12l-3 -5l-3 -6q-1 -1 -2 -3.5t-2 -4.5l-2 -4l-4 -5l-5 -12l-4 -9l-2 -6q-2 -7 -6 -12l-4 -4l-1 -12l-2 -14v-3q0 -6 -3 -15l-2 -7l-3 -12v-1v-14l-1 -6l-2 -26l1 -13
l2 -4q2 -6 2 -12v-5l1 -6q2 -10 2 -13l-1 -6l2 -10l2 -12l4 -5q2 -2 4 -7t2 -6q2 -8 2 -11v-5l4 -11l8 -13l2 -3q5 -7 5 -12l1 -5l5 -5q6 -5 9 -10q3 -6 4 -11l2 -6l7 -8l5 -3q8 -7 9 -9l1 -4l7 -6q4 -3 8 -9l3 -4l12 -9l10 -6l3 -2q6 -4 9 -9l4 -4l13 -6l3 -1l12 -5l4 -4
l6 -2q1 0 5.5 -1.5t7.5 -3.5l6 -3l3 -1q5 -2 11 -6l4 -3h8q2 0 4.5 -0.5t4 -1t2.5 -0.5l3 -1l16 -5l8 -3h12h8q2 0 14 -3l6 -2l9 -1l10 2h27zM361 435q9 0 13 -1l5 -1l7 -1q10 -2 13 -3q6 -2 9 -5l5 -4l1 -1q7 -4 12 -8l6 -5l12 -15q7 -10 8 -11q2 -6 2 -10l1 -5l3 -6
q3 -7 3 -13v-5l2 -5q4 -9 3 -13l-2 -5l2 -26v-3q0 -8 -3 -14l-3 -6v-4q1 -9 0 -13l-3 -4l-6 -11l-2 -4q-2 -5 -7 -12l-5 -5l-2 -3q0 -1 -8 -11q-6 -6 -9 -8q-6 -4 -11 -7l-5 -3l-2 -1q-7 -4 -13 -4l-7 -1q-5 -5 -13 -5h-6l-18 -1q-10 0 -15 1t-11 3l-4 2l-10 3l-8 1
q-7 2 -12 6l-5 4l-8 7l-4 4q-6 5 -9 9l-3 6q-1 3 -2 4l-2 6l-2 12l-4 11l-2 9l-2 8q0 2 -0.5 4t-1 3t-0.5 2.5v2.5l1 5l-2 7q-3 9 -3 15v9q0 5 2 13l2 5l4 11l1 4q1 5 5 13l3 6l3 10l3 5q1 3 6 10l4 4l8 9l5 5q5 4 12 8l7 3v1q4 3 13 5l8 1l2 2q5 3 15 3h8z" />
    <glyph glyph-name="P" unicode="P" horiz-adv-x="548" 
d="M532 474l3 -4q4 -7 4 -13v-6l1 -14l2 -3q3 -8 3 -15q0 -6 -2 -12l-2 -5l1 -6q2 -10 1 -13v-6l-2 -6q-1 -7 -5 -13l-4 -5v-4q0 -6 -4 -14l-4 -6v-2q0 -10 -4 -14l-5 -5l-2 -4q-1 -3 -4 -6.5t-4 -5.5l-4 -6l-1 -2q-2 -4 -8 -11q-2 -1 -5 -4t-5 -4l-5 -4l-9 -8l-4 -4
q-4 -6 -9 -9q-6 -4 -11 -6l-22 -9l-4 -2l-10 -5l-4 -1l-16 -4l-3 -2q-4 -3 -13 -5l-8 -1l-2 -1q-8 -3 -14 -3l-7 1l-13 -4l-4 -1q-10 -2 -15 -2l-14 -1l-14 -4l-11 -6l-11 -8l-9 -8l-4 -11l-1 -14l-3 -22l1 -2q4 -9 2 -15l-1 -6l1 -16q0 -8 -1 -12l-1 -4l-2 -13v-7
q0 -6 -3 -12l-3 -6l-1 -2q-4 -6 -11 -10l-6 -2l-12 -5l-5 -2l-12 -3l-4 -1l-3 -1q-9 -3 -16 -2l-9 1l-22 -1h-7q-9 0 -13 1l-6 2l-10 2l-13 3h-2q-10 2 -14 5l-6 4l-2 1q-3 2 -8 12l-3 6l-2 3q-7 7 -6 12l1 7l-2 6q-2 12 -2 14l-1 16l-1 5q-1 8 0 14l1 6v12l-1 2q-1 5 1 15
l2 7l-1 4q-1 9 0 13l1 5l-1 15l-1 3q-2 5 0 14l2 7l-1 4q-2 6 -2 13v6l1 11l2 15l-1 5q-3 6 -1 14l1 6v3q-2 8 0 13l1 5l-2 7q-1 5 -1 13v5l1 14l1 12v2q-1 7 0 15l1 8l-1 10l-1 3q-1 5 1 15l2 8l-1 2q-3 7 -1 15l2 6l-1 5q-3 7 -1 14l1 7l-1 11v3q-1 6 -1 14t1 13l2 6v16
q0 9 1 13l2 7l2 13v2q-1 9 4 14l4 4l1 2q3 8 8 13t12 7q5 2 12 3l8 2l4 1q7 3 15 3h10q10 0 14 -1l6 -1h11h11l15 -1q7 3 14 3l7 -1l13 -2l2 1q7 3 15 1l7 -2l10 1l6 1q5 1 15 1h9l9 -1l24 -1h25l14 -2h9l15 -2l11 -3l9 -3l9 -3l10 -3q3 -1 6.5 -2.5t4.5 -1.5l4 -2l12 -6
l5 -2q8 -4 10 -6l4 -3l4 -3q1 -1 5 -3.5t6 -4.5l5 -4l3 -2q9 -7 10 -8l3 -5l4 -3q7 -7 8 -12l2 -6l4 -4q7 -5 8 -9q2 -6 3 -10l1 -6zM294 333l3 1q7 3 13 4l7 1l11 6l10 8l7 10l6 7l7 13l3 13v25l-3 11l-2 3q-5 7 -7 13v6l-7 9l-10 6l-13 3l-12 5l-9 2l-15 2l-22 -1l-14 -4
l-6 -9l-5 -11l-3 -14v-2q0 -9 -2 -13l-3 -6l3 -18v-12v-5l1 -12l4 -12l5 -9l6 -9l9 -8l14 -2z" />
    <glyph glyph-name="Q" unicode="Q" horiz-adv-x="665" 
d="M497 67l-1 -1q-4 -3 -10 -7l-4 -2l-1 -7l10 -4l13 -2l6 -1q8 -2 14 -4l4 -1q8 -3 12 -6l4 -4l5 -6q6 -8 7 -12q2 -10 2 -11l-1 -5l2 -8q2 -12 2 -14l1 -18l-1 -5q0 -5 -2 -13l-2 -7l-1 -2q-1 -2 -2.5 -6.5t-2.5 -6.5l-4 -7l-2 -3q-4 -5 -12 -9l-6 -2l-11 -5l-6 -2
q-2 -1 -15 -1h-14h-4q-10 0 -14 1q-10 2 -12 3l-7 2l-4 1q-8 2 -14 4l-9 4l-2 1q-2 1 -4 1.5t-3 0.5t-2.5 0.5t-2.5 1.5q-6 2 -10 5l-5 3l-10 7l-7 3q-8 3 -12 7q-7 5 -8 7l-3 3l-23 13l-9 7l-10 9l-8 5l-12 4l-6 3q-8 3 -10 5l-4 2l-13 7h-3q-10 2 -12 4l-4 3l-18 3
q-11 2 -12 3l-5 2h-9q-10 0 -13 2l-5 3l-3 1q-9 2 -12 4l-4 3l-11 8l-9 9l-5 6q-5 7 -5 12q-1 2 1 9l1 5l-2 3q-5 12 -5 13l-1 7l-19 18l-3 3q-6 8 -8 12l-7 14l-4 4q-6 8 -8 12l-3 6l-6 8l-3 5q-5 6 -6 13l-1 7l-2 12l-3 4q-4 8 -5 11q-3 9 -3 11v6l-3 5q-4 7 -4 13v5
l-2 15l-2 11l-1 3q0 9 1 15l1 7l-2 17q-1 7 0 13l1 6l2 13l1 9l1 12l1 6q0 10 4 14l4 5v1q0 10 3 14l4 6l3 14l3 9l2 5q3 8 7 13l4 5l5 9l2 4q4 8 7 12l5 5l6 7l10 12l1 2q3 5 10 9l5 3l2 3q3 5 11 11l6 4l9 7l2 2q2 3 10 8l4 2l11 7l6 4q4 3 10 5l5 2l9 5l7 4q6 4 12 5h6
l8 4l5 3q8 3 14 3h7l2 1q10 4 12 4h6l17 3q1 0 14 3h2h7q7 1 7 0l13 -2l14 -1h6q9 0 14 -1l7 -1q2 0 7 -0.5t7 -1.5l5 -2h3q10 0 15 -2h1q2 -1 5.5 -3t5.5 -2l4 -2l8 -2q5 -1 11 -4l3 -2l7 -2q9 -3 11 -4l4 -3l10 -7l12 -6l9 -7l11 -7l12 -7l9 -8l4 -5l7 -5q5 -4 10 -9l4 -5
l7 -10l5 -9l8 -9l4 -4q6 -7 6 -12l1 -5l3 -4q6 -8 7 -11l2 -6l2 -4q4 -5 5 -12l1 -6l3 -5q5 -9 5 -11l1 -5l1 -3q3 -7 4 -14l2 -8l2 -11l2 -12l2 -11l1 -11l1 -14l-1 -22l1 -5q2 -9 -1 -14l-3 -7v-1q3 -8 0 -14l-3 -6v-6q-1 -5 -4 -13l-2 -6l-3 -8l-5 -14v-2q-2 -8 -4 -13
l-3 -5l-5 -10l-7 -14q-1 -5 -6 -12l-4 -5l-10 -11l-2 -4q-4 -8 -7 -11l-4 -3l-8 -10l-5 -5l-11 -8l-6 -8l-3 -3l-12 -9l-13 -9zM324 444l-11 -1l-16 -2l-3 -2q-3 -3 -11 -7l-6 -2l-11 -5l-6 -8l-2 -5q-1 -2 -4 -5.5t-5 -5.5l-5 -6l-1 -3q-2 -9 -6 -13l-4 -5v-6q0 -6 -2 -14
l-2 -6v-11l1 -25l2 -11v-9l3 -12l1 -11l2 -6q3 -7 4 -12l1 -5l5 -10l12 -10l8 -8l7 -8l14 -6l11 -4l10 -2l11 -2l26 -1l10 3l9 2l26 11l6 3l12 8l7 8l3 10l3 5q2 5 6 11l3 4l2 12l2 12l4 13l-1 10l1 23l-1 5q0 3 0.5 7t0.5 6v6l-1 13l-2 3q-5 6 -6 13l-2 6l-3 3q-6 8 -7 11
l-1 5l-8 7l-11 8l-10 9h-3l-4 2t-4.5 2t-3.5 2l-5 3l-9 1z" />
    <glyph glyph-name="R" unicode="R" horiz-adv-x="601" 
d="M556 121q5 -7 5 -12l1 -5l3 -3q7 -7 8 -11l2 -6l3 -6l5 -10l1 -5l3 -7q2 -6 2 -14q-1 -5 -6 -12l-5 -6q-4 -6 -9 -9l-4 -2l-5 -2q-10 -4 -11 -4h-5l-4 -2q-5 -2 -15 -2l-9 1l-13 -2l-4 -1q-7 -3 -15 -1l-16 1h-7q-10 0 -12 1l-5 2l-6 1q-9 0 -14 2q-6 1 -11 6l-5 3l-4 3
q-2 1 -5.5 2.5t-5.5 3.5l-5 3l-9 10l-7 9l-11 16q-3 5 -5 11l-2 4l-4 12l-8 11l-7 13l-5 9l-8 22l-4 4q-5 5 -7 12l-1 7l-8 7l-9 7l-13 5l-12 -2l-13 -15l-5 -14v-8l-5 -25l1 -15l3 -16q1 -8 0 -15v-1q-1 -7 -4 -13l-2 -5v-5q2 -9 -2 -14l-4 -6l-4 -4l-10 -10q-5 -5 -10 -6
l-6 -1l-22 -4h-13l-11 -2h-18h-4q-5 -1 -15 1l-13 2l-22 4l-7 1q-9 3 -12 6l-3 3l-8 9l-4 4q-1 1 -4 4.5t-4 5.5l-3 6q-1 3 -2 4q-3 7 -2 12l1 6l-1 22l-1 11v14l-1 13v3q0 8 1 13l1 6l1 14l1 10l-2 15v12v11l-1 13l-2 10l-1 12v7q0 4 2 12l2 6l-1 7q-1 6 1 13l1 5l-1 12
l-1 6q-1 6 -1 12v6l1 14l-1 1q-1 8 0 14l1 6l-1 5q0 9 1 13l1 7l-2 11l-1 4q-2 11 -1 14l1 7v5q-2 8 1 13l2 6l-2 7q-2 6 -2 12q0 3 2 11l2 5l-2 7q-3 9 -2 15l2 17l1 10l2 12l1 5q1 8 4 12l2 5l3 4q1 3 9 10q6 6 9 8q9 4 12 5l7 1l1 1q5 6 13 7h2q10 2 14 2h12l4 2
q5 2 13 2h6l16 -1h1q8 3 13 2l5 -1l16 1l3 1q7 1 13 0l6 -1h24l10 1h4q8 1 13 0l7 -1h14l11 1h3h13h5l17 -2l7 -2l8 1q9 0 12 -1l5 -1l7 1q5 1 15 -1l8 -1q3 -1 6.5 -2.5t5.5 -1.5l6 -2h2q8 0 14 -3l5 -2l8 -1q3 -1 14 -5l7 -4l6 -3t6 -4l6 -5l3 -1q7 -3 11 -9l3 -4l4 -4
q6 -6 8 -10l3 -4l4 -6q3 -4 7 -12l2 -7l5 -8l2 -5q4 -7 4 -14v-8l6 -24l2 -9l1 -6v-12l-1 -5l2 -5q2 -6 0 -15l-2 -6l1 -3q3 -9 0 -13l-4 -5v-11v-3q0 -1 -3 -13q-1 -5 -6 -12l-4 -7l-1 -2q-1 -8 -4 -12l-3 -4l-11 -13l-1 -2q-1 -2 -7 -11l-4 -5l-9 -7l-15 -19l-3 -13l1 -12
l1 -2q3 -7 3 -13l1 -5l8 -12l2 -3q7 -9 8 -12l8 -15l5 -13l8 -9l5 -5q7 -8 8 -9l2 -5zM265 477l-14 -4l-9 -6l-2 -12l-2 -8l-1 -12l-2 -14l-4 -24l2 -3q3 -7 2 -14l-1 -6l3 -9l6 -10l7 -8l9 -7l12 -1l25 -1l25 3l11 6l13 6l9 10l1 3q1 7 6 13l4 6v13l-2 18v5v4v3v5l-3 5
q-5 8 -5 12v5l-23 14l-7 5l-16 2l-12 3l-9 2z" />
    <glyph glyph-name="S" unicode="S" horiz-adv-x="511" 
d="M379 366l6 -3q2 -1 5.5 -2.5t5.5 -3.5l5 -4l4 -1q10 -4 12 -6q6 -6 8 -9l4 -4l5 -5q2 -2 3.5 -3l3 -2t1.5 -2l2 -3l7 -12l1 -1q5 -9 7 -13l2 -7l3 -2q8 -6 8 -12v-6l2 -5q3 -9 3 -13l-1 -5l1 -3q0 -2 1.5 -5.5t1.5 -6.5v-6l1 -7v-12v-6l-2 -10l-1 -19q0 -4 -2 -12l-2 -6
l-3 -11v-5q-2 -10 -4 -13l-3 -5l-6 -11l-3 -5q-1 -2 -9 -10q-4 -5 -10 -8l-5 -3l-6 -9l-3 -4q-5 -6 -11 -10l-14 -8l-10 -8l-4 -2q-4 -3 -12 -7l-6 -2l-11 -3l-12 -5l-13 -4l-2 -1q-4 -3 -14 -5l-17 -3h-11l-17 -1l-1 -1q-3 -2 -12 -4q-5 -1 -12 0l-7 1l-11 -2h-11l-16 -3
h-6q-9 0 -11 1l-3 1l-16 -2h-11h-7q-2 0 -5.5 0.5t-5.5 1.5l-5 1h-5q-8 -2 -14 0l-6 2l-5 -1q-10 -2 -15 -1l-12 1l-6 1q-10 2 -13 4l-5 4l-5 1q-9 3 -11 5q-1 1 -2.5 2t-3 3t-2.5 3q-5 6 -7 11q-2 6 -1 11l1 6l-1 5q-1 8 0 12l2 4v15v9l-1 17q0 10 1 14q0 5 2 11l2 4l4 12
l3 4q2 5 9 12l14 11l3 2q2 2 12 4q4 1 13 1l16 -1h13l12 -1h3q9 0 14 -2l7 -3l10 1h23l16 1l11 5l8 7l6 23l-7 12l-6 7l-14 9l-4 2q-8 6 -10 8l-4 4l-5 1q-9 3 -11 5l-3 2l-14 6l-3 1q-5 1 -13 5l-16 9l-12 8l-2 1q-8 3 -10 8l-2 5l-5 3q-8 4 -12 8q-5 7 -6 11l-2 6l-5 9
l-3 3q-7 7 -8 12l-2 7l-2 4q-4 10 -4 12v5l-2 13l-1 10l-2 4q-3 8 -3 13q0 6 1 11v6l1 5q1 3 2.5 7t1.5 5l2 6v3q0 6 4 14l3 5l3 11l3 8l6 12l6 12l2 5q3 9 6 12l4 3l3 5q3 4 9 10q2 3 10 7l5 3l3 2q2 2 5.5 5t5.5 4l5 3l24 12l11 4l8 4l6 1q7 3 12 3l5 1l16 2h8h11l14 2h10
l15 3h15l9 -1l1 1h13h6l7 1q8 2 13 0l5 -1l8 -1l16 1l11 -1h11l10 -2l12 -1l16 -1q9 0 14 -1l7 -2l5 -1q9 -2 12 -4l4 -3l4 -2q8 -5 10 -9l3 -6l1 -1q5 -7 5 -14q0 -8 -1 -12l-1 -5l1 -6q1 -7 0 -13l-2 -6l2 -17q1 -4 -1 -13l-1 -6v-3q-1 -7 -6 -12l-4 -5v-4q0 -8 -5 -12
l-4 -3l-5 -5q-4 -4 -12 -6l-5 -1h-1q-8 -5 -15 -5l-14 1l-12 1h-7q-7 0 -14 3l-16 5l-14 4h-4q-4 0 -14 2l-7 1l-13 -3l-11 -6l-8 -4q0 -3 -2 -11l-2 -5l1 -12l4 -7l9 -10l11 -5l10 -6l11 -5l9 -3q10 -4 11 -5l3 -3l13 -3z" />
    <glyph glyph-name="T" unicode="T" horiz-adv-x="558" 
d="M366 616l-8 -1h-4h-4h-3h-5l-7 -1h-12h-5l-13 1h-16l-11 1h-6h-11h-4h-26l-5 -1q-7 -1 -14 0l-7 1h-5q-6 -1 -10 -1l-4 1l-4 -1q-7 -2 -14 -1l-7 1l-5 -1q-5 -1 -11 -1h-12h-10q-6 -1 -13 0l-7 1l-8 -2h-14l-15 1l-13 -3l-10 -9l-8 -5l-8 -10l-10 -12l-2 -10l-1 -6
q-1 -5 -4 -13l-2 -5l-1 -24l1 -12l2 -6q0 -2 1.5 -6t1.5 -6v-5l4 -10l5 -13l6 -8l7 -6l16 -3l20 1h13l4 1q7 3 12 1l6 -1l10 -1l10 -2q7 -1 10 -3l4 -2l7 -2q8 -3 11 -6l3 -3l4 -4q5 -5 7 -12l1 -6l1 -3q3 -8 1 -13l-2 -4l1 -6q2 -8 0 -12l-1 -4l-1 -24l2 -6q2 -5 0 -14
l-1 -6l-1 -11v-15l1 -3q3 -9 3 -13v-6l-2 -14l-1 -10l-1 -14v-12l1 -10l1 -5q0 -10 -1 -14l-1 -7l1 -3q3 -9 2 -14l-2 -7l-2 -12l3 -11l2 -13v-3v-14l-3 -20l3 -8l5 -13l5 -13l5 -9l6 -8l4 -8l13 -7l10 -5l11 -4l11 -5l9 -2l7 1q7 1 15 0l15 -1l13 1l13 1l10 3l13 4l9 5
l12 9l9 8l1 5q2 5 6 13l3 5l2 13l2 14l-2 16q0 9 1 13l2 6l-2 3q-3 10 -1 14l2 4l-2 7q-2 6 -2 12v5l2 13v5q0 1 -0.5 7t0.5 7l1 7l-2 10l-1 5q-1 6 1 14l1 6v13v9v5v13l1 6v14l-1 11l-1 3q-1 7 0 15l2 7l-1 4q-2 10 -2 12l1 5l4 25l-1 6q-2 10 -2 11q0 5 2 9l3 5l1 4
q1 8 7 12l5 3l7 5l3 3q6 6 14 6h9l9 4l5 2q8 3 14 3h13l7 -1l27 1l8 3l10 8l9 10l4 8l3 15l5 11l3 10l-2 6q-3 9 -3 15l2 17l-1 2q-3 7 -3 13l-1 6l-3 11l-6 7q-1 2 -3.5 4.5l-3.5 3.5l-2 3l-13 6l-10 4l-12 5l-16 -2h-4.5h-5.5h-4q-8 0 -10 1l-3 2h-16h-65z" />
    <glyph glyph-name="U" unicode="U" horiz-adv-x="687" 
d="M647 482l-2 -12v-6q0 -3 0.5 -7t0.5 -5l-1 -5l1 -7q1 -6 1 -13l-1 -6l2 -12l1 -12v-10v-5q0 -5 -2 -15l-3 -7l1 -10v-13v-4q1 -7 0 -13l-1 -6v-12l1 -5q1 -7 0 -14l-3 -17l-3 -13l-2 -11l-2 -10l-2 -13l1 -5q1 -8 -2 -13l-4 -4v-7q0 -4 -3 -13l-2 -5v-2q-1 -7 -6 -13
l-4 -6v-3q0 -6 -3 -14q0 -1 -8 -11l-5 -6v-2q-1 -4 -5 -13q-1 -2 -8 -9l-4 -4l-1 -2l-9 -12l-7 -6l-7 -5l-2 -3l-12 -9l-7 -4l-8 -6l-10 -9l-2 -2q-4 -3 -13 -5l-7 -1l-1 -1q-3 -3 -13 -7l-9 -3q-6 -5 -13 -6h-6l-4 -2q-7 -3 -14 -3l-7 -1l-15 -2q-3 -1 -14 -3l-7 -1h-3
q-10 -2 -15 -2l-8 1l-10 -2h-19q-6 0 -12 2l-4 2l-8 -2h-12h-6l-12 3h-5q-7 0 -13 3l-5 2l-5 1q-9 0 -13 1q-7 1 -11 4l-4 3l-13 2l-4 1q-11 3 -13 5l-18 10l-5 2q-8 3 -10 5l-3 3l-6 3q-9 6 -10 8l-2 4l-6 3q-5 2 -11 8l-5 5l-6 7l-14 18l-5 5q-7 7 -7 11l-1 5l-2 2
q-6 4 -9 11l-3 6l-3 5q-5 7 -6 11q0 1 -1 3t-1.5 4t-0.5 5l-1 7l-1 9l-3 5q-4 8 -5 13q-3 8 -3 12l-1 5l-2 10l-3 14v6q-1 7 0 14l1 15l-1 6q0 2 -0.5 4t-1 3t-0.5 2.5v2.5v11l1 6l-1 5q-2 8 0 14l2 6l-3 13l-1 5q-1 8 1 13l2 5l-1 14v12l-1 2q-1 4 1 15l1 7v13l-1 2
q-4 8 -3 14l1 7v11l1 13l4 25l-1 3q-2 10 -2 15q0 6 3 12l4 6v4q1 6 3 12l3 5l2 7q1 4 6 11q3 5 8 8l4 2l11 7l3 3q3 3 13 7q8 4 13 4h7l11 1l5 2q8 3 15 2l18 -2l12 -1h3q2 0 14 -3l6 -1l3 -1q10 -2 12 -3q6 -3 9 -6l5 -4l4 -2q8 -6 11 -9q1 -2 4 -4.5t4 -4.5q3 -6 3 -12
l-1 -6l1 -3q4 -10 4 -13l1 -6l3 -6q3 -7 3 -12v-5v-24l1 -12v-6q0 -9 -2 -13l-3 -6l1 -14l1 -5q1 -7 0 -13l-1 -5v-15l1 -1q3 -8 1 -14l-1 -7l-2 -14l2 -3q3 -8 3 -13q0 -8 -2 -12l-3 -6l4 -18q1 -6 1 -12q0 -2 -2 -12l-2 -6l2 -7q1 -6 1 -13v-6l3 -11l3 -10l4 -5
q6 -7 6 -12l1 -7l8 -8l7 -1q7 -1 13 -5l6 -4l7 -1l26 2l8 3l15 4l7 4l11 7v4q1 5 4 13l2 6l5 11l2 11l1 4q0 3 5 14l2 6v2q-3 7 -1 14l2 6v27l-1 10l-1 5q-2 10 1 14l2 5l-2 12l-1 7q-2 12 -2 13q0 3 2 13l2 7v12l1 9l-1 6q-2 12 -2 13v6l2 15l-2 12l-1 14q0 10 2 14l2 7v2
q-2 9 1 14l4 6l-1 5q0 8 3 14l4 6l4 8l3 4q6 8 10 11l6 4q3 4 12 8q3 1 6.5 2t4.5 2l3 1l17 4h2q5 1 14 1h8h23h6q2 0 6 -0.5t6 -1.5l5 -2l10 -2l7 -2q10 -4 12 -6l4 -4l5 -1q9 -3 12 -8l2 -5l5 -3q5 -6 7 -10l2 -5l3 -6q4 -9 5 -12q1 -5 1 -11v-6l2 -13l2 -7q1 -6 1 -15z
" />
    <glyph glyph-name="V" unicode="V" horiz-adv-x="636" 
d="M535 615l9 -2l14 -2l6 -2q11 -4 13 -6q8 -4 10 -6l3 -3l5 -3q7 -4 8 -11l1 -6l1 -4q3 -9 3 -12v-6l1 -9v-7q0 -8 -3 -13l-3 -5l-3 -11v-6v-14q-2 -8 -4 -11l-2 -5l-7 -13l-3 -13l-6 -21l-5 -10l-5 -11l-3 -15l-2 -8l-1 -7q-1 -3 -2 -7t-1 -6q-1 -2 -7 -11l-4 -5l-4 -12
v-4q0 -1 -3 -13l-2 -5l-1 -4q-1 -6 -6 -14l-4 -5l-3 -12v-6q0 -4 -4 -14l-3 -5l-4 -12l-3 -10l-6 -14l-4 -9l-5 -11l-4 -14l-2 -11l-1 -4q-1 -6 -4 -12l-3 -6l-1 -5q-2 -8 -5 -13l-3 -6l-1 -5q-1 -6 -4 -12l-3 -5l-4 -17q-1 -8 -6 -12l-5 -4l-2 -5q-1 -3 -7 -11l-4 -5
l-7 -12q-6 -8 -11 -10l-7 -4l-3 -2q-3 -3 -11 -7l-5 -2l-11 -4l-4 -2q-5 -2 -14 -2h-9q-1 0 -14 -3l-8 -1l-23 1l-14 3l-4 -1q-8 -1 -12 0l-5 2l-15 2l-3 1q-8 2 -13 4l-6 3l-7 4l-5 2q-5 2 -11 8l-4 5l-6 6l-11 11l-3 4q-5 6 -6 10l-1 4l-5 9l-9 18q-2 5 -4 13l-1 5l-3 4
l-2 4t-2 4.5t-2 3.5l-2 4l-2 4t-1 4l-2 6l-1 1q-4 5 -4 12l-1 6l-3 8q-1 3 -3 12l-1 6l-3 5q-5 6 -6 11l-1 4l-5 12l-3 10l-3 5q-3 7 -3 13l-1 7l-5 10l-2 6q-3 7 -4 13l-1 6l-2 9l-4 7q-4 6 -6 11q-1 2 -1 10v6l-3 5q-4 5 -5 12l-1 6l-3 11l-2 4q-4 6 -6 13l-1 7l-3 10
l-4 13l-3 9l-9 25l-2 10l-7 12l-1 2q-5 11 -5 14l-1 8l-1 9v13l-3 11l-2 13v2q0 9 1 14q3 10 3 11l3 5l6 10l4 4q3 3 10 9l5 3l2 1q8 5 12 5h6l22 5l28 3h10l7 1q8 2 11 0l3 -1l16 -4q9 -2 13 -5l7 -4l1 -1q9 -7 10 -8l3 -4l6 -10l8 -11l3 -4q3 -4 5 -12l2 -6l1 -4
q3 -9 3 -13v-5l4 -11l5 -11l4 -13l3 -12l4 -24l2 -3q4 -8 6 -13v-1q2 -6 2 -12v-4l3 -5q4 -7 4 -14l-1 -6l5 -10l3 -12l3 -12l4 -6q5 -7 5 -12l1 -6l4 -10l8 -9l16 -7l10 4l3 9l2 3q1 1 7 11l3 4l4 15l2 11l4 12l6 13l4 12v5q0 7 2 13l3 5l5 14l2 11l5 22l6 14l4 11l5 12
l-1 3q0 3 2 13q1 3 5 12l3 6l1 5q1 6 4 12l3 4l7 12l1 3q3 9 7 11l5 2l3 4q5 7 9 9l4 1l6 2q1 0 14 3l7 1l17 3q5 1 11 1t11 -1z" />
    <glyph glyph-name="W" unicode="W" horiz-adv-x="982" 
d="M877 614l10 -2l10 1q9 0 13 -1q6 -2 9 -5l3 -3l11 -6l4 -3q8 -6 9 -9l2 -5l4 -6q4 -5 6 -13l1 -6l1 -4q3 -9 2 -12l-1 -5l-2 -13l1 -6q1 -6 -2 -14l-3 -6v-3q1 -8 -2 -13l-4 -5l-4 -12v-6q0 -2 -4 -14l-6 -17v-3q-1 -3 -2.5 -7t-1.5 -5q-1 -7 -5 -12l-4 -7l-1 -4
q-2 -10 -2 -11l-2 -4l-6 -15v-4q0 -9 -1 -12l-2 -5l-4 -10l-7 -13l-5 -10v-4q0 -4 -2 -14q0 -1 -5 -13l-2 -5l-1 -4q-1 -6 -5 -12l-3 -5l-2 -6q-1 -6 -3 -12l-2 -5l-1 -6q0 -3 -5 -12l-3 -4l-1 -7q-1 -6 -5 -12l-2 -5v-3q0 -7 -5 -14l-5 -5l-3 -12v-4q0 -8 -3 -14l-3 -5v-3
l-6 -12l-3 -6l-10 -22l-6 -10l-1 -5q-2 -9 -7 -13l-6 -6v-2q-1 -7 -9 -13l-14 -10l-12 -6l-10 -5l-4 -3q-5 -3 -15 -3h-16l-18 -3q-8 -1 -15 0l-7 1h-15l-17 1l-23 1l-8 1q-6 1 -12 5l-4 4l-7 5l-7 5q-7 6 -7 8l-1 4l-8 13l-5 8l-4 5q-4 6 -6 12l-2 6l-7 22l-3 11l-4 7
q-4 10 -4 13v6l-4 11l-1 4q-4 10 -4 12v6l-2 4l-3 6t-3 7q-1 4 -1 12v5l-6 16q-2 6 -2 13l-1 6h-17l-5 -19q-1 -7 -5 -13l-4 -5l1 -3q1 -7 -2 -13l-3 -4l-5 -15v-2q0 -5 -2 -13l-2 -6v-3q0 -7 -4 -13l-4 -6v-5q0 -9 -1 -12l-4 -10l-8 -16l-4 -13l-1 -4q-1 -5 -5 -13
q-2 -5 -8 -11l-4 -4l-8 -11v-1q-3 -8 -9 -11l-5 -3l-10 -3l-7 -3q-7 -3 -15 -3l-15 1h-1q-7 -1 -13 0l-6 1l-8 -1q-5 -1 -11 -1h-5h-33h-14q-8 0 -13 3l-5 2l-12 6l-3 2q-5 2 -11 6q-3 2 -8 10l-4 6l-11 8l-3 4q-5 5 -7 12l-2 6l-4 6q-3 5 -5 14l-3 14l-5 10l-3 4
q-5 9 -6 13l-1 8l-2 3q-5 9 -6 12l-2 6l-2 3q-3 7 -3 13v6l-3 3q-6 6 -6 13l1 6l-4 10l-5 7q-4 5 -5 12l-1 6l-2 11l-2 3q-6 6 -6 12v6l-2 5q-4 11 -5 14l-1 6l-4 9l-3 5q-4 5 -5 12q-1 2 -3 12l-1 7l-2 11l-4 11l-3 4q-3 4 -5 13l-2 7l-3 10l-1 12l-3 11l-2 3q-3 5 -5 14
l-4 16l-4 11l-3 4q-5 8 -5 13v7l-2 4q-4 10 -4 13v6l-1 5q-1 6 -1 13l1 5l-2 15v1q-3 7 -1 14l2 6l1 5q1 4 6 12l4 5l1 1q3 7 9 12l6 4l3 2q4 2 12 5q6 2 10 2l5 1h13l20 1h11l5 -1l13 1l13 1l13 -2l11 -2l3 -1q11 -5 12 -5q6 -4 8 -7l3 -4l4 -3q6 -6 7 -10l2 -4l4 -7
q4 -8 5 -11l1 -4l1 -13l5 -11l2 -4q5 -8 5 -14v-7l6 -23l3 -5q4 -7 4 -12v-5l2 -11l5 -11l4 -10l4 -13l1 -10l2 -13l4 -10l3 -4q5 -8 5 -13v-7l2 -4q5 -6 6 -12l2 -5l3 -11l7 -12l13 -5l11 7l3 6l2 5q4 10 6 13l4 5l1 12l1 9q1 4 5 13l3 5l3 14l3 12l5 16l1 3q0 3 3 13l2 7
l8 25v5q0 3 1.5 7.5t1.5 6.5l2 8l3 10l1 11l2 13l1 4q0 2 6 13l4 7v2q1 4 6 13q1 1 3.5 5t4.5 6l5 5l3 2q6 5 13 6l6 2l5 2q10 4 11 4h4l4 1q5 1 14 1h19l7 1q6 1 13 -1l5 -2q6 0 14 -2l6 -2h1q5 -2 13 -8q6 -5 9 -9l3 -5l3 -3q6 -6 7 -11l2 -5l3 -5q5 -6 6 -12l2 -7l2 -11
l3 -6q3 -7 4 -13l1 -7l3 -5q3 -7 4 -13l2 -7l3 -17q0 -2 0.5 -4.5t1 -4t0.5 -3.5v-6l2 -4q4 -10 4 -14v-7l3 -10l2 -12l3 -7q3 -7 3 -11v-4l2 -12l3 -15l1 -3l6 -12l1 -5l6 -13h18l6 7l5 11l2 6q1 6 4 12q1 2 7 10l4 5l5 13l4 13v2q0 10 2 14l3 6l4 13l1 6q1 6 5 12l3 5
l3 12l4 13l2 10l5 19q1 8 4 12l2 5l5 13l2 6q2 6 5 12l4 5v6q1 5 4 13q1 3 6 10q2 3 9 8l7 5l4 3q2 1 5 4t5 4q1 0 11 3q4 1 13 1l7 1q7 3 15 3q10 0 15 -1z" />
    <glyph glyph-name="X" unicode="X" horiz-adv-x="646" 
d="M514 248q6 -8 8 -13l3 -6l8 -10l3 -3q4 -4 8 -10l2 -5l6 -14l7 -9l3 -4q6 -8 7 -12l1 -6l7 -8l8 -12l9 -12q5 -9 7 -13l2 -7l2 -2q6 -8 8 -12l4 -6l2 -4q5 -7 5 -12v-3.5v-4.5v-5l-1 -7l-1 -5q-2 -10 -5 -15l-1 -3q-2 -3 -9 -10q-2 -2 -9 -4l-12 -3l-8 -1l-7 -1h-6
q-8 -2 -13 0h-5l-16 1q-5 -2 -15 -2h-10q-10 0 -13 1l-4 2l-14 -1l-6 1q-9 0 -12 1l-5 1l-3 1q-7 1 -12 6l-5 3l-10 6l-8 5q-6 5 -9 9l-3 5l-2 2q-6 8 -8 13l-4 8q-1 2 -1.5 4.5t-1.5 4.5t-1 3l-1 4l-3 12l-3 5q-4 5 -4 11l-1 5l-3 5q-5 6 -7 13l-5 15l-6 12l-6 7l-9 6
l-26 4l-5 -9l-9 -11l-5 -6l-4 -13v-4q0 -6 -5 -13l-5 -6v-3q-1 -6 -5 -12l-3 -4l-5 -12l-1 -5q-2 -8 -6 -14l-8 -12l-4 -7q-1 -1 -8 -11l-4 -5l-8 -7l-7 -4l-6 -3q-5 -3 -11 -5l-5 -1l-14 -3l-15 -1l-5 -1h-12l-6 1l-25 -1l-15 -2q-6 -1 -14 1l-6 1l-15 2h-5q-8 0 -11 1
q-6 2 -10 4q-5 1 -11 9l-5 7q-5 9 -6 13q-2 10 -1 13l1 5l1 3q2 12 3 14q1 3 3 6.5t3 4.5l3 6l7 11l5 9l15 21l2 4q1 4 6 11l4 4l2 7q3 7 7 12l4 5l1 2q3 8 8 12l6 4l1 3q1 6 7 13l7 8l7 10l6 13q2 5 8 13l5 5v2q1 5 4 13l2 5l3 27l-1 28l-6 12l-5 12l-13 20l-11 13
q-5 6 -7 12l-2 6l-5 9l-4 4q-6 4 -9 11q-4 8 -5 11l-1 5l-4 4q-2 2 -5 5.5t-4 4.5q-5 6 -7 12l-4 7l-8 21l-9 10l-3 5q-4 6 -6 12l-3 6l-2 5q-3 8 -3 11l-1 6l-2 6q-2 7 -1 13q2 6 6 12l6 8q3 4 9 8q1 1 10 3l5 1h15h13l5 1q7 2 14 1l7 -2h13l24 1l10 2h3q9 0 14 -2l8 -2h4
q7 0 13 -2q5 -2 10 -5l5 -4l1 -1q1 -1 5.5 -3t6.5 -4q6 -6 8 -10l3 -5l9 -12l8 -15q2 -3 5 -11l1 -5l8 -11l6 -10l1 -2q4 -7 4 -13v-5l5 -6q4 -4 8 -10q3 -6 5 -11l6 -15l9 -6l26 1l8 8l5 14l9 23l7 11l7 10l5 10l6 13l5 11l3 12q2 7 7 13l5 5l6 9l3 3q5 8 8 10q5 4 11 5
l7 2l4 3q4 3 14 5l6 1h7h17l11 -2l15 2q8 2 14 0l6 -2l2 1q7 3 15 1l10 -1l8 -2h7q4 0 14 -2l8 -2q9 -2 13 -7l8 -8q6 -6 6 -12q0 -2 -2 -12l-1 -7l-3 -11l-6 -12l-2 -6q-1 -4 -6 -12l-3 -5l-8 -9l-11 -21l-8 -11l-3 -9l-1 -3q-1 -3 -8 -12l-5 -6l-8 -10v-3q0 -2 -7 -13
l-4 -6l-5 -10l-5 -6q-3 -5 -9 -11l-5 -5l-10 -17l-2 -4q-2 -5 -8 -11l-5 -5v-4q0 -4 -2 -12l-2 -4l-5 -25l2 -2q4 -5 6 -12l1 -7l6 -9l7 -7z" />
    <glyph glyph-name="Y" unicode="Y" horiz-adv-x="617" 
d="M603 589q2 -5 4 -13l1 -7l1 -2q2 -8 0 -14l-2 -6l-5 -12l-2 -5q-1 -3 -5 -12q-1 -2 -7 -10l-6 -6l-14 -22l-7 -8v-3q-1 -5 -6 -12l-4 -5l-10 -12l-1 -3q-3 -9 -6 -12l-4 -4l-7 -13l-8 -10l-1 -4q-2 -5 -7 -12l-4 -5l-15 -17l-7 -12l-1 -3q-1 -6 -7 -12l-4 -4l-5 -10
l-9 -13l-1 -3q-6 -8 -8 -10l-4 -4l-2 -5q-2 -9 -5 -12l-4 -5l-1 -4q-1 -6 -5 -13l-4 -6l-4 -12l-2 -12l-5 -21v-13l2 -10v-12v-13l1 -13v-9v-11l-2 -25l-1 -5q0 -5 -3 -14l-2 -7l-2 -10v-6q0 -5 -2 -13q-3 -6 -7 -9l-5 -3l-4 -4q-5 -6 -10 -9l-5 -3l-8 -4l-3 -1
q-6 -2 -14 -4h-1q-5 -1 -13 -1l-7 1l-7 -1q-3 0 -6 0.5t-4 0.5h-4l-14 -1h-4q-8 0 -13 2l-6 2l-19 6q-2 1 -4 1.5t-3.5 1l-3 1t-2.5 1.5l-5 4l-1 1q-5 4 -9 10q-4 5 -5 11l-2 6l-4 9l-3 6q-4 9 -2 15l2 6l-2 12l-3 15q-2 12 -2 14q0 7 2 13l1 5v12l-1 5q-1 5 -1 12q0 1 2 11
l1 6l-1 24l-2 16l-4 11l-3 4q-6 9 -7 11l-2 6l-2 12l-9 12l-3 4q-6 8 -8 12l-3 6l-4 10l-4 11l-9 10l-8 9l-8 12l-10 12q-8 10 -8 11l-3 6l-5 12l-4 9l-9 12l-5 8l-9 12l-9 11l-2 2l-6 12l-3 7l-6 9l-11 13q-6 8 -7 12l-2 6l-4 9l-4 7q-4 5 -5 12l-1 6l-3 13l-2 5
q-3 9 -3 12q0 5 4 12l4 7q3 5 9 9q5 2 13 4q5 1 12 1l5 -1l12 2h2q5 1 15 1h8l8 1l8 1q5 1 15 1l10 -1l17 -2l4 1q9 0 12 -1l4 -2h2q9 0 14 -2l9 -3l4 -3q10 -5 12 -7l4 -4l9 -8l2 -3q1 -2 3.5 -5t3.5 -5l2 -4l11 -22l3 -4q2 -3 5 -11l2 -6l5 -11l6 -13l2 -2q5 -5 7 -11
l2 -5l4 -6q2 -2 6 -13l4 -12l8 -8l22 1l9 7l2 1q3 4 10 11l5 4l4 14q1 3 5 12l3 6l2 7q0 2 5 11l3 5l6 10l5 10l3 14q1 5 7 13l4 6l2 3q2 5 9 12l11 9l6 4q6 5 12 6q6 2 12 2h7l9 2l13 1h10l24 1l13 -1h2q10 2 14 2l7 -1h9l5 -1q2 0 6.5 -0.5t6.5 -1.5l5 -2l6 -1q8 -1 12 -3
q6 -2 9 -10z" />
    <glyph glyph-name="Z" unicode="Z" horiz-adv-x="580" 
d="M500 193h3q11 0 14 -1q9 -4 11 -5l5 -4l2 -1q7 -4 10 -10l3 -7l3 -8l2 -6q2 -6 2 -12v-5l2 -7q3 -9 2 -15l-3 -16l1 -3q2 -10 2 -13q0 -5 -3 -14l-3 -7l2 -5q1 -8 0 -14q-1 -4 -5 -12q-1 -2 -8 -9l-4 -3l-2 -3q-7 -7 -13 -8l-8 -1l-2 -1l-15 -3l-11 -1q-7 -1 -12 0l-5 2
l-3 -1q-5 -1 -15 -1h-6l-11 -1h-25l-15 2l-11 -1h-8l-15 1h-10l-13 1l-12 -1h-9l-17 -2h-12l-9 1l-13 2l-2 -1q-5 -1 -14 -1h-6h-6h-14l-6 1h-11l-5 -1q-7 -1 -13 0l-6 1h-13l-5 -2q-5 -1 -15 -1l-16 -1l-12 1h-16q-10 0 -15 2l-13 4h-1q-7 1 -13 6l-5 5l-5 3q-7 5 -8 8
q-4 7 -4 9l-2 6l-1 2q-4 7 -4 16l1 15v13l-2 7q-2 10 -1 14l2 6v10l-1 8q-1 6 1 14l2 6v4q-1 6 -1 13q0 6 3 13l4 6l3 12v2q1 6 4 12q2 6 6 12l1 1q1 2 8 9q1 1 4 3.5t5 4.5l15 12l9 8l1 1q3 5 11 10l8 4l9 8q8 6 12 8l7 4l11 8l4 3q2 1 11 6l5 2l4 4q4 4 10 8l4 3l1 1
q4 5 12 9l6 4l7 6l21 18q2 4 8 12l5 5l5 8v11l-2 12l-10 8l-21 2l-17 1h-2q-10 -2 -14 -2h-1q-9 0 -12 1l-5 1h-6h-11l-4 1h-24l-6 -1q-10 -2 -14 -1l-13 1q-5 0 -13 2l-5 1l-4 2q-1 0 -5.5 1.5t-7.5 3.5q-8 6 -9 8l-5 10l-2 5l-6 14l-4 11l-3 14l-1 12l-1 25v4q0 8 3 13
l3 5v3q0 9 1 13l3 6l1 6q2 9 5 12q6 4 10 7l7 4l1 1q7 4 13 4q1 1 7 0h6l19 -1l14 1h9l12 -1l5 1q8 2 14 0l6 -1l4 1q5 1 15 1h6q10 0 14 -1l6 -1h5q3 0 7 0.5t6 0.5l5 -1l5 1q10 2 15 2l8 -1l13 -2h10h2q10 2 14 2h20l14 -2l7 1l5 1q5 1 14 1h1q10 0 13 -1l5 -1h23l14 1h32
l17 -1l10 1q9 0 13 -2q5 -1 9 -5l3 -3l9 -8l5 -3q10 -7 11 -9q5 -5 7 -10q2 -4 2 -12v-6l3 -6q5 -8 5 -14v-7l1 -5q2 -10 2 -15l-2 -18v-1q3 -8 0 -14l-2 -6l-3 -11l-1 -5q-2 -9 -4 -12l-3 -5l-9 -12l-12 -16l-9 -10l-18 -18l-10 -8l-2 -3q-2 -2 -6 -5l-3 -3q-3 -3 -9 -6
l-7 -4l-8 -9l-1 -2q-2 -6 -9 -11l-5 -4l-7 -7l-8 -7l-11 -9l-3 -2q-5 -5 -11 -8l-7 -4l-7 -7l-10 -6l-14 -18l-14 -17l-7 -11l3 -11l3 -9l17 -13l13 -3h1q8 1 15 0l20 -3h1q9 2 13 1l5 -1l21 1l17 -2l23 1z" />
    <glyph glyph-name="bracketleft" unicode="[" horiz-adv-x="330" 
d="M282 41q4 0 14 -2q6 -1 10 -7l3 -12l2 -7l2 -12l6 -15q2 -6 2 -14q0 -10 -1 -13l-2 -5l-1 -14l1 -4q1 -7 -3 -13l-3 -4l-5 -13l-1 -1q-2 -7 -9 -12l-6 -4l-1 -1q-5 -5 -14 -7l-11 -3q-9 -2 -11 -1l-3 1l-8 -2q-6 -2 -13 0l-6 1l-10 -1l-8 -2q-8 -2 -13 0l-5 1h-16
q-10 0 -14 1l-6 2l-15 -1l-25 3l-10 2l-4 -1q-8 0 -15 3l-8 3l-3 1q-5 2 -11 6q-5 4 -8 8l-3 4l-3 3q-4 4 -7 10l-1 3l-5 12l-3 11l-2 15l-1 22l-1 4q-1 6 -1 14v6l1 11l-1 5q-1 6 -1 14v6l-2 14l-1 4q-2 8 0 14l2 5l-3 12v6q-1 7 0 13l1 6l-1 3q-2 7 -1 13l1 6l-1 4
q-2 10 -2 14v6v6q0 8 1 13l1 6l-1 12v12l-1 13l-1 11l-1 13l-1 5q0 9 1 12l2 4l-1 6q0 2 -0.5 3.5t-1 2.5t-0.5 2.5v3.5q0 7 1 13l1 7v5v13l1 5l1 13l-1 3q-3 8 -2 15l2 8l1 12l-1 4q0 8 1 12l1 5v12l-1 7q-1 8 0 14l2 6l-3 11l-1 5q-2 8 2 13l2 5v12v14l2 9l-2 7
q0 2 -0.5 4t-1 3t-0.5 2.5v2.5q0 6 1 11l2 6l1 12l-1 4q-2 10 -1 15v8l1 11l1 6q0 2 0.5 6t1.5 7l2 6l-1 12v5v14l3 17l1 12l1 2q1 7 4 14l3 7l1 3q1 3 9 11l4 5l5 4q3 3 10 9q5 4 9 5l4 1l22 6l16 3h11l13 1l1 1q7 3 15 3q9 0 11 -1h3h12l9 1q5 1 11 1l3 -1l16 1h11l13 -1
l15 -1q6 0 14 -2q8 -3 9 -4l3 -2l8 -3q6 -3 10 -7l2 -4l3 -4q5 -7 5 -11v-5l1 -19v-12l-1 -6l2 -3q3 -8 0 -14l-3 -6l1 -5q1 -7 0 -14l-2 -7l-2 -4q-2 -6 -6 -12l-4 -6l-2 -2q-4 -7 -11 -9l-6 -1l-25 -6l-12 -3l-13 -8l-6 -7l-2 -12l-4 -13l2 -16q2 -8 -1 -13l-2 -6l-2 -12
v-12v-10l1 -4q1 -6 1 -14v-6l-3 -12l1 -11v-13l1 -6q2 -10 1 -13l-2 -5l1 -3q1 -8 0 -14l-1 -7v-13v-11v-12l1 -13v-4q0 -10 -2 -13l-2 -5l2 -7q3 -8 0 -14l-2 -5l1 -4q2 -10 2 -13v-5v-13v-4q2 -7 0 -15l-2 -7l1 -11l1 -2q2 -5 0 -15l-1 -8l-1 -12l1 -2q2 -6 2 -14l1 -6v-3
v-14l-2 -17l1 -16v-9l6 -14l8 -10l11 -7l2 -1q8 -2 14 -4l6 -2z" />
    <glyph glyph-name="backslash" unicode="\" horiz-adv-x="546" 
d="M21 598l-4 11l-4 13l-3 12v1q-3 7 -1 14l3 6l-1 3q-3 7 -1 13t6 12q4 7 8 11q2 1 4 3t4 3l5 3l4 3q2 2 13 6l19 7l8 4l20 10l4 1q6 2 14 4h7l1 1q5 0 15 -2q8 -1 12 -3t8 -6l4 -4l6 -4q2 -1 11 -7q6 -6 7 -8l3 -5l6 -12l8 -17q3 -7 3 -12l1 -6l3 -2q5 -5 7 -11l1 -5
l8 -14l4 -10l5 -10l3 -6q2 -3 5 -11l2 -5l5 -11l4 -5q7 -11 7 -12q3 -5 3 -12l1 -7l5 -12l4 -3q6 -6 6 -12l1 -5l7 -14l5 -10l6 -10l4 -7q4 -9 5 -12l2 -6l1 -2q7 -9 7 -12v-7l4 -4q5 -6 7 -12l3 -6l3 -9l3 -6q5 -8 5 -13l1 -7l2 -3q3 -5 6 -11l3 -6l7 -10l3 -5q4 -10 4 -13
l1 -6l3 -4q6 -7 6 -13l1 -6l5 -6q6 -6 7 -11l2 -5l1 -2q5 -12 5 -13l1 -7l6 -11l2 -3q5 -7 6 -12l1 -6l4 -4q7 -7 7 -12l1 -6l4 -5q6 -7 7 -11q3 -6 3 -11v-5l7 -13l2 -3q7 -7 8 -11l1 -6l4 -11l4 -13l5 -10l5 -6q5 -7 5 -12v-5l6 -10l3 -4q4 -6 6 -13l1 -6l3 -11l4 -4
q5 -6 7 -12l2 -6l7 -14q4 -10 4 -13l-1 -5l3 -14l2 -3q3 -8 2 -14l-1 -7l-4 -12l-3 -8l-2 -4q-3 -7 -9 -12l-6 -5l-3 -2q-3 -2 -7 -5l-4 -2l-5 -2l-4 -3q-5 -4 -13 -7l-15 -5l-11 -5l-5 -2q-7 -3 -14 -3h-9l-3 -1q-7 -1 -14 2l-7 3l-9 3l-4 2q-7 3 -11 9q-1 1 -4 4.5t-4 5.5
l-3 5l-13 20l-2 4q-3 8 -3 12l-1 5l-5 12l-4 12l-5 9l-7 13l-5 10l-6 10l-3 5q-5 6 -6 13l-2 6l-6 11l-2 5q-2 5 -4 11l-1 5l-3 3q-6 8 -7 12l-1 6l-3 4q-1 2 -3.5 5.5t-3.5 5.5l-2 6l-4 11l-4 11l-5 10l-4 5q-5 6 -7 12q-3 6 -3 11l-1 6l-6 12l-3 9l-5 4q-6 6 -7 12l-2 6
l-4 12l-3 9l-6 11l-4 6l-5 10l-1 4l-4 12l-7 11l-7 11l-5 10l-4 10l-3 12l-5 7q-5 7 -6 10l-1 4l-3 12l-8 10l-1 3q-4 8 -5 12l-2 5l-5 7q-5 8 -5 11v4l-4 5q-5 6 -6 11l-2 5l-4 13l-5 10l-4 6q-5 9 -6 12l-2 5l-4 10l-6 9l-4 7q-1 2 -2.5 6t-1.5 5l-1 4l-5 12l-3 4
q-6 10 -7 12l-4 7l-4 9l-5 12l-2 3q-7 9 -8 12z" />
    <glyph glyph-name="bracketright" unicode="]" horiz-adv-x="330" 
d="M78 45l11 4l11 6l2 10l4 11l5 16l2 9l-1 27v11l-1 6q-2 8 0 13l1 4l-1 4q-1 8 0 14l1 6l-1 11l-1 15v9l1 14l2 11l-1 12v12l-1 5q-2 8 0 13l2 4l1 14l-2 11l-1 14v3q-2 12 -2 13q0 6 2 11l3 6l-1 6q-1 8 0 12l1 5l-2 5q-2 10 -1 14l1 7v12l-2 10l-3 13v4q0 10 1 14l2 6
v13l-1 3q-2 5 0 14l1 6l-1 4q-1 6 -1 15l-1 17l-3 10l-4 13l-5 10l-12 7l-9 3l-20 2q-7 0 -14 4q-5 4 -8 8l-2 4l-2 2q-6 5 -9 12l-1 1q-3 4 -5 11v11l1 6l-3 7q-3 7 -1 13l2 6l-1 15v16q0 5 2 13q1 4 4 10l3 5l1 1q4 7 12 10l7 2l4 3q4 3 12 5q6 2 12 2h18l8 -1l13 1l7 1
q8 2 11 0l4 -2l7 2q6 1 13 -1l5 -1l10 -1h14l6 1h13q8 -2 11 -3l5 -2l11 -1l17 -3q9 -2 12 -5l5 -4l6 -2q5 -2 10 -7t7 -8l2 -5l6 -7q6 -8 7 -11l2 -5l2 -5q2 -6 2 -14l1 -7l2 -14v-14l-1 -6v-12l-1 -12l2 -7q2 -9 1 -13l-1 -6l1 -5q1 -6 1 -13t-1 -10l-1 -5l4 -13l1 -11v-5
q0 -8 -1 -14l-2 -8l1 -12l1 -2q3 -8 2 -13l-1 -6v-7q0 -8 -1 -13l-1 -6l3 -12v-3q3 -9 2 -14l-1 -7l-2 -10l1 -6q1 -7 0 -13l-1 -5l1 -5q4 -11 3 -15l-1 -7l-3 -12v-12l1 -10v-15v-4q1 -7 0 -12l-1 -5l1 -12v-4q0 -10 -1 -14l-1 -7l2 -6q2 -9 1 -13l-1 -6v-10v-7
q0 -4 -2 -14l-1 -6l1 -11l1 -4q2 -12 2 -13v-7l-1 -13v-1q0 -6 -2 -14l-2 -6l3 -15v-2q0 -9 -1 -13q0 -3 -2 -13l-1 -6l-1 -11l1 -12l1 -8v-12l-1 -5l-5 -13l2 -4q3 -6 1 -16l-4 -15l1 -3q2 -8 0 -14q-2 -10 -5 -13l-5 -6v-2q-1 -7 -6 -12l-4 -4l-2 -3q-5 -8 -12 -9l-8 -1
l-10 -5l-3 -1q-7 -4 -13 -4h-6l-4 -2q-1 0 -14 -3l-9 -1q-7 -1 -14 0l-6 1l-13 -1l-5 -1h-4.5h-4.5h-3h-5h-6h-12l-5 1l-18 1l-11 -2h-3q-6 0 -14 2l-6 1l-17 3q-10 2 -12 4l-4 4l-5 3q-6 4 -8 8l-1 4l-5 12l-4 7q-3 8 -4 12t-1 12q0 3 2 13l2 7l-2 10v18q0 10 2 14
q1 3 6 12l4 6l1 2q3 7 10 9l6 1z" />
    <glyph glyph-name="asciicircum" unicode="^" horiz-adv-x="512" 
d="M20 309l8 -6l12 -1l10 -2h15l13 2h4q5 1 14 1l15 -1l11 1h11l16 2l1 1q6 4 12 6l5 1l15 10l1 2q4 9 6 13l11 16l24 46l11 21l1 2q5 8 14 8h2q10 0 14 -4q5 -7 7 -12l6 -18l9 -11l4 -5q5 -8 5 -12l1 -5l9 -10l15 -22l8 -8l9 -9l10 -5l11 -2l15 -4h10l4 1h14l33 -2l10 1
l14 3l9 2l12 2l14 4l5 18l-3 11l-5 10l-5 14l-5 6l-13 15q-6 7 -7 11l-3 6l-2 3q-6 8 -7 12l-1 6l-5 3q-7 5 -9 11l-3 6l-2 2q-1 2 -4 6t-4 6l-5 7l-4 6l-9 12l-6 10l-5 8l-8 9l-5 4q-3 2 -5.5 5.5t-3.5 4.5l-4 5l-8 11l-5 8l-4 3q-8 7 -9 9l-2 5l-10 10l-7 6l-20 18l-8 7
l-8 5l-14 4h-4q-6 -1 -14 0l-15 1l-9 -4l-12 -5l-10 -5l-5 -7l-9 -9l-17 -18l-10 -9l-8 -9l-7 -9l-8 -9l-7 -9l-1 -2q-3 -4 -9 -10l-5 -4l-3 -5q-3 -8 -9 -11l-5 -4l-1 -1l-9 -12l-5 -6l-7 -8v-4q-1 -8 -7 -13l-5 -5l-6 -9v-1q-3 -7 -9 -13l-6 -6v-2q-1 -6 -5 -12l-3 -4
l-13 -22l-6 -11l-6 -8v-3q0 -9 -4 -14l-4 -7z" />
    <glyph glyph-name="underscore" unicode="_" horiz-adv-x="565" 
d="M31 -121l4 -8l8 -10l7 -8l6 -7l14 -3l11 -3l18 -1l17 1q10 0 13 -1l5 -1l5 1q7 1 15 0l6 -2l12 1l13 2h15l12 -1l10 1l8 -1q9 0 12 -1l5 -2l5 1q8 1 12 0l4 -1l8 2q8 2 12 0l5 -2l5 1q10 2 15 1l7 -2q5 1 15 1l7 -1l16 2q5 1 15 -1l7 -1l11 2h1q7 1 14 0l10 -1l11 1h24
l4 1h11h4l24 4l12 4l11 8l5 7l4 9l3 13l1 10l2 14l3 12l-6 24v1q-4 9 -5 12l-1 6l-21 10l-22 1l-4 1q-8 0 -11 1l-4 1l-4 -1q-10 -2 -14 -1l-7 1l-16 2h-25q-8 -3 -15 -2l-7 2l-5 -1q-5 -1 -13 -1q-7 0 -10 1l-5 1l-5 -1q-10 -2 -14 -2h-1q-6 0 -12 2l-4 1h-17l-2 -1
q-5 -2 -13 -2t-11 1l-5 1l-15 1h-10l-6 -2q-7 -2 -12 0l-5 2l-15 -1q-8 -3 -15 -2l-9 1h-8l-12 -1h-11l-7 -1h-12h-5l-14 1l-14 -3l-20 -2l-14 -5l-7 -6l-7 -9l-6 -13l1 -2q3 -8 -1 -14l-3 -5l2 -12v-25z" />
    <glyph glyph-name="grave" unicode="`" horiz-adv-x="242" 
d="M204 658l2 1q1 1 3.5 5t4.5 6l5 5l5 8l4 13l3 9v10l-10 23l-3 2q-8 6 -9 10l-2 5l-8 11l-7 9l-11 10l-7 7l-8 9l-8 9l-15 6l-3 1q-7 4 -9 8l-3 5l-12 2l-7 1q-2 0 -4.5 1t-4.5 2t-3 1l-5 2l-25 -7l-9 -4l-11 -4l-11 -7l-8 -7l-3 -5q-1 -4 -7 -11l-4 -4l-1 -5
q-2 -10 -3 -12l-3 -5l1 -14l12 -12q6 -6 8 -11l3 -6l6 -3q5 -2 11 -8l4 -5l5 -4q6 -5 9 -9l3 -5l9 -7l7 -4q8 -6 9 -7l4 -3l7 -5q6 -4 10 -10l10 -10l16 -4l11 -3l13 1l9 1l13 5z" />
    <glyph glyph-name="a" unicode="a" horiz-adv-x="538" 
d="M271 93l-15 -2q-8 -2 -13 0l-5 1l-13 -4l-13 -6l-11 -6l-7 -20l-2 -6q-2 -7 -5 -10l-3 -4l-9 -11l-2 -3q-3 -6 -9 -10l-5 -3l-9 -4l-2 -1q-7 -4 -12 -4h-6l-17 -1l-3 -1q-7 -3 -15 -1l-17 2h-3q-7 -1 -14 2l-6 3l-8 4l-6 2q-7 2 -12 6q-4 5 -5 11l-2 7l-1 2q-5 8 -5 14
q0 9 1 13l2 6l-1 6q0 5 2 15l4 15l1 10v7q0 4 4 14l3 5l-1 4q-1 6 2 14l3 6l1 10l1 2q0 8 3 14l3 6l1 11l3 14l2 9l5 14l4 10v3q0 5 3 14l3 8l3 10l4 12l4 10l1 5q1 6 3 14l2 6l4 11l3 9l4 13v2q-1 7 3 14l4 7l2 11l4 11l3 10l1 6q2 8 4 13l4 6l3 9l3 13l3 8l6 13l5 12l5 9
l6 11l1 6q2 8 4 14l7 13l6 10l1 4q2 6 8 12l5 5l1 1q3 5 11 9l6 3l4 2q3 2 11 5l4 1l15 2l4 1q5 2 13 2l7 1h23l7 -1q6 0 12 -2l4 -1l8 -1q9 -2 11 -3l4 -2l6 -1q10 -2 13 -6l3 -4l3 -2q8 -6 9 -11l2 -6l3 -4q6 -6 8 -12l5 -14l6 -11l7 -12l2 -4q3 -7 3 -13v-6l4 -6
q5 -9 6 -11l1 -4l3 -11l6 -13l2 -3q2 -6 4 -14l1 -6l5 -10l2 -5q3 -9 3 -13v-6l2 -11l3 -6q2 -5 4 -13l1 -7l2 -10l6 -11l4 -11l4 -11l1 -5q0 -1 1.5 -5.5t1.5 -8.5v-8l2 -2q6 -6 4 -13v-7l2 -4q5 -11 6 -14q2 -10 2 -12l1 -5l3 -12l1 -3q3 -9 3 -14v-7l4 -10l4 -7
q4 -8 5 -11q1 -5 0 -12l-1 -6l3 -13l2 -3q5 -12 5 -13l2 -7l3 -9l5 -26l1 -10l1 -6q2 -12 2 -14v-1q0 -3 -2 -11q-2 -5 -6 -11q-6 -8 -9 -11l-5 -4l-10 -7h-1q-8 -5 -13 -6h-2q-10 -2 -13 -2l-7 1l-21 -3h-3q-10 0 -14 1l-6 2h-7q-6 0 -12 2l-4 1l-11 6l-3 1q-3 1 -10 9
l-4 5l-5 3q-4 3 -9 8l-3 4l-5 4q-6 6 -8 13l-6 16l-9 10l-8 9l-13 2zM275 402h-12l1 -13q0 -9 -1 -13q-2 -8 -4 -13l-3 -9v-1q0 -9 -3 -15l-2 -6l1 -6q2 -9 -1 -14l-2 -6v-4q1 -8 0 -13q0 -3 -2 -13l-3 -7l-3 -13l2 -25l2 -11l9 -6h27l10 3l8 7l4 19l-1 3q-2 10 -2 14l-1 7
l-1 2q-4 7 -4 14v7l1 9l-3 5q-3 5 -5 14q-1 6 0 13l1 5l-2 5q-3 7 -3 11l-1 4l-2 15l-1 10z" />
    <glyph glyph-name="b" unicode="b" horiz-adv-x="495" 
d="M381 307l9 -3l4 -1q10 -2 14 -5l6 -3l4 -2q5 -2 10 -9l4 -5l3 -2q8 -5 9 -9l2 -6l7 -10l6 -10l2 -3q7 -7 7 -11v-6l3 -5q5 -7 6 -12l1 -6l1 -5q1 -6 1 -13l-1 -6l-2 -11l1 -7q2 -11 1 -15l-1 -6q-2 -9 -3 -13l-2 -6l-5 -13l-5 -11v-3q0 -8 -3 -13l-4 -5l-2 -4
q-1 -3 -7 -9l-3 -3l-9 -9l-15 -12q-4 -4 -10 -8l-5 -3l-12 -4l-12 -2l-1 -1q-6 -5 -12 -6l-6 -1l-3 -1q-5 -3 -15 -3h-8q-8 -3 -13 -3h-6l-7 -1q-9 -2 -13 -1h-6h-14l-20 -1l-13 -2h-13l-11 1l-12 2h-16l-6 -1q-10 -2 -15 -1l-16 1h-6q-3 0 -7 -0.5t-6 -0.5l-6 1h-13h-22h-6
q-8 0 -12 2q-7 4 -9 5l-6 4l-6 3q-6 3 -11 8q-4 4 -6 10l-2 5l-1 1q-5 8 -4 15l1 7l-2 12l-2 15q0 3 0.5 7.5t0.5 7.5l1 15l-1 4q-1 8 0 14l1 6l-2 6q-2 10 -2 12l1 4l-1 13v12v12v6q0 9 1 13l2 6l1 10l-1 15l-1 3q-2 10 -1 13l1 4l-1 4q-2 10 0 14l3 6v12l-2 6q-3 9 -3 14
t2 13l1 6l-1 9l-1 8q-2 12 -2 13v6v4q0 5 2 13l2 6v10v14l-1 11v11l-1 4q-1 7 0 13l1 6l3 11l-2 5q-3 7 -1 14l2 7v10v24l2 13l2 9l1 4l6 12q1 3 8 10l5 5v1q2 3 12 8q8 4 12 5l6 2l1 1q5 3 15 3h18h4q8 1 14 0l6 -1h2q5 1 15 1l10 -1l7 -1l5 1q10 2 15 1l8 -2l5 2q7 1 13 0
l5 -1l12 -1l21 1h11l4 -1h4q4 0 14 -2l10 -2l10 -3h1q10 0 15 -1h2q6 -1 12 -5q4 -1 10 -5l5 -3l4 -1q11 -4 13 -6l6 -4v-1q12 -7 13 -8l6 -5l6 -5l11 -11l4 -4q6 -4 8 -9q4 -6 5 -11l2 -6l3 -8l4 -14l6 -21l2 -5q3 -7 1 -13l-2 -6l1 -11l1 -7q1 -6 1 -11l-1 -5l-3 -12
l-4 -11l-4 -12l-6 -12l-2 -3q-1 -1 -2.5 -3t-2 -3.5t-2 -3l-2.5 -2.5l-5 -4l-5 -8l-3 -4q-5 -6 -9 -9l-5 -3l-8 -7l-8 -9v-9zM281 431q0 8 1 14l1 7l-5 9l-10 9l-10 8l-5 1q-7 1 -11 4l-4 1l-23 -2l-9 -7l-4 -10l-1 -14v-4q2 -12 2 -15l-1 -15l2 -14l1 -10l4 -15l6 -7l24 -5
l8 3l16 5l5 5l9 13l4 11v11v17zM249 131l15 2l14 3l8 5l9 9v6q1 3 3 13l2 6l-1 4q0 8 1 14l3 18l-3 7q-3 7 -4 13l-1 6l-8 11l-6 4l-13 5l-5 1q-2 0 -4.5 0.5t-4 1t-2.5 0.5l-4 1l-22 -4l-5 -8l-9 -13v-2q1 -8 0 -14l-2 -6l2 -26l1 -2q1 -8 0 -14l-1 -6l3 -12l4 -10l10 -10z
" />
    <glyph glyph-name="c" unicode="c" horiz-adv-x="502" 
d="M297 627l-6 -2l-8 -2t-5 -1h-6l-12 -1l-12 -3l-5 -2q-1 0 -14 -3l-7 -1l-8 -3l-5 -3q-4 -3 -12 -5l-6 -2l-9 -5l-5 -4q-4 -3 -12 -8l-8 -4q-3 -4 -11 -10l-7 -4l-2 -2q-5 -8 -8 -10l-4 -3l-13 -9l-9 -8l-7 -12l-2 -2q-2 -5 -8 -13l-4 -5l-1 -2q-1 -3 -3.5 -6.5t-3.5 -5.5
l-3 -6l-1 -1q-4 -11 -6 -14l-6 -7l-3 -8l-6 -12l-4 -13l-1 -5q-1 -6 -5 -12l-3 -4v-6q0 -8 -1 -12q-1 -7 -4 -12l-2 -7v-5q0 -9 -2 -14l-3 -6v-10l1 -6q1 -5 -1 -13l-2 -6v-23v-15v-9l2 -7q1 -6 1 -12v-5l3 -13l2 -4q5 -12 5 -13v-12v-7l3 -3q3 -5 5 -14l1 -7l5 -10l2 -5
q3 -7 4 -12l1 -5l4 -4q6 -8 7 -12l2 -5l8 -9l8 -11l13 -20l11 -7l9 -8l7 -7l6 -3q7 -5 9 -8l4 -4l10 -7l12 -6l10 -6l12 -3l5 -1q7 -1 10 -3l3 -2l15 -6h3q10 0 15 -1l7 -2q5 1 14 1h19h13h13l12 2h11l7 1q5 1 13 1h6l8 1l13 4l10 1l16 2l1 1q4 3 14 5l8 2l10 5l10 4l15 10
q6 5 12 7l8 3l9 9l6 11v13l-3 22l-6 12l-1 3q-3 7 -3 13l1 5l-3 4q-6 8 -7 12q-1 2 -1 6q-1 3 -1 5l-1 5l-5 11l-4 12l-13 17l-12 7l-9 8l-8 -1l-13 -2l-9 -4l-24 -11q-7 -7 -11 -8h-6l-2 -1q-11 -4 -14 -5l-7 -1l-13 -1q-10 0 -13 1l-5 2l-10 3l-7 3q-5 2 -11 8q-5 7 -5 9
l-1 3l-5 14l-2 5q-1 3 -3 12l-1 6l-4 13l-1 3q-3 9 -3 14v7l3 22l-1 6q-2 8 0 14l2 6v5q0 10 2 15l4 6l4 9l1 4q1 5 5 13l3 6l3 5q0 1 8 11q1 2 8 9q2 2 10 5l6 3l1 1q8 5 15 5l18 -1l7 -2q8 -2 14 -4l15 -7l22 -13l6 1q8 0 13 -1h6l10 5l8 3l14 18l5 11l7 10l6 13l4 11
l-1 2q-1 8 3 14l4 5l3 11v14l-1 23l-6 11l-2 3q-4 9 -5 12l-1 6l-19 16l-11 5l-6 2q-3 1 -12 5l-6 4h-6q-8 0 -14 3l-6 3l-8 3l-17 1h-4h-6q-6 -1 -7 0l-7 2l-12 2h-5q-7 -1 -15 0z" />
    <glyph glyph-name="d" unicode="d" horiz-adv-x="559" 
d="M38 301l-2 -17l2 -7q2 -9 1 -13l-1 -6l1 -4q1 -7 0 -14l-2 -7l1 -4q1 -6 1 -13l-1 -7l-1 -12l1 -8q0 -9 -1 -13l-1 -7l2 -3q2 -6 2 -13t-1 -13l-2 -7v-13l2 -4q3 -8 1 -16l-2 -13l1 -6q2 -12 2 -14l-1 -7l2 -10l4 -14l4 -12l7 -9l10 -5l14 -4l12 -4l11 -1l13 -3h22h3
q8 0 13 -1h6l14 1l9 -1l12 -1l3 1q6 2 15 2l23 1q9 0 14 -1l7 -2l12 2h15h9l8 1l16 3q5 1 13 1l6 -1l16 2l9 4l10 3l12 6l15 5q2 2 11 8l5 3l13 6l2 4q3 5 9 9l6 2l9 11l10 9l10 8l1 3q3 7 7 12l5 5l1 1q2 6 6 12l3 5l7 13l5 12l2 3q2 4 7 13l4 6l4 11v4q-1 8 2 13l4 5v3
q0 8 3 15l4 7l-1 3q-2 10 1 15l4 6l-1 3q-1 5 1 15l3 7l-1 2q-3 9 -1 15l3 7l-1 22l-1 6q-1 8 0 14l1 7l-2 3q-4 7 -4 14v7l-1 10l-1 5q-2 8 0 13l1 4l-2 6q-3 8 -3 14l-1 7l-6 12l-1 1q-2 6 -4 14l-1 6l-5 13l-3 8l-4 5q-6 10 -7 12l-2 5l-7 12l-6 10l-7 8l-4 8l-11 8l-5 3
q-7 4 -9 8l-2 4l-14 9l-10 5l-9 5l-8 4l-12 6l-7 1q-2 0 -4.5 0.5t-4 1t-2.5 0.5l-4 2l-16 3l-23 3l-10 2l-14 2q-12 2 -13 3l-6 2l-14 1l-15 1l-4 -1q-7 -1 -12 0h-6l-14 1h-12h-1q-6 -2 -15 -2h-7l-9 -1l-15 -2h-10h-2q-3 0 -7 -1t-7 -2l-9 -1h-3q-1 0 -6 -1.5t-8 -1.5
l-19 -1l-12 -6l-1 -1q-2 -2 -6 -3.5t-5 -2.5l-5 -2l-13 -11l-1 -3q-1 -2 -6 -10l-3 -4l-1 -7q0 -5 -4 -13l-3 -6l1 -4q2 -11 1 -15l-2 -15l1 -5q1 -8 0 -15l-1 -7l-2 -12l2 -6q3 -9 3 -13q0 -8 -1 -13l-1 -5v-14v-9l1 -8q0 -10 -1 -13l-1 -5l2 -6q0 -2 0.5 -4t1 -3t0.5 -2.5
v-2.5v-5l-2 -14l1 -13v-3q1 -7 0 -14zM220 255v4q0 4 2 14l2 8l-1 4q-1 6 -1 12l1 5l-2 15v3v13l1 6v5q0 6 2 14l1 7l-2 12l-1 4q-1 8 0 14l1 7v14q0 7 3 13l2 4l1 3q1 7 5 13q3 5 8 8q3 2 12 4l13 2h7q5 1 12 1l5 -1l1 -1q7 -1 14 -5h1l10 -6q5 -5 7 -9l2 -7l2 -2
q6 -6 6 -13v-6l4 -7q4 -7 4 -13v-6v-14l1 -3q1 -6 1 -14v-8l2 -16q1 -8 0 -13l-1 -5v-6q1 -7 0 -13l-2 -6v-3q0 -9 -1 -15l-2 -7l1 -3q2 -8 -1 -14l-2 -6l-5 -11l-1 -13q-1 -5 -5 -13q-1 -1 -8 -11l-5 -6l-1 -1q-3 -6 -10 -9l-5 -2l-4 -2q-4 -3 -13 -5q-4 -1 -14 -1h-5
q-8 0 -14 3l-6 3l-4 4q-8 7 -9 9l-2 4l-2 5q-2 6 -2 14v6l-1 6q-2 12 -2 14v19z" />
    <glyph glyph-name="e" unicode="e" horiz-adv-x="421" 
d="M359 167q6 0 14 -2q6 -2 8 -5l2 -4l5 -5q6 -9 7 -11l2 -5l3 -15l1 -5q1 -9 0 -13l-1 -5l-2 -13v-18q0 -5 -3 -14l-2 -8v-2q0 -8 -6 -14l-5 -5l-3 -3q-2 -3 -10 -8q-3 -2 -12 -4l-8 -1l-11 -3l-22 -4h-13l-15 1l-11 2h-12l-3 -1q-5 -1 -14 -1l-7 1l-4 -1h-14l-6 1h-10
l-15 1h-3q-10 -2 -14 -1l-6 1h-6q-5 -1 -13 -1h-6l-6 -1q-9 0 -14 1l-12 2q-2 0 -5.5 0.5t-5.5 1.5l-4 1l-5 1q-1 0 -13 5q-8 3 -12 7q-5 5 -7 8l-2 4l-9 13l-2 3q-3 4 -5 13q-2 8 -2 12v7l-1 13l-2 16q-1 6 1 13l1 5v6v13v6l-1 7q-2 12 -2 13q0 3 2 11l2 5l-2 7q-3 9 -2 12
l1 5l1 14l-2 11v3q0 10 1 14l2 6v12l-1 5q-1 6 -1 13v6l-1 8q-1 6 1 14l2 6v12l-1 2q-3 8 -2 13l1 6l3 12l-1 7l-2 12q0 8 1 12l1 7l1 14l-1 5q-1 6 -1 12v5l-1 6q-1 7 0 12l1 5l1 16l-1 17v14l2 15l-1 4q-1 6 -1 13q0 5 3 13l3 6l3 10l1 5q2 8 5 13q1 2 8 7l5 2l1 1
q5 6 13 7l7 2l6 2q7 3 13 4l6 1l22 -1l13 1h12l13 -1h33l13 -2h22l14 1h9l11 -1l9 2q5 1 11 1l4 -1l14 1l13 -1h2q7 1 14 0l16 -2h7q9 -2 12 -4q6 -4 9 -8q5 -6 7 -11q3 -6 5 -11q2 -6 2 -12v-5l-1 -27l-2 -13l1 -2q2 -7 1 -14t-4 -13l-3 -6v-3q0 -3 -4 -13q-1 -4 -7 -11
q-3 -4 -10 -8q-2 -1 -11 -4l-5 -1h-14l-24 1l-11 2l-13 -1h-10h-25l-8 -6l-11 -13l-1 -24l7 -6l26 -8l12 -2l7 -2l24 1h6q9 0 13 -3l4 -3l5 -3q9 -3 12 -9q5 -9 6 -11l1 -5l1 -12l1 -5q1 -7 0 -13l-2 -5l4 -19q2 -8 0 -13l-1 -5l-2 -15v-3q2 -9 -1 -13l-2 -4l-2 -3
q-5 -8 -9 -11q-6 -4 -11 -6q-8 -3 -14 -2l-8 1l-16 -2q-6 -1 -14 0l-16 2l-14 -6l-7 -5l-8 -12l-2 -22l12 -12l8 -4l26 -1l9 -1h11l12 1h12l15 -1z" />
    <glyph glyph-name="f" unicode="f" horiz-adv-x="414" 
d="M249 154q0 -3 0.5 -6.5t0.5 -5.5l-1 -4l1 -11v-6q0 -8 -1 -13l-2 -5l1 -14l1 -3q3 -9 2 -15l-2 -16v-1q0 -5 -2 -15q-1 -5 -8 -10l-5 -3l-8 -9l-1 -1q-2 -2 -11 -8q-3 -2 -11 -4q-1 0 -6 -1.5t-8 -1.5l-14 -1h-14l-7 -1q-6 -1 -13 1l-5 1l-9 -1h-23q-8 0 -11 1q-4 0 -9 2
l-6 2l-5 2q-8 3 -12 7q-5 5 -7 9q-3 6 -3 11l1 5l-3 15v24l1 12l-1 2q-2 7 -1 14l1 5l1 14v3q-1 6 -1 14v7l-1 2q-2 6 -2 12v13q0 9 1 13l1 5l-1 6l-2 12q0 3 2 11l2 6l-1 6v5v4.5v3.5v6l-2 11l-1 14v2q0 4 2 14l2 8v9v12v14l-1 13v2q-2 12 -2 13v7l2 12v12v5v14v6v3
q-2 8 0 14l2 6v6q-1 6 -1 12v5l-3 13l-1 12v2q0 6 3 15l2 7v4q-2 10 -1 12l1 5v26l1 11v5q0 8 4 13l4 5l2 2q5 6 12 9l8 3q5 1 14 1l22 -1h1q8 3 12 2l5 -2l16 1l4 1q7 1 13 0l5 -2l9 1h14l9 -1h15l9 1l5 1q5 1 15 1l7 -1h2q8 2 14 0l7 -1h23l3 1q7 1 13 0l6 -1l27 -2l9 -1
l6 -2q9 -3 12 -6q7 -7 7 -8l1 -5l4 -4q6 -7 6 -12v-5l2 -5q3 -9 2 -15l-2 -14l1 -4q1 -8 -1 -15l-3 -7v-6q0 -5 -4 -13l-3 -5l-7 -10l-3 -5q-4 -7 -10 -10l-5 -3l-4 -2q-7 -3 -12 -4h-5l-2 -1q-7 -4 -13 -3l-6 1l-6 -2q-5 -1 -15 -1l-15 1h-12l-14 -4l-10 -4l-5 -10v-25
l5 -9l9 -12l8 -3l23 -5l16 1h1q5 1 14 1h8l18 -2l11 -2l7 -2q8 -3 11 -6l4 -3l1 -2q8 -8 9 -10q2 -4 2 -12v-7l1 -4q2 -8 1 -15l-3 -15v-12v-12l1 -3q1 -7 0 -13q-1 -3 -6 -10l-4 -5l-1 -3q-2 -5 -9 -10l-4 -2l-4 -3q-5 -3 -14 -3h-6l-23 -3h-10l-15 -3l-8 -2l-9 -3l-14 -7
l-6 -9l-8 -8l-2 -12z" />
    <glyph glyph-name="g" unicode="g" horiz-adv-x="531" 
d="M504 157l-2 -13l1 -10v-12l1 -24v-8q0 -4 -2 -12q-1 -5 -5 -11l-3 -4l-2 -4l-6 -12q-3 -5 -9 -10l-6 -5l-3 -2q-8 -8 -10 -9l-6 -3l-14 -6q-3 -1 -7.5 -2t-5.5 -1l-6 -1l-11 -2l-10 -3l-11 -4l-4 -1q-10 -4 -15 -4h-9l-13 -2h-3q-9 -2 -14 -1l-7 1l-14 -1h-1h-13l-7 1
l-8 -1q-10 0 -15 1l-26 6l-11 1l-7 1q-9 2 -12 4l-6 2l-6 2l-12 3l-6 3h-1q-7 4 -12 8l-5 4l-3 1q-11 4 -13 6l-1 1q-2 1 -11 7l-4 3l-8 8l-11 9l-7 6l-9 11l-11 15l-4 4q-5 6 -7 11l-2 6l-5 4q-7 7 -7 10l-1 6l-3 6q-4 8 -5 12l-1 6l-5 11l-4 11l-2 5q-3 9 -3 13l1 6l-3 5
q-4 10 -4 12v6l-2 5q-3 9 -3 12l1 5l-2 5q-2 7 -1 13l1 7l-1 12l-1 2q-3 9 -2 15l1 7l2 10v6q0 8 1 14l1 7v2q-1 7 0 14l1 10q0 4 2 14l2 6l1 3q0 3 0.5 6.5t1.5 6.5l2 6v6q0 8 1 12l1 5l5 14l1 1q2 5 6 13l4 7l1 4q1 6 5 12l4 4l2 6q2 6 6 10l4 4l3 7q1 3 5 7q1 2 2 3l3 5
l2 3q2 6 8 12l5 4l8 8l2 2q3 4 9 10l5 3l11 9l1 1q5 6 11 8l6 2l12 8l12 5q5 4 13 7l7 2h1q4 3 15 5l7 1l2 1q8 5 13 5h6l6 2q7 2 13 1l6 -1l15 2l20 1h9h13l5 -1l14 -3h8l16 -2h4q5 0 13 -2l6 -3l13 -4h5q10 -2 13 -4l5 -2l9 -4l6 -3q12 -7 13 -8l4 -3q5 -4 10 -9l4 -5
l7 -12l3 -4q5 -6 6 -12q2 -8 1 -12v-5l2 -7q1 -5 1 -13q-1 -4 -4 -12l-3 -6l-4 -13l-5 -10l-6 -10l-1 -5q-1 -8 -6 -14l-4 -7q-6 -8 -10 -10t-12 -4t-11 -2h-5l-7 2q-8 2 -13 4l-6 3l-24 7l-11 2l-10 4l-13 2l-10 -1h-13l-15 -4l-4 -4q-2 -1 -4.5 -3.5t-4.5 -3.5l-4 -3
l-4 -4q-3 -5 -10 -9l-5 -3l-3 -7q-1 -3 -8 -10l-4 -4v-5q-2 -10 -4 -13l-3 -4l-5 -15v-3q0 -6 -4 -14l-3 -6l-2 -11l2 -17q0 -9 -1 -14v-7v-9l2 -12l2 -14l2 -9l3 -14l5 -11l2 -3q2 -3 5 -11l2 -5l5 -6q1 -1 4 -4.5t4 -5.5l3 -5l9 -4l24 1l9 4l6 10l5 9l4 16l1 4q0 3 3 13
l2 6l-1 18q0 8 3 14l3 6l6 10l2 4q4 6 8 9q5 4 10 5l6 3l15 6l1 1q1 0 14 3h6l24 -2l5 1q6 1 14 -1l5 -2l11 -3l4 -1q8 -2 13 -5l5 -3l2 -2q6 -5 9 -9q1 -2 4 -10l1 -5l2 -5q3 -9 3 -15l-1 -14v-10l1 -4q2 -10 1 -13l-2 -6l1 -5q0 -3 1.5 -7t1.5 -6v-7z" />
    <glyph glyph-name="h" unicode="h" horiz-adv-x="584" 
d="M119 617h-15l-13 -3l-13 -3l-9 -4l-10 -6l-6 -11l-6 -10l-7 -12l1 -13l-2 -12l-3 -24l2 -5q2 -5 0 -13l-2 -6l-1 -14v-12l1 -2q3 -9 2 -14l-2 -7l1 -4q2 -10 2 -14l-1 -7l1 -10v-4v-14l-3 -17l-1 -13l2 -6q3 -9 3 -13q0 -7 -1 -12l-2 -6l1 -5q1 -6 1 -12q0 -1 -2 -11
l-2 -7l2 -6q3 -7 1 -14l-2 -6l1 -4q2 -9 1 -13l-1 -7v-2q1 -7 0 -14l-2 -6v-13l1 -5q0 -3 1.5 -7t1.5 -6q0 -4 -2 -12l-2 -6l2 -5q3 -6 1 -14l-2 -6l-1 -9l1 -27l1 -3q3 -7 3 -13v-6l-1 -14l3 -9l3 -6q5 -12 5 -13l2 -7l6 -7l5 -9l10 -9l7 -5l11 -8l12 -3h6h13l6 -1l23 -3
l7 2q5 1 11 1h5l13 2l12 3l11 6l2 3q1 2 2.5 3.5t4 3.5t3.5 3l6 4l2 10l4 11l4 11l-1 15v10l-1 18q0 5 2 13l2 6l-3 14v3q0 10 1 14l2 6l3 10l1 14v2q0 6 4 12l9 9q2 1 5 4t5 4q3 2 9 4t12 2h7q9 0 15 -3q2 -1 5.5 -2.5t5.5 -2.5l4 -3l1 -1q6 -6 8 -11l3 -6l3 -3q4 -7 4 -14
v-7l1 -10l1 -8q1 -6 -1 -14l-1 -6l1 -3q3 -9 3 -15l1 -17l1 -4q0 -9 -1 -13l-1 -5l3 -15l7 -11l1 -3q4 -8 5 -11l1 -5l7 -8l9 -9l15 -5l4 -1q10 -2 12 -3l5 -2l8 -1l16 -2l22 1l12 2h12l13 5l6 6l10 9l6 8l12 10v2q0 7 3 15l3 7l1 10v4q0 5 3 14l3 7l-2 13l-1 3q-2 10 -1 16
l3 15l-2 6q-2 9 -1 12l1 5l3 15l-1 2q-2 10 -2 15l1 6l-1 2q-2 6 -2 15q0 5 2 13l2 5l1 12l-2 6q-1 3 -1 12v5l-1 6q-1 5 1 14l1 6v9l-1 14v2q0 6 2 14l1 6l-2 11v5q-2 12 -2 14v7l1 12l1 10v11l1 12v7v12l1 5l-1 6q-1 6 -1 13v7v12l-1 3q-1 8 0 14v7l-2 15q-1 5 1 13l1 6
l-2 7q-3 8 -3 11l-1 5l-2 5q-3 7 -3 12l-1 5l-8 10l-6 6l-10 6l-14 4l-13 3l-10 3l-7 -1q-6 -1 -12 1l-4 1l-29 1l-10 -2h-2q-10 -2 -14 -2h-7l-1 -1q-5 -4 -13 -7l-7 -4q0 -1 -8 -11l-6 -7q0 -8 -3 -14l-2 -6l-3 -12l1 -12v-11l-1 -24l1 -6q1 -5 -1 -13l-1 -5l-1 -7
q0 -2 -0.5 -6.5t-1.5 -6.5l-2 -5v-5q0 -8 -2 -13l-2 -6l-4 -11l-1 -4q-1 -5 -6 -12q-3 -4 -11 -6q-10 -2 -14 -2l-6 -1q-8 0 -11 1l-5 1l-4 1q-9 3 -11 6l-3 5l-8 12q-4 7 -4 13v7l-2 6q-3 9 -3 12v5l-2 7q-2 10 -1 13l1 4v16l-3 23l-1 13l-3 12l-1 10l-6 15l-2 2
q-2 2 -8 11l-3 5l-6 3q-8 3 -10 5l-3 3l-14 4l-8 1q-9 0 -12 1l-5 2l-10 -1z" />
    <glyph glyph-name="i" unicode="i" horiz-adv-x="284" 
d="M245 493v-12v-12l-1 -9l-1 -14l1 -2q5 -8 1 -15l-2 -6l1 -7q1 -6 1 -14v-6v-11l1 -5q1 -7 0 -13l-2 -6l-1 -14l1 -5q2 -12 2 -14v-12v-6l-2 -11l2 -6q2 -7 1 -14l-1 -6l-3 -13l1 -2q4 -7 2 -15l-2 -8v-3q2 -9 1 -14l-1 -8l-2 -11l2 -3q4 -9 1 -14l-3 -5l2 -8q2 -11 1 -13
l-2 -5l1 -5q0 -10 -1 -14l-1 -6v-5q0 -3 0.5 -7t0.5 -7l-2 -17l2 -5q1 -6 1 -14l-1 -6l-2 -5q-2 -5 -4 -11l-3 -4l-4 -6q-1 -1 -3.5 -5t-4.5 -6l-5 -4v-1q-3 -5 -10 -10q-3 -2 -12 -4l-7 -1l-13 -4l-3 -2l-12 -3h-5l-27 1h-1q-7 -2 -15 0q-10 2 -14 4l-6 2l-2 1q-11 4 -12 5
q-7 4 -9 7l-4 4l-3 4q-1 1 -4.5 5t-4.5 6l-3 6l-4 6q-3 8 -3 13v5v10l-3 7q-4 10 -4 14v11q0 4 2 14l2 6l-1 5q-2 12 -2 13v6v2q-2 9 1 14l3 7l-1 13l-2 5q-1 5 1 13l2 5l-1 14l-1 3q-2 10 -1 14l2 6l-2 5q-1 6 -1 13l1 5l3 13l-2 4q-3 8 -2 13l1 6l-1 4q-1 7 0 15l2 7l2 12
l-2 2q-3 8 -2 14l1 6l2 13l-1 4q0 3 -1.5 7t-1.5 6v7v5q0 1 3 13l2 6l-2 7q-1 6 -1 13v5l-1 6q-1 6 -1 13l1 6l2 11l2 10l-1 7q-2 11 -1 15l2 14l-1 5q-2 9 -1 13l1 6l2 5q1 3 6 13l3 6l6 8l3 3q7 7 10 9l5 2l14 5q7 4 15 4l8 -1l16 2q10 0 14 -1l6 -1l18 2q7 1 13 0
q8 -2 11 -4l5 -2l6 -2q6 -1 11 -6l4 -5l5 -3q7 -5 9 -9l3 -5l1 -4q3 -7 3 -12l1 -6l2 -10l1 -15l2 -11l2 -5q3 -10 2 -16z" />
    <glyph glyph-name="j" unicode="j" horiz-adv-x="370" 
d="M350 497l1 -5q1 -7 0 -12l-2 -4l1 -13v-13l2 -6q2 -6 2 -13q0 -8 -1 -11l-2 -4l1 -13l1 -12l1 -6q1 -6 1 -14t-1 -12l-1 -5l1 -5q1 -6 -1 -13l-2 -4v-13v-11v-14v-10l2 -7q3 -8 0 -13l-3 -4l2 -12l-1 -27v-5q0 -2 -0.5 -4t-1.5 -4.5t-1 -4.5l-1 -6l-3 -12v-2q1 -9 -1 -15
l-3 -6l-2 -11l-2 -4q-2 -9 -4 -14l-2 -6l-1 -3q-1 -6 -4 -12q-1 -4 -7 -11l-4 -4l-2 -4q0 -1 -7 -12l-4 -6l-1 -3q-1 -2 -2.5 -3.5l-3 -3t-2.5 -3.5l-4 -5l-11 -8l-12 -8q-3 -4 -11 -10h-1q-2 -1 -11 -6l-4 -2l-10 -4l-7 -4q-10 -4 -11 -4h-3l-6 -2q-6 -2 -14 -4l-7 -1
l-6 -2q-2 0 -6 -0.5t-6 -1.5l-6 -1l-13 -1h-11l-3 1q-9 0 -14 1l-14 4l-14 3l-13 2l-16 5q-9 3 -12 6l-4 4l-4 1q-5 2 -10 9l-2 5l-5 4q-7 7 -7 12v7l-2 11l-2 11l-2 6q-1 5 -1 15v11q0 7 2 13l1 5v6q0 8 1 13q2 8 4 12q1 4 8 9l7 4l2 2q7 5 13 7l6 2l5 1q5 1 15 1h17l10 1
l12 3l13 5h1q6 9 9 12l7 5q1 5 4 13l2 6l1 4q2 5 7 12l4 5v12l-1 4q-2 8 0 14l2 6l2 23l-2 14v2q-2 11 -1 14l1 6l2 13l-1 3q-3 7 0 14l2 6l-2 12l-2 15v2q-1 4 1 14l1 7v6q-1 8 0 13l1 6l1 13l1 11v13l-1 16q0 3 -0.5 7.5t-0.5 5.5l1 5l-2 7q-1 6 2 13l2 5l-1 4q-1 6 2 15
v1q3 7 7 11l5 4l1 2q4 6 10 10l6 4l7 3q5 3 12 3l6 1l19 3h12h5h6q10 0 15 -1l18 -3h3q7 0 13 -2l5 -3l4 -2q10 -7 11 -9q4 -6 7 -11q5 -9 5 -11l1 -6l2 -4q2 -6 2 -14l-1 -8l2 -3q2 -6 2 -15v-7v-24z" />
    <glyph glyph-name="k" unicode="k" horiz-adv-x="550" 
d="M36 411l2 -5q1 -7 0 -14l-2 -6l2 -6q1 -6 1 -13l-1 -6l-2 -14l1 -3q2 -10 1 -14l-2 -6l-1 -13l1 -12v-11l1 -6v-13v-6l-2 -26v-8l1 -14v-2q2 -9 1 -13l-2 -6v-14l2 -4q2 -7 1 -13l-2 -5l1 -4q1 -7 0 -13l-1 -6l1 -12l1 -17q0 -9 -1 -13l-1 -5l1 -4q2 -6 2 -13v-6l1 -12
l4 -5q4 -6 6 -13l1 -6l4 -9l13 -10l19 -8l11 -1h13h12q7 0 13 -2l5 -1l17 2q7 1 13 0l6 -1l7 2h12h5l14 5l9 5l7 7l11 9l2 8l2 13l-1 13l1 13v5q0 8 1 13l2 5l-1 28l-1 4q-2 10 -1 15l3 17l3 14q-1 5 0.5 7t4.5 1q9 -2 11 -5q5 -5 6 -11q3 -6 3 -11v-6l8 -21l5 -13l5 -11
l2 -4q1 -2 3.5 -5.5t3.5 -5.5q2 -8 2 -12l-1 -7l3 -5q4 -6 6 -11l2 -5l8 -12l5 -5q5 -4 7 -8l2 -3l13 -10l10 -5l6 -1l13 -5l13 1l10 -1l23 -1l7 1q7 1 14 0l9 -1l9 -1l5 2q3 1 15 1h17l14 2l8 6l9 8l5 10l6 11l-2 6q-1 3 -3 12l-1 6l-2 11l-3 12l-13 18l-7 13l-4 8l-5 6
q-5 7 -6 9l-2 3l-5 5q-3 3 -9 11l-4 7l-3 8l-6 6q-5 6 -7 10l-2 5l-4 4q-2 2 -4 6t-3 5l-2 4l-3 3q-7 7 -8 11l-1 5l-8 8l-3 4q-6 8 -8 11l-2 5l-4 5q-5 9 -7 13l-6 14l-2 2q-5 5 -5 12v5l-3 14l-3 10l-1 3q-3 8 -1 13l3 4l2 7q2 7 7 13l8 10l12 12l7 8l8 10l1 2q2 6 8 12
l6 6l1 2q4 6 10 10l5 5l7 9l10 13l6 7l6 11l8 10l7 8l12 21l3 6q2 5 7 10l4 4l4 13l-3 13l-6 10l-16 18l-10 4l-13 1l-11 1l-14 1h-7l-17 4l-5 -1q-8 -2 -15 0l-11 1h-17l-8 -1l-7 -1q-5 -1 -11 -1l-4 1l-10 -5l-15 -6l-7 -8l-5 -12q-2 -7 -6 -13l-6 -8q0 -10 -3 -14l-4 -7
l-3 -7l-2 -5q-1 -6 -5 -12l-4 -4l1 -5q0 -6 -3 -15l-6 -14l-7 -13l-6 -11l-1 -3q-2 -9 -5 -13q-4 -4 -13 -6q-7 0 -8 5q-2 8 -2 10v4l-2 8q-1 6 -1 12v6l2 13l-2 13l-1 9q0 3 0.5 7t0.5 6v6l1 24l-2 15l-5 9l-10 9l-10 9l-6 6l-15 5l-11 5h-13l-24 1l-14 -1h-3q-7 -1 -13 0
h-6h-11l-26 -4l-12 -6l-6 -10l-5 -11l-4 -9l-5 -13v-23v-13l-1 -11v-12l2 -4q3 -9 3 -13v-6v-26q0 -9 -2 -14l-3 -6z" />
    <glyph glyph-name="l" unicode="l" horiz-adv-x="381" 
d="M34 423l1 -6q1 -7 0 -13l-2 -5l1 -3q2 -10 2 -15v-8q0 -8 -1 -14l-2 -8l1 -19l3 -13v-4q0 -9 -1 -14l-2 -7l1 -4q1 -7 0 -13l-1 -6l1 -4q3 -9 1 -14l-2 -6l3 -13l1 -5q0 -9 -1 -13l-1 -5l-1 -15l1 -4q3 -7 3 -12q1 -3 -1 -13l-2 -7l2 -4q3 -8 0 -13l-2 -4l3 -13l1 -6
q1 -6 1 -14l-1 -18v-5q1 -6 1 -14v-6l3 -3q5 -6 5 -12l1 -6l5 -10l13 -12l7 -4l13 -7l9 -6l16 -2l22 -2h28q7 1 15 0l8 -1h12h13l3 1q5 1 13 1l5 -1l17 -1l7 -1h17h23l11 1l3 2q5 3 14 3l7 1l11 4l12 9l7 4l7 8l1 5l2 8q1 3 1 4l1 4l3 14l4 10l-3 18q-1 7 0 13l1 5l-1 12
l-4 8q-3 9 -3 13v6l-8 8l-7 9l-13 6l-11 1l-27 2h-2q-10 -2 -14 -1q-8 2 -12 4q-9 4 -11 5q-4 3 -8 8t-4 9l-1 5l-2 6q-3 9 -3 15v10q0 8 1 13l2 6l-3 10l-1 5q-1 8 0 15l2 7l2 11l-1 12l-1 5q-1 8 0 13l1 5l1 11l-1 7q-1 8 0 14l1 6v3q-2 10 -2 14q0 9 1 13l1 5l1 11l-2 6
q-3 9 -3 13q0 3 2 11l2 5l-1 12l-1 18q0 10 1 14l1 6l1 13l1 11l-2 5q-3 10 -2 13l2 5v15l-3 11l-1 13l-6 11l-5 2q-9 4 -10 5l-2 3l-12 5l-24 3l-9 -1q-7 -1 -13 0l-7 2q-8 -3 -15 -2l-10 1l-20 -2h-30l-6 -1l-12 -8l-11 -6l-6 -10l-1 -2q-2 -8 -4 -13l-3 -7v-2
q0 -10 -2 -14l-3 -7l1 -9l-1 -23l2 -12v-3q2 -9 -1 -14l-3 -7l1 -1q4 -7 2 -15l-2 -7l1 -7v-14z" />
    <glyph glyph-name="m" unicode="m" horiz-adv-x="674" 
d="M573 615h2q12 -2 13 -3l4 -3l7 -4q1 -1 5.5 -3t6.5 -4q7 -5 8 -9l2 -5l2 -2q5 -7 7 -13l2 -6l2 -6q2 -6 2 -12v-6l-1 -23l-1 -14v-12l1 -3q4 -7 1 -14l-2 -7v-13v-11l2 -12v-4q2 -8 0 -14l-2 -6v-10l1 -15v-4v-13l-1 -6l1 -5q3 -9 2 -14l-1 -7v-3q1 -6 1 -13v-6v-4
q1 -5 -1 -15l-2 -7l1 -12l2 -5q1 -5 -1 -13l-2 -5l2 -4q3 -8 1 -14l-2 -6l1 -6q1 -7 0 -14l-2 -6l1 -4q1 -7 0 -13l-2 -6l1 -7q1 -7 0 -13l-1 -6l2 -5q2 -12 2 -13q0 -6 -1 -11l-1 -6l1 -4q1 -8 0 -14l-1 -6l-1 -24l-2 -12v-5q0 -10 -2 -13q0 -1 -2.5 -5t-4.5 -6
q-4 -4 -10 -8l-5 -2l-1 -1q-8 -7 -11 -8l-6 -2l-6 -2q-10 -2 -14 -2q-9 0 -13 1l-7 1l-12 -2h-13h-15l-7 2l-11 3l-9 2q-7 1 -11 4q-7 4 -9 6l-4 5l-9 12l-3 4q-4 7 -4 12v5l-2 6q-3 9 -2 15l2 16l-2 6q-2 6 -2 13v6l1 15v3q0 2 2 14l1 8l-3 12v5q-1 6 -1 13l1 5l1 12l1 14
l-2 13l-17 4l-8 -8l-8 -8l-1 -4q-1 -7 -6 -13l-4 -5v-3q0 -7 -6 -13l-5 -4l-6 -12l-1 -5q-1 -8 -5 -13l-5 -8q-4 -7 -11 -9q-8 -2 -11 -3l-5 -1h-4q-7 -1 -14 0t-11 4q-5 2 -10 8l-5 6q-6 8 -7 10q-3 4 -3 12l-1 6l-3 3q-8 6 -9 10l-2 6l-1 9l-5 4q-6 6 -7 12l-2 6l-5 9
l-19 1l-2 -11l-1 -9l-1 -14l-1 -11l1 -16v-5q0 -9 -1 -14l-1 -6v-5q0 -8 -1 -14l-1 -7l2 -5q1 -7 0 -15l-2 -7v-15q0 -10 -1 -14l-1 -6l-3 -11v-4q0 -3 -5 -12q-3 -4 -9 -9l-6 -5l-10 -5l-2 -2q-6 -5 -10 -6q-6 -2 -12 -2h-9l-9 -1h-21h-12h-18q-10 2 -12 3l-6 3l-6 3
q-8 5 -10 7q-6 4 -9 7q-6 6 -7 10l-2 6l-2 4q-5 8 -5 14v7l-1 23l1 15l2 10l-1 12v12l2 15l-3 12l-1 1q-1 6 1 14l2 6v13l-2 4q-2 7 -1 15l2 7l2 13l-2 11l-1 2q-2 5 0 15l2 6l-1 11l-2 6q-1 7 0 13l2 6l-1 5q-3 7 0 13l2 6l-1 8q-2 12 -2 13v5v13l1 12l2 12l-1 6
q0 1 -1.5 5.5t-1.5 7.5q0 8 1 11l1 5v13v2q-3 7 -1 15l2 7l-1 5q-3 9 -2 14l1 6l2 11l-2 5q-2 6 -2 14v12q0 6 3 14l3 6l1 10l1 4q1 9 7 13l5 4l2 5q2 5 9 10l5 3l4 3q5 4 12 6l7 2l2 1q2 1 14 3l15 2h12l5 -1h3l7 1q8 0 8 -1h1q12 -2 13 -3l5 -2h5q8 -2 14 -4h1q5 -2 11 -8
l5 -4l9 -9l2 -3q6 -8 7 -11l2 -6l9 -22l4 -6q1 -2 3.5 -5.5t3.5 -5.5l2 -6l6 -9l3 -5q3 -4 5 -11l2 -5l5 -7q6 -9 6 -11l1 -4l5 -12l5 -6q5 -6 7 -11l5 -10l2 -5l15 -19l7 -8l14 6l14 19l1 4q1 6 5 12l3 4v4q0 6 3 13q1 5 6 12l3 5l1 4q2 9 3 13l3 6l7 11l1 2q0 10 4 15l4 6
v1q0 7 4 15l3 6l12 21q3 8 6 11l3 3l9 6l15 7l11 5l4 1q5 2 12 2h5l12 2l5 1q5 1 14 1h7l15 1q10 0 15 -1z" />
    <glyph glyph-name="n" unicode="n" horiz-adv-x="562" 
d="M438 12h13h6l15 6l8 5l11 7l13 8v1q3 7 7 11l4 5l4 11l1 14l3 24v5q0 6 2 14l1 6l-1 2q-3 8 -2 14l1 7l-1 11l-2 14v10l1 12l3 14l-1 4q-3 8 0 14l2 7l-2 10v3v15l1 7l1 11v12l-1 6v12v6l1 13l-2 10l-2 13l-1 14v5q0 9 1 12l1 5l1 12l2 12l-2 14l-1 3q-1 5 -1 14
q0 6 2 12l1 5l-1 6q-1 6 -1 14v9q0 5 2 13l1 6l-1 14l1 24l-3 11l-4 10l-4 13l-11 9l-2 1q-8 3 -10 6l-3 4l-14 3l-10 3l-12 1l-25 -1l-11 -1l-12 -2l-13 -1l-10 -5l-14 -10l-8 -7l-5 -10l-1 -4q0 -6 -3 -14l-2 -6v-16q0 -5 -2 -15l-2 -7l-1 -10l3 -14v-1q1 -7 0 -15l-2 -7
l1 -4q3 -9 3 -14q0 -2 -2 -12l-2 -6l-3 -23l-2 -13v-1q-1 -11 -9 -11h-1q-9 0 -13 2q-6 5 -6 9l-1 6l-6 12l-7 11l-2 2q-6 6 -6 14v7l-4 10l-4 4q-5 6 -6 11l-2 6l-3 5l-6 12l-3 12l-2 6l-1 2q-6 8 -7 12l-1 7l-1 9l-3 5q-3 5 -7 13l-7 15l-19 18l-6 9l-8 1q-10 2 -13 5
l-5 4h-3q-4 0 -14 2l-8 2l-4 -1h-13h-6l-12 -1h-24l-14 -5l-2 -1q-2 -2 -13 -6l-7 -3l-8 -6l-2 -7q-3 -9 -5 -11l-3 -4l-5 -12v-15l-3 -22l1 -3q3 -8 2 -14l-2 -6l1 -7q2 -10 1 -13l-1 -6v-5v-13l-1 -5l1 -4q2 -12 2 -14q0 -4 -2 -12l-2 -5l1 -5q3 -8 2 -13l-2 -5l-1 -12
l1 -5q2 -9 1 -13l-2 -6l1 -5q2 -10 1 -15l-2 -7l1 -10v-4v-13l-1 -7l2 -7q2 -10 2 -11q0 -7 -1 -11l-1 -7l-2 -11v-12l1 -4q2 -11 1 -15l-1 -7l1 -4q0 -2 1.5 -5.5t1.5 -6.5v-6l-1 -12v-4q0 -8 -1 -14l-2 -7l-1 -10l2 -5q3 -9 2 -14l-1 -6v-14l1 -3q1 -7 0 -14l-2 -18l1 -14
l4 -9l4 -13l11 -8l5 -3q4 -3 10 -9l4 -4h5q10 0 14 -1l7 -1l13 -2l23 2l9 1l12 3l15 4l10 5l11 8l4 7l7 11l4 14l3 12l-2 18q-1 6 1 14l1 7v9l1 12l-2 6v15q0 5 2 11l3 5l-1 7q0 9 1 12l1 5l-2 7q-1 5 1 13l2 6v3q0 10 9 12q8 2 12 -1q6 -4 7 -9l2 -7l5 -4q8 -6 9 -11l1 -6
l6 -8l8 -12l4 -6q7 -10 8 -11l2 -6l2 -3q6 -9 6 -11l2 -6l5 -7q3 -4 5 -12l3 -5l6 -11l7 -10l3 -3q7 -5 9 -11l3 -6l5 -5q1 -2 3.5 -5.5t4.5 -5.5l8 -13l13 -9l3 -1q7 -3 11 -7l4 -3l17 -4l11 -2z" />
    <glyph glyph-name="o" unicode="o" horiz-adv-x="611" 
d="M318 -15l15 1l14 -1l11 1l3 1q5 2 13 4l6 1l10 1l14 5l8 2l16 3l11 6l4 2q6 5 10 6l5 2l11 6l2 3q4 4 10 7l5 2l4 4q10 7 11 8l5 4l6 8l9 10l2 4q3 7 8 11l5 3l9 13l1 3q1 3 3 6t2 4q1 2 2.5 4.5t2.5 4.5l4 6l8 13l3 8l4 14l3 11v4q2 9 4 12l3 6l1 13v2q0 9 1 14l2 7
l2 10l1 7q0 6 2 12l1 5l-2 12l-1 13l1 23l1 14v11l-1 3q-3 8 -3 13q-1 5 0 12l1 6l-3 13l-1 4q-2 10 -2 13v7l-3 4q-5 7 -6 12l-1 6l-3 13l-4 11l-2 6q-3 7 -4 12l-1 5l-5 9l-6 12l-7 10l-6 12l-4 3q-4 4 -6 10l-1 4l-9 10l-9 9l-10 10l-6 6l-9 9l-9 5l-12 6l-10 6l-10 7
l-12 5l-11 6l-7 1q-5 1 -11 4l-4 2l-12 2l-14 1l-3 1q-5 0 -13 2l-6 2l-11 1l-12 1l-15 -1l-18 -1h-11l-5 1l-12 -3h-11l-14 -2l-3 -2q-5 -2 -13 -4l-6 -1l-14 -5l-8 -2l-5 -2q-5 -3 -14 -5l-8 -1l-5 -5l-6 -4q-6 -4 -13 -6l-6 -2l-1 -1q-4 -6 -9 -9l-5 -3l-11 -9l-9 -9
l-6 -6l-5 -6q-3 -5 -8 -10l-3 -3l-3 -5q-3 -7 -8 -12q-2 -2 -5 -4.5t-4 -3.5l-4 -4l-1 -4q-2 -9 -5 -13l-5 -6v-1q0 -5 -3 -13l-3 -6l-5 -12l-1 -3q-1 -5 -4 -13l-3 -6v-6q0 -6 -2 -12l-2 -5l-4 -14v-11v-3q1 -7 -1 -13l-3 -6l-1 -14l1 -3v-14v-6l1 -17v-13l-2 -4l-1 -12
l2 -7q3 -8 3 -12l1 -5v-8q0 -3 -0.5 -6.5t-0.5 -4.5v-5l2 -13l3 -6q2 -4 4 -12q2 -6 3 -10l1 -5l3 -12l3 -5q3 -8 3 -14v-6l2 -3q4 -6 6 -11l1 -5l5 -5q6 -8 6 -12l1 -5l4 -5q6 -8 7 -11l2 -5l5 -4q3 -2 5.5 -5.5t3.5 -4.5l4 -5l5 -7l12 -6l5 -3q6 -5 8 -8l2 -4l8 -4
q8 -4 11 -7l4 -4l8 -5l14 -7l9 -3l12 -4l6 -2q9 -3 11 -4l3 -1l9 -1q8 -2 11 -3l3 -2l15 -4h13h4q11 0 13 -1l5 -2l4 1q5 1 14 1h16zM317 435q8 0 14 -3l6 -2q9 -3 11 -7l3 -4l9 -12l7 -8l3 -4q4 -7 4 -13v-7l5 -11l1 -3q2 -6 2 -13l1 -7v-3q1 -8 0 -15l-1 -8l2 -21v-8
q0 -3 -0.5 -7t-0.5 -5q0 -2 -0.5 -3.5t-1 -4t-0.5 -4.5l-2 -8l-1 -10l-1 -5q-2 -9 -6 -13l-5 -5l-4 -12l-2 -3q-3 -6 -8 -10l-5 -4l-7 -8l-4 -3q-4 -4 -11 -6q-5 -2 -13 -2h-16l-7 1q-8 1 -12 5l-3 3l-8 6q-7 5 -8 8q0 1 -2 4t-3 5l-3 7l-1 2q-4 10 -4 13l-1 6l-2 6
q-3 9 -3 14v6l-1 6q-1 6 -1 13v5l-2 12l-2 28v8l1 6q2 10 3 12l3 6l5 12v5q0 10 1 12l3 5l8 11l2 2q1 2 7 11q3 4 9 8l6 3l5 3q6 5 12 7q4 1 13 1h6z" />
    <glyph glyph-name="p" unicode="p" horiz-adv-x="508" 
d="M495 475l5 -14v-2q2 -9 1 -13l-2 -6l3 -6q2 -6 2 -13q0 -4 -2 -12l-3 -6v-12l-2 -11l1 -4q1 -6 -2 -14l-3 -5v-3q0 -8 -3 -14l-3 -7l-3 -8l-6 -12l-6 -11v-2q-2 -8 -7 -12l-4 -4l-2 -5q-1 -3 -9 -11l-5 -5l-1 -2q-4 -6 -10 -10l-6 -4l-9 -5l-31 -14l-9 -4l-24 -8l-12 -5
l-12 -5l-11 -2l-3 -1q-7 -3 -12 -3h-5l-23 -9l-11 -7l-6 -8l-8 -11l-7 -10l-1 -13l-1 -22l1 -4q1 -6 1 -12v-4l-3 -24v-11l-1 -12v-6q0 -7 -4 -13t-7 -10q-1 -1 -10 -8l-5 -3q-7 -5 -11 -6q-5 -2 -13 -4l-9 -2h-12l-6 -1q-10 -2 -15 -2h-16h-3q-5 0 -14 3l-9 2l-13 2h-2
q-8 0 -13 3l-5 3l-6 3l-9 7l-2 2l-7 12l-4 4q-4 5 -6 11q-1 5 -1 13l1 8l-3 24v4q0 10 1 14l2 6l-2 4q-3 7 -1 13l1 6l1 12l1 14v2q-3 8 -2 15l2 7v11l-2 6q-2 5 0 12l2 5l-2 5q-3 6 -1 14l1 6v6q0 9 1 12l1 6v6v13v6l-1 5q-3 7 -1 14l2 6l-1 4q-3 8 -2 13l2 5v14l-1 5
q-1 7 0 14l2 6l-1 4v13l1 7l1 10l-2 14l-1 3q-1 8 0 14l2 5v15l1 10l-2 13l-1 6q-1 6 1 13l2 4l1 26l-1 5q-2 10 -1 13l1 5l5 11l2 4q2 5 7 12q1 2 11 9h1q10 8 11 8l5 2l5 2q8 3 11 3l4 -1l20 3h12h4l18 -1l12 1q6 3 14 1l7 -2l7 1q7 1 12 0l5 -1h24l9 1q7 1 12 0l4 -1
l14 1h7q9 0 13 -1l6 -1l10 -1l13 1q6 0 14 -2l6 -1h8q8 0 14 -3l6 -2l11 -5h3q8 -2 13 -4q8 -4 9 -5l3 -3l12 -7l6 -4q7 -5 8 -9l2 -4l3 -2q6 -4 10 -10q5 -6 7 -11l3 -5l5 -4q5 -5 8 -11l2 -5l2 -4q3 -4 5 -13l1 -6zM273 336l13 1l13 4l7 6l6 11l4 12l2 14l2 11l-2 18
q0 9 1 12l1 6l-4 6q-2 3 -4 12l-1 6l-10 11l-9 6l-8 7l-12 2l-27 -5l-7 -8l-3 -9l-1 -12v-6q0 -4 -2 -14l-2 -7l2 -15q1 -4 -1 -13l-1 -6l2 -14l4 -9l3 -13l4 -6l8 -9z" />
    <glyph glyph-name="q" unicode="q" horiz-adv-x="585" 
d="M421 51l7 -4h7h12h5l11 -1l6 -1q3 -1 14 -5l6 -3q8 -3 11 -7l4 -5l4 -3q6 -6 7 -12l1 -6l1 -2q4 -8 3 -15l-1 -8v-23v-2q2 -10 -1 -14l-3 -5v-4q0 -10 -3 -15l-4 -6l-6 -6l-1 -3q-3 -8 -10 -11l-7 -2l-3 -1q-7 -4 -15 -4l-11 1h-10q-9 0 -13 1l-6 2l-7 3l-12 3l-14 5
l-7 3q-7 3 -10 6l-3 2l-8 2q-9 4 -13 6l-6 3l-8 4l-12 7l-5 2q-9 3 -12 6l-5 4l-14 7l-10 6l-3 3l-7 3q-8 3 -11 6l-3 2l-7 2q-8 2 -11 5l-4 3h-5q-9 2 -12 5l-4 3l-5 1q-10 2 -13 4l-4 2l-11 5l-6 1q-8 2 -14 4l-15 6l-12 5l-5 1q-12 2 -13 3l-6 3l-4 1q-6 1 -12 5
q-7 3 -8 11l-1 7q-2 10 -1 13q2 6 5 11l4 6l2 11l2 17l-3 2q-3 1 -12 8l-6 5l-5 5q-6 6 -7 8l-2 3l-4 10l-7 14l-6 8l-4 7q-4 6 -6 11q-1 4 -1 11v5l-4 10l-5 15l-5 12v1q-2 11 -1 14l2 6l-2 6q-1 6 -1 13v5l-1 3q-2 12 -2 14v7l2 22l1 12l-2 8q-1 4 1 14l1 6l3 10v4
q0 8 3 14l3 7l4 11v3q0 10 2 14l3 7l3 10l1 3q2 5 8 13l5 5l5 12v1q1 8 7 15l6 6l1 4l2 4t2 4.5t2 3.5q2 5 7 8l4 4l10 9l2 4q2 5 8 9l4 3l11 8l8 8l10 8l5 3q8 6 12 7l7 2l11 6l9 6l3 2q6 4 11 6l5 1l15 4l9 2l15 2l1 1q7 4 13 4l6 1l13 1h26l10 -1l16 -2l10 -1l11 -3
l13 -2l5 -1q2 0 6 -0.5t7 -1.5q6 -3 9 -6l4 -4h4q7 -1 14 -5q8 -4 11 -6l4 -2l13 -9h1q9 -6 11 -8l3 -4l6 -3q8 -4 10 -8l2 -6l8 -6l4 -4q5 -4 8 -10l4 -5l3 -3q6 -4 9 -11l2 -5l2 -3q1 -2 4 -6t4 -6l3 -6l3 -4q5 -6 6 -10l2 -5l6 -11l5 -11l5 -12l2 -4q4 -7 4 -13l1 -7
l1 -11l3 -5q4 -7 4 -13l1 -6v-11l1 -3q3 -9 3 -14v-1q0 -7 -1 -11l-1 -5l2 -25l1 -4q1 -6 -1 -14l-2 -6v-6l-2 -8q-1 -3 -1 -4l-2 -6l-1 -5q0 -5 -2 -13l-2 -5l-3 -14q2 -9 -2 -15l-4 -6v-4q0 -8 -5 -13l-4 -5l-6 -10v-4q0 -8 -3 -13l-3 -5l-4 -6q-3 -5 -9 -11l-4 -4l-8 -11
l-3 -3q-3 -5 -8 -10l-5 -4l-1 -1q-3 -4 -11 -9l-6 -4v-1q-6 -8 -10 -11q-2 -2 -11 -6l-5 -2l-5 -3q-5 -3 -13 -5l-7 -2zM281 444l-2 -1q-3 -2 -11 -5l-4 -1l-14 -9l-5 -9l-6 -9l-2 -6q-1 -1 -7 -11l-3 -5l-2 -15l-2 -10l-2 -11l-4 -15l2 -23l1 -14l-1 -9l3 -15l2 -4
q2 -5 4 -13v-6l1 -11l6 -11l7 -10l9 -8l8 -8l8 -3l11 -3h25l12 -1l10 8l10 6l9 5l10 10l1 4q1 8 5 13l4 7l2 8l2 13l3 12l-1 3q-2 9 -1 14l2 7l3 24l-1 11l-1 10l-3 12l-1 14l-2 3q-5 12 -5 13l-2 7l-6 7l-9 12l-5 7l-11 8l-7 4l-16 5z" />
    <glyph glyph-name="r" unicode="r" horiz-adv-x="551" 
d="M517 116l5 -11l5 -4q3 -2 8 -10q1 -1 5 -12l3 -7l1 -3q3 -7 3 -13l-1 -7v-3q1 -6 -3 -15l-2 -4q-2 -6 -11 -11l-7 -4q-5 -2 -13 -4l-9 -2l-9 -1l-7 -2q-5 -2 -13 -2h-5l-10 -1q-7 -1 -14 0l-18 1l-9 1h-7q-10 0 -14 2l-5 3h-5q-8 0 -12 4l-3 3l-8 4q-6 3 -11 8
q-2 2 -8 10l-8 12l-5 11l-8 12l-4 4q-7 7 -8 10l-2 6l-5 11l-4 12l-3 3q-6 8 -8 12l-6 11q-4 7 -4 12v5l-8 11l-16 4l-6 -14l-2 -11v-24l1 -15v-25v-7q0 -6 -2 -12l-2 -5l-1 -7q-1 -3 -2 -7.5t-1 -6.5l-2 -6l-1 -2q-3 -7 -9 -10q-4 -3 -12 -5q-5 -2 -13 -4l-20 -4h-3
q-10 -2 -14 -2h-7l-11 1h-11q-10 0 -15 1l-11 2l-20 6h-3q-9 0 -14 5l-5 4l-3 3l-9 9q-4 4 -7 10l-3 5l-2 3q-5 12 -5 13q-1 7 0 14l3 16l-2 4q-3 9 -2 13l1 5v15l-1 2q-1 8 0 15l1 7v11l1 13l-1 3q-3 7 0 15l3 7l-2 13l-2 10l-1 7v13v6l1 10l2 15l-1 3q-2 10 -2 13v11v6v13
v4q0 11 1 13l3 6l-2 4q-2 7 -1 15l2 8l-2 4q-3 7 0 13l3 6l-2 3q-3 7 -3 14q0 8 1 13l1 6v10l-1 7q-2 8 1 14l2 6l-1 3q-4 10 -4 14q0 6 3 11l2 5l1 25l1 13v1q-1 6 1 14t4 12l3 6l2 2q3 4 10 11l5 5l1 1q5 6 12 8l6 1l11 4l6 3q3 1 14 3l17 1l1 1q3 1 13 1l7 -1l8 1
q5 1 12 1h5l11 1l25 1l15 -1h9l5 1q7 1 15 0l8 -1l10 1l6 1q6 0 12 -2l5 -2l7 1q9 2 13 1l6 -1l11 -2h6q9 0 14 -1l17 -4h6q8 0 13 -3l5 -2l6 -1q8 -2 13 -4l6 -2l8 -5l12 -7l4 -2q8 -4 11 -7l5 -4l3 -3q2 -2 5 -4t4 -4l2 -4l7 -12l6 -10l5 -6q2 -2 5 -12l2 -5l3 -11l4 -7
q3 -7 4 -14l3 -17l1 -9l1 -4q3 -9 3 -13v-6v-11v-7q0 -4 -2 -12l-1 -5l1 -5q2 -8 -2 -13l-2 -5l-1 -3q0 -3 -5 -14l-4 -8l-4 -7l-4 -13l-2 -3q-3 -9 -6 -12l-5 -5v-2q-3 -8 -7 -12l-5 -5l-7 -8l-15 -19l-5 -9l1 -12v-14l4 -9l6 -11l7 -11l11 -20l7 -12l9 -11l7 -10l4 -4
q7 -9 8 -12zM265 478l-13 -5l-8 -5l-4 -10l-3 -14l-1 -11l-2 -12l-1 -25l3 -12l2 -10l4 -15l5 -9l5 -11h29l10 1l7 5l9 6l7 10l5 12l6 13l1 12l-1 22l-4 14l-1 3q-3 7 -4 14l-2 7l-15 16l-10 5z" />
    <glyph glyph-name="s" unicode="s" horiz-adv-x="446" 
d="M103 291l-3 2q-8 4 -12 8l-6 4l-10 8l-3 2q-6 5 -9 10l-3 6l-3 3q-1 3 -3 6.5t-3 4.5l-2 5l-4 3q-5 5 -7 12l-2 5l-2 5q-1 2 -2.5 6t-2.5 6l-1 5l-1 3q-5 8 -5 13v6v12v5q0 8 1 13l2 6l-1 3q-3 8 1 15l4 5v5q0 8 3 13l2 5l1 2q0 8 3 15l3 7l8 12q1 1 3.5 5t4.5 6l5 5
l10 8l2 3q5 8 9 11l6 5l1 2q2 3 11 10l6 4l8 4l14 5l2 1q5 4 13 6l6 1l1 1q6 5 12 5l6 1l15 4l5 1q1 0 6 1.5t8 1.5h6h9l15 2l17 2q5 1 12 1l5 -1h11l5 1q10 2 14 1l6 -2l11 -1l4 1q8 2 14 -1l6 -2l18 1q4 0 14 -2l9 -2l11 -3l2 -1q9 -3 12 -6q7 -5 8 -9l2 -5l2 -5
q4 -10 4 -13v-7l1 -11v-3v-13l-1 -6l2 -18q1 -4 -2 -12l-2 -5v-3q-1 -5 -4 -13l-3 -6l-1 -3q-3 -7 -8 -13l-5 -5l-6 -5l-2 -1q-4 -3 -12 -7q-6 -3 -14 -3h-13q-6 0 -14 2l-6 2l-9 1l-12 1l-17 1l-4 -2q-6 -2 -12 -1l-4 1l-12 -6l-3 -24v-9l8 -7l19 -13l11 -6l13 -8l18 -12
l3 -1q11 -4 13 -6l6 -4l3 -1q9 -3 12 -8l5 -5l7 -7l5 -3q8 -5 10 -9l4 -5l6 -9l2 -3q3 -4 7 -12l2 -6l3 -4q4 -9 5 -12l1 -6l2 -4q3 -8 4 -12l1 -6l2 -12v-10v-13v-3q2 -8 0 -14l-2 -6v-22l-1 -14l-1 -3q-1 -7 -5 -13l-4 -6v-4q-1 -7 -5 -14l-3 -6l-1 -1q-2 -6 -5 -12l-4 -5
l-8 -10l-3 -4q-4 -6 -11 -10l-6 -3l-4 -4q-4 -5 -8 -8l-4 -3l-9 -5l-14 -6l-2 -2q-4 -3 -13 -5l-7 -1l-5 -3q-2 -1 -10 -4l-4 -1l-13 -4l-22 -3l-8 -2q-10 -2 -11 -2h-5h-11l-16 -4h-1q-5 -1 -14 -1h-6l-11 -1h-4q-8 0 -12 1h-6l-4 -1q-10 -2 -15 -1l-7 1l-11 3l-5 -1
q-8 -2 -14 0l-6 2l-23 2h-4q-10 0 -13 1l-4 2l-6 2q-7 3 -10 7l-2 4l-5 5q-7 7 -7 10v5l-2 6q-2 9 -1 12l1 5l-1 4q-1 6 1 13l2 5v11l3 26l2 12q-1 6 2 14l2 6l2 5q2 4 7 10l5 4l4 4q4 4 11 6l6 1l1 1q5 3 14 3h8q9 0 13 -1h6l17 -2h2q8 1 12 0l6 -1l14 -1h9l23 3l9 10v25
l-4 4q-4 4 -8 10l-3 5l-10 9l-8 7l-7 3q-6 3 -10 8l-4 4l-9 6z" />
    <glyph glyph-name="t" unicode="t" horiz-adv-x="478" 
d="M193 615l-12 1h-14q-8 -3 -13 -3h-12l-6 1l-9 -1h-14l-7 -1q0 -1 -7 0h-7l-16 1l-12 -3l-9 -8l-11 -6l-9 -10l-2 -6q0 -1 -7 -12l-5 -6l-2 -9l-1 -12v-25l-1 -13l2 -4q2 -6 2 -12v-5l3 -6q1 -3 2 -7t1 -5l1 -5l7 -7l10 -7l14 -3l14 2q8 2 13 0l5 -1l5 1q7 1 13 0
q5 -1 12 -4q8 -3 9 -9l1 -7l1 -1q4 -7 4 -14l-1 -6l-3 -20l1 -5q2 -10 1 -13l-1 -6v-12l2 -7q1 -8 -1 -13l-2 -5v-12l1 -6q2 -10 1 -14l-3 -7l2 -11l1 -11l1 -6q1 -6 1 -13q0 -3 -2 -13l-2 -6l1 -4q0 -8 -1 -13l-1 -6l1 -5q1 -6 1 -13l-1 -5v-11l-1 -13l1 -5q0 -2 1.5 -6
t1.5 -7v-6l1 -4q0 -11 -2 -15l-2 -6l5 -25l1 -10l1 -4q5 -12 5 -13l1 -6l5 -10l5 -8l5 -4q8 -7 9 -9l2 -5l10 -5h9q6 0 12 -2l4 -1l11 -4l12 1l23 -1h14h12l14 2l22 14l6 6l8 9l5 12l5 10l1 5q1 8 4 13l3 7l-2 24l-1 5v14v6l-1 10l-1 8q-1 6 1 14l1 6l-1 4q-1 8 1 13l2 5
l-1 4q-3 7 -1 14l3 6l-3 6q-2 5 0 14l2 6l-2 6q-2 10 -2 13l1 6l-1 6q0 9 1 13l1 6l1 12v4q0 1 -0.5 7t0.5 6l1 5l2 13l-1 13l-1 4q-2 8 0 14l2 7v25v2q-2 8 0 15l2 6l1 3q2 9 4 14t6 8q9 3 10 3l6 1l7 1q5 1 14 1h7l36 1l14 16l6 12l1 4q1 3 5 12l4 6l1 15l-2 4q-3 9 -3 14
l-1 7q0 8 1 13l1 6l-4 6q-4 7 -4 11l1 4l-8 10l-8 8l-10 6l-12 6l-8 3l-27 3h-3q-8 -2 -12 0l-5 2l-7 -1q-7 -1 -13 0l-5 2l-3 -1q-5 -2 -14 -2l-8 1l-8 2l-4 -1q-10 -2 -14 -2h-8h-22l-5 -1q-6 -1 -12 1l-4 1l-9 -1q-5 -1 -13 -1h-6h-19z" />
    <glyph glyph-name="u" unicode="u" horiz-adv-x="567" 
d="M543 520l1 -2q3 -7 3 -14q0 -9 -1 -13l-2 -6l1 -11l1 -6q0 -8 -1 -13l-1 -6l2 -5q2 -6 2 -13v-5l1 -8q0 -6 -2 -12l-1 -5l-1 -14l-1 -13v-10l2 -5q3 -7 -1 -14l-2 -5l1 -15l1 -11l-1 -6q0 -9 -1 -12l-1 -5l1 -18q1 -7 0 -13l-2 -5v-4q-1 -3 -2 -7.5t-1 -6.5l-3 -9l1 -3
q2 -9 -1 -14l-3 -6l1 -4q0 -9 -3 -13l-4 -4v-12l-1 -6q-2 -8 -4 -14l-9 -18v-3q-1 -6 -5 -12l-4 -4l-1 -5q-2 -9 -7 -12l-6 -3l-6 -11l-1 -4q-2 -7 -7 -10l-4 -4l-2 -3l-12 -9l-6 -4l-2 -3q-1 -2 -9 -10q-6 -5 -10 -6l-5 -2l-7 -5q-4 -3 -11 -5l-6 -1l-11 -7l-3 -1
q-6 -3 -12 -5q-5 -2 -13 -2h-6l-5 -1q-6 -2 -14 -2l-8 -1l-4 -1q-8 -3 -14 -2l-6 1l-3 -1q-5 -2 -15 -2h-14h-10q-9 0 -11 1l-3 1l-14 2l-8 1q-6 0 -12 2l-5 2l-13 2l-3 1q-8 2 -14 4q-2 1 -5.5 2.5t-5.5 2.5l-5 3h-1q-6 1 -14 7l-6 4l-8 3l-6 3q-7 4 -10 9l-2 5l-7 4
q-8 4 -11 7q-5 6 -6 9l-3 4l-5 3q-6 4 -9 9l-2 5l-4 4q-6 8 -7 12l-2 6l-1 3q-4 6 -6 12l-1 7l-2 3q-6 6 -6 12v6l-3 6q-4 7 -4 13v5l-3 11l-3 7q-3 8 -3 12v6l-2 6q-1 6 -1 13v6l-1 4q-3 9 -3 14v15l-1 13v8q0 9 1 12v5l-1 7q0 2 -0.5 4t-1 3t-0.5 2.5v2.5v6l-1 6q0 9 1 14
l1 6v3q-2 7 -1 14l1 7l-1 11l-1 6q-1 7 0 13l2 4v14l1 13l-2 11l-1 3q-1 7 0 15l2 7l-1 5q0 10 1 13l1 5l-1 14l-1 17q0 10 1 13l2 5l2 6q3 7 6 12l4 4v1q3 7 7 11l5 5l4 4q1 1 10 7q4 3 10 3l5 1l14 3l4 1q5 1 13 1h6l26 1l13 -1l9 -1l12 -2l16 -3q8 -2 15 -5l6 -4l8 -6
l6 -3q8 -6 10 -10q3 -4 4 -11l1 -6v-11l1 -27v-2q1 -6 1 -13l-1 -6l1 -5q2 -10 1 -14l-1 -6l1 -12v-3q1 -6 1 -13l-1 -5l-1 -12v-5q0 -9 -1 -13l-2 -5v-12l1 -7q1 -7 0 -13l-1 -6l2 -12v-2q1 -6 1 -14l-1 -8v-9v-18q0 -9 -1 -12l-1 -5l2 -7q2 -6 2 -13l-1 -5l1 -13l3 -12
l3 -12l2 -11l2 -14l7 -10l15 -4l21 -1l12 5l1 5q1 1 7 11l3 6l2 11l2 10l3 15l-1 9v13v5q0 7 3 14l3 7l-1 18v13v6l-1 10l-1 15v5v13v5v5v13l1 6l-1 4q-2 10 -1 14l1 5v3q-1 1 0 7v7v7l1 10l-1 3q-2 10 -2 15q0 9 1 12l1 5l1 12l-2 11v16q0 10 2 15l2 7l5 10v2q1 8 7 12l5 3
l12 8l9 5l2 1q6 5 14 5h7l7 1q10 2 13 2h6l2 1q5 2 15 2h16h12l13 -2l8 -2q7 -1 12 -4l5 -3l2 -1q2 -1 6.5 -2.5t6.5 -2.5q6 -2 9 -7l4 -5l3 -5q5 -6 6 -11l1 -4l4 -11l2 -6q2 -10 2 -15z" />
    <glyph glyph-name="v" unicode="v" horiz-adv-x="531" 
d="M447 617l9 -1q6 0 12 -2l5 -1l3 -1q10 -4 13 -7q5 -3 8 -8l4 -4l5 -4q6 -6 6 -12v-6l1 -2q1 -3 1 -14v-7l1 -3q3 -9 1 -15l-3 -7v-4q1 -5 -1 -15l-5 -19v-1q3 -8 0 -14l-3 -7l-2 -13l-4 -12l-3 -11v-3q2 -9 -2 -15l-4 -7l1 -2q1 -4 -1 -14q-1 -7 -4 -14l-3 -6l-4 -8
l-2 -14l-3 -11v-4q0 -5 -3 -13l-3 -6l-3 -14v-1q0 -5 -4 -15l-3 -6v-11l-3 -14l-3 -10l-5 -12v-3q0 -4 -4 -14l-4 -7v-1q0 -6 -3 -15l-2 -7v-3q0 -4 -3 -13l-2 -5l-4 -13l-6 -13l-3 -8l-3 -15l-1 -4q0 -9 -2 -15l-3 -6q-3 -8 -7 -13l-5 -6v-2q-2 -5 -7 -12l-5 -6l-7 -11v-1
q-3 -5 -11 -9l-6 -3l-4 -2q-5 -4 -11 -7l-5 -2l-5 -3q-10 -4 -12 -4h-4l-15 -1l-5 -1q-10 -2 -14 -2q-7 -2 -15 0l-13 1l-4 -1q-7 -1 -13 1l-6 2h-9h-5q-4 -1 -6 0q-6 2 -9 4l-6 3l-5 1q-10 2 -12 3l-4 3l-5 3q-4 3 -9 8l-4 3l-4 3q-9 7 -10 8q-5 5 -7 10l-3 6l-4 9l-5 6
q-5 8 -6 14l-3 13l-4 6q-4 7 -4 11v5l-2 4q-3 6 -4 15l-1 7l-2 11l-6 12l-2 3q-4 7 -3 13v6l-3 6q-4 7 -4 12v6l-4 12l-2 5q-2 6 -2 12v5l-4 5q-5 8 -4 12l1 5l-2 5q-5 12 -5 13l-1 5l-3 6q-2 6 -2 13l1 7l-2 3q-5 8 -4 13l1 6l-2 5q-2 6 -4 14l-1 7l-2 2q-4 7 -4 14v6l-2 4
q-2 5 -4 13l-1 7v9l-6 17q-3 8 -1 14v6l-2 11l-3 11l-1 4q-3 9 -3 14q-1 4 1 13l1 6l1 12l-1 4v12v6v5q0 8 4 13l5 5v1q0 8 7 13l6 4q5 8 9 10l6 3l3 1q7 4 13 3h6l17 1q7 1 14 0l7 -1l14 -1l3 1q9 0 15 -2l9 -2q7 -2 12 -6l6 -3h1q10 -4 13 -7t7 -9l3 -4l4 -3q8 -7 9 -10
l2 -6l5 -12l3 -10l2 -5q4 -10 4 -14v-12l-1 -4l1 -13l3 -7q3 -7 3 -14l1 -9q1 -9 0 -13l-1 -5v-12l1 -12l3 -7q3 -8 3 -12q1 -7 0 -12l-1 -7v-8l2 -5q4 -10 4 -13v-6l1 -6q0 -4 -2 -14l-2 -7l2 -9l3 -13l1 -12l1 -5q3 -9 2 -13l-1 -5l1 -12l2 -5q2 -6 2 -13l1 -6l13 -6l2 4
l2 9l1 2q2 9 3 13l3 6l1 13l1 12v11v5q0 8 1 14l1 8l1 14l1 4q1 3 2 7.5t1 6.5l2 7l-2 7q-1 6 1 14l2 5l-1 5q-2 8 2 15l4 7l-2 6q-1 8 0 14l1 7l-1 6q0 8 1 14l3 19l3 11v6q-1 8 0 14q1 2 1 6t1 6l2 6l6 12v4q0 9 1 12l3 4l5 13l2 3q1 1 3.5 5t4.5 6l5 4l5 4q3 3 12 7l5 2
l2 1q11 6 13 6l6 1l3 1q8 3 14 3h9l4 1q5 1 12 1h5h24z" />
    <glyph glyph-name="w" unicode="w" horiz-adv-x="872" 
d="M754 615h4q7 1 13 0q2 0 6.5 -0.5t6.5 -1.5l7 -2h1q8 -2 13 -4q1 -1 11 -8l9 -9l3 -4l3 -4q4 -4 8 -10q2 -3 2 -11l-1 -6l2 -5q4 -11 3 -14l-1 -6l-4 -14l1 -2q3 -7 0 -14l-2 -6l-1 -7q0 -5 -3 -13l-2 -6v-5q0 -4 -4 -14l-5 -13l-1 -13l-1 -6q-2 -11 -3 -13l-3 -5v-3
q0 -7 -3 -13l-3 -5l1 -4q1 -6 -2 -15l-3 -7l-2 -9l-4 -14l-3 -10l-3 -13v-2l-3 -15q0 -3 -1 -5l-2 -4t-1 -3l-2 -4l-3 -14l-3 -12l-1 -9l-2 -7q-2 -9 -2 -11l-2 -5l-2 -5q-2 -9 -5 -13l-4 -5l-4 -14l-4 -11v-4q0 -9 -3 -13q-1 -2 -3 -5t-3 -5l-3 -5l-1 -6l-4 -12l-2 -6
l-5 -11l-4 -14l-6 -12l-4 -5l-1 -5q-4 -10 -5 -12q-2 -4 -9 -9l-5 -4l-1 -1q-4 -6 -11 -9l-6 -3l-9 -6l-5 -4q-4 -3 -10 -5l-4 -1l-3 -1q-2 -1 -4.5 -1.5t-5.5 -1t-5 -0.5l-7 -1l-4 -2q-5 -2 -14 -2l-7 1l-9 -2l-17 -1q-8 -1 -13 0l-7 2l-14 2q-8 2 -14 4h-1q-8 4 -9 6l-2 1
l-9 11l-2 2l-9 12q-2 3 -5 11l-2 5l-3 11l-4 11l-10 25l-4 11l-4 12l-5 11l-4 10l-1 5q-2 10 -2 13v5l-2 12l-2 5q-3 8 -3 12l-1 5l-8 16q-3 7 -4 12l-2 7l-11 -1l-5 -17q-1 -6 -5 -12l-3 -5l-1 -5q0 -3 -3 -13l-2 -5l-5 -13l-2 -10l-2 -10l-1 -6q0 -6 -2 -12l-3 -5l-2 -10
l-5 -14l-3 -15q-1 -5 -7 -13l-5 -6v-2q-1 -5 -7 -13l-5 -6l-5 -8l-2 -2q-4 -5 -10 -10l-8 -6l-1 -2q-4 -4 -13 -6l-6 -2l-8 -2l-9 -3q-9 -3 -13 -2l-5 1l-14 -1l-8 -2q-5 -1 -13 -1h-6l-22 1l-15 1h-3q-8 2 -13 5l-5 4l-4 1q-8 2 -11 6l-3 4l-6 6q-7 10 -8 11l-5 10l-1 4
l-5 14l-1 3q-7 11 -7 13l-5 18l-2 3q-6 6 -6 12v6l-5 12l-2 7q-3 8 -3 11l-1 4l-1 7q0 2 -0.5 4.5t-1 4t-0.5 3.5v5l-5 10l-5 14l-3 11l-1 2q-3 8 -1 14l1 6l-3 7q-1 2 -1.5 4.5t-1.5 4.5t-1 3v5l-3 6q-2 6 -2 12v6l-1 10l-3 7q-3 7 -3 12v5l-2 4q-4 11 -5 14l-1 7v1
q-2 10 -1 13l1 6l-1 13l-1 14l-1 1q-5 9 -4 14l1 6l-2 11l-2 5q-2 6 -4 14q-1 6 -1 12l1 6l-2 4q-2 10 -2 15l-1 16l-1 2q-1 7 0 14l2 5l-2 5q-3 9 -2 15l1 7l2 10l-1 5q-1 7 0 13q3 8 5 11l4 5v3q1 9 6 12l5 3l5 3q6 5 11 7t11 4q4 1 11 1h4l10 2q5 1 14 1h6q4 0 14 -2
l8 -1l5 -1q2 0 6.5 -0.5t6.5 -1.5l5 -2l6 -1q12 -2 13 -3l4 -2l4 -3q8 -6 10 -10l3 -6l1 -1q7 -7 7 -12v-7l4 -3q5 -5 5 -14v-7l2 -4q3 -5 3 -14v-7l1 -4q0 -1 1.5 -5.5t1.5 -8.5v-7l5 -15q3 -9 2 -13l-1 -5l2 -13l1 -6v-12v-6l4 -11l1 -6q1 -6 1 -13v-5l-2 -13l1 -5
q2 -7 1 -13l-1 -5l3 -5q4 -6 2 -12l-2 -5l4 -14l16 -6l4 4v2q1 6 5 12l3 4l1 5q0 5 3 14l2 8l2 11l3 14l3 13l5 15v5q0 3 1.5 7.5t1.5 6.5v1q0 3 5 14l4 7l2 11l3 16v4q-1 6 2 15l7 17v4q0 3 2 13l2 6l2 11l2 6q2 9 6 13l4 5l1 2q3 8 9 12l7 4v1q3 7 10 10q3 2 12 4l9 2h3
q10 2 15 1l8 -1l17 2l4 -1q7 0 14 -3l8 -2l2 -1q10 -4 11 -6l2 -3l5 -4q8 -6 10 -11l3 -7l2 -3q6 -8 6 -12l1 -5l2 -5q2 -5 4 -13l2 -7l3 -11l6 -16q2 -6 2 -13v-6l4 -8q3 -8 3 -13v-6l2 -3q3 -8 3 -12v-5l2 -12l3 -5q2 -5 2 -14v-6l2 -7q0 -2 1.5 -6t1.5 -6q1 -3 1 -11v-6
l4 -13l3 -12l6 -11l4 -9l16 -3q1 6 4 12l2 4l1 3q0 6 3 14l4 7v5q1 7 5 14l3 5v3q-1 8 2 14l3 5l1 7q0 8 1 13q2 8 4 12l2 6l2 12l3 14v4q-1 5 1 15l5 17v4q2 8 5 13l3 4l1 12l1 7q2 10 4 13l4 4l1 5q1 5 4 13q1 3 6 10l3 5l4 4q5 4 12 9q8 4 13 5l6 1l2 1q3 1 7 1.5t7 0.5
h2q5 1 11 1l5 -1z" />
    <glyph glyph-name="x" unicode="x" horiz-adv-x="517" 
d="M416 256q5 -6 6 -10l1 -4l6 -15l5 -9l4 -7q5 -7 6 -11l1 -4l5 -14l3 -5q5 -8 5 -10v-4l8 -13l6 -13l4 -11l8 -19l3 -4q5 -7 6 -13l2 -7l1 -4l2 -4l2 -4t1 -4l2 -6l4 -11l1 -4q2 -5 0 -14q-1 -7 -6 -13l-3 -4q-6 -8 -9 -10q-5 -3 -11 -4q-8 -2 -11 -2h-5l-5 -1
q-10 -2 -13 -2h-7l-13 -1l-22 1h-7h-12l-5 1l-10 2l-11 3h-5q-4 0 -13 3q-4 1 -10 6l-5 5l-4 2q-7 4 -7 10l-1 4l-4 6q-4 7 -5 14l-4 12l-2 12l-2 12l-2 11l-7 21l-2 8q-1 6 -1 12l1 4l-5 11l-4 13l-5 11l-3 12l-15 4v-1q1 -7 -2 -15l-3 -6l-3 -13l-2 -13l-2 -15l-1 -3
q-1 -7 -4 -14l-3 -9l-2 -13l-1 -13l-1 -7q-1 -7 -4 -14l-5 -15l-2 -6q-2 -6 -7 -11l-5 -4l-5 -5q-2 -2 -6 -3.5t-5 -2.5q-6 -4 -11 -6l-7 -2v-1q-5 -2 -14 -2h-7l-14 -2l-4 -1q-7 -2 -13 -1l-6 1l-23 -1h-12l-12 1l-17 -1q-5 0 -15 2h-1q-11 5 -12 5q-5 4 -8 10l-3 5
q-3 5 -4 12t0 13v7l1 3q0 8 4 13l4 5l1 7q1 6 5 12l4 5l4 11l10 21v2q2 8 7 13l5 5l4 11v3q1 5 5 13l4 6l5 12l6 11l5 12l1 3q1 4 5 13l4 6l12 22v2q0 9 2 14l3 6l6 9v9l2 25l-4 7q-4 7 -4 12v5l-14 21l-2 5q-1 3 -2.5 6l-2.5 5l-1 5l-5 8l-6 12l-2 5l-4 10l-6 13l-5 11
l-4 2q-6 6 -7 13l-1 7l-3 3q-5 5 -8 13l-5 14l-3 6q-4 10 -4 11v4l-3 5q-5 10 -4 13l1 5l-3 7q-3 7 -3 12q-1 5 0 11t7 12l6 6q2 2 5 4.5t4 3.5q2 2 11 4l7 2l5 1q10 2 13 2l6 -1l13 2l19 1q9 0 12 -1l5 -1h11h11h6q7 0 13 -2l5 -1l12 -5l5 -2q3 -1 12 -5l6 -3l4 -2
q5 -3 9 -9q3 -6 4 -11l1 -6l8 -15q3 -6 3 -13v-5l3 -13l2 -12l1 -5q2 -6 1 -15l-2 -7l3 -5q3 -7 3 -13v-7v-12l5 -11l4 -13l10 -1l3 6q1 2 2.5 6.5t2.5 6.5l4 5l3 14v4q0 4 2 14l3 8v3q0 9 3 14l4 5l-1 5q-1 6 1 14t4 13l3 7l1 14q1 6 5 12l4 5l2 2q6 8 11 10l7 4l10 5l5 4
q3 2 11 5q4 2 12 3l16 2l8 2q8 1 12 0l5 -1l8 2h15l19 -1l8 1l17 -1h1q9 0 13 -3q5 -4 9 -9l6 -8q5 -7 6 -11q1 -3 1 -12q0 -5 -4 -13l-3 -5v-4q0 -8 -3 -13l-4 -5l-2 -8q-1 -4 -6 -11l-3 -4l-6 -16l-6 -12l-3 -7l-5 -10l-1 -3q-2 -8 -6 -11l-4 -4l-2 -5q-1 -8 -4 -12l-4 -6
l-5 -10l-6 -9l-1 -5q-1 -6 -5 -14l-7 -13l-8 -13l-6 -8l-4 -11l-3 -12v-24v-12l5 -14z" />
    <glyph glyph-name="y" unicode="y" horiz-adv-x="537" 
d="M510 596q9 -4 9 -8v-3l2 -5q3 -9 2 -14l-1 -6l1 -4q2 -5 0 -14l-1 -7l-4 -11l-1 -6q-1 -7 -6 -13l-4 -5l-3 -13v-4q-2 -10 -5 -14l-11 -16l-2 -10l-2 -6q-1 -6 -5 -12l-3 -5l-7 -12l-3 -8l-1 -4q-2 -5 -7 -12l-5 -6l-2 -4q-1 -3 -3 -6.5t-3 -4.5l-3 -6l-1 -4
q-2 -10 -5 -14l-3 -6l-6 -10l-5 -9l-5 -10l-7 -10l-1 -6q-1 -6 -7 -12l-4 -4l-2 -6q-2 -9 -5 -12l-4 -5v-3q0 -5 -2 -13q-2 -7 -5 -12l-4 -5v-13v-15q0 -5 -2 -13l-2 -6l2 -7q2 -10 1 -14l-2 -6v-11l1 -6q0 -9 -1 -15l-2 -18l1 -2q3 -6 1 -14l-1 -7l-1 -4q0 -2 -2 -12
q-2 -8 -4 -11q-1 -1 -3 -5t-3 -5l-3 -5l-7 -8l-4 -4q-1 -1 -10 -7q-3 -2 -11 -4l-6 -1l-6 -1q-5 -1 -13 -1l-6 1l-9 -1l-26 -1h-7q-3 0 -6.5 0.5t-4.5 0.5t-9 2l-6 3l-8 1q-10 2 -11 3l-3 2l-5 3q-1 1 -5 3.5t-6 4.5l-1 1q-8 7 -8 9l-2 4l-2 5q-3 9 -3 11v4l-2 7q-3 9 -2 13
l1 5l-3 14l-2 17v12v5v15l1 10l-1 4q-2 10 -2 14v6l-1 17v13l1 5l-2 14l-2 3q-4 10 -4 13v6l-3 4q-5 8 -5 11l-1 6l-10 12l-1 2q-5 9 -6 12l-1 5l-6 13l-9 11q-6 8 -8 13l-4 10v4l-4 5q-6 8 -7 12l-2 7l-4 10l-1 2q-5 9 -7 13l-3 7l-1 2q-1 2 -4 6t-4 6q-1 1 -2.5 5.5
t-2.5 6.5v5l-4 12l-3 4q-5 8 -5 11l-1 5l-3 3q-4 5 -6 13l-1 6l-8 17q-3 8 -4 11v4l-6 13l-1 4q-2 12 -2 13v5l-1 7q-1 6 2 13q1 2 6 11l5 7q2 3 10 8q2 1 5.5 2.5t5.5 2.5q6 2 13 2h10l10 -1l7 1q8 2 14 0l6 -2l12 -1l17 1q5 0 13 -2l6 -2l5 1q7 0 13 -3l6 -2l7 -2
q10 -2 12 -4l4 -3l9 -8l4 -3q6 -6 7 -9l2 -4l3 -6q5 -8 5 -13l-1 -6l5 -26l1 -10l2 -7q1 -6 1 -13l-1 -5l2 -13l1 -5q2 -12 2 -13v-6l3 -5q3 -4 5 -13l1 -6v-12l1 -2q2 -10 2 -14l1 -8l5 -8l6 -12l9 -4l10 6v3q0 7 3 14l4 6l4 12v5q0 10 1 15l2 7l3 12v5q2 10 5 14l4 7l2 12
l1 12l2 12l2 16v2q0 2 2 14l3 13q1 8 3 13l2 5l6 8v3q2 9 5 12l4 3l3 3q2 2 12 7q1 1 13 3l9 2q9 2 13 1l6 -1l8 1q5 1 14 1l25 -1l12 -1l13 -2l6 1q10 0 13 -3l4 -3z" />
    <glyph glyph-name="z" unicode="z" horiz-adv-x="459" 
d="M392 185q5 0 13 -2t11 -4q9 -6 11 -8q6 -6 8 -9l2 -6l2 -4q1 -5 1 -13v-6l-1 -10l1 -24v-13l1 -11l1 -5q1 -8 -2 -13l-3 -4v-6q0 -7 -3 -13l-2 -6q-2 -8 -6 -14q-6 -6 -10 -8l-10 -5l-5 -1l-23 -2h-7q-9 0 -12 1l-5 1l-15 1l-2 -1q-7 -3 -15 -1l-7 2h-9l-7 -2
q-10 -2 -11 -2h-5l-15 1h-5q-9 0 -13 1l-7 1h-20l-12 -2l-5 -1h-14h-7h-5q-8 -1 -14 0l-8 1l-8 1l-9 -2h-14h-6h-2q-5 -1 -14 -1l-16 1l-15 2l-8 2l-8 3q-8 3 -10 5q-4 4 -7 10l-3 6l-3 4q-4 5 -5 12l-1 6l-1 6q-1 7 0 14l1 7l-2 15q-1 4 1 14l1 7l3 11v4q0 5 2 13l2 6v4
q0 7 2 13q1 5 5 11l5 6v1q4 11 6 13l5 4l10 21l1 4q2 7 6 13l4 6l6 7l1 5q1 6 7 12l5 5l4 10l2 4q1 2 3 5.5t3 5.5l3 5l6 9l9 11l3 11l2 5q4 9 5 11l4 5l5 8l7 23l6 12v11v10l-1 14l-13 9h-7h-7q-7 -1 -7 0l-6 1h-14l-10 -1l-16 1q-10 0 -14 3l-5 4l-4 1q-9 3 -11 8l-3 4
l-1 2q-8 6 -8 10v6l-1 14l-3 5q-4 7 -4 11v4l3 24l-1 14l-1 3q-1 4 1 13q1 6 4 13l4 8v2q0 8 6 13l5 4l2 2q6 7 11 7h5l20 2l4 1q10 2 14 2h6l11 -1l8 1q5 1 13 -1l5 -1l5 1q7 1 13 0l5 -1l6 1q5 1 15 1l19 -1h9h15l8 2h12h4q7 2 15 0l7 -1l11 -1l14 1h1q10 0 14 -1l6 -1
l4 1q5 1 15 1h1q4 0 14 -2l14 -3l8 -2q7 -2 12 -3q5 -2 8 -6l2 -4l6 -6q6 -8 8 -11l5 -10l2 -5l1 -12l4 -5q4 -7 4 -13l-1 -6l2 -6q3 -9 3 -14v-16v-4q0 -4 -2 -12l-1 -4l-7 -15v-3q0 -2 -7 -13l-4 -6l-13 -19l-1 -5q-2 -5 -5 -11q-1 -2 -7 -10l-4 -6l-1 -1q-1 -8 -5 -13
l-4 -7l-1 -2q-1 -3 -4 -6.5t-4 -5.5l-4 -7l-8 -10l-4 -10v-2q-4 -9 -8 -12l-5 -3l-6 -13l-6 -11l-6 -10v-1q-1 -3 -7 -13l-4 -6l-3 -8l-13 -24v-11l2 -11l6 -8l7 -2q9 -2 11 -3l5 -2h11l7 1q7 0 7 -1h7q7 1 14 0h8h14z" />
    <glyph glyph-name="braceleft" unicode="{" horiz-adv-x="400" 
d="M339 42q9 0 13 -3l5 -4l7 -4q8 -4 10 -7q2 -2 4 -10t2 -12l1 -5l2 -7q3 -9 3 -13l-1 -6l1 -6q1 -6 1 -13l-1 -6l-7 -27v-2q0 -7 -4 -14q-4 -6 -10 -10q-4 -3 -12 -7q-3 -2 -12 -4l-6 -1l-22 -6l-6 -1q-5 -1 -15 -1h-7l-5 -1h-13h-6l-13 -1l-15 -1h-5q-5 0 -13 2l-6 2
l-19 5l-15 5q-7 2 -13 6l-7 4q-8 6 -11 9l-3 5l-5 3q-8 5 -9 9l-2 4l-5 4q-4 4 -8 12l-3 6l-3 11l-1 5q0 3 -1.5 7t-1.5 6v6l-1 2q-5 9 -4 13l1 7l-1 23v14v7q0 9 1 12l1 6l2 14l-1 3q-1 8 0 15q0 5 2 13l2 6v10v12l2 14l-1 24l-2 14l-1 8l-4 13l-2 3q-6 9 -6 11l-2 4l-9 7
l-15 6l-13 -1q-7 0 -14 3q-5 2 -10 7l-3 3l-2 3l-8 11q-1 3 -1 10v4l-2 4q-4 7 -2 15l2 7v21v13l-1 6q-1 7 1 13l6 12l4 6l1 2q4 9 9 12l6 3h1q4 2 14 4l17 2l12 1l8 10l7 8l6 11l2 11v4q-1 6 -1 14v12q0 4 2 14l1 7l-1 9l-1 13v14l-3 6q-3 9 -2 13l2 6l-2 3q-2 6 -2 14
q-1 5 -1 14l1 6l-2 5q-3 8 -1 16l4 15l1 14v3q-2 10 1 14l3 5v4q0 6 5 13l5 5l5 11l1 2q1 4 7 12l3 4l2 4q3 7 9 10l6 3l9 6l6 5q6 5 12 7l6 3q6 2 14 4l17 2l6 1q10 2 13 2h6l13 2h12l12 -1l14 -2h6q9 0 14 -2l7 -2l14 -2q2 0 4 -0.5t4.5 -1.5t3.5 -1l6 -2l10 -4l3 -2
q9 -4 11 -8l4 -6l2 -2q7 -7 7 -10l-1 -5l4 -17q2 -10 0 -14l-3 -7l1 -3q1 -8 0 -15l-2 -8l1 -1q2 -6 -1 -15l-3 -7v-2q-2 -8 -6 -14l-6 -6l-2 -3q-4 -5 -9 -7l-5 -2l-20 -3q-10 -2 -14 -1l-6 1h-1q-6 -5 -11 -7l-6 -2l-15 -6l-6 -9l-6 -9l-1 -23l2 -15l1 -2q3 -9 3 -14v-8
l3 -12l3 -10l2 -4q5 -6 6 -14q1 -6 1 -12l-1 -5l2 -5q3 -9 3 -15v-9q0 -10 -1 -14l-2 -6l-3 -9v-3q-1 -3 -8 -13l-5 -5l-6 -9l-4 -5l-8 -8q-2 -2 -10 -6l-7 -3l-10 -6l2 -10l9 -7l9 -5l6 -4q1 0 5 -3t6 -5l4 -5l5 -8l5 -8l3 -4q3 -5 5 -14l1 -7l1 -3q1 -6 1 -14l1 -15v-7
q1 -7 -2 -14l-4 -7l-2 -8v-5q0 -10 -2 -14l-4 -5v-7q-1 -6 -3 -12l-3 -5l-4 -11l-2 -12l3 -27l3 -7l13 -11l9 -5l8 -6l13 -3l13 -2z" />
    <glyph glyph-name="bar" unicode="|" horiz-adv-x="329" 
d="M262 636v-2q2 -6 2 -12q0 -2 -2 -10l-1 -4l-1 -13l1 -5q2 -6 2 -12v-5v-14v-5q0 -8 -1 -13l-2 -6l1 -14v-12l1 -5q2 -12 2 -13t-2 -13l-1 -8l1 -4q1 -6 1 -13v-6l-1 -15v-3q1 -6 1 -14v-9l-1 -11l1 -6q0 -5 -2 -13l-2 -6v-10l1 -7q2 -8 0 -14l-1 -7l1 -5q1 -6 1 -12v-5
l1 -7q1 -7 0 -13l-2 -6l1 -5q0 -8 -1 -13l-1 -5l2 -14v-11v-15l-1 -9v-8q0 -9 -1 -13l-2 -5l1 -4q3 -7 1 -14l-2 -6l3 -14v-5q2 -8 0 -13l-1 -5v-4q1 -6 -1 -14l-2 -6l2 -5q2 -6 1 -15l-2 -7v-11l1 -3q3 -9 2 -14l-1 -7l1 -5q0 -5 -2 -13l-2 -6l2 -5q3 -9 3 -14v-7v-10
l-1 -12v-11l-4 -27l-1 -10l-1 -5q-1 -8 -4 -13q-3 -7 -9 -11l-7 -4l-7 -4l-5 -3q-6 -5 -14 -5h-8l-5 -3q-7 -4 -12 -4h-5l-27 1h-6q-8 0 -11 1q-8 2 -10 3q-6 1 -11 5l-5 2l-6 3q-9 3 -11 7l-4 5l-3 3q-6 6 -6 10l-1 4l-4 7q-5 10 -4 13l2 6l-1 4q-2 12 -2 14v18l-1 4
q-1 8 0 13l2 6l-1 6q-1 8 0 13l1 6l-1 3q-2 10 -2 14q-1 4 1 13l1 6l1 12l-1 3q-3 7 -1 15l2 7l-1 9l-2 7q-2 10 -2 13q0 4 2 12l1 6l-1 5q-1 8 0 13l1 6l1 13v12l-1 5q0 2 -0.5 4t-1 3t-0.5 2.5v2.5v5l1 13v4q0 6 2 14l1 7l-1 1q-4 7 -1 15l2 8l-2 11l-1 3q-1 7 0 13l2 6
l-2 25v10l-1 14v12l1 13l1 12v1q-3 8 0 15l2 7l-2 5q-2 6 -2 14v6l1 10l-1 6v5v4.5v3.5q0 6 1 11l1 6l2 14l-1 5q-2 10 -1 13l1 6l-1 4q-1 5 -1 12v5l2 14l-1 10v12l-1 7v12l2 12l1 7l-2 5q-3 7 -1 13l1 4l1 27l1 4q0 2 0.5 5t1 5t0.5 3l2 5l-1 4q-1 6 2 12l2 3l2 4
q2 3 5 6.5t4 4.5l5 5l3 3q1 1 10 7q3 2 11 4l6 1l11 1l23 1h13h23l12 -2h5q7 0 13 -3l6 -3l6 -3q7 -3 11 -8l4 -5l1 -2q4 -7 4 -13l1 -7l2 -9l2 -13l2 -11l2 -5q2 -10 1 -15z" />
    <glyph glyph-name="braceright" unicode="}" horiz-adv-x="400" 
d="M350 399l4 -1q9 -2 12 -5q4 -3 6 -10l1 -6l3 -3q6 -6 6 -13v-6l2 -4q1 -3 2 -7.5t1 -5.5q1 0 0.5 -6t-0.5 -7v-16l-1 -12l-1 -6q-1 -8 -4 -13l-2 -6v-2q0 -8 -5 -13q-3 -3 -9 -7l-4 -2l-2 -2q-7 -5 -15 -5h-15l-15 -4l-7 -5l-7 -9l-5 -13l-4 -9l1 -5q0 -11 -2 -15l-3 -6
l1 -24l1 -2q3 -6 1 -16l-2 -7l1 -10l5 -14l1 -5q2 -12 2 -14v-7l2 -10l1 -4q2 -8 0 -14l-2 -6v-16l-1 -23v-2q1 -6 -2 -15l-3 -7v-4q0 -7 -3 -12l-2 -4l-2 -5l-2 -4t-2 -4.5t-2 -3.5l-3 -5l-1 -2q-1 -5 -6 -12l-4 -5l-3 -4q-1 -2 -9 -10l-6 -4l-1 -1q-1 -1 -3.5 -3
t-4.5 -3.5t-4 -2.5l-6 -3l-2 -2q-4 -3 -14 -5l-7 -1l-19 -4l-15 -2l-8 -1q-5 -1 -12 -1h-4l-9 -1q-5 -1 -13 -1t-12 2l-5 2h-12l-12 2l-18 2q-8 2 -14 4l-7 3l-6 3q-8 4 -10 6q-1 1 -7 9l-4 6l-2 3q-5 8 -5 15v18l-1 4q-1 8 0 15l1 7l-1 12l-1 3q0 7 3 14l2 6l2 5q1 2 3.5 6
t3.5 6t8 9q1 1 10 7q3 2 12 4l14 2l12 1l17 3l9 2l9 7l7 9l8 12l4 23l-5 13l-2 3q-2 5 -4 13q-2 10 -2 12v5l-2 3q-4 7 -4 14l-1 7l-2 3q-2 4 -4 14l-1 7l-2 11v17q0 8 3 13l3 5l1 14l1 4q2 7 6 12q1 2 2.5 3.5t3.5 3t3 2.5l5 4l8 7l8 7l9 6l10 9l-1 10h-1q-13 5 -14 6l-6 5
l-6 5l-3 3q-1 1 -4 4.5t-4 5.5l-3 5l-4 5q-6 8 -7 11l-1 6l-2 2q-5 8 -5 13v6v25l1 6q0 3 0.5 4.5t1.5 3.5t1 3l1 5l4 14l4 11l3 11l3 12l-1 5q0 9 1 13l1 7l2 10l1 26l-6 9l-9 11h-2q-1 0 -11 7l-4 3h-9q-9 0 -13 1l-6 2h-17q-8 0 -12 4l-4 3l-2 1q-6 4 -10 10l-1 1
q-2 2 -4.5 6t-2.5 5q-3 4 -4 12l-2 7v10v14l-2 7q-1 6 -1 13q0 2 2 12l6 19l2 9l1 2q0 1 8 11l4 5l1 1q4 4 10 6l5 2l15 4l18 5q10 2 12 2h11h5l14 2h2q9 2 14 1h7l16 -1h4q6 0 12 -2l4 -1l22 -3q2 0 6.5 -0.5t6.5 -1.5q6 -3 8 -5l4 -4l5 -1q10 -4 13 -7l4 -4l3 -2
q6 -4 8 -9l2 -6l7 -9l5 -6q5 -5 7 -11l2 -5l4 -8l3 -6q3 -7 4 -13l1 -7l1 -11l2 -3q3 -7 3 -15l1 -9v-14l-1 -9l-3 -12v-3q0 -9 -1 -14l-2 -7l-2 -13v-5q0 -9 -1 -14l-1 -5l-1 -13v-3q0 -9 -1 -14l-1 -7l2 -26l-1 -10l5 -13l4 -11l4 -10l12 -4l10 -4z" />
    <glyph glyph-name="asciitilde" unicode="~" horiz-adv-x="524" 
d="M90 237l11 -2l13 5l5 7l14 18l2 2q5 5 12 8l15 7l3 1q6 3 15 3h10q7 0 11 -2l4 -2l13 -2l4 -1q7 -1 14 -5l6 -3l6 -2l7 -2q9 -3 11 -5l4 -4h7q3 0 8 -1.5t6 -1.5l7 -2l6 -2l15 -3l9 -3l15 -2l14 3q5 1 13 1l6 -1l9 3q7 3 13 3h6l5 3q4 3 10 5l4 1l12 7l13 8l9 5l11 8l6 9
l7 9l8 12l2 3q6 8 10 11l5 5l6 23l4 14l-1 4q-1 5 -3 13l-1 7l-4 11l-4 4q-6 6 -8 11l-2 6l-3 2q-8 6 -11 9q-2 1 -3.5 2.5t-2.5 3t-2 2.5l-3 4l-13 7l-12 6l-17 7l-12 1l-12 -2l-15 -4l-12 -20l-2 -5q-3 -9 -7 -11q-6 -4 -11 -7q-4 -2 -14 -2l-19 1h-3q-8 0 -14 3l-7 3
l-9 3l-12 4l-11 5l-8 4h-8q-7 0 -11 4l-3 2l-25 9h-9l-16 3h-5l-7 -1q-7 0 -7 1l-17 2l-8 -1l-4 -2q-6 -2 -14 -4l-6 -2l-10 -4l-12 -2l-13 -8l-5 -5l-4 -4q-8 -6 -12 -8l-8 -4l-1 -2q-4 -6 -10 -10l-6 -4v-3q-3 -8 -8 -12l-6 -5l-6 -10l-1 -8l-5 -22l1 -14l1 -10l1 -13
l10 -14q5 -9 6 -11l2 -5l4 -4q8 -6 9 -10l1 -6l12 -8l8 -7z" />
    <glyph glyph-name="exclamdown" unicode="&#xa1;" horiz-adv-x="374" 
d="M281 559l-1 12l-4 11l-3 3q-5 5 -7 11l-3 5l-6 10l-7 2q-7 3 -11 7l-5 4h-2q-9 2 -12 4l-5 2l-14 2l-13 3l-15 -2q-5 -1 -13 -1h-6l-11 -2l-11 -5l-13 -7l-9 -6l-7 -8l-2 -10l-5 -13v-10l-1 -11l-2 -26l4 -9l3 -6q3 -7 4 -13l1 -5l10 -10l6 -6l13 -8l7 -4l9 -3
q3 -1 12 -5l6 -3l21 2l11 2l15 2l12 5l8 6l13 6l9 8l10 9l6 9v3q0 6 5 14l4 6zM267 81q1 -7 0 -12l-1 -5l-4 -11v-5q0 -8 -3 -13l-4 -6l-1 -2q-4 -8 -11 -10l-7 -2l-1 -1q-5 -5 -11 -7l-5 -1l-18 -4q-5 -1 -14 -1l-17 1l-12 2h-8q-8 0 -14 3l-7 3l-2 1q-9 2 -12 6
q-1 1 -3.5 4t-3.5 5l-3 5l-4 5q-4 7 -4 13v5v25v7v14v6l-2 6q-2 10 -2 11l2 12l1 7l-1 13v2q-2 9 1 14l2 7l-2 7q-3 9 -3 13t2 12l2 6l-2 13l-1 16q0 9 1 14l2 7l-1 7q-1 7 0 14l2 16l-1 7q-1 7 0 13l1 5l-1 17q0 9 2 14l3 7l1 5q1 3 3 7l1 4q1 1 3 3.5t4 4.5l5 4l6 4l12 6
q3 2 13 4l7 1h11l24 1l15 -1l5 -1q10 -2 13 -4l7 -3l9 -6l2 -2q6 -5 9 -11l3 -7l4 -9l2 -6q3 -7 4 -13l2 -7l1 -19q0 -9 -1 -12l-1 -5l1 -5q1 -7 0 -14l-1 -7v-9l1 -14l1 -11v-4q0 -9 -1 -15l-2 -7l1 -5q2 -11 1 -13l-1 -5v-5q0 -10 -1 -13l-1 -5l2 -4q3 -7 1 -14l-2 -6
l1 -6q2 -12 2 -14v-7l-1 -10l-2 -12z" />
    <glyph glyph-name="cent" unicode="&#xa2;" horiz-adv-x="562" 
d="M540 159q1 -6 1 -13q0 -5 -5 -10l-3 -4l-1 -1q-6 -7 -10 -11l-9 -7q-7 -6 -13 -8l-6 -2l-2 -2q-5 -5 -11 -8l-6 -2l-13 -4l-3 -3q-5 -4 -14 -6l-7 -1l-11 -3l-1 -1q-11 -4 -14 -5l-9 -1l-10 -15v-27v-14q0 -8 -4 -15l-4 -7l-1 -1q-2 -5 -6 -11q-3 -5 -8 -8q-3 -2 -13 -4
l-14 -1l-8 -2q-7 -2 -12 0l-5 2h-13l-12 1q-11 2 -14 3q-8 3 -12 7l-4 5l-5 4q-5 4 -8 10q-4 6 -4 13v5q0 8 1 13l1 6l-1 14l-2 11l-12 11l-9 4h-8q-6 0 -14 2l-5 2l-13 6l-6 3l-10 2q-7 2 -11 5l-4 2l-13 7h-1q-10 4 -13 7l-5 4l-6 3q-2 1 -5 4t-5 4l-4 4l-7 6l-5 3
q-7 6 -9 9l-3 5l-7 9l-6 7q-6 8 -7 10l-1 3l-5 8q-5 9 -6 11l-2 5l-3 5q-4 10 -4 13l-1 6l-2 4q-4 7 -4 13v6l-2 10l-2 7q-2 10 -1 13l1 5l-2 17q-2 9 1 14l3 7v2q0 6 2 14l2 6l-1 5q-1 7 2 14l4 5v4q1 7 4 13l3 6v1q2 6 7 12l4 5l7 12v3q1 8 5 12l4 4l8 9l3 4q2 3 5 6.5
t4 4.5q4 5 10 9l6 2l8 8l1 2q6 8 10 11l6 4l3 3q3 3 11 7l5 3l10 4l4 3q3 2 12 6l6 2l10 5l16 5l4 1q8 3 13 3h6l12 4l12 15l-1 6q0 2 -0.5 4t-1 3t-0.5 2.5v2.5l1 5l5 25v3q0 6 3 14q1 3 5 7q1 2 2 3q4 4 12 4l17 1l5 1q10 2 12 2l4 -1h3q8 2 14 0l7 -2l12 -1l11 -1
q7 0 13 -3q8 -4 10 -7q3 -3 3 -10v-6l2 -22l1 -3q2 -8 -1 -13l-3 -5l3 -10l14 -15l8 -1l16 -4l8 -2l6 -1q8 -2 13 -5l5 -3l14 -5h2q7 -2 12 -7l5 -5l4 -1q8 -3 13 -7q3 -3 9 -11l4 -6l1 -2q7 -9 8 -13q2 -11 1 -15l-1 -7q0 -6 -3 -12l-3 -5v-3q0 -10 -4 -14l-4 -5l-6 -11
l-2 -2q-3 -6 -10 -11l-10 -8q-7 -5 -11 -5h-5l-4 -1q-8 -3 -14 -1h-6l-18 4q-10 2 -14 4l-6 2l-11 2l-10 2l-13 3h-14l-23 -1l-13 -1h-1q-4 -3 -13 -5l-7 -1l-11 -5l-9 -5l-10 -7l-13 -9l-7 -9l-6 -10l-2 -10v-13l-1 -25l2 -6q1 -3 1 -11v-4l7 -13l9 -8l11 -7l8 -6l13 -4h7
q5 0 13 -2l6 -2l4 1q5 1 14 1l18 -1h14l11 3l7 1l14 2l14 6l25 9q5 2 13 2h5l14 -3l2 -1q10 -4 13 -9l11 -14l1 -2q6 -6 9 -11l4 -7l4 -6l6 -11l3 -5q3 -8 4 -13z" />
    <glyph glyph-name="sterling" unicode="&#xa3;" 
d="M102 175q6 7 9 10l5 4l3 3q3 4 11 8l6 3l4 5q1 1 10 7l4 3l10 7l8 8l2 4q2 5 9 10l5 4l8 9l6 8l-1 22l-3 7l-8 8l-6 3q-5 2 -11 8l-4 5l-3 2l-4 2l-4 2t-4 3l-1 1q-5 3 -9 10l-3 4l-4 3q-4 3 -9 8q-3 3 -7 11l-2 7l-6 11l-2 3q-5 7 -5 14v6l-3 5q-4 7 -3 13l1 6v24v4
q0 3 2 13l2 6v13l1 3q0 3 3 13l5 10q1 3 7 9l5 5l1 6q1 6 5 12q1 4 8 9l6 4l1 2q3 7 10 10l7 3l8 8l9 8l1 1q5 6 11 8l7 2l4 2q6 4 13 6l6 2l2 1q7 5 12 5h5l15 3l4 2q7 3 13 4q5 1 14 1h6h10l31 1q9 0 13 -1l5 -1h5q8 0 12 -2l3 -2l8 -1q7 -1 12 -4l6 -2l5 -1q9 -2 12 -4
l4 -3l7 -3q4 -2 12 -7l5 -3l19 -11l5 -3q8 -5 10 -8l4 -5l7 -10l3 -2q6 -6 7 -10l2 -4l2 -7q2 -6 2 -12q0 -8 -1 -11l-2 -4v-4q1 -7 -2 -15l-8 -15l-7 -12l-8 -9l-3 -5q-6 -8 -8 -10l-4 -3l-14 -8l-2 -1q-2 -2 -13 -6l-6 -2l-3 -1q-8 -3 -13 1q-5 2 -11 6l-13 10l-10 8l-9 5
l-12 9l-5 4l-11 6l-12 3l-13 -1l-24 1l-12 -7l-10 -6l-6 -10l-7 -14v-11l6 -24l2 -12l8 -6l10 -9l12 -10l10 -3l23 -9l17 -9l5 -3q8 -6 10 -8l4 -4l2 -4q6 -8 6 -14v-11l-1 -5l-1 -5q-2 -8 -4 -13q-2 -4 -8 -10l-5 -5l-19 -14l-11 -10l-3 -2q-7 -6 -12 -7l-7 -2l-8 -10
l-6 -7l-10 -11l-7 -12l7 -15l13 -4l12 1l14 2l5 1q8 3 14 3l20 1l10 -1h11l16 1l12 -1h1q5 1 14 1l9 -1l7 -1h16q10 0 15 -2h1q5 -3 9 -7l3 -2l4 -3q4 -3 10 -9q5 -5 5 -10v-5l2 -5q3 -9 3 -13v-7l1 -4q2 -12 2 -14v-8q0 -8 -1 -13l-2 -6l-2 -14v-3q0 -6 -3 -14l-3 -7v-1
q-1 -4 -6 -11q-3 -5 -8 -8q-5 -4 -12 -4l-8 -1h-23l-11 1q-10 -2 -15 -1l-9 1l-5 -1q-5 -1 -14 -1h-16h-2q-5 -1 -14 1l-7 1l-7 -1q-7 -1 -12 0l-5 1h-26l-11 -1h-20l-13 -1h-24l-10 -1h-17q-6 0 -14 2l-6 1l-6 -1q-10 -2 -14 -2l-7 1l-16 2h-5q-7 0 -12 3q-5 1 -9 6l-5 5
l-5 5q-5 5 -8 12l-1 2q-3 7 -3 13l-1 7l-2 7q-2 6 -2 13l-1 7l-2 16q-1 6 1 13l1 5l-1 6q-1 8 0 14q1 3 5 12l3 6l6 10z" />
    <glyph glyph-name="yen" unicode="&#xa5;" horiz-adv-x="617" 
d="M606 588q5 -8 5 -12v-6l1 -5q1 -6 -2 -14l-2 -6l-4 -11l-1 -3q-1 -5 -5 -13l-4 -5l-10 -11l-14 -19l-2 -3q-1 -2 -7 -11l-3 -4l-8 -12l-1 -2q-3 -4 -9 -10l-5 -4l-2 -4q-3 -7 -8 -12q-6 -6 -10 -8l-5 -4l-2 -2q-3 -8 -7 -12q-1 -2 -8 -9l-5 -5l-6 -7l3 -10l14 -1l10 -1
l19 -2q10 -2 13 -4q5 -5 5 -10v-6v-25v-3q0 -4 -4 -12l-3 -5v-1q-3 -8 -12 -11l-12 -3l-8 -1q-7 -1 -12 0l-4 1l-8 -2q-8 -2 -13 0l-5 1h-12l-13 -2l-15 -2l-11 -9v-8q0 -9 -1 -14l-1 -7l10 -3h13l16 -1l7 -1h17l11 1h1q10 2 15 1l8 -1l15 -2q9 0 12 -4q3 -3 7 -11
q3 -8 3 -14l-2 -17v-2q0 -5 -2 -13q-1 -3 -6 -10q-4 -5 -12 -7l-7 -2q-10 -2 -12 -2h-4l-12 1l-15 -3h-11h-4q-8 -2 -14 0l-7 1h-17l-11 -12v-16v-11v-12l-1 -23l1 -7q0 -7 -2 -13l-2 -5l-6 -10l-1 -3q-2 -6 -8 -12l-5 -4l-9 -8l-5 -3q-3 -2 -11 -5l-5 -1l-12 -3l-10 -1
l-9 -1q-10 0 -15 1l-15 2l-14 -1h-4q-3 0 -12 3l-5 2l-7 1q-7 0 -14 4q-9 3 -11 7l-3 4l-5 3q-7 6 -9 9q-2 5 -4 11l-1 6l-2 3q-4 7 -4 14v7l-1 23v14l1 9l2 14l-12 11l-13 2h-25h-6h-13h-6l-14 -1h-12l-12 1q-10 2 -12 5q-4 6 -5 9l-1 5l-3 13l-2 12q-2 8 0 15q1 6 6 11
q2 2 8 6q1 1 11 3l13 3l14 1h5q9 0 12 -1l5 -1l4 1q7 3 13 1l4 -1h14l11 2l10 9v7q0 6 3 12l2 5l-13 12h-39l-12 1h-23h-4q-7 -1 -14 0l-8 1q-8 0 -12 4q-2 2 -5 9t-3 12v5l-1 14q0 10 1 14l2 5l2 3q5 9 9 10l5 1l11 2q10 2 14 2q9 0 13 -1h5l3 12l-14 14q-6 6 -8 9l-2 4
l-10 9l-7 10l-6 10l-3 3q-5 6 -6 11l-1 5l-6 4q-7 5 -9 10l-3 4l-7 9l-8 10l-10 20l-4 5q-5 6 -6 12l-1 5l-3 4q-4 8 -5 12l-2 5l-4 7q-4 7 -4 12q0 4 3 11l2 6l6 13q5 9 9 9l5 1l2 1q3 2 14 4l7 1l11 2h2q7 1 14 0l7 -1h10l7 1q10 2 15 2h16l14 -1l10 -1l7 -1q7 0 11 -2
l3 -1l21 -5q8 -1 13 -7l4 -4q4 -4 8 -12l3 -6l5 -9l7 -18q3 -7 4 -12l1 -4l1 -13l3 -4q6 -8 7 -11q0 -1 1.5 -4.5t1.5 -5.5v-5l5 -13l5 -9l3 -12l5 -6q5 -6 6 -10l2 -4l4 -10l9 -9l16 -2l7 5l9 9l1 4q1 6 4 12l3 5l9 13l1 4q0 1 5 13l3 5l6 10v5q0 3 0.5 5t1.5 4.5t1 4.5
l2 7l4 10l15 35v2q1 4 5 13q4 8 6 10q1 2 11 6l7 3l1 1q4 3 14 7l11 3q6 2 12 2h5h14l13 1l23 1h3q10 0 12 -1l4 -1h13l4 1q8 2 13 0l5 -1l4 -1q4 0 14 -2h1q2 0 4.5 -1t4.5 -2t3 -1q6 -4 9 -9z" />
    <glyph glyph-name="brokenbar" unicode="&#xa6;" horiz-adv-x="330" 
d="M261 443v-11v-4q0 -3 -0.5 -5.5t-1.5 -5t-1 -4.5l-1 -6v-4q0 -6 -3 -12l-3 -5l-3 -5q-4 -9 -5 -11q-2 -2 -9 -8l-5 -3l-2 -1q-7 -4 -14 -4h-8l-3 -1q-3 -1 -7 -1.5t-7 -0.5l-12 -1h-11h-5l-20 1q-8 0 -11 1l-4 1l-7 1q-8 1 -11 4l-3 3l-9 7l-9 8l-4 5q-7 10 -8 11l-2 5
l-1 3q-3 9 -3 14v7l-1 10l1 25l-3 12v1q-1 5 1 14l2 6l-1 11l-1 6q-1 8 0 14l1 7l-1 4q-1 8 0 13l1 6v5v13l1 6l1 9l-2 7q-2 10 -2 12q-1 5 -1 12q0 2 2 12l2 6l-1 5q-2 11 -1 15l1 15v4q0 7 3 14l3 7v1q-1 10 3 14l4 5l6 11q4 5 10 10q4 3 11 6l5 1l7 3q7 3 12 3h4h22h12
l19 1h11l5 -1l8 -1q10 -2 13 -4l5 -4l2 -1q5 -2 11 -8l5 -5l2 -3q5 -8 5 -13v-6l2 -10l3 -4q4 -10 4 -14v-11l-1 -5l-3 -20l1 -2q2 -7 1 -13l-1 -5l2 -13l1 -5q1 -8 0 -13l-1 -6l1 -4q0 -4 -2 -14l-2 -8l2 -3q3 -9 1 -14l-3 -7l3 -14l1 -10l1 -8q0 -10 -1 -14l-1 -6v-10z
M261 -42l-1 -11v-3q0 -9 -1 -14l-1 -5l-1 -5q-2 -10 -4 -13l-3 -5l-5 -13h-1q-3 -8 -11 -11l-7 -2q-3 -3 -12 -6h-1q-6 -2 -14 -4l-7 -1l-19 1l-14 -1h-19q-5 0 -13 2l-6 1l-6 3l-8 2q-9 3 -11 7l-4 5l-2 1q-8 8 -9 11l-2 6l-5 9l-3 6q-3 8 -2 11l1 5l-3 13l-2 17q-1 5 1 13
l1 6l1 12l-1 3q-3 9 -3 13q0 5 3 12l2 7l-2 5q-2 6 -2 13v7v1q-1 8 0 14l1 7v12v5v14l3 15l-1 15v8l-1 5q-3 9 -2 15l2 18v2q0 9 1 15q1 5 5 11l3 4l1 3q2 10 5 14l4 6l1 1l5 5l4 3q3 3 9 6l6 2l4 3q7 4 13 4h6l19 1q9 0 12 -1l5 -1l24 1l5 -1q9 0 14 -2l5 -2l5 -1
q10 -4 11 -5l2 -2q4 -3 6 -6q3 -5 7 -11l3 -5l2 -3q5 -8 5 -13v-12l-1 -5l2 -3q4 -7 4 -14q0 -2 -2 -14l-2 -11l3 -13l1 -10v-5q0 -8 -1 -12l-2 -6l2 -4q2 -5 0 -15l-2 -6l1 -5q2 -8 0 -14l-2 -6l3 -13l1 -9v-13v-8q0 -9 -1 -12l-1 -5l-1 -15v-24z" />
    <glyph glyph-name="section" unicode="&#xa7;" horiz-adv-x="511" 
d="M356 398q5 -1 13 -3l5 -1l6 -1q8 -2 13 -4l5 -3l2 -1q7 -1 14 -5l6 -4l11 -7l8 -4l7 -3q6 -4 9 -9l3 -4l7 -6q6 -6 7 -10l1 -5l9 -10l2 -4q4 -6 6 -11l2 -5l2 -4q5 -8 5 -13v-7l1 -11v-7v-12l-2 -5l-2 -15v-3q0 -10 -1 -13l-2 -5l-3 -7q-4 -10 -5 -12l-3 -4l-7 -11
l-4 -10l-5 -11l-8 -11l-6 -10l-5 -22l6 -12q3 -8 3 -13l-1 -5l2 -15l1 -3q4 -9 3 -14l-1 -6v-9v-4q0 -6 -3 -15l-2 -8q-1 -4 -4 -8q-1 -3 -2 -4l-3 -6l-2 -5q-1 -6 -7 -12l-5 -5l-3 -4q-2 -5 -7 -10l-3 -3l-10 -9l-10 -8l-10 -6l-7 -8l-3 -2q-8 -7 -11 -8q-4 -2 -12 -4h-6
l-14 -5l-12 -3l-1 -1q-7 -4 -14 -5l-8 -2l-1 -1q-5 -2 -14 -2l-6 1l-6 -2q-9 -3 -14 -3h-7l-10 1l-12 -2l-5 -1q-5 -1 -13 1l-6 1h-14l-4 -1q-7 -1 -15 0l-9 1l-11 4l-13 1l-13 1l-10 1l-11 1l-19 3q-7 1 -11 4l-4 3l-13 7l-5 2q-10 4 -12 6q-5 5 -8 11l-4 7l-1 3
q-4 10 -4 14v6l-1 2q-3 7 -1 15l2 8l1 17q0 10 1 13q1 5 6 11l5 5l3 5q6 8 8 10t8 6q3 2 12 5q10 2 15 1l16 -2l12 -3l10 -2l8 -1q9 0 12 -1l4 -2l11 -2l15 -4q8 2 13 -1l6 -2h16h2q9 3 13 3h6l14 7l4 7v23l1 9l-8 5l-10 6l-7 2q-9 4 -11 5l-4 2h-5q-5 0 -13 2l-7 2l-28 4
l-12 2h-4q-8 0 -13 4l-5 3l-10 3l-13 5l-3 1q-8 3 -13 7l-6 4l-9 7l-4 3q-4 3 -10 7l-4 4l-4 3q-6 5 -10 11q-6 8 -7 11l-1 6l-3 2q-6 8 -6 13v7l-1 1q-5 8 -5 14v6l-1 4q-3 7 -3 13q-1 4 1 12l2 6l4 15l4 9v4q0 8 2 13q4 8 6 11l3 4l7 10l2 3q1 3 10 12l7 6q4 6 10 10l6 4
l1 17l-5 9l-5 13l-2 3q-4 9 -5 12l-1 6l-1 4q0 2 -0.5 3.5t-1 2.5t-0.5 2.5v3.5v6l-2 5q-1 8 0 15l1 7v3q0 10 2 13l2 4l8 23v2q2 10 4 14l4 5l6 11l6 11q1 1 8 11q3 4 8 9l8 8q6 4 11 6l9 3l1 1q7 6 13 8l7 3h2q7 4 12 4h6l7 3q7 3 11 3h5l4 1q5 3 13 5h6h12l7 1q10 2 14 2
h6l13 -1l10 -1l4 1q5 1 13 -1l6 -2l18 1h2q9 0 12 -1l6 -2l15 -1h3q10 0 15 -1l8 -2l13 -2h4l15 -3l15 -4l7 -1q10 -2 14 -5l5 -4l2 -1q9 -3 12 -8q6 -8 7 -11l2 -6l2 -2q6 -6 6 -14l-1 -7v-12l-1 -11l-1 -18q0 -7 -3 -14l-2 -6l-5 -9l-3 -5q-3 -7 -7 -11q-5 -5 -9 -8
q-3 -2 -11 -4q-6 -2 -14 0l-19 4l-8 1l-14 2l-6 1q-5 0 -11 3l-4 2l-12 2l-15 2l-9 1l-5 -1q-10 0 -14 1h-6l-13 -1l-9 -2l-13 -5l-8 -6l3 -24v-10l10 -6l14 -6l12 -3l29 -6l13 -1zM197 287l-6 -12v-6q0 -9 -1 -12l-1 -5l8 -12l7 -6l11 -7l14 -4l14 -3l12 -1l15 -2
q13 -3 14 -3l8 -3l9 -3h17l15 5v5q0 10 1 14l2 6l-3 13l-6 8l-7 6l-8 4q-8 4 -10 6l-3 3l-11 3l-22 5h-4q-5 0 -15 2l-7 1l-10 3l-10 4z" />
    <glyph glyph-name="dieresis" unicode="&#xa8;" horiz-adv-x="441" 
d="M196 731l-5 14l-3 12l-4 8l-11 9l-11 8l-10 9l-8 4l-11 5l-11 4l-13 2h-25l-12 -6l-10 -4l-10 -6l-14 -8l-7 -8l-1 -2q-6 -8 -9 -11l-5 -5l-5 -10l1 -6q1 -5 -1 -15l-3 -15l3 -7q2 -10 2 -12v-5l3 -12l6 -11l9 -9l3 -1q8 -3 12 -7l5 -4l7 -2l6 -1q12 -2 13 -3l6 -3l23 1
l13 2l5 1q8 3 13 3l5 1l8 4l14 8l6 7l7 7l9 11l4 10l2 11l4 10v22zM429 733v12l-5 6q-4 6 -6 11l-1 6l-11 9l-7 5l-13 7l-10 5l-14 7l-2 1q-2 0 -6.5 0.5t-6.5 1.5l-5 1l-27 -1l-12 -3l-7 -3l-13 -6l-7 -7l-9 -10l-10 -11l-4 -9l-5 -9l-2 -14l-5 -25l1 -10l2 -3q5 -7 5 -13
v-6l5 -6q3 -4 6 -10l1 -3l9 -9l5 -2q2 -1 4 -1.5t3 -0.5t2.5 -0.5t2.5 -1.5l5 -3h6q9 0 12 -1l5 -2l27 -1l9 1l5 2q6 2 14 4l7 1l6 3l12 7l7 7l10 7l6 11l5 11l5 9v3v15z" />
    <glyph glyph-name="copyright" unicode="&#xa9;" horiz-adv-x="691" 
d="M349 20l-8 -1q-7 -1 -12 0l-4 1l-26 2l-11 3h-5q-8 2 -14 4l-8 2l-2 1q-9 3 -12 5l-4 3l-8 1q-8 2 -13 4q-8 4 -9 5l-4 3l-6 2q-5 2 -10 7l-3 3l-8 3q-1 0 -11 7q-3 2 -8 7l-3 4l-7 6l-7 7q-7 5 -8 9l-2 4l-9 8l-4 3q-6 4 -9 11l-3 5l-5 10l-6 10l-2 3q-4 8 -5 13l-2 7
l-4 10l-4 4q-5 5 -5 12v7l-3 5q-4 8 -4 12l1 6l-1 4q0 2 -1.5 6t-1.5 6v5l-1 8q-1 6 -1 13v6l-1 5q-2 12 -2 14v10v12l2 5l1 12l2 13v3q-1 6 1 14l1 7l4 12v4q0 6 4 14l3 5l4 10v3q1 7 7 13l5 4v4q2 10 4 13l3 5l8 9l2 4q0 1 7 12q3 4 9 10l5 4l6 7l11 10l1 1q4 6 11 9l6 3
l2 1q7 7 12 9l7 3l5 5q2 1 3.5 2.5l3 3t2.5 1.5q1 1 11 4l8 2l10 4l12 6l7 1l7 4q5 2 12 2h4l6 3q8 3 13 3l7 1l2 1q5 1 15 1h7h5q5 1 14 1h16l6 1q7 1 14 0l7 -1h2q5 0 13 -2l6 -2h3q8 0 15 -3l8 -3l12 -3h2q8 -2 13 -4q4 -1 12 -5l8 -3l6 -3l10 -7l17 -7q6 -2 12 -7l6 -4
l4 -4q5 -4 8 -8l3 -4l5 -3q9 -7 10 -8l4 -5l9 -9l7 -9l2 -3q5 -6 7 -12l3 -6l5 -5q6 -6 7 -10l2 -5l3 -8l3 -6q5 -9 5 -11l1 -5l4 -7q1 -2 2.5 -6t2.5 -6v-5l5 -13l2 -4q4 -8 5 -11q2 -5 0 -12l-1 -7l4 -13l1 -5q1 -5 1 -12v-6l1 -15q1 -7 0 -13l-2 -6v-14v-6q0 -3 -4 -13
l-2 -6l-3 -10v-5q0 -3 -4 -13l-2 -6l-1 -3q-1 -6 -6 -13l-5 -6l-5 -10l-6 -10l-5 -10l-1 -4q-2 -5 -8 -13q-1 -2 -2.5 -3.5t-3.5 -3t-3 -2.5l-4 -3l-9 -10l-9 -9l-7 -8l-9 -8l-12 -9v-1q-4 -5 -12 -9l-6 -2l-3 -3q-2 -1 -13 -7l-6 -3l-11 -7q-6 -6 -14 -8l-8 -1l-4 -2
q-2 -2 -11 -6q-8 -2 -12 -2l-7 -1l-11 -5l-4 -1q-7 -3 -13 -3h-7l-6 -1q-10 -2 -12 -2h-6zM382 125h13l4 1q5 1 13 1h5l13 2l15 5l8 3l14 7l23 8l1 3q6 8 8 10l4 4l-4 25l-4 11l-2 3q-4 6 -6 11q-2 6 -3 10l-2 5l-13 20l-10 6l-16 -1l-14 -7q-10 -5 -13 -6l-7 -2l-9 -1h-24
l-7 -1q-9 0 -13 2q-6 2 -8 5l-3 4l-4 3q-8 7 -10 11l-3 6l-1 3q-2 6 -2 14v6l2 25l1 6q1 4 3 11l1 4v6q2 10 5 13l4 4l9 9l9 7l3 1q3 2 11 5q4 1 13 1h6q10 0 15 -1q8 -2 13 -4l8 -4l27 -6l9 3l18 19l5 8l1 5q1 8 4 12l3 5l2 13l-4 22l-3 11l-7 7l-13 8l-10 5l-12 5l-11 2
l-9 1l-15 4h-10h-12l-22 1l-16 -2l-5 -1q-5 -2 -14 -2h-6l-6 -3q-8 -3 -11 -4l-4 -1l-10 -5l-13 -9l-7 -4l-4 -4q-4 -4 -12 -8l-6 -4l-18 -19l-6 -10l-1 -2q-3 -6 -8 -11l-4 -4l-2 -6q-2 -6 -7 -12l-4 -6l-4 -11l-4 -10l-1 -14l-1 -2q-1 -3 -2 -7.5t-1 -6.5l-3 -9l1 -3
q2 -10 2 -15l-2 -17l-2 -12l3 -6q3 -9 3 -13v-6l1 -10l3 -5q3 -4 5 -12l2 -5l7 -13l1 -1q5 -7 6 -12l1 -6l8 -9l10 -9l9 -10l4 -1q9 -3 12 -8l4 -5l8 -4l15 -5l4 -2q5 -1 13 -5l5 -2l11 -3h5q4 0 12 -2l6 -2l3 1q5 1 14 1z" />
    <glyph glyph-name="guillemotleft" unicode="&#xab;" horiz-adv-x="720" 
d="M301 542l-3 -2q-3 -2 -10 -7l-4 -2l-7 -3q-1 -1 -12 -5l-6 -2l-10 -5l-11 -9l-11 -5l-11 -8v-1q-4 -4 -14 -8l-7 -3l-2 -1q-1 -2 -11 -9l-6 -5l-9 -6l-14 -7q-5 -6 -12 -9l-8 -3l-9 -7l-11 -9l-10 -7l-18 -12l-12 -7l-2 -2q-4 -5 -10 -9l-5 -3l-12 -11l-4 -5l-11 -13
q-1 -4 -6 -13l-4 -6v-5q0 -6 -2 -14l-2 -7l-1 -22l5 -12l3 -11l7 -8l12 -11l18 -14l19 -16l3 -2q5 -4 9 -10l4 -5l2 -1q1 -1 5 -3.5t6 -4.5l5 -4l5 -2q7 -3 11 -7l2 -3l14 -8l8 -6l11 -7l9 -8l2 -1q2 -1 6 -3.5t6 -3.5l5 -3l6 -3q5 -2 10 -7l3 -3l10 -4l8 -3q10 -4 12 -6
l4 -4l9 -4l7 -2q9 -3 13 -5l5 -2l8 -5l10 -5h28l7 1l11 6l4 9l6 12l1 13v13l-1 14v23l1 13l-4 11l-4 13l-6 7l-9 9l-21 15l-7 5l-11 8l-22 14l-8 6l-15 7l-10 7q-4 3 -9 8q-4 4 -1 13l1 6q1 7 9 13l13 8l7 4q4 3 12 7l5 2l10 4l11 5l25 11l13 7l8 5l3 12l4 10l6 10v6
q0 10 1 14l2 6l-2 5q-2 6 -2 14v8q0 9 2 14l2 6l-1 12l-3 12l-2 2q-4 6 -6 12l-1 7l-8 6l-15 2zM612 537l-4 -3l-10 -5l-3 -1l-16 -6l-3 -4q-4 -4 -12 -8l-6 -3l-4 -3q-6 -5 -11 -6l-6 -2l-7 -6l-10 -9l-12 -7l-9 -5l-10 -7l-11 -8l-3 -3q-3 -2 -12 -6l-6 -2l-8 -8l-11 -8
l-11 -7l-23 -14l-6 -6l-11 -9l-3 -3q-8 -6 -11 -8l-5 -3l-2 -4q-6 -7 -9 -10l-5 -3l-9 -12l-3 -12l-4 -11v-12v-24l3 -12l6 -8l4 -4q7 -7 8 -9l2 -5l7 -6q2 -2 5 -4.5t4 -3.5l3 -4l14 -10q9 -7 10 -8l4 -5l5 -3q9 -7 10 -8l5 -5l2 -1q8 -3 11 -6l4 -4l10 -8l11 -8l4 -1
q5 -2 10 -7l3 -3l7 -4q9 -3 11 -7l4 -4l8 -5l13 -7l5 -2q8 -3 10 -6l4 -4l11 -6l9 -5l6 -2q5 -2 11 -6l4 -3l10 -2l13 -3l12 -4l26 -1h11l6 8l4 7l7 14l3 10l1 15v14v23l-3 9l-4 14l-4 10l-1 2q-4 7 -4 12l-1 5l-10 9l-21 15l-6 5l-5 1q-9 3 -12 6l-5 3l-15 6q-4 1 -12 7
l-4 4l-12 6q-6 3 -12 9q-5 5 -2 14l1 3q3 8 10 12l8 5q6 4 14 6l8 2l10 4l21 6l25 9l9 7l1 2q5 6 9 9l5 4l4 13v4q0 3 2 13l1 5v2q0 3 0.5 5t1.5 4.5t1 4.5l2 8v8l-3 16q-1 6 -1 14q0 9 1 13l1 6l-2 4q-4 7 -4 13v7l-6 9l-10 6l-13 5z" />
    <glyph glyph-name="logicalnot" unicode="&#xac;" 
 />
    <glyph glyph-name="registered" unicode="&#xae;" 
d="M286 240l-24 3l-5 1q-10 2 -14 3l-6 2l-6 1l-6 1q-6 1 -9 2l-14 6l-5 1q-7 1 -11 4l-4 2l-8 2q-8 3 -12 6q-9 6 -10 7l-5 4l-3 3q-8 7 -9 9l-2 4l-12 8l-7 6l-4 3q-6 6 -7 11l-2 6l-5 4q-3 2 -8 10q-4 6 -5 11l-1 7l-2 2q-7 7 -8 12l-1 6l-5 11l-2 4q-3 7 -4 13l-1 7
l-1 3q-1 6 -1 14l1 7l-2 5q-3 7 -4 13t0 13l3 17l2 11l-1 5q-3 7 -1 14q1 3 5 12l2 5l1 11v6q0 7 4 13l4 4l4 11l2 7q1 8 4 12l6 9l4 4l11 11v1q3 8 8 13l6 5l2 3q5 8 9 10l6 3l1 2q4 5 13 9l7 2l7 7l5 3q6 4 11 6l5 2l8 4q7 4 11 4h4l15 5l12 3l7 1l15 2l3 1q7 4 13 4h7h25
h4h14q8 -1 12 -3l4 -2h6q10 0 15 -2l8 -3l12 -3l2 -1q9 0 13 -3q1 -1 4 -2t5 -3l4 -4l7 -3q8 -3 12 -6l5 -4l4 -1q7 -3 12 -6l4 -4l8 -9l7 -8l9 -10l8 -9l3 -3q5 -5 8 -12l2 -6l7 -10l4 -4q5 -8 5 -12v-5l6 -8l4 -7q3 -8 3 -13l1 -6l2 -9l3 -6q4 -7 4 -13l-1 -6l2 -6
q1 -6 1 -13v-5l-1 -26l-1 -12l-1 -10l1 -3q0 -5 -2 -13l-2 -6l-1 -7q-1 -5 -6 -13l-3 -5v-1q-1 -7 -6 -13l-5 -5v-3q0 -7 -5 -14l-5 -6l-1 -2l-9 -12l-5 -5l-9 -8l-2 -4q-3 -7 -7 -11l-5 -4l-3 -4q-4 -3 -10 -7l-5 -3l-2 -1q-8 -6 -12 -8l-8 -3l-8 -6l-11 -8l-8 -4l-13 -5
l-5 -2q-1 -1 -5.5 -2.5t-6.5 -2.5l-6 -1l-5 -1q-7 -3 -13 -4l-7 -1h-10l-5 -1q-10 -2 -14 -2h-17zM389 340l11 -1l13 3l12 2l10 16l-3 7q-3 7 -3 13l-1 6l-9 12q-6 8 -7 10l-2 4l-11 17l-5 10l-1 4l-1 3q-3 10 3 17l8 8l4 9l7 11l1 2q1 5 4 13l2 6l5 11l1 13l-1 2
q-4 8 -5 14l-5 17l-3 12l-7 10l-7 9l-11 5l-14 7l-11 3l-4 1q-4 0 -14 2l-16 4l-10 1l-3 -1q-5 -1 -15 -1l-9 1l-12 2h-1q-8 -3 -13 -2l-6 1l-15 1q-5 -3 -14 -3l-8 1h-12l-25 -5l-9 -6l-6 -11l-6 -11l-1 -24l-2 -12l1 -11l1 -13v-3q0 -8 -1 -13l-1 -6l2 -5q1 -6 1 -14v-11
v-6l-2 -11l2 -11v-6q0 -9 -1 -13l-2 -5l2 -14v-3q2 -8 0 -13l-1 -4l1 -27l4 -9l14 -10l17 -2l5 -1l17 -1l14 -2l24 5l5 10l7 15l-1 21l-1 9q-1 8 7 15l3 2q9 6 12 3l2 -3l5 -6l13 -22l8 -14l10 -22l13 -6l10 -5l9 -5zM284 493q-11 0 -12 2q-4 4 -5 10q-2 10 -2 13l-1 9
q-1 8 5 14q8 6 14 6h10q9 0 14 -2q9 -4 10 -7q2 -7 3 -11l1 -11q2 -9 -5 -14q-6 -4 -12 -7q-8 -2 -14 -2h-6z" />
    <glyph glyph-name="macron" unicode="&#xaf;" horiz-adv-x="376" 
d="M19 675l4 -12l12 -11l7 -8l4 -1q2 0 6.5 -0.5t6.5 -1.5l6 -2l23 -3h6q8 2 15 0l8 -1h11h2q5 1 14 1h6l15 -1l14 1h8h7q9 0 14 -1l7 -1h9l12 2h8h7q7 1 7 0l16 -1h5q9 2 12 1h4l36 7l10 8l5 6l8 11l1 12l2 13l-1 5q-3 9 -3 15v9q0 10 1 13l1 5l-4 4q-6 8 -8 11l-3 5l-14 6
l-19 1l-13 1h-16h-3q-9 0 -12 1l-5 1l-15 -1h-7q-5 0 -13 2l-6 1h-12l-1 -1h-14h-6l-15 -1h-3q-5 -1 -13 -1h-5l-12 1l-5 -1q-10 -2 -15 -2h-8l-9 -1h-14l-10 -1l-13 -1l-23 -6l-13 -11l-2 -10l-3 -14l1 -2q0 -9 -2 -15l-3 -7z" />
    <glyph glyph-name="degree" unicode="&#xb0;" horiz-adv-x="395" 
d="M175 340h-8q-9 0 -11 1l-4 1l-4 1q-8 2 -14 4l-8 3l-11 6l-10 3l-3 2q-10 6 -12 8q-6 6 -7 8l-3 5l-5 3q-6 5 -8 9l-2 3l-5 5q-1 1 -2.5 3t-3 3.5t-1.5 2.5l-2 4l-4 5q-6 7 -7 12l-1 7l-2 4q-3 9 -2 13l1 5l-3 10l-2 5q-1 6 -1 15v17v4q-2 8 2 15l4 7v3q0 9 1 12l2 5l2 7
q3 7 7 12l4 4l2 5q2 6 9 11l5 5l9 8l1 3q3 5 8 9q4 3 12 6l8 4l8 4l12 7l11 4l14 3l4 1q10 2 11 2h5l6 1q1 0 6 1.5t8 1.5h9q9 0 13 -1l6 -1h8q7 0 11 -2l4 -2h8q8 0 14 -3l5 -2.5t4 -1.5l4 -2l7 -2q9 -4 11 -5q6 -4 8 -6l4 -4l9 -9l3 -2q7 -5 9 -11l3 -6l4 -4q7 -7 8 -10
l2 -6l6 -9l1 -3q5 -7 6 -12q2 -8 2 -12l1 -5l1 -6q2 -9 1 -13l-1 -6v-23v-5q0 -10 -1 -14l-1 -6l-3 -9l-1 -14l-1 -3q-1 -7 -6 -13l-4 -5l-1 -3q-1 -7 -7 -11l-4 -4l-9 -9v-1q-2 -5 -10 -11l-6 -4l-1 -2q-3 -5 -10 -9q-2 -1 -11 -6q-11 -4 -14 -5l-18 -4l-9 -2l-13 -2l-5 -2
q-7 -3 -13 -3h-6zM207 438l15 5l8 6l9 5l9 10q0 10 3 14l4 7l-1 22l-4 5q-4 6 -6 13v7l-10 6l-11 8l-12 3l-26 1l-15 -4l-7 -6l-12 -11l-1 -1q-2 -9 -4 -14l-3 -6l-4 -26l5 -5q5 -6 7 -12l3 -6l5 -3q1 -1 3.5 -3t3.5 -3.5t2 -2.5l3 -4l16 -2z" />
    <glyph glyph-name="acute" unicode="&#xb4;" horiz-adv-x="243" 
d="M57 644l11 -3l10 -2h12l10 1l12 7l19 13l3 3q8 6 12 8l7 4l17 17l13 10l1 1q6 8 9 11q1 2 11 9l7 5l8 7l12 20l4 12l-4 11l-3 9l-4 11l-10 10l-5 3q-2 1 -5.5 4t-4.5 3l-4 3l-10 7l-9 6l-26 5l-9 -2l-13 -3l-13 -7l-8 -3l-7 -6q-5 -4 -11 -6l-6 -2l-1 -3q-3 -5 -10 -10
l-6 -5l-9 -7l-5 -11l-2 -3q-5 -8 -9 -11l-6 -5l-1 -2q-3 -7 -7 -11l-4 -5l-12 -21l-2 -10l1 -6q0 -2 0.5 -4.5t1 -3.5t0.5 -2v-4l8 -12l4 -3q8 -6 11 -9l4 -4z" />
    <glyph glyph-name="paragraph" unicode="&#xb6;" horiz-adv-x="607" 
d="M568 526l1 -5q2 -12 2 -13v-11l-1 -5l1 -4q3 -9 2 -14v-6l-1 -13v-4q1 -7 0 -13l-1 -6l-1 -11l2 -6q3 -7 1 -14l-2 -6l2 -12v-1q2 -8 -1 -15l-3 -7l1 -5q1 -6 1 -13l-1 -6l2 -12v-2q1 -7 0 -15l-2 -7l1 -4q2 -8 0 -15l-2 -6l-1 -12v-1q3 -9 2 -15l-2 -7l1 -3q2 -9 -1 -14
l-3 -7l2 -10v-6q2 -8 -1 -13l-3 -6l-1 -12v-6q0 -3 0.5 -7t0.5 -5l-1 -5l1 -4q2 -11 1 -15q-1 -7 -4 -14l-2 -6v-1q2 -12 2 -13l-1 -6l1 -6v-14l-1 -6l-4 -13l-2 -11v-2q3 -7 0 -14l-2 -6v-6v-13l-2 -5l2 -5q3 -7 1 -15l-3 -17v-6q-1 -4 -3 -8q0 -1 -0.5 -1.5t-0.5 -1.5
l-2 -5l-2 -4q-3 -4 -10 -11l-5 -4l-4 -3q-7 -5 -12 -8l-5 -2l-4 -3q-7 -4 -12 -4h-5l-4 -1q-8 -3 -15 -3h-13q-7 0 -13 2l-5 2l-9 3l-4 1q-7 1 -13 5q-8 4 -10 7l-3 4l-4 4q-6 8 -7 12l-1 6l-1 4q-3 8 -2 12l1 5l-1 14v4q-1 6 -1 14v18l2 13l-1 4q-2 9 1 14l2 5l-1 5
q-1 5 1 13l1 6l2 13l-2 10v5q0 10 1 14v6v4q-1 8 0 14l1 6v7q0 3 0.5 7t0.5 5v5l2 15l-1 2q-2 10 -2 14l1 6l2 15l1 11l-1 3q-2 6 -2 14v7v4q0 4 2 14l3 7l-1 2q-2 10 -2 15q0 4 2 12l1 6v14l-1 3q-1 7 0 14l1 7l-1 5q-1 6 -1 13l3 12l2 6l-2 3q-3 8 -1 14l2 6l-1 4
q-2 6 -2 14l1 7v13l1 9l-10 15l-19 -2l-9 -13l-4 -11l2 -11v-3l1 -7q0 -7 -1 -8l-2 -7v-12l1 -5q2 -12 2 -14v-8q0 -1 0.5 -7t-0.5 -7l-2 -7l1 -1q3 -9 2 -14l-1 -6l1 -6q2 -11 1 -14l-1 -7v-10l2 -13l1 -9v-6q0 -9 -2 -14l-2 -7v-10l1 -6q0 -9 -1 -13l-1 -5v-13l1 -12v-2
q1 -7 0 -14l-2 -6l-2 -14v-2q1 -4 -1 -15l-1 -8l1 -2q3 -8 0 -15l-3 -7v-1q3 -9 3 -15q0 -7 -3 -13l-2 -5v-3q0 -6 -2 -14l-1 -6l1 -4q1 -6 1 -14v-7l-1 -4l-2.5 -7.5t-1.5 -5.5l-2 -6v-3q1 -7 0 -15l-5 -18l-3 -13l-1 -4q0 -8 -4 -13l-4 -6l-1 -2q-1 -6 -7 -12
q-1 -1 -3 -2.5t-3.5 -3t-2.5 -1.5l-4 -1l-8 -3q-5 -2 -14 -2l-10 -1q-11 0 -12 1l-4 2l-13 3l-6 2q-10 4 -12 6q-5 5 -6 10l-1 5l-4 12l-3 13l-1 6q-1 6 -1 13q0 8 1 12l1 6v17q0 10 1 13l2 5l-1 14l-1 3q-3 7 0 14l3 6v10l2 11l-1 10l-1 7q-1 7 0 13l1 4l3 11l-4 13l-11 3
h-24l-15 3l-9 1h-9l-8 3q-8 2 -13 4q-6 3 -8 5l-4 2l-21 16l-4 3q-6 5 -8 8l-3 3l-8 11l-6 5q-7 7 -8 10l-2 5l-7 11l-2 3q-2 3 -5 11l-2 5l-3 6q-2 4 -4 12l-2 7l-1 1q-3 9 -2 13l1 5l-2 5q-5 11 -5 14l-1 8l-1 3q-2 8 0 14l2 6l-2 9l-1 5q-2 10 -1 15l2 16l-1 7q-1 8 0 13
v5l3 11l-1 6q-1 7 0 15l3 11q1 5 5 13l3 5v1q-1 9 3 15l5 5l1 5q1 8 6 13l4 5l4 13l1 3q3 8 7 11l4 4l12 9l7 8l8 7l13 9l10 5l2 2q4 3 12 7l5 2l7 3q7 3 12 4l7 2q6 5 13 5h7l13 3l8 2l7 2q2 1 15 3l7 1q7 1 14 0l7 -2l14 2h10l8 1q7 1 12 0l5 -1l10 -1l14 1h4q9 2 13 1
l5 -1l26 -2h7q3 0 6.5 0.5t4.5 0.5l4 -1l10 2q5 1 12 1l5 -1l14 -1h36l5 1q5 1 15 1l15 -1l8 -1q8 -2 13 -4l6 -2l10 -4l1 -1q6 -3 10 -8l4 -4l4 -5q6 -9 7 -11q2 -8 2 -11v-7l1 -11z" />
    <glyph glyph-name="periodcentered" unicode="&#xb7;" horiz-adv-x="410" 
d="M321 349q-1 6 -1 13v7l-2 4q-4 7 -4 12v6l-5 12l-7 11l-5 5q-4 4 -8 10l-3 4l-10 5l-8 4q-10 4 -12 6l-4 4l-10 4l-15 5l-9 -2h-24l-13 2l-4 -2q-6 -2 -14 -4l-9 -2l-3 -3q-2 -2 -12 -7l-6 -2l-8 -10l-6 -6l-12 -11l-4 -9l-8 -11l-3 -13l-2 -10l-3 -16l1 -15v-13l-1 -5
l2 -5q2 -5 4 -13l1 -6l5 -5q5 -5 7 -11l1 -5l5 -4q6 -5 9 -9l3 -4l9 -9l8 -2q9 -3 12 -6l5 -3l12 -6l9 -2l14 -1l21 -1l15 1l14 4l12 3l7 6l9 8l15 8v2q4 6 9 10l5 3l2 5q2 7 6 13l5 6l5 9v3q0 7 3 15l3 7z" />
    <glyph glyph-name="cedilla" unicode="&#xb8;" horiz-adv-x="241" 
d="M63 -38q5 4 13 6q4 1 10 1l4 -1l13 1h9l7 1q7 1 14 0l7 -1l23 -4l8 -2l13 -4l3 -1q11 -4 13 -6q8 -6 10 -9l3 -4l3 -2l10 -10l4 -5v-2q5 -8 5 -13v-6l1 -2q3 -7 4 -14l1 -10q0 -9 -2 -14l-3 -6l-1 -2q-2 -9 -3 -13l-3 -6l-1 -3q-2 -7 -6 -12l-4 -4l-11 -9l-2 -2
q-5 -5 -12 -7l-6 -1l-7 -4l-10 -4h-4l-16 -3l-2 -1q-8 -3 -12 -3h-5l-18 -1q-9 0 -13 1l-6 2l-13 -1h-3q-8 0 -14 3l-7 3l-3 1q-8 2 -11 3l-4 1l-6 1q-9 2 -14 8l-4 4q-6 6 -6 11l1 6l1 10v2q-1 11 2 14l5 5l5 8q6 9 15 6l15 -3l16 -5h7l26 2l8 5l-5 23l-27 1l-11 1
q-8 0 -13 5t-6 10q-2 10 -2 14l-1 10q0 5 2 15q4 9 10 13z" />
    <glyph glyph-name="guillemotright" unicode="&#xbb;" horiz-adv-x="720" 
d="M75 541l-10 -2l-10 -10l-3 -7l-3 -13l-2 -10l-3 -15v-4v-15l-2 -15l3 -14v-14v-7l2 -10l4 -12l4 -9l4 -8l11 -8l11 -6l19 -9l10 -5l12 -4l13 -3l8 -2q9 -2 13 -6l6 -5q7 -5 9 -12l2 -5q3 -10 -2 -14l-5 -4l-8 -6q-4 -4 -13 -7l-2 -1q-2 -1 -11 -4l-5 -1l-1 -2
q-7 -7 -11 -8l-6 -1l-5 -4q-7 -6 -11 -7l-5 -2l-22 -12v-3q-2 -7 -7 -13l-4 -4l-5 -8l-3 -14l-3 -10l-1 -12l1 -22l-1 -13l3 -13l2 -11l2 -10l7 -11l9 -8l13 -3l21 1l9 2l8 3l10 4l5 4q5 4 13 7l18 6l3 3q4 4 12 6l6 2l3 2q1 1 5 4.5t6 4.5l5 3l22 14h1q9 7 12 8l7 3l8 7
l4 3q6 6 10 8l4 2l6 5q2 2 12 7l7 3l8 6l3 3q3 5 10 9l6 3l13 13q6 6 10 8l6 2l1 4q4 10 6 11l4 3l10 10l1 5q2 8 6 14l5 5v24l-3 9l-3 6q-5 12 -5 13l-1 6l-5 10l-6 10l-12 8l-16 14l-10 7l-13 10l-18 12l-12 7l-8 6l-8 6l-12 8l-10 9l-3 1q-10 4 -12 7l-4 5l-11 6v1
q-11 5 -13 7l-7 5l-14 6q-7 4 -10 7l-4 4l-13 5l-12 7l-10 6l-6 4l-14 7l-12 7h-23zM399 543l-15 -4l-8 -8l-1 -3q-2 -7 -6 -13l-4 -6l2 -4q2 -10 1 -14l-1 -7l-1 -8l1 -28v-9v-14v-11l8 -13l5 -10l9 -8l13 -8l19 -13l14 -7l13 -8l10 -4l11 -7l18 -9q8 -5 8 -14v-1
q2 -9 -3 -14q-6 -6 -10 -9l-6 -4q-4 -3 -12 -8l-7 -3l-7 -5l-12 -8l-12 -7l-6 -5l-11 -9l-17 -14l-12 -8v-1q-1 -3 -3 -7l-3 -6l-3 -7l-4 -9v-6q0 -8 -1 -14l-3 -16l2 -5q3 -7 1 -14l-2 -6l2 -5q1 -2 1.5 -4.5t1.5 -4.5t1 -3l1 -5l3 -11l14 -7l7 -4l24 3h11l12 6l11 4l5 2
l13 7l14 6l3 2q6 5 9 6l4 2l15 6l9 6l3 2q7 7 11 9l7 4h1q2 1 5 4t5 4l5 3l13 7l10 9l9 6l3 2q7 7 12 9l7 3l6 6l4 5q4 5 10 9l5 4l19 12l9 8l9 8l2 4q1 3 9 11l5 4v2q2 11 5 15l4 6l-1 11l1 23l-1 13l-5 12l-8 8l-5 6l-6 9l-2 3l-8 6q-8 6 -9 8l-3 4l-14 9l-10 6l-19 15
l-4 2q-5 2 -11 6q-6 3 -9 8l-3 4l-10 7l-7 2q-8 3 -12 7l-5 4l-2 2q-5 3 -11 7l-4 3l-12 7l-7 4l-10 8l-7 3q-10 4 -12 6l-8 6l-3 3l-13 7l-11 5l-2 1q-10 6 -11 7l-5 5l-13 3z" />
    <glyph glyph-name="onequarter" unicode="&#xbc;" horiz-adv-x="1023" 
d="M275 520v-3v-13v-6l1 -13v-5q0 -10 -1 -14l-1 -7v-5v-4v-3v-2.5v-2.5l-1 -5l2 -14l1 -11l1 -15l1 -9v-7q0 -6 -2 -14l-2 -6l-2 -12v-13l1 -13l1 -3q3 -9 3 -13t-2 -12l-1 -6v-9q0 -3 -2 -13l-1 -5v-13l2 -18q1 -7 0 -13l-1 -6l-3 -12v-2q0 -7 -3 -13q-2 -3 -8 -9l-4 -3
l-2 -3q-5 -6 -13 -8l-8 -1l-1 -1q-8 -3 -13 -3h-6l-4 -1q-7 -3 -14 -3l-15 1h-17l-13 1l-5 1q-5 1 -13 3l-5 2l-5 2q-11 4 -12 6l-4 5l-4 4q-6 4 -8 9q-3 5 -3 10v6l-2 11l-1 13l-4 18q-1 6 -1 12q0 8 2 12l3 6l-1 11l-1 4q-1 8 0 14l1 6l-1 6q-1 8 0 14l1 6l-1 11l-1 4
q-1 7 0 13l1 6l-2 5q-2 6 0 15l1 6l2 13l-1 3q-3 8 -3 13v13l1 6l2 11l-1 14v11l-1 11l-1 7q0 5 2 13l2 6l2 24l-1 3q-3 8 0 15l4 7l-1 2q-1 7 3 15q2 4 7 9l4 3l2 4q3 6 12 9l7 3l6 3q8 3 11 3h5l24 2l11 1l3 1q5 1 15 -1l17 -4h1q10 0 15 -3l15 -7l6 -4q7 -4 9 -9l2 -5
l2 -3q4 -7 5 -14q1 -6 1 -12v-5l2 -7q2 -10 2 -15zM605 493q-1 -6 -4 -12l-2 -5l-5 -11l-7 -12l-5 -10l-5 -12l-2 -6q-3 -7 -9 -12l-5 -5l-6 -11l-4 -11l-6 -12v-3q-2 -8 -6 -14l-5 -6l-4 -10l-1 -4q-1 -3 -7 -12l-3 -4l-6 -13l-5 -9l-5 -11l-1 -5q-1 -3 -5 -14l-4 -6l-5 -8
l-2 -7q-2 -7 -5 -11l-3 -4l-9 -11l-6 -12l-1 -5q-1 -4 -6 -12l-4 -5l-5 -13l-4 -10l-5 -11l-6 -10l-8 -10v-6q-2 -9 -4 -12l-3 -5l-7 -11l-5 -9l-5 -13l-1 -2q-2 -5 -7 -12l-5 -5l-11 -23l-1 -2q-4 -6 -10 -11l-7 -4l-11 -7l-2 -1q-7 -3 -13 -4q-4 -1 -12 1l-6 1l-6 1
q-8 2 -14 4l-7 3q-5 2 -11 8q-6 4 -7 10l-2 6l-2 4q-4 7 -4 13t2 10l2 4l-1 5q-2 8 0 14l2 7l2 5q4 11 6 13l9 16l1 2q4 11 6 13l4 7l3 8l7 11l7 10v6q0 5 5 13l3 5l2 4q2 5 6 11l3 5l6 11l6 10l3 8q2 4 6 10l2 4v3q0 6 5 14l5 7l1 3q1 7 6 13l5 5l1 4q1 3 5 11l3 4l1 4
q2 7 7 13l5 7v1q0 5 4 13l3 6l7 12l5 9l2 6q1 3 5 12l3 6l7 8l1 4q3 9 7 13l5 5l3 5q1 3 3 6.5t3 4.5l3 5l1 3q0 8 4 13l5 5l5 11l1 2l2 4t2 4.5t2 3.5l3 6l7 12l6 12l10 20l2 3q2 4 8 12l5 5l10 11h1q4 9 10 10l7 1l7 1q7 1 13 0l6 -2l2 -1q11 -4 13 -6l15 -9l4 -2
q9 -4 11 -8q4 -6 4 -11v-6l1 -3q2 -9 1 -13l-2 -4l-4 -14l-1 -3q-1 -6 -4 -12l-3 -4l-5 -14zM959 131v-4q0 -10 -1 -12q-2 -3 -7 -6q-1 -1 -11 -3l-7 -1l-33 -8l-15 -6l-5 -10l2 -18q1 -5 -1 -13l-1 -7l-2 -6q-1 -3 -2 -6.5t-1 -4.5q-1 -3 -8 -10q-1 -1 -3 -2.5t-3 -2.5
t-2 -1l-3 -1l-13 -4l-6 -2q-7 -3 -13 -1l-7 1l-26 -2h-11l-8 1l-14 1l-12 -1h-5q-10 0 -12 1l-4 1l-8 2q-9 3 -12 6q-5 5 -5 10v6l-1 3q-3 9 -2 12l1 4l-4 25l-3 13l-19 1l-6 -1q-6 -1 -12 1l-5 1l-7 -1q-10 -2 -12 -2h-6l-21 1l-16 3h-5q-2 0 -4 0.5t-3 0.5t-2.5 0.5
t-2.5 0.5l-5 2l-12 7l-8 5l-5 2q-6 3 -10 8l-3 5l-6 11l-1 2q-4 7 -4 14l-1 6v13v1q-3 8 1 15l3 5l10 24l4 9l8 12l7 11v1q1 8 7 14l6 5v1q1 7 7 13l5 6v1q2 7 7 13l5 5l8 10l1 3q2 5 8 13l4 5l7 9l3 5q1 3 8 10l5 4l7 9l6 10l6 10l8 8l4 5q1 2 9 10l5 4l3 5q6 8 10 11l14 9
q6 6 12 7l7 1l2 2q6 2 14 4l8 1h10h16l1 1q3 1 14 1h8h9l15 -1l16 1q9 0 14 -1l8 -2q8 -3 11 -5q7 -5 9 -8q5 -5 6 -11l1 -6l1 -4q1 -7 0 -14l-2 -5v-14l3 -17q1 -6 0 -13l-2 -6l2 -10v-12v-14l1 -4q1 -8 0 -14l-2 -6v-11l2 -10l1 -12v-11l-1 -23l13 -9l6 -1q7 -1 12 -4
l5 -1l16 -2q9 0 13 -5q4 -6 4 -9v-5l2 -12l2 -10l1 -6q1 -6 1 -14zM668 242l-8 -11l-5 -12l6 -9l29 -3h8l11 4l3 16q1 8 4 11l3 4l-1 4q-3 7 -1 14l2 6v9l-13 18l-16 -25l-2 -3q-3 -7 -8 -12z" />
    <glyph glyph-name="onehalf" unicode="&#xbd;" horiz-adv-x="996" 
d="M276 519v-11l-1 -10l1 -11l1 -12v-8q0 -10 -1 -14l-1 -6l1 -9l1 -6q1 -8 0 -15l-1 -6l-2 -13v-6v-12l-2 -5l2 -13v-13l1 -3q0 -10 -1 -14l-2 -6l2 -7q3 -7 1 -14l-2 -6l1 -6v-14v-6l-1 -11l1 -4q2 -11 1 -15l-2 -19v-2q1 -6 -2 -13l-2 -6l-1 -5q0 -3 -5 -12l-3 -6l-1 -2
q-2 -5 -9 -10l-5 -3l-3 -1l-4 -2t-4.5 -1.5t-4.5 -1.5l-2 -1q-8 -3 -12 -2l-4 1l-4 -1q-9 -3 -16 -2l-10 2l-10 -1q-8 -2 -14 0l-6 1l-15 2l-3 1q-7 1 -14 5l-6 3l-4 2q-8 5 -10 8l-4 5l-2 2q-4 7 -4 13l1 7l-3 4q-3 5 -5 14v14v10q0 5 2 13l2 5l-1 12l-1 10v6v14l1 7l-1 2
q-2 5 -2 13q0 5 2 13l1 6v13l-2 6q-3 9 -3 13q0 3 2 11l1 5l-1 6q-1 8 0 12l1 5l-1 7q-2 8 0 14l1 6v3q-2 10 -2 14q0 3 2 13l2 6v12l-2 4q-3 8 0 14l3 5l1 24v3q0 9 1 15l2 8v4q1 8 3 13q1 3 6 10l6 5v1q4 7 12 10l8 2l9 4l4 1q8 3 15 3l20 1l10 1h3l8 1q7 0 7 -1l16 -3
l4 -1q9 -2 12 -4l4 -2l12 -7l3 -1q9 -5 11 -10q3 -7 3 -12l1 -6l3 -12l4 -10l1 -6q2 -12 2 -15zM595 484l-4 -8l-5 -10l-1 -6q-2 -9 -4 -12l-4 -5l-8 -10l-4 -12l-2 -6q-1 -3 -7 -13l-5 -6l-5 -8l-1 -7l-3 -12l-2 -5l-2 -4q-2 -5 -9 -12l-4 -5l-7 -12v-6q-2 -8 -4 -13
q-1 -2 -4 -5.5t-4 -4.5l-4 -5l-6 -11l-4 -10l-1 -6q-1 -8 -6 -12l-4 -5l-6 -12l-5 -11l-4 -8l-7 -14v-2q-1 -3 -3 -8t-3 -6l-3 -6l-1 -3q-2 -7 -5 -11l-4 -5l-2 -6q-2 -6 -8 -12l-4 -4l-1 -3q-2 -8 -4 -14l-4 -7l-5 -11l-1 -3q-3 -9 -6 -12l-4 -5l-7 -10l-1 -4q-1 -5 -5 -13
l-4 -6l-11 -20l-2 -5q-1 -5 -8 -11l-5 -4l-4 -2q-7 -5 -13 -5l-7 -1l-13 -2h-4q-10 0 -13 2l-5 2l-17 6q-8 3 -10 7l-1 4l-6 11l-2 5q-3 9 -3 13v6v4v14l2 6l4 11l5 9l9 25l4 10l5 9l5 13l1 2q1 3 7 13l5 6l5 10l5 13l5 9l4 13l4 9l2 4l6 12l4 5l1 5q1 5 5 11l4 5l1 4
q0 1 5 13q2 4 8 12l5 5l3 10l1 3q1 4 5 13l3 6l2 4q3 7 7 11l3 4l3 7q1 3 5 11l2 5l2 3q1 3 8 12l5 6l1 3q4 11 6 13l4 6l5 11l5 9l8 10v3q1 7 4 13q1 2 7 11l5 6v2q1 7 6 13l5 5l2 6l6 12l4 6l1 3q2 9 5 14l8 12l9 12l1 1q3 9 7 13l5 4l3 3q8 6 13 8h1q10 4 11 4q6 0 11 -1
l8 -2l12 -4l15 -7q8 -3 11 -6q6 -6 7 -8q3 -6 3 -10l-1 -4l2 -5q3 -8 1 -13l-1 -5v-4q0 -9 -2 -14l-3 -6l-4 -10l-1 -4l-2 -4t-2 -4.5t-2 -3.5zM559 355l5 11l5 10l1 2q2 5 9 12q4 4 10 8l5 2v1q3 7 10 11l7 3l10 7l1 1q4 7 11 11l8 4q6 4 13 5l9 2l10 3l5 1q2 1 6 2t7 1h7
q10 4 14 4h6l14 1h10l16 -1h2q5 0 13 -2l5 -2h5q7 0 14 -3l16 -6l11 -2l8 -3q9 -4 13 -6l6 -3l11 -7l10 -6l9 -8l3 -3q1 0 4.5 -4t5.5 -6l4 -6l2 -3q4 -9 5 -12l1 -6l8 -13q5 -9 4 -13l-1 -7l1 -3q4 -8 3 -12l-1 -4l1 -5q1 -9 0 -13l-1 -5l-9 -25q2 -8 -3 -14l-4 -7l-7 -9
l-1 -3q0 -1 -7 -11l-4 -4l-9 -10l-8 -8l-10 -9l-3 -5q-6 -8 -10 -11l-11 -8l-11 -6l-4 -9l2 -14l8 1q8 2 14 0l6 -1l27 2l19 -1q6 0 12 -2l4 -2l3 -2q9 -5 10 -9l2 -5l2 -4q5 -8 5 -15v-7q0 -8 -1 -12l-1 -6l1 -4q3 -9 3 -12q0 -6 -1 -12l-3 -13l-2 -5q-4 -10 -5 -12l-4 -6
q-3 -5 -11 -9q-5 -3 -12 -3l-6 1l-21 -3h-13l-15 2h-1h-14h-8h-2q-10 -2 -14 -2q-9 0 -13 1l-6 1l-13 1l-13 -1l-7 -1h-11l-4 1l-17 1l-12 -1h-3q-8 -1 -13 0l-6 1l-26 -2h-13l-10 2h-16q-8 0 -14 3q-7 4 -8 6l-2 4l-4 2q-7 5 -8 10l-1 5l-4 19q-1 7 0 14l1 7v26v2
q-1 7 2 14l3 7l1 5q0 6 6 14l7 8q4 5 10 8l5 3l4 5q3 4 11 10l16 10l10 7l8 7l2 1q4 4 12 8l8 5q7 10 9 11l5 3l14 7l8 8l17 12l3 6q1 3 9 11l5 4l-1 14l1 24l-10 5l-17 9l-12 -4l-15 -14l-6 -14q-2 -7 -9 -12l-6 -4l-6 -5l-13 -9h-1q-6 -4 -14 -6l-14 -2h-7q-10 0 -14 1
q-5 2 -10 5l-4 3l-3 1q-8 4 -12 9l-4 6l-4 3q-8 7 -10 11l-8 17l-2 4q-3 7 -3 13q0 4 3 13z" />
    <glyph glyph-name="threequarters" unicode="&#xbe;" horiz-adv-x="1120" 
d="M251 615l-15 2h-8l-7 -1q-9 -3 -13 -2l-5 1l-5 -2q-5 -2 -15 -2h-7h-1q-4 -3 -14 -5l-8 -1l-8 -4l-13 -5l-12 -4l-4 -3q-7 -3 -13 -5l-6 -1l-9 -6l-12 -7l-17 -16l-10 -8l-6 -13l-2 -11l3 -5q3 -7 3 -12v-4l10 -11l12 -19l7 -11l7 -7l12 -7l13 -2l9 2l12 3l13 8q4 3 14 5
l9 2l1 2q2 1 5.5 4.5l4.5 4.5q4 3 13 5l19 4l5 2q5 2 12 2q4 0 10 -3q7 -3 7 -12v-9q0 -10 -3 -13q-6 -6 -10 -8l-5 -3l-23 -9l-3 -1q-5 -3 -14 -5l-8 -1l-3 -13l-3 -12l-1 -22l1 -13l4 -12l8 -9l14 -4l13 -2l12 -2q8 -2 14 -4h1q10 -4 11 -5q5 -4 8 -9q3 -7 3 -14v-4
q-1 -8 -6 -11l-5 -3l-3 -2q-3 -2 -11 -5l-4 -1l-6 -1q-10 -2 -13 -1l-5 2h-4q-9 0 -15 2l-12 3q-8 2 -11 6l-4 3l-3 3q-4 3 -10 9l-4 5l-26 12l-10 5h-12l-10 -5l-14 -7l-6 -10l-9 -13q-2 -3 -5 -6.5t-4 -4.5l-6 -7l-4 -11l1 -4q1 -5 -1 -13l-1 -6l1 -4l2 -4l2 -4t1 -4l1 -6
l8 -10l12 -6l14 -8q6 -3 11 -8l4 -3l7 -3q9 -4 11 -5l4 -3l11 -4l8 -1q2 0 6 -0.5t6 -1.5l5 -2l12 -3l10 -4l12 -3l12 -2h9l15 -2l10 -1l38 2l9 1l7 2q5 2 13 2h6l15 5h1q6 2 14 4l7 2l2 1q7 3 13 5l7 2l4 4q8 6 11 8l5 2l11 8l7 5l12 9l5 9l8 13l7 11l3 8l1 13l1 10l2 24
l-2 13l-1 11l-6 12l-9 10l-9 7l-7 7l-11 8l-10 8l-20 10q-10 5 -10 12q0 6 3 11q1 2 8 7q6 5 13 6l7 2l10 10l9 8l5 7l11 14l3 12l4 13v23l-4 10l-5 14l-11 20l-2 3l-6 10l-2 5l-12 9l-2 1q-10 6 -12 8l-5 5l-8 3l-14 6l-12 3l-6 3l-5 1q-7 1 -12 4l-6 3l-9 -1h-4.5h-4.5h-3
l-5 1h-25zM728 491q-2 -5 -5 -11l-3 -5l-9 -11l-1 -3l-4 -12l-2 -5l-8 -14l-1 -3q-2 -5 -7 -12l-4 -5l-7 -13v-4q-1 -8 -4 -12l-3 -6l-6 -11l-6 -10l-2 -6q-2 -4 -7 -13l-4 -6v-2q-2 -9 -5 -14q-1 -2 -3.5 -5.5t-4.5 -5.5l-4 -4l-2 -5q-1 -5 -5 -13l-3 -5l-7 -10v-5
q-2 -9 -4 -12l-4 -4l-7 -13l-5 -11l-1 -3q-1 -7 -5 -14l-3 -6l-7 -9l-3 -10l-2 -4q-3 -8 -7 -13l-6 -8l-3 -8l-1 -5q-1 -6 -7 -12l-5 -4v-6q0 -7 -4 -13l-3 -4l-6 -12l-6 -11l-4 -10l-8 -12l-8 -14q-4 -8 -8 -12l-5 -5l-3 -2q-5 -7 -9 -8q-6 -3 -11 -4l-9 -2l-12 -1h-3
q-9 -2 -12 0l-5 2l-24 13v1q-8 7 -9 9l-1 5l-3 6q-4 8 -3 14l2 6l-1 9v7q0 3 2 11q2 7 5 11l4 7l3 14q1 5 7 13l5 6l1 2q2 5 6 13l3 7l6 11l5 8l5 12l1 5q1 8 4 12l3 5l1 4q1 7 6 13l4 6l1 3q1 7 6 13l5 6l6 8l1 3q1 6 6 14l4 5l5 13l2 4q1 3 5 11l2 5l2 5q1 6 7 12l4 4
l6 11l5 11v1q1 3 7 14l4 7l3 8l2 6q1 8 6 13l5 5l1 3q2 9 4 12l3 4l7 13l8 10v3q1 7 6 13l5 5v2q1 7 6 13l4 6l2 5q1 3 4 6.5t4 5.5l4 6l5 10l3 11l7 11q2 4 8 12l6 8l2 3q3 7 8 12q3 3 9 7l5 3l4 2q8 3 13 3q8 0 12 -1l6 -1q7 -1 14 -5l18 -10q9 -7 10 -8q4 -4 6 -11l1 -7
l2 -11l1 -4q0 -8 -1 -13q-1 -6 -4 -10l-4 -4l-1 -5q-2 -10 -3 -12l-3 -5zM1077 138q0 -9 -1 -12l-1 -5q-2 -10 -5 -12q-3 -3 -9 -5l-6 -1l-28 -1l-9 -3l-13 -7l-6 -12l3 -15q2 -8 -1 -16l-3 -8v-1q1 -10 -3 -14l-5 -5v-1q-5 -8 -12 -10l-7 -2l-3 -2q-7 -3 -13 -3h-6l-5 -1
q-10 -2 -15 -2h-22q-9 0 -12 1l-4 2l-17 -1h-13l-6 1h-5q-5 0 -13 4q-6 3 -9 6l-3 4l-1 1q-5 6 -6 13q-1 5 -1 12v7l-2 24v11h-37h-3q-5 -1 -14 -1l-8 1l-10 1h-26l-7 1h-5q-12 2 -15 3q-8 2 -11 5l-3 3l-8 2q-9 3 -11 5q-3 3 -7 9l-3 5l-3 4q-8 10 -8 11q-4 8 -4 11
q0 6 1 11l1 6l2 14v3q0 8 4 15l9 14l1 6q1 5 5 11t6 10q3 6 7 10l5 4l5 10l7 14l6 10l6 9l9 11l2 3q0 1 8 11l4 5l1 4q1 4 8 11l5 5q1 5 7 13v1q3 5 10 10l5 5q2 7 8 13l6 7q1 2 4 5.5t5 5.5l6 7l2 2q5 7 7 10l4 3l12 11q2 2 5 4.5t5 3.5l5 4l4 2q7 3 15 3h8l11 3l11 2l6 1
q8 2 13 0l5 -1l7 1q7 1 13 0l7 -1l5 1q7 1 11 0h3l17 -2l13 -1q7 -1 12 -4q6 -3 9 -7l3 -6l2 -7q2 -6 2 -12v-5l1 -6q2 -9 -1 -14l-3 -6l1 -23l1 -7q1 -2 1 -6l-1 -5v-5l1 -12l1 -4q3 -7 1 -14l-2 -6l1 -14l1 -3q1 -7 0 -14l-2 -6l1 -3q3 -9 3 -13v-5l2 -25l8 -7l12 -4
l14 -1l11 -3q9 -3 12 -7l3 -4l2 -3q6 -6 7 -11t0 -12l-2 -6l1 -11zM792 242l-9 -10l-4 -13l3 -8l23 -2l15 -3l10 7l6 18v12v13v4q0 5 2 11l1 4l-9 18l-19 -24l-5 -8z" />
    <glyph glyph-name="questiondown" unicode="&#xbf;" horiz-adv-x="400" 
d="M123 524l1 -10l5 -14l2 -3q8 -10 8 -11l3 -6l11 -10l6 -7l8 -2q9 -2 11 -4l4 -3l17 -1h19l15 3l10 4l13 4l4 4q3 4 9 8l4 3l3 6q2 6 9 11l5 5v3q0 6 3 15l3 7l-4 22l-1 12l-3 11l-7 11l-6 9l-11 11l-5 2q-6 3 -10 7l-3 3l-7 2q-12 2 -13 3l-7 2l-23 1l-14 -4l-11 -4
l-1 -1l-12 -9l-7 -5l-6 -7l-8 -9l-7 -9l-4 -12l-1 -13zM274 361q1 -6 1 -13v-6l-2 -11l1 -14v-2q4 -9 1 -14l-3 -6l1 -3q3 -9 3 -15l-1 -17v-13v-1q2 -8 0 -14l-6 -12l-4 -5v-1q-3 -7 -8 -11q-2 -2 -6 -3t-5 -2l-5 -2l-14 -7q-4 -2 -12 -4l-5 -2l-12 -6l-11 -7l-5 -8l-7 -8
v-11l5 -21l11 -11l6 -6h7h13l6 -1l12 2l24 11l11 6l7 6l11 7l10 5l14 6l12 3q7 3 13 1l4 -2l5 -3q8 -5 9 -10l2 -5l3 -6q3 -7 4 -12l1 -6l9 -18l3 -5q3 -7 3 -14q0 -9 -1 -12l-2 -4l-3 -6q-2 -6 -10 -12l-9 -7q-5 -4 -11 -7l-5 -3l-2 -2q-5 -6 -12 -8l-7 -2l-8 -4l-3 -2
q-7 -4 -14 -5l-7 -1l-13 -6l-2 -1l-15 -3l-13 -2l-14 -2h-3q-10 0 -15 1l-8 2l-10 1l-3 -1q-6 -1 -13 2l-5 2l-9 1q-2 0 -6 0.5t-6 1.5l-4 2l-10 2l-6 2q-10 4 -12 5l-6 4l-12 7l-6 5l-7 5q-8 6 -11 10l-5 6q-3 4 -7 10l-2 5l-5 11l-3 3q-7 7 -7 11l-1 6l-2 5q-4 8 -5 12
q-1 5 -1 13l1 6l-1 3q-3 9 -3 14l1 7v2q2 11 3 14l3 7v1q-2 10 2 15l4 6l5 11l3 9l8 14q6 8 9 11l6 5l9 8l1 2q1 2 11 9l7 5l18 15l8 13l-2 8q-2 9 0 11l2 2l-1 10q0 10 1 15l6 21v1q-1 8 3 13l4 5l1 2q3 8 10 11l8 3l3 2q5 3 13 3h6l19 1l12 -1h7h14q7 -2 9 -4q5 -2 8 -6
l3 -4l4 -4q8 -5 9 -13z" />
    <glyph glyph-name="Agrave" unicode="&#xc0;" horiz-adv-x="614" 
d="M383 687l11 8l8 10l9 10l2 11v2q-1 6 -1 13v7l-10 18l-10 11l-1 1q-1 2 -7 13l-2 6l-10 8l-3 2q-9 7 -10 9l-3 4l-6 5q-6 5 -8 8l-3 4l-9 10l-3 1q-8 3 -13 7l-6 4l-13 5l-11 3l-11 -1l-21 -1l-13 -6l-8 -5l-13 -8l-6 -8l-9 -9l-9 -11l-1 -12v-11l1 -10l10 -21l7 -5
q8 -6 9 -7l2 -3l13 -11l9 -8l3 -3q9 -7 10 -8l3 -4l10 -9l9 -7l11 -8l19 -16l3 -1q8 -2 13 -4l7 -3h11l11 2l12 4zM334 90h-6q-5 0 -13 2l-5 1l-5 -1q-10 -2 -13 -1l-5 1l-22 -2h-14l-6 1l-11 -3l-9 -6l-12 -7l-6 -15q-1 -4 -6 -11l-3 -5l-4 -6q-6 -8 -8 -10l-4 -3l-3 -5
q-1 -2 -2.5 -3.5t-3.5 -3t-3 -2.5q-3 -3 -11 -5l-6 -1l-12 -3l-10 -1l-14 -2l-4 -1h-12h-4h-26h-12l-15 1l-3 1q-5 1 -13 5l-6 4l-3 2q-9 7 -10 8q-4 5 -4 11v7l-2 3q-3 7 -1 13l3 4l1 7q0 1 5 13l3 6l6 22l5 12l1 4q3 8 7 13l4 5l5 11l3 10v3q1 7 6 13l4 6v3q1 3 2 6.5
t1 5.5q1 7 5 12l5 7v5q0 9 1 12l2 5l5 9l9 14l4 10l1 11l1 6l4 12q1 4 6 10l5 5l4 10v4q0 4 4 14l3 6l5 13v2q1 6 5 12l3 5l6 11v4q0 7 4 14l5 6v2q0 4 2 14l2 7l2 4q3 8 7 13l4 5l4 11l1 3q2 9 4 12l3 4l6 14v3q0 6 3 13l2 6l3 8l9 17q3 6 8 11l4 5l2 4q2 5 6 11l3 4l11 11
q3 6 12 9l7 2l10 3l15 2h9h11h23l13 -1h6q4 0 14 -2l7 -1l6 -2q9 -4 11 -5l4 -2l1 -1q7 -3 11 -8l5 -5l3 -3q7 -7 8 -11l2 -6l10 -21l5 -14l6 -10l4 -10l5 -13l3 -4q4 -5 6 -12v-5l3 -12l6 -9l3 -5q4 -6 6 -12l1 -6l2 -13l2 -3q4 -6 6 -13l2 -6l3 -4q3 -4 7 -12l2 -6l3 -6
q3 -7 3 -12v-5l3 -4q5 -8 5 -11l1 -6l4 -14l2 -3q4 -6 6 -11l1 -6l5 -7q4 -7 4 -13v-5l5 -11l4 -5q4 -5 4 -11l1 -4l2 -12l3 -7q4 -8 5 -12l2 -6l2 -3q5 -5 5 -12v-5l7 -14l3 -5q3 -7 4 -12l2 -4l4 -11l3 -12l5 -12l3 -10l7 -15q3 -7 4 -13l1 -6l3 -14l1 -2q3 -8 1 -14
l-1 -7l-1 -8l-2 -4q-1 -7 -4 -10q-1 -1 -4 -3t-5 -3q-5 -4 -11 -4h-6l-4 -1q-6 -2 -14 -2h-7l-6 -2q-8 -2 -15 -1l-16 2l-9 -1q-7 -1 -11 0h-5l-12 2l-5 1q-8 2 -13 4l-7 2l-12 6l-5 3q-9 5 -10 8l-3 5l-6 10l-8 10l-11 17q-5 6 -6 11l-2 6l-13 6l-11 2zM315 351l-11 -2
l-15 -22l-7 -9l-1 -5q-1 -7 -6 -12l-4 -4v-2q0 -7 -3 -15l-3 -7v-4q0 -7 -3 -12l-2 -4l2 -12l8 -19l14 -6l10 -1h24l11 2l9 2l15 18v12l-2 12l-1 5q-2 10 -2 12v6l-9 14l-1 3q-1 2 -1.5 4.5t-1.5 4.5t-1 3l-1 5l-7 14z" />
    <glyph glyph-name="Aacute" unicode="&#xc1;" horiz-adv-x="614" 
d="M271 676l9 -8l12 -2l12 3l13 1l5 4q4 3 12 7l16 9l7 6l10 9l9 10l9 9l3 2q2 2 5.5 5t5.5 4l8 5l9 9l7 8l6 9l19 20l2 10l-4 12l-6 10l-6 12l-4 6l-9 10l-13 8l-11 5l-10 3l-22 6l-13 -1l-12 -2l-5 -4q-6 -5 -9 -6l-3 -1l-15 -10l-7 -5l-11 -9l-5 -8l-8 -7l-10 -10l-9 -10
l-8 -10l-1 -1q-1 -2 -2.5 -6.5t-2.5 -6.5l-4 -6l-12 -18l-1 -11l1 -10l3 -11l3 -8l8 -9l12 -8zM335 91l-12 1l-11 1h-28l-23 -2l-11 -1l-16 -4l-10 -1l-12 -10l-11 -22l-3 -8l-6 -13l-1 -2q-3 -5 -10 -10l-7 -4l-4 -4q-4 -4 -10 -6l-5 -2l-7 -1q-10 -2 -11 -2l-4 1l-16 -2
h-11l-28 -3q-7 -1 -14 0l-7 1l-12 1l-3 1q-1 0 -13 5l-2 1q-9 4 -11 5l-4 3l-4 4q-7 7 -7 11v11l1 5l2 12l3 13l5 13l6 15q2 5 6 13l3 5v4q2 8 4 13l3 6l6 9l4 10l4 12l1 3q1 6 5 14l4 8l4 10v1q1 7 5 14l4 6l5 13v1q0 9 4 13l5 6v6q0 9 3 13l2 5l1 2q1 4 5 13l4 7l1 3
q1 3 6 13l3 5l2 13v3q1 6 4 12l3 6l4 10l8 14v2q0 6 3 14q1 3 5 7q1 2 2 3l4 4l4 14l4 11l1 3q0 2 0.5 6t1.5 6l2 4l7 14l5 8l5 14v2q0 6 5 14l3 6l5 8l4 11l9 24v2q1 5 7 13q3 5 8 10l4 3l10 8l5 4q5 5 10 7l4 1l5 3q5 2 13 4q4 1 11 1l5 -1h13l26 1h5q6 1 13 -1l4 -1
l15 -2l7 -2l6 -2q9 -3 11 -7l3 -4l6 -4q7 -4 10 -10l3 -7l4 -9l8 -14q5 -6 6 -13l2 -7l2 -2q4 -6 5 -13l1 -6l4 -11l4 -5q4 -6 6 -11v-5l4 -11l5 -8q1 -2 3.5 -5t3.5 -5q3 -7 4 -10l1 -6l3 -12l3 -12l5 -12l2 -4q3 -4 5 -11l1 -4l5 -12l4 -13l2 -4l3 -6t3 -7l2 -7l6 -10
l4 -12l4 -10l4 -5q2 -3 5 -11l1 -5l1 -13l4 -5q2 -3 5 -11l2 -5l3 -6q5 -12 5 -13l1 -6l6 -12v-2q4 -7 4 -13v-6l4 -7q5 -8 5 -11l-1 -4l4 -5q6 -6 6 -12v-6l4 -14l4 -10l4 -10l10 -25l5 -10l1 -4q3 -9 2 -13l-1 -5l1 -14v-1q2 -9 0 -13q-2 -5 -8 -8l-5 -2l-2 -2
q-6 -6 -14 -6h-7l-15 -2h-1q-1 0 -6 -1.5t-8 -1.5h-9l-15 -1h-13l-6 1l-15 1l-13 1q-7 0 -14 5l-6 3l-6 3q-10 4 -12 6l-4 3l-5 4q-5 4 -9 10l-3 5l-6 11l-15 22l-9 10l-6 7l-17 2h-25zM313 349l-11 -1l-16 -20l-6 -11l-1 -3q-1 -7 -4 -12l-2 -4l-2 -6q-1 -4 -5 -13l-3 -6
v-4v-12l-1 -5l1 -12l9 -19l9 -4l14 -3l20 2l12 2l11 4l16 15l1 11l-3 13l-2 6q-2 6 -2 13v6l-6 12l-5 10l-2 3q-3 3 -5 13l-2 7z" />
    <glyph glyph-name="Acircumflex" unicode="&#xc2;" horiz-adv-x="614" 
d="M417 671q-7 -4 -14 -4t-12 4l-6 4l-10 7l-2 2q-7 5 -9 10l-3 5l-10 12l-19 21l-6 7l-7 7l-24 3l-11 -8l-7 -9l-7 -15q-2 -5 -7 -10l-3 -4l-10 -9l-12 -9l-2 -3q-3 -4 -11 -10q-6 -4 -11 -6q-6 -2 -9 -2h-4l-6 1q-5 0 -15 4l-14 8l-6 3q-7 5 -8 7l-2 2l-9 10l-1 3
q-1 2 -4 5.5t-4 6.5q-4 8 -3 13q1 6 4 10l3 4l8 16q3 5 8 10l5 3l6 10l2 5q3 7 7 11q5 5 11 8l6 3l8 9l3 3q3 4 9 8l4 2l11 8l12 8q5 4 13 7l8 3l3 2q7 4 13 4l7 -1l5 2q8 3 15 2l15 -2h4q10 0 15 -1l8 -1l3 -1q11 -5 12 -5l6 -3l15 -11q6 -5 8 -8l2 -3l11 -6l5 -3
q8 -4 9 -9l2 -5l12 -9l7 -8l3 -2q7 -5 9 -10l3 -6l4 -3q7 -7 9 -12l3 -6q4 -10 4 -12v-6l1 -4q1 -6 -2 -14l-3 -6l-1 -2q-2 -8 -7 -12q-3 -3 -10 -9q-2 -1 -11 -6l-6 -2zM333 91l-8 1l-16 1l-2 -1q-5 -2 -14 -2h-8h-24l-16 -1l-12 -3l-12 -3l-7 -5l-12 -25l-5 -9l-2 -5
q-1 -6 -5 -12q-3 -5 -8 -8l-5 -3l-5 -4q-4 -3 -10 -7q-2 -1 -12 -3l-9 -1l-12 1l-4 -1q-7 -3 -12 -3h-5h-16l-18 -1h-12q-8 0 -12 2l-7 2l-4 1q-5 0 -13 2q-5 1 -9 7l-4 5l-3 3q-8 7 -7 10l2 5l-2 4q-1 7 0 14q1 8 4 12l2 5l1 4q1 6 5 14l9 17l1 5q0 9 2 13l3 4l2 4l6 12
l4 5v4q0 7 3 14l3 8l4 9l5 10l3 7q4 9 5 11l3 4l4 12l4 11l2 12l3 12l3 10l2 5q3 8 7 12l4 5l2 5q1 8 4 13l3 5l2 11l1 3q2 10 5 14l5 5v3q1 6 3 14l6 12l3 6l2 9l2 6q2 6 6 12l4 4l-1 3q0 9 3 15l3 6l8 11l1 11v2q1 3 7 12l5 5v7q0 6 2 12q1 5 6 10l3 5l5 12l4 9l12 24v3
q1 8 6 13l5 4l2 3q2 3 5 6.5t4 4.5l4 4l1 1q5 6 13 8l7 1l12 5h2q10 2 14 2h6l15 1l17 1h11l4 -1l14 -3h7q9 0 13 -2q8 -4 11 -6l5 -3l3 -2q6 -2 11 -9q1 -2 3 -5.5t3 -4.5l3 -5l1 -1q6 -8 8 -13l8 -16l2 -4q4 -10 4 -13l1 -6l6 -11l5 -11l4 -12l3 -5q6 -8 6 -12v-5l3 -3
q6 -6 7 -11l1 -7l4 -12l2 -12l4 -4q6 -7 7 -12l2 -7l1 -11l4 -5q4 -6 6 -11l2 -6l2 -9l4 -7q3 -8 4 -12l1 -6l3 -3q7 -10 8 -12q2 -8 2 -11v-7l5 -10l3 -6q5 -6 6 -12l1 -7l3 -6l3 -6t2 -5l2 -5l2 -11l3 -5q4 -10 4 -12l1 -4l3 -12l4 -5q4 -7 4 -13v-6l6 -12l3 -4
q3 -3 5 -13l1 -7l5 -11l1 -2q4 -7 4 -14v-7l8 -13q4 -5 5 -12l1 -7l2 -3q4 -8 3 -13l-2 -5l2 -6q3 -8 2 -12q-1 -2 -4 -9q-4 -6 -7 -10q-1 -1 -10 -7q-3 -2 -9 -4l-5 -1l-18 -1q-8 -3 -15 -2l-9 1l-18 -2q-6 -1 -12 1l-4 1l-8 -1q-8 -2 -12 0l-5 1l-7 1l-12 3q-2 0 -10 6
l-5 3l-10 7l-10 9l-5 4q-7 5 -8 10l-2 5l-14 24l-7 9l-12 9l-10 3zM314 352l-14 -3l-14 -19l-1 -5q-1 -7 -6 -12l-4 -4v-6q0 -9 -3 -13l-4 -5v-3q0 -5 -4 -13l-3 -7l-3 -9l5 -14l9 -20l7 -3l17 -3h18l5 2q8 3 13 3l7 1l13 21l3 8l-2 13l-5 14l-5 10l-1 4q-3 8 -3 13l-1 6
l-2 3q-5 5 -5 12v6z" />
    </font>
</defs>
</svg>
